<?xml version="1.0" encoding="utf-8" standalone="no"?>
<!DOCTYPE svg PUBLIC "-//W3C//DTD SVG 1.1//EN"
  "http://www.w3.org/Graphics/SVG/1.1/DTD/svg11.dtd">
<!-- Created with matplotlib (http://matplotlib.org/) -->
<svg height="360pt" version="1.1" viewBox="0 0 720 360" width="720pt" xmlns="http://www.w3.org/2000/svg" xmlns:xlink="http://www.w3.org/1999/xlink">
 <defs>
  <style type="text/css">
*{stroke-linecap:butt;stroke-linejoin:round;}
  </style>
 </defs>
 <g id="figure_1">
  <g id="patch_1">
   <path d="M 0 360 
L 720 360 
L 720 0 
L 0 0 
z
" style="fill:#ffffff;"/>
  </g>
  <g id="axes_1">
   <g id="patch_2">
    <path d="M 90 315 
L 648 315 
L 648 43.2 
L 90 43.2 
z
" style="fill:#ffffff;"/>
   </g>
   <g id="PolyCollection_1">
    <path clip-path="url(#p87960a7f84)" d="M 90 272.516934 
L 90 302.645455 
L 99.3 225.50878 
L 108.6 228.196285 
L 117.9 226.941529 
L 127.2 235.995552 
L 136.5 227.728624 
L 145.8 229.252289 
L 155.1 221.839224 
L 164.4 222.218965 
L 173.7 214.284825 
L 183 218.295748 
L 192.3 206.670203 
L 201.6 209.096032 
L 210.9 208.732148 
L 220.2 218.331707 
L 229.5 203.911564 
L 238.8 210.821853 
L 248.1 201.821132 
L 257.4 217.955489 
L 266.7 198.195077 
L 276 206.052941 
L 285.3 202.093544 
L 294.6 194.677057 
L 303.9 199.28357 
L 313.2 197.528425 
L 322.5 203.684406 
L 331.8 199.755911 
L 341.1 190.302496 
L 350.4 205.445631 
L 359.7 207.429341 
L 369 205.069726 
L 378.3 206.719999 
L 387.6 196.855927 
L 396.9 197.254353 
L 406.2 199.42594 
L 415.5 194.148377 
L 424.8 196.048156 
L 434.1 196.637893 
L 443.4 189.296571 
L 452.7 203.999097 
L 462 197.746599 
L 471.3 190.178593 
L 480.6 178.779005 
L 489.9 200.359411 
L 499.2 183.314129 
L 508.5 194.840369 
L 517.8 181.925346 
L 527.1 181.132206 
L 536.4 190.22976 
L 545.7 187.147699 
L 555 196.3635 
L 564.3 189.38398 
L 573.6 188.527712 
L 582.9 188.899063 
L 592.2 194.480288 
L 601.5 195.235403 
L 610.8 198.813497 
L 620.1 191.910832 
L 629.4 193.074748 
L 638.7 191.506773 
L 638.7 149.776298 
L 638.7 149.776298 
L 629.4 153.099901 
L 620.1 147.174122 
L 610.8 137.929567 
L 601.5 148.017324 
L 592.2 150.153006 
L 582.9 147.087474 
L 573.6 145.717775 
L 564.3 139.055778 
L 555 138.520856 
L 545.7 151.490897 
L 536.4 152.070272 
L 527.1 148.64923 
L 517.8 151.769485 
L 508.5 153.51737 
L 499.2 152.719654 
L 489.9 151.193458 
L 480.6 162.22297 
L 471.3 148.703373 
L 462 145.022721 
L 452.7 142.790339 
L 443.4 142.80419 
L 434.1 139.053525 
L 424.8 153.34069 
L 415.5 150.37729 
L 406.2 147.855078 
L 396.9 160.111885 
L 387.6 147.87954 
L 378.3 142.562667 
L 369 149.562552 
L 359.7 153.229984 
L 350.4 149.631531 
L 341.1 161.620058 
L 331.8 150.705716 
L 322.5 140.120763 
L 313.2 156.201201 
L 303.9 159.815642 
L 294.6 158.020371 
L 285.3 158.685228 
L 276 164.301521 
L 266.7 163.209503 
L 257.4 156.866565 
L 248.1 162.628123 
L 238.8 159.066515 
L 229.5 168.688081 
L 220.2 160.131834 
L 210.9 159.779991 
L 201.6 165.647006 
L 192.3 174.170167 
L 183 166.157598 
L 173.7 171.783806 
L 164.4 170.964769 
L 155.1 172.889235 
L 145.8 175.334633 
L 136.5 183.385533 
L 127.2 187.1732 
L 117.9 196.365178 
L 108.6 198.480915 
L 99.3 185.349681 
L 90 272.516934 
z
" style="fill:#1f77b4;fill-opacity:0.5;"/>
   </g>
   <g id="PolyCollection_2">
    <path clip-path="url(#p87960a7f84)" d="M 90 277.614559 
L 90 298.295051 
L 99.3 251.706426 
L 108.6 254.83714 
L 117.9 257.203745 
L 127.2 257.322895 
L 136.5 248.58877 
L 145.8 243.017766 
L 155.1 244.216883 
L 164.4 239.975122 
L 173.7 239.652012 
L 183 247.681861 
L 192.3 243.086654 
L 201.6 237.883062 
L 210.9 236.191315 
L 220.2 237.066813 
L 229.5 233.349225 
L 238.8 235.73187 
L 248.1 233.921247 
L 257.4 228.115314 
L 266.7 233.216034 
L 276 239.589861 
L 285.3 226.405359 
L 294.6 236.729736 
L 303.9 234.993985 
L 313.2 227.961412 
L 322.5 225.641848 
L 331.8 230.842518 
L 341.1 230.459227 
L 350.4 230.606749 
L 359.7 227.805086 
L 369 228.07543 
L 378.3 224.922028 
L 387.6 229.000911 
L 396.9 223.34615 
L 406.2 225.890082 
L 415.5 227.391686 
L 424.8 227.03597 
L 434.1 225.283113 
L 443.4 230.059166 
L 452.7 222.981557 
L 462 224.417702 
L 471.3 227.01088 
L 480.6 212.901187 
L 489.9 220.248123 
L 499.2 223.121463 
L 508.5 228.44975 
L 517.8 218.875912 
L 527.1 224.290986 
L 536.4 218.232925 
L 545.7 218.588532 
L 555 212.838647 
L 564.3 224.0685 
L 573.6 226.350711 
L 582.9 230.973098 
L 592.2 221.149839 
L 601.5 218.449724 
L 610.8 222.595217 
L 620.1 218.927598 
L 629.4 214.214553 
L 638.7 221.189704 
L 638.7 191.701863 
L 638.7 191.701863 
L 629.4 195.115891 
L 620.1 192.447652 
L 610.8 187.896288 
L 601.5 188.974802 
L 592.2 188.958657 
L 582.9 184.998945 
L 573.6 193.13989 
L 564.3 197.344427 
L 555 195.962665 
L 545.7 191.377444 
L 536.4 192.802037 
L 527.1 189.193916 
L 517.8 192.587881 
L 508.5 193.506653 
L 499.2 193.066743 
L 489.9 200.221218 
L 480.6 196.71744 
L 471.3 197.002388 
L 462 197.010148 
L 452.7 192.129658 
L 443.4 189.299699 
L 434.1 194.469934 
L 424.8 195.432982 
L 415.5 197.355773 
L 406.2 197.37435 
L 396.9 202.116142 
L 387.6 199.039035 
L 378.3 195.637581 
L 369 198.326981 
L 359.7 196.799627 
L 350.4 201.074137 
L 341.1 203.136764 
L 331.8 202.581293 
L 322.5 203.614351 
L 313.2 202.848631 
L 303.9 197.775489 
L 294.6 203.776513 
L 285.3 204.654991 
L 276 208.327035 
L 266.7 207.943984 
L 257.4 213.804469 
L 248.1 208.039796 
L 238.8 215.037418 
L 229.5 213.968422 
L 220.2 207.459065 
L 210.9 210.878529 
L 201.6 209.684754 
L 192.3 213.628952 
L 183 206.397587 
L 173.7 218.642298 
L 164.4 219.254661 
L 155.1 213.555663 
L 145.8 221.69325 
L 136.5 221.579933 
L 127.2 219.279264 
L 117.9 225.642003 
L 108.6 233.413297 
L 99.3 234.082392 
L 90 277.614559 
z
" style="fill:#ff7f0e;fill-opacity:0.5;"/>
   </g>
   <g id="PolyCollection_3">
    <path clip-path="url(#p87960a7f84)" d="M 90 279.209272 
L 90 300.161017 
L 99.3 253.148653 
L 108.6 248.332331 
L 117.9 238.037201 
L 127.2 237.57063 
L 136.5 245.51302 
L 145.8 230.598232 
L 155.1 228.624147 
L 164.4 223.736954 
L 173.7 226.488619 
L 183 219.733408 
L 192.3 211.33392 
L 201.6 225.307956 
L 210.9 213.21596 
L 220.2 195.789984 
L 229.5 190.554445 
L 238.8 190.68622 
L 248.1 198.101084 
L 257.4 181.285518 
L 266.7 191.133795 
L 276 179.001696 
L 285.3 185.957649 
L 294.6 175.263895 
L 303.9 176.904087 
L 313.2 168.667072 
L 322.5 157.784172 
L 331.8 165.093005 
L 341.1 163.15249 
L 350.4 148.134716 
L 359.7 147.291651 
L 369 160.024522 
L 378.3 149.723217 
L 387.6 140.265847 
L 396.9 145.680771 
L 406.2 154.661206 
L 415.5 150.465459 
L 424.8 150.902681 
L 434.1 140.869715 
L 443.4 142.473013 
L 452.7 132.875669 
L 462 126.129979 
L 471.3 136.928284 
L 480.6 143.878644 
L 489.9 129.141418 
L 499.2 144.859145 
L 508.5 135.215455 
L 517.8 132.102201 
L 527.1 128.546244 
L 536.4 132.710243 
L 545.7 131.419862 
L 555 121.910646 
L 564.3 125.652522 
L 573.6 134.051158 
L 582.9 114.52728 
L 592.2 120.796267 
L 601.5 128.081712 
L 610.8 122.436217 
L 620.1 116.845046 
L 629.4 122.787164 
L 638.7 127.587269 
L 638.7 68.29333 
L 638.7 68.29333 
L 629.4 75.441485 
L 620.1 76.194244 
L 610.8 59.687975 
L 601.5 80.690403 
L 592.2 67.581259 
L 582.9 64.930716 
L 573.6 64.564819 
L 564.3 81.226159 
L 555 55.613051 
L 545.7 55.554545 
L 536.4 65.520736 
L 527.1 66.067322 
L 517.8 75.388125 
L 508.5 64.700523 
L 499.2 62.637193 
L 489.9 68.379395 
L 480.6 69.339803 
L 471.3 70.697693 
L 462 82.607869 
L 452.7 86.402984 
L 443.4 92.298617 
L 434.1 80.413255 
L 424.8 80.178024 
L 415.5 86.945127 
L 406.2 81.023644 
L 396.9 92.181107 
L 387.6 107.161832 
L 378.3 90.048298 
L 369 107.514003 
L 359.7 97.654994 
L 350.4 104.117286 
L 341.1 101.190053 
L 331.8 116.45424 
L 322.5 103.116612 
L 313.2 106.477272 
L 303.9 109.629276 
L 294.6 121.442782 
L 285.3 125.038906 
L 276 131.590264 
L 266.7 126.985024 
L 257.4 132.329365 
L 248.1 132.037233 
L 238.8 153.201069 
L 229.5 142.59773 
L 220.2 160.99466 
L 210.9 159.620543 
L 201.6 153.099767 
L 192.3 165.859526 
L 183 168.010476 
L 173.7 169.621681 
L 164.4 176.922187 
L 155.1 187.13454 
L 145.8 186.239683 
L 136.5 196.141336 
L 127.2 196.028503 
L 117.9 200.930482 
L 108.6 211.496981 
L 99.3 221.559436 
L 90 279.209272 
z
" style="fill:#2ca02c;fill-opacity:0.5;"/>
   </g>
   <g id="matplotlib.axis_1">
    <g id="xtick_1">
     <g id="line2d_1">
      <defs>
       <path d="M 0 0 
L 0 3.5 
" id="m18d7687401" style="stroke:#000000;stroke-width:0.8;"/>
      </defs>
      <g>
       <use style="stroke:#000000;stroke-width:0.8;" x="90" xlink:href="#m18d7687401" y="315"/>
      </g>
     </g>
     <g id="text_1">
      <!-- 0 -->
      <defs>
       <path d="M 31.78125 66.40625 
Q 24.171875 66.40625 20.328125 58.90625 
Q 16.5 51.421875 16.5 36.375 
Q 16.5 21.390625 20.328125 13.890625 
Q 24.171875 6.390625 31.78125 6.390625 
Q 39.453125 6.390625 43.28125 13.890625 
Q 47.125 21.390625 47.125 36.375 
Q 47.125 51.421875 43.28125 58.90625 
Q 39.453125 66.40625 31.78125 66.40625 
z
M 31.78125 74.21875 
Q 44.046875 74.21875 50.515625 64.515625 
Q 56.984375 54.828125 56.984375 36.375 
Q 56.984375 17.96875 50.515625 8.265625 
Q 44.046875 -1.421875 31.78125 -1.421875 
Q 19.53125 -1.421875 13.0625 8.265625 
Q 6.59375 17.96875 6.59375 36.375 
Q 6.59375 54.828125 13.0625 64.515625 
Q 19.53125 74.21875 31.78125 74.21875 
z
" id="DejaVuSans-30"/>
      </defs>
      <g transform="translate(86.81875 329.598437)scale(0.1 -0.1)">
       <use xlink:href="#DejaVuSans-30"/>
      </g>
     </g>
    </g>
    <g id="xtick_2">
     <g id="line2d_2">
      <g>
       <use style="stroke:#000000;stroke-width:0.8;" x="183" xlink:href="#m18d7687401" y="315"/>
      </g>
     </g>
     <g id="text_2">
      <!-- 10 -->
      <defs>
       <path d="M 12.40625 8.296875 
L 28.515625 8.296875 
L 28.515625 63.921875 
L 10.984375 60.40625 
L 10.984375 69.390625 
L 28.421875 72.90625 
L 38.28125 72.90625 
L 38.28125 8.296875 
L 54.390625 8.296875 
L 54.390625 0 
L 12.40625 0 
z
" id="DejaVuSans-31"/>
      </defs>
      <g transform="translate(176.6375 329.598437)scale(0.1 -0.1)">
       <use xlink:href="#DejaVuSans-31"/>
       <use x="63.623047" xlink:href="#DejaVuSans-30"/>
      </g>
     </g>
    </g>
    <g id="xtick_3">
     <g id="line2d_3">
      <g>
       <use style="stroke:#000000;stroke-width:0.8;" x="276" xlink:href="#m18d7687401" y="315"/>
      </g>
     </g>
     <g id="text_3">
      <!-- 20 -->
      <defs>
       <path d="M 19.1875 8.296875 
L 53.609375 8.296875 
L 53.609375 0 
L 7.328125 0 
L 7.328125 8.296875 
Q 12.9375 14.109375 22.625 23.890625 
Q 32.328125 33.6875 34.8125 36.53125 
Q 39.546875 41.84375 41.421875 45.53125 
Q 43.3125 49.21875 43.3125 52.78125 
Q 43.3125 58.59375 39.234375 62.25 
Q 35.15625 65.921875 28.609375 65.921875 
Q 23.96875 65.921875 18.8125 64.3125 
Q 13.671875 62.703125 7.8125 59.421875 
L 7.8125 69.390625 
Q 13.765625 71.78125 18.9375 73 
Q 24.125 74.21875 28.421875 74.21875 
Q 39.75 74.21875 46.484375 68.546875 
Q 53.21875 62.890625 53.21875 53.421875 
Q 53.21875 48.921875 51.53125 44.890625 
Q 49.859375 40.875 45.40625 35.40625 
Q 44.1875 33.984375 37.640625 27.21875 
Q 31.109375 20.453125 19.1875 8.296875 
z
" id="DejaVuSans-32"/>
      </defs>
      <g transform="translate(269.6375 329.598437)scale(0.1 -0.1)">
       <use xlink:href="#DejaVuSans-32"/>
       <use x="63.623047" xlink:href="#DejaVuSans-30"/>
      </g>
     </g>
    </g>
    <g id="xtick_4">
     <g id="line2d_4">
      <g>
       <use style="stroke:#000000;stroke-width:0.8;" x="369" xlink:href="#m18d7687401" y="315"/>
      </g>
     </g>
     <g id="text_4">
      <!-- 30 -->
      <defs>
       <path d="M 40.578125 39.3125 
Q 47.65625 37.796875 51.625 33 
Q 55.609375 28.21875 55.609375 21.1875 
Q 55.609375 10.40625 48.1875 4.484375 
Q 40.765625 -1.421875 27.09375 -1.421875 
Q 22.515625 -1.421875 17.65625 -0.515625 
Q 12.796875 0.390625 7.625 2.203125 
L 7.625 11.71875 
Q 11.71875 9.328125 16.59375 8.109375 
Q 21.484375 6.890625 26.8125 6.890625 
Q 36.078125 6.890625 40.9375 10.546875 
Q 45.796875 14.203125 45.796875 21.1875 
Q 45.796875 27.640625 41.28125 31.265625 
Q 36.765625 34.90625 28.71875 34.90625 
L 20.21875 34.90625 
L 20.21875 43.015625 
L 29.109375 43.015625 
Q 36.375 43.015625 40.234375 45.921875 
Q 44.09375 48.828125 44.09375 54.296875 
Q 44.09375 59.90625 40.109375 62.90625 
Q 36.140625 65.921875 28.71875 65.921875 
Q 24.65625 65.921875 20.015625 65.03125 
Q 15.375 64.15625 9.8125 62.3125 
L 9.8125 71.09375 
Q 15.4375 72.65625 20.34375 73.4375 
Q 25.25 74.21875 29.59375 74.21875 
Q 40.828125 74.21875 47.359375 69.109375 
Q 53.90625 64.015625 53.90625 55.328125 
Q 53.90625 49.265625 50.4375 45.09375 
Q 46.96875 40.921875 40.578125 39.3125 
z
" id="DejaVuSans-33"/>
      </defs>
      <g transform="translate(362.6375 329.598437)scale(0.1 -0.1)">
       <use xlink:href="#DejaVuSans-33"/>
       <use x="63.623047" xlink:href="#DejaVuSans-30"/>
      </g>
     </g>
    </g>
    <g id="xtick_5">
     <g id="line2d_5">
      <g>
       <use style="stroke:#000000;stroke-width:0.8;" x="462" xlink:href="#m18d7687401" y="315"/>
      </g>
     </g>
     <g id="text_5">
      <!-- 40 -->
      <defs>
       <path d="M 37.796875 64.3125 
L 12.890625 25.390625 
L 37.796875 25.390625 
z
M 35.203125 72.90625 
L 47.609375 72.90625 
L 47.609375 25.390625 
L 58.015625 25.390625 
L 58.015625 17.1875 
L 47.609375 17.1875 
L 47.609375 0 
L 37.796875 0 
L 37.796875 17.1875 
L 4.890625 17.1875 
L 4.890625 26.703125 
z
" id="DejaVuSans-34"/>
      </defs>
      <g transform="translate(455.6375 329.598437)scale(0.1 -0.1)">
       <use xlink:href="#DejaVuSans-34"/>
       <use x="63.623047" xlink:href="#DejaVuSans-30"/>
      </g>
     </g>
    </g>
    <g id="xtick_6">
     <g id="line2d_6">
      <g>
       <use style="stroke:#000000;stroke-width:0.8;" x="555" xlink:href="#m18d7687401" y="315"/>
      </g>
     </g>
     <g id="text_6">
      <!-- 50 -->
      <defs>
       <path d="M 10.796875 72.90625 
L 49.515625 72.90625 
L 49.515625 64.59375 
L 19.828125 64.59375 
L 19.828125 46.734375 
Q 21.96875 47.46875 24.109375 47.828125 
Q 26.265625 48.1875 28.421875 48.1875 
Q 40.625 48.1875 47.75 41.5 
Q 54.890625 34.8125 54.890625 23.390625 
Q 54.890625 11.625 47.5625 5.09375 
Q 40.234375 -1.421875 26.90625 -1.421875 
Q 22.3125 -1.421875 17.546875 -0.640625 
Q 12.796875 0.140625 7.71875 1.703125 
L 7.71875 11.625 
Q 12.109375 9.234375 16.796875 8.0625 
Q 21.484375 6.890625 26.703125 6.890625 
Q 35.15625 6.890625 40.078125 11.328125 
Q 45.015625 15.765625 45.015625 23.390625 
Q 45.015625 31 40.078125 35.4375 
Q 35.15625 39.890625 26.703125 39.890625 
Q 22.75 39.890625 18.8125 39.015625 
Q 14.890625 38.140625 10.796875 36.28125 
z
" id="DejaVuSans-35"/>
      </defs>
      <g transform="translate(548.6375 329.598437)scale(0.1 -0.1)">
       <use xlink:href="#DejaVuSans-35"/>
       <use x="63.623047" xlink:href="#DejaVuSans-30"/>
      </g>
     </g>
    </g>
    <g id="xtick_7">
     <g id="line2d_7">
      <g>
       <use style="stroke:#000000;stroke-width:0.8;" x="648" xlink:href="#m18d7687401" y="315"/>
      </g>
     </g>
     <g id="text_7">
      <!-- 60 -->
      <defs>
       <path d="M 33.015625 40.375 
Q 26.375 40.375 22.484375 35.828125 
Q 18.609375 31.296875 18.609375 23.390625 
Q 18.609375 15.53125 22.484375 10.953125 
Q 26.375 6.390625 33.015625 6.390625 
Q 39.65625 6.390625 43.53125 10.953125 
Q 47.40625 15.53125 47.40625 23.390625 
Q 47.40625 31.296875 43.53125 35.828125 
Q 39.65625 40.375 33.015625 40.375 
z
M 52.59375 71.296875 
L 52.59375 62.3125 
Q 48.875 64.0625 45.09375 64.984375 
Q 41.3125 65.921875 37.59375 65.921875 
Q 27.828125 65.921875 22.671875 59.328125 
Q 17.53125 52.734375 16.796875 39.40625 
Q 19.671875 43.65625 24.015625 45.921875 
Q 28.375 48.1875 33.59375 48.1875 
Q 44.578125 48.1875 50.953125 41.515625 
Q 57.328125 34.859375 57.328125 23.390625 
Q 57.328125 12.15625 50.6875 5.359375 
Q 44.046875 -1.421875 33.015625 -1.421875 
Q 20.359375 -1.421875 13.671875 8.265625 
Q 6.984375 17.96875 6.984375 36.375 
Q 6.984375 53.65625 15.1875 63.9375 
Q 23.390625 74.21875 37.203125 74.21875 
Q 40.921875 74.21875 44.703125 73.484375 
Q 48.484375 72.75 52.59375 71.296875 
z
" id="DejaVuSans-36"/>
      </defs>
      <g transform="translate(641.6375 329.598437)scale(0.1 -0.1)">
       <use xlink:href="#DejaVuSans-36"/>
       <use x="63.623047" xlink:href="#DejaVuSans-30"/>
      </g>
     </g>
    </g>
    <g id="text_8">
     <!-- iterations -->
     <defs>
      <path d="M 9.421875 54.6875 
L 18.40625 54.6875 
L 18.40625 0 
L 9.421875 0 
z
M 9.421875 75.984375 
L 18.40625 75.984375 
L 18.40625 64.59375 
L 9.421875 64.59375 
z
" id="DejaVuSans-69"/>
      <path d="M 18.3125 70.21875 
L 18.3125 54.6875 
L 36.8125 54.6875 
L 36.8125 47.703125 
L 18.3125 47.703125 
L 18.3125 18.015625 
Q 18.3125 11.328125 20.140625 9.421875 
Q 21.96875 7.515625 27.59375 7.515625 
L 36.8125 7.515625 
L 36.8125 0 
L 27.59375 0 
Q 17.1875 0 13.234375 3.875 
Q 9.28125 7.765625 9.28125 18.015625 
L 9.28125 47.703125 
L 2.6875 47.703125 
L 2.6875 54.6875 
L 9.28125 54.6875 
L 9.28125 70.21875 
z
" id="DejaVuSans-74"/>
      <path d="M 56.203125 29.59375 
L 56.203125 25.203125 
L 14.890625 25.203125 
Q 15.484375 15.921875 20.484375 11.0625 
Q 25.484375 6.203125 34.421875 6.203125 
Q 39.59375 6.203125 44.453125 7.46875 
Q 49.3125 8.734375 54.109375 11.28125 
L 54.109375 2.78125 
Q 49.265625 0.734375 44.1875 -0.34375 
Q 39.109375 -1.421875 33.890625 -1.421875 
Q 20.796875 -1.421875 13.15625 6.1875 
Q 5.515625 13.8125 5.515625 26.8125 
Q 5.515625 40.234375 12.765625 48.109375 
Q 20.015625 56 32.328125 56 
Q 43.359375 56 49.78125 48.890625 
Q 56.203125 41.796875 56.203125 29.59375 
z
M 47.21875 32.234375 
Q 47.125 39.59375 43.09375 43.984375 
Q 39.0625 48.390625 32.421875 48.390625 
Q 24.90625 48.390625 20.390625 44.140625 
Q 15.875 39.890625 15.1875 32.171875 
z
" id="DejaVuSans-65"/>
      <path d="M 41.109375 46.296875 
Q 39.59375 47.171875 37.8125 47.578125 
Q 36.03125 48 33.890625 48 
Q 26.265625 48 22.1875 43.046875 
Q 18.109375 38.09375 18.109375 28.8125 
L 18.109375 0 
L 9.078125 0 
L 9.078125 54.6875 
L 18.109375 54.6875 
L 18.109375 46.1875 
Q 20.953125 51.171875 25.484375 53.578125 
Q 30.03125 56 36.53125 56 
Q 37.453125 56 38.578125 55.875 
Q 39.703125 55.765625 41.0625 55.515625 
z
" id="DejaVuSans-72"/>
      <path d="M 34.28125 27.484375 
Q 23.390625 27.484375 19.1875 25 
Q 14.984375 22.515625 14.984375 16.5 
Q 14.984375 11.71875 18.140625 8.90625 
Q 21.296875 6.109375 26.703125 6.109375 
Q 34.1875 6.109375 38.703125 11.40625 
Q 43.21875 16.703125 43.21875 25.484375 
L 43.21875 27.484375 
z
M 52.203125 31.203125 
L 52.203125 0 
L 43.21875 0 
L 43.21875 8.296875 
Q 40.140625 3.328125 35.546875 0.953125 
Q 30.953125 -1.421875 24.3125 -1.421875 
Q 15.921875 -1.421875 10.953125 3.296875 
Q 6 8.015625 6 15.921875 
Q 6 25.140625 12.171875 29.828125 
Q 18.359375 34.515625 30.609375 34.515625 
L 43.21875 34.515625 
L 43.21875 35.40625 
Q 43.21875 41.609375 39.140625 45 
Q 35.0625 48.390625 27.6875 48.390625 
Q 23 48.390625 18.546875 47.265625 
Q 14.109375 46.140625 10.015625 43.890625 
L 10.015625 52.203125 
Q 14.9375 54.109375 19.578125 55.046875 
Q 24.21875 56 28.609375 56 
Q 40.484375 56 46.34375 49.84375 
Q 52.203125 43.703125 52.203125 31.203125 
z
" id="DejaVuSans-61"/>
      <path d="M 30.609375 48.390625 
Q 23.390625 48.390625 19.1875 42.75 
Q 14.984375 37.109375 14.984375 27.296875 
Q 14.984375 17.484375 19.15625 11.84375 
Q 23.34375 6.203125 30.609375 6.203125 
Q 37.796875 6.203125 41.984375 11.859375 
Q 46.1875 17.53125 46.1875 27.296875 
Q 46.1875 37.015625 41.984375 42.703125 
Q 37.796875 48.390625 30.609375 48.390625 
z
M 30.609375 56 
Q 42.328125 56 49.015625 48.375 
Q 55.71875 40.765625 55.71875 27.296875 
Q 55.71875 13.875 49.015625 6.21875 
Q 42.328125 -1.421875 30.609375 -1.421875 
Q 18.84375 -1.421875 12.171875 6.21875 
Q 5.515625 13.875 5.515625 27.296875 
Q 5.515625 40.765625 12.171875 48.375 
Q 18.84375 56 30.609375 56 
z
" id="DejaVuSans-6f"/>
      <path d="M 54.890625 33.015625 
L 54.890625 0 
L 45.90625 0 
L 45.90625 32.71875 
Q 45.90625 40.484375 42.875 44.328125 
Q 39.84375 48.1875 33.796875 48.1875 
Q 26.515625 48.1875 22.3125 43.546875 
Q 18.109375 38.921875 18.109375 30.90625 
L 18.109375 0 
L 9.078125 0 
L 9.078125 54.6875 
L 18.109375 54.6875 
L 18.109375 46.1875 
Q 21.34375 51.125 25.703125 53.5625 
Q 30.078125 56 35.796875 56 
Q 45.21875 56 50.046875 50.171875 
Q 54.890625 44.34375 54.890625 33.015625 
z
" id="DejaVuSans-6e"/>
      <path d="M 44.28125 53.078125 
L 44.28125 44.578125 
Q 40.484375 46.53125 36.375 47.5 
Q 32.28125 48.484375 27.875 48.484375 
Q 21.1875 48.484375 17.84375 46.4375 
Q 14.5 44.390625 14.5 40.28125 
Q 14.5 37.15625 16.890625 35.375 
Q 19.28125 33.59375 26.515625 31.984375 
L 29.59375 31.296875 
Q 39.15625 29.25 43.1875 25.515625 
Q 47.21875 21.78125 47.21875 15.09375 
Q 47.21875 7.46875 41.1875 3.015625 
Q 35.15625 -1.421875 24.609375 -1.421875 
Q 20.21875 -1.421875 15.453125 -0.5625 
Q 10.6875 0.296875 5.421875 2 
L 5.421875 11.28125 
Q 10.40625 8.6875 15.234375 7.390625 
Q 20.0625 6.109375 24.8125 6.109375 
Q 31.15625 6.109375 34.5625 8.28125 
Q 37.984375 10.453125 37.984375 14.40625 
Q 37.984375 18.0625 35.515625 20.015625 
Q 33.0625 21.96875 24.703125 23.78125 
L 21.578125 24.515625 
Q 13.234375 26.265625 9.515625 29.90625 
Q 5.8125 33.546875 5.8125 39.890625 
Q 5.8125 47.609375 11.28125 51.796875 
Q 16.75 56 26.8125 56 
Q 31.78125 56 36.171875 55.265625 
Q 40.578125 54.546875 44.28125 53.078125 
z
" id="DejaVuSans-73"/>
     </defs>
     <g transform="translate(345.272656 343.276563)scale(0.1 -0.1)">
      <use xlink:href="#DejaVuSans-69"/>
      <use x="27.783203" xlink:href="#DejaVuSans-74"/>
      <use x="66.992188" xlink:href="#DejaVuSans-65"/>
      <use x="128.515625" xlink:href="#DejaVuSans-72"/>
      <use x="169.628906" xlink:href="#DejaVuSans-61"/>
      <use x="230.908203" xlink:href="#DejaVuSans-74"/>
      <use x="270.117188" xlink:href="#DejaVuSans-69"/>
      <use x="297.900391" xlink:href="#DejaVuSans-6f"/>
      <use x="359.082031" xlink:href="#DejaVuSans-6e"/>
      <use x="422.460938" xlink:href="#DejaVuSans-73"/>
     </g>
    </g>
   </g>
   <g id="matplotlib.axis_2">
    <g id="ytick_1">
     <g id="line2d_8">
      <defs>
       <path d="M 0 0 
L -3.5 0 
" id="m3f573d99d7" style="stroke:#000000;stroke-width:0.8;"/>
      </defs>
      <g>
       <use style="stroke:#000000;stroke-width:0.8;" x="90" xlink:href="#m3f573d99d7" y="297.601543"/>
      </g>
     </g>
     <g id="text_9">
      <!-- −5 -->
      <defs>
       <path d="M 10.59375 35.5 
L 73.1875 35.5 
L 73.1875 27.203125 
L 10.59375 27.203125 
z
" id="DejaVuSans-2212"/>
      </defs>
      <g transform="translate(68.257812 301.400762)scale(0.1 -0.1)">
       <use xlink:href="#DejaVuSans-2212"/>
       <use x="83.789062" xlink:href="#DejaVuSans-35"/>
      </g>
     </g>
    </g>
    <g id="ytick_2">
     <g id="line2d_9">
      <g>
       <use style="stroke:#000000;stroke-width:0.8;" x="90" xlink:href="#m3f573d99d7" y="266.116991"/>
      </g>
     </g>
     <g id="text_10">
      <!-- 0 -->
      <g transform="translate(76.6375 269.91621)scale(0.1 -0.1)">
       <use xlink:href="#DejaVuSans-30"/>
      </g>
     </g>
    </g>
    <g id="ytick_3">
     <g id="line2d_10">
      <g>
       <use style="stroke:#000000;stroke-width:0.8;" x="90" xlink:href="#m3f573d99d7" y="234.632439"/>
      </g>
     </g>
     <g id="text_11">
      <!-- 5 -->
      <g transform="translate(76.6375 238.431658)scale(0.1 -0.1)">
       <use xlink:href="#DejaVuSans-35"/>
      </g>
     </g>
    </g>
    <g id="ytick_4">
     <g id="line2d_11">
      <g>
       <use style="stroke:#000000;stroke-width:0.8;" x="90" xlink:href="#m3f573d99d7" y="203.147887"/>
      </g>
     </g>
     <g id="text_12">
      <!-- 10 -->
      <g transform="translate(70.275 206.947106)scale(0.1 -0.1)">
       <use xlink:href="#DejaVuSans-31"/>
       <use x="63.623047" xlink:href="#DejaVuSans-30"/>
      </g>
     </g>
    </g>
    <g id="ytick_5">
     <g id="line2d_12">
      <g>
       <use style="stroke:#000000;stroke-width:0.8;" x="90" xlink:href="#m3f573d99d7" y="171.663336"/>
      </g>
     </g>
     <g id="text_13">
      <!-- 15 -->
      <g transform="translate(70.275 175.462554)scale(0.1 -0.1)">
       <use xlink:href="#DejaVuSans-31"/>
       <use x="63.623047" xlink:href="#DejaVuSans-35"/>
      </g>
     </g>
    </g>
    <g id="ytick_6">
     <g id="line2d_13">
      <g>
       <use style="stroke:#000000;stroke-width:0.8;" x="90" xlink:href="#m3f573d99d7" y="140.178784"/>
      </g>
     </g>
     <g id="text_14">
      <!-- 20 -->
      <g transform="translate(70.275 143.978002)scale(0.1 -0.1)">
       <use xlink:href="#DejaVuSans-32"/>
       <use x="63.623047" xlink:href="#DejaVuSans-30"/>
      </g>
     </g>
    </g>
    <g id="ytick_7">
     <g id="line2d_14">
      <g>
       <use style="stroke:#000000;stroke-width:0.8;" x="90" xlink:href="#m3f573d99d7" y="108.694232"/>
      </g>
     </g>
     <g id="text_15">
      <!-- 25 -->
      <g transform="translate(70.275 112.493451)scale(0.1 -0.1)">
       <use xlink:href="#DejaVuSans-32"/>
       <use x="63.623047" xlink:href="#DejaVuSans-35"/>
      </g>
     </g>
    </g>
    <g id="ytick_8">
     <g id="line2d_15">
      <g>
       <use style="stroke:#000000;stroke-width:0.8;" x="90" xlink:href="#m3f573d99d7" y="77.20968"/>
      </g>
     </g>
     <g id="text_16">
      <!-- 30 -->
      <g transform="translate(70.275 81.008899)scale(0.1 -0.1)">
       <use xlink:href="#DejaVuSans-33"/>
       <use x="63.623047" xlink:href="#DejaVuSans-30"/>
      </g>
     </g>
    </g>
    <g id="ytick_9">
     <g id="line2d_16">
      <g>
       <use style="stroke:#000000;stroke-width:0.8;" x="90" xlink:href="#m3f573d99d7" y="45.725128"/>
      </g>
     </g>
     <g id="text_17">
      <!-- 35 -->
      <g transform="translate(70.275 49.524347)scale(0.1 -0.1)">
       <use xlink:href="#DejaVuSans-33"/>
       <use x="63.623047" xlink:href="#DejaVuSans-35"/>
      </g>
     </g>
    </g>
    <g id="text_18">
     <!-- samples_episode_reward_mean -->
     <defs>
      <path d="M 52 44.1875 
Q 55.375 50.25 60.0625 53.125 
Q 64.75 56 71.09375 56 
Q 79.640625 56 84.28125 50.015625 
Q 88.921875 44.046875 88.921875 33.015625 
L 88.921875 0 
L 79.890625 0 
L 79.890625 32.71875 
Q 79.890625 40.578125 77.09375 44.375 
Q 74.3125 48.1875 68.609375 48.1875 
Q 61.625 48.1875 57.5625 43.546875 
Q 53.515625 38.921875 53.515625 30.90625 
L 53.515625 0 
L 44.484375 0 
L 44.484375 32.71875 
Q 44.484375 40.625 41.703125 44.40625 
Q 38.921875 48.1875 33.109375 48.1875 
Q 26.21875 48.1875 22.15625 43.53125 
Q 18.109375 38.875 18.109375 30.90625 
L 18.109375 0 
L 9.078125 0 
L 9.078125 54.6875 
L 18.109375 54.6875 
L 18.109375 46.1875 
Q 21.1875 51.21875 25.484375 53.609375 
Q 29.78125 56 35.6875 56 
Q 41.65625 56 45.828125 52.96875 
Q 50 49.953125 52 44.1875 
z
" id="DejaVuSans-6d"/>
      <path d="M 18.109375 8.203125 
L 18.109375 -20.796875 
L 9.078125 -20.796875 
L 9.078125 54.6875 
L 18.109375 54.6875 
L 18.109375 46.390625 
Q 20.953125 51.265625 25.265625 53.625 
Q 29.59375 56 35.59375 56 
Q 45.5625 56 51.78125 48.09375 
Q 58.015625 40.1875 58.015625 27.296875 
Q 58.015625 14.40625 51.78125 6.484375 
Q 45.5625 -1.421875 35.59375 -1.421875 
Q 29.59375 -1.421875 25.265625 0.953125 
Q 20.953125 3.328125 18.109375 8.203125 
z
M 48.6875 27.296875 
Q 48.6875 37.203125 44.609375 42.84375 
Q 40.53125 48.484375 33.40625 48.484375 
Q 26.265625 48.484375 22.1875 42.84375 
Q 18.109375 37.203125 18.109375 27.296875 
Q 18.109375 17.390625 22.1875 11.75 
Q 26.265625 6.109375 33.40625 6.109375 
Q 40.53125 6.109375 44.609375 11.75 
Q 48.6875 17.390625 48.6875 27.296875 
z
" id="DejaVuSans-70"/>
      <path d="M 9.421875 75.984375 
L 18.40625 75.984375 
L 18.40625 0 
L 9.421875 0 
z
" id="DejaVuSans-6c"/>
      <path d="M 50.984375 -16.609375 
L 50.984375 -23.578125 
L -0.984375 -23.578125 
L -0.984375 -16.609375 
z
" id="DejaVuSans-5f"/>
      <path d="M 45.40625 46.390625 
L 45.40625 75.984375 
L 54.390625 75.984375 
L 54.390625 0 
L 45.40625 0 
L 45.40625 8.203125 
Q 42.578125 3.328125 38.25 0.953125 
Q 33.9375 -1.421875 27.875 -1.421875 
Q 17.96875 -1.421875 11.734375 6.484375 
Q 5.515625 14.40625 5.515625 27.296875 
Q 5.515625 40.1875 11.734375 48.09375 
Q 17.96875 56 27.875 56 
Q 33.9375 56 38.25 53.625 
Q 42.578125 51.265625 45.40625 46.390625 
z
M 14.796875 27.296875 
Q 14.796875 17.390625 18.875 11.75 
Q 22.953125 6.109375 30.078125 6.109375 
Q 37.203125 6.109375 41.296875 11.75 
Q 45.40625 17.390625 45.40625 27.296875 
Q 45.40625 37.203125 41.296875 42.84375 
Q 37.203125 48.484375 30.078125 48.484375 
Q 22.953125 48.484375 18.875 42.84375 
Q 14.796875 37.203125 14.796875 27.296875 
z
" id="DejaVuSans-64"/>
      <path d="M 4.203125 54.6875 
L 13.1875 54.6875 
L 24.421875 12.015625 
L 35.59375 54.6875 
L 46.1875 54.6875 
L 57.421875 12.015625 
L 68.609375 54.6875 
L 77.59375 54.6875 
L 63.28125 0 
L 52.6875 0 
L 40.921875 44.828125 
L 29.109375 0 
L 18.5 0 
z
" id="DejaVuSans-77"/>
     </defs>
     <g transform="translate(61.9 258.630469)rotate(-90)scale(0.1 -0.1)">
      <use xlink:href="#DejaVuSans-73"/>
      <use x="52.099609" xlink:href="#DejaVuSans-61"/>
      <use x="113.378906" xlink:href="#DejaVuSans-6d"/>
      <use x="210.791016" xlink:href="#DejaVuSans-70"/>
      <use x="274.267578" xlink:href="#DejaVuSans-6c"/>
      <use x="302.050781" xlink:href="#DejaVuSans-65"/>
      <use x="363.574219" xlink:href="#DejaVuSans-73"/>
      <use x="415.673828" xlink:href="#DejaVuSans-5f"/>
      <use x="465.673828" xlink:href="#DejaVuSans-65"/>
      <use x="527.197266" xlink:href="#DejaVuSans-70"/>
      <use x="590.673828" xlink:href="#DejaVuSans-69"/>
      <use x="618.457031" xlink:href="#DejaVuSans-73"/>
      <use x="670.556641" xlink:href="#DejaVuSans-6f"/>
      <use x="731.738281" xlink:href="#DejaVuSans-64"/>
      <use x="795.214844" xlink:href="#DejaVuSans-65"/>
      <use x="856.738281" xlink:href="#DejaVuSans-5f"/>
      <use x="906.738281" xlink:href="#DejaVuSans-72"/>
      <use x="947.820312" xlink:href="#DejaVuSans-65"/>
      <use x="1009.34375" xlink:href="#DejaVuSans-77"/>
      <use x="1091.130859" xlink:href="#DejaVuSans-61"/>
      <use x="1152.410156" xlink:href="#DejaVuSans-72"/>
      <use x="1193.507812" xlink:href="#DejaVuSans-64"/>
      <use x="1256.984375" xlink:href="#DejaVuSans-5f"/>
      <use x="1306.984375" xlink:href="#DejaVuSans-6d"/>
      <use x="1404.396484" xlink:href="#DejaVuSans-65"/>
      <use x="1465.919922" xlink:href="#DejaVuSans-61"/>
      <use x="1527.199219" xlink:href="#DejaVuSans-6e"/>
     </g>
    </g>
   </g>
   <g id="line2d_17">
    <path clip-path="url(#p87960a7f84)" d="M 90 289.64619 
L 99.3 210.890151 
L 108.6 204.092038 
L 117.9 206.55913 
L 127.2 197.891084 
L 136.5 183.902303 
L 145.8 213.386339 
L 155.1 214.589948 
L 164.4 193.875701 
L 173.7 182.943283 
L 183 180.568784 
L 192.3 190.882808 
L 201.6 184.946522 
L 210.9 195.237559 
L 220.2 174.968044 
L 229.5 178.735525 
L 238.8 174.152213 
L 248.1 171.319876 
L 257.4 184.116871 
L 266.7 188.315774 
L 276 182.406389 
L 285.3 180.05377 
L 294.6 183.072267 
L 303.9 197.611324 
L 313.2 157.826729 
L 322.5 179.078099 
L 331.8 180.490719 
L 341.1 173.085893 
L 350.4 160.057865 
L 359.7 166.419759 
L 369 156.330507 
L 378.3 193.433526 
L 387.6 186.344121 
L 396.9 182.148749 
L 406.2 160.920946 
L 415.5 158.602973 
L 424.8 165.979863 
L 434.1 155.122302 
L 443.4 179.604357 
L 452.7 150.541972 
L 462 143.36589 
L 471.3 156.362 
L 480.6 165.794163 
L 489.9 167.130401 
L 499.2 162.005877 
L 508.5 170.698489 
L 517.8 171.233987 
L 527.1 172.140255 
L 536.4 191.355666 
L 545.7 151.031603 
L 555 171.831792 
L 564.3 177.675522 
L 573.6 177.73619 
L 582.9 171.322796 
L 592.2 165.376503 
L 601.5 152.406886 
L 610.8 198.157393 
L 620.1 190.497369 
L 629.4 182.518742 
L 638.7 157.262773 
" style="fill:none;opacity:0.5;stroke:#808080;stroke-dasharray:;stroke-dashoffset:0;stroke-width:1.5;"/>
   </g>
   <g id="line2d_18">
    <path clip-path="url(#p87960a7f84)" d="M 90 274.669143 
L 99.3 199.602229 
L 108.6 218.894735 
L 117.9 206.099228 
L 127.2 215.188499 
L 136.5 199.645738 
L 145.8 201.197854 
L 155.1 188.535589 
L 164.4 187.900197 
L 173.7 189.296552 
L 183 178.687509 
L 192.3 198.668233 
L 201.6 183.360163 
L 210.9 182.365786 
L 220.2 201.944246 
L 229.5 191.973849 
L 238.8 181.934407 
L 248.1 188.640079 
L 257.4 194.933505 
L 266.7 182.530337 
L 276 180.649372 
L 285.3 179.523088 
L 294.6 176.719932 
L 303.9 179.382409 
L 313.2 179.389191 
L 322.5 177.180377 
L 331.8 177.846115 
L 341.1 171.226789 
L 350.4 160.626656 
L 359.7 185.543346 
L 369 166.271223 
L 378.3 171.883978 
L 387.6 167.204543 
L 396.9 181.749038 
L 406.2 161.207658 
L 415.5 165.057188 
L 424.8 188.643332 
L 434.1 156.721434 
L 443.4 162.715336 
L 452.7 187.595485 
L 462 182.526731 
L 471.3 166.567387 
L 480.6 173.438609 
L 489.9 180.637705 
L 499.2 174.200589 
L 508.5 165.156339 
L 517.8 168.046288 
L 527.1 168.839036 
L 536.4 172.783038 
L 545.7 166.581407 
L 555 183.088397 
L 564.3 174.075188 
L 573.6 161.690229 
L 582.9 159.753989 
L 592.2 187.717157 
L 601.5 179.349041 
L 610.8 162.894559 
L 620.1 161.393294 
L 629.4 177.893365 
L 638.7 161.842988 
" style="fill:none;opacity:0.5;stroke:#808080;stroke-dasharray:;stroke-dashoffset:0;stroke-width:1.5;"/>
   </g>
   <g id="line2d_19">
    <path clip-path="url(#p87960a7f84)" d="M 90 277.185236 
L 99.3 193.509001 
L 108.6 225.857 
L 117.9 206.138545 
L 127.2 227.425238 
L 136.5 214.747011 
L 145.8 220.584598 
L 155.1 220.156183 
L 164.4 209.859475 
L 173.7 197.564941 
L 183 197.718553 
L 192.3 186.65141 
L 201.6 203.209807 
L 210.9 179.120297 
L 220.2 193.509058 
L 229.5 190.78371 
L 238.8 182.175906 
L 248.1 177.458724 
L 257.4 188.139797 
L 266.7 186.904561 
L 276 181.288783 
L 285.3 182.601921 
L 294.6 181.952354 
L 303.9 176.60116 
L 313.2 173.534328 
L 322.5 155.043947 
L 331.8 167.862854 
L 341.1 178.672509 
L 350.4 188.54042 
L 359.7 196.84816 
L 369 198.735075 
L 378.3 188.566492 
L 387.6 189.828585 
L 396.9 187.886437 
L 406.2 178.364722 
L 415.5 179.941669 
L 424.8 164.357489 
L 434.1 184.187152 
L 443.4 153.689299 
L 452.7 184.031495 
L 462 173.801938 
L 471.3 170.077299 
L 480.6 168.119183 
L 489.9 175.946032 
L 499.2 175.778683 
L 508.5 161.540074 
L 517.8 170.428573 
L 527.1 171.5736 
L 536.4 170.956702 
L 545.7 167.34184 
L 555 143.29046 
L 564.3 153.296294 
L 573.6 162.008597 
L 582.9 175.087628 
L 592.2 175.468843 
L 601.5 182.504517 
L 610.8 166.650866 
L 620.1 180.082863 
L 629.4 175.718907 
L 638.7 170.834183 
" style="fill:none;opacity:0.5;stroke:#808080;stroke-dasharray:;stroke-dashoffset:0;stroke-width:1.5;"/>
   </g>
   <g id="line2d_20">
    <path clip-path="url(#p87960a7f84)" d="M 90 289.317475 
L 99.3 209.559715 
L 108.6 207.135655 
L 117.9 206.524213 
L 127.2 187.748371 
L 136.5 200.757897 
L 145.8 203.565019 
L 155.1 184.27114 
L 164.4 191.188365 
L 173.7 189.648878 
L 183 181.351696 
L 192.3 187.313018 
L 201.6 172.676892 
L 210.9 159.52239 
L 220.2 168.053786 
L 229.5 181.193619 
L 238.8 168.9285 
L 248.1 176.108017 
L 257.4 172.326191 
L 266.7 176.581852 
L 276 181.4463 
L 285.3 170.265545 
L 294.6 183.934789 
L 303.9 178.815918 
L 313.2 181.623632 
L 322.5 149.602003 
L 331.8 176.601608 
L 341.1 176.457688 
L 350.4 168.858561 
L 359.7 155.879472 
L 369 175.077673 
L 378.3 182.522848 
L 387.6 164.790561 
L 396.9 181.878401 
L 406.2 169.153659 
L 415.5 172.794527 
L 424.8 164.07018 
L 434.1 154.590319 
L 443.4 146.225526 
L 452.7 146.766184 
L 462 160.396024 
L 471.3 151.010045 
L 480.6 173.84586 
L 489.9 175.079081 
L 499.2 167.179195 
L 508.5 172.604444 
L 517.8 155.526515 
L 527.1 176.672553 
L 536.4 174.510345 
L 545.7 177.09093 
L 555 154.39707 
L 564.3 170.627768 
L 573.6 157.070632 
L 582.9 162.702269 
L 592.2 170.184211 
L 601.5 180.974967 
L 610.8 177.44514 
L 620.1 172.819133 
L 629.4 183.776634 
L 638.7 163.091389 
" style="fill:none;opacity:0.5;stroke:#808080;stroke-dasharray:;stroke-dashoffset:0;stroke-width:1.5;"/>
   </g>
   <g id="line2d_21">
    <path clip-path="url(#p87960a7f84)" d="M 90 292.468667 
L 99.3 227.574216 
L 108.6 220.586978 
L 117.9 220.234868 
L 127.2 221.02357 
L 136.5 203.030309 
L 145.8 204.986854 
L 155.1 201.621482 
L 164.4 207.545092 
L 173.7 201.414157 
L 183 193.32116 
L 192.3 195.682061 
L 201.6 203.900443 
L 210.9 184.4137 
L 220.2 206.060931 
L 229.5 186.398101 
L 238.8 205.080518 
L 248.1 186.688221 
L 257.4 207.676638 
L 266.7 181.069887 
L 276 184.374398 
L 285.3 192.832785 
L 294.6 181.87508 
L 303.9 191.733848 
L 313.2 178.769496 
L 322.5 178.375805 
L 331.8 197.442886 
L 341.1 178.057703 
L 350.4 187.159257 
L 359.7 191.059288 
L 369 181.063912 
L 378.3 172.350733 
L 387.6 181.129531 
L 396.9 183.012915 
L 406.2 185.880789 
L 415.5 180.659453 
L 424.8 174.195698 
L 434.1 184.415466 
L 443.4 161.667388 
L 452.7 182.477377 
L 462 168.367782 
L 471.3 175.230289 
L 480.6 163.832602 
L 489.9 197.159044 
L 499.2 155.913777 
L 508.5 167.314047 
L 517.8 170.026385 
L 527.1 164.093643 
L 536.4 173.217734 
L 545.7 163.697925 
L 555 170.808519 
L 564.3 178.850499 
L 573.6 167.186443 
L 582.9 173.103231 
L 592.2 169.822659 
L 601.5 170.233404 
L 610.8 158.838747 
L 620.1 170.800476 
L 629.4 166.910205 
L 638.7 179.584725 
" style="fill:none;opacity:0.5;stroke:#808080;stroke-dasharray:;stroke-dashoffset:0;stroke-width:1.5;"/>
   </g>
   <g id="line2d_22">
    <path clip-path="url(#p87960a7f84)" d="M 90 282.305434 
L 99.3 209.096359 
L 108.6 209.469523 
L 117.9 212.967479 
L 127.2 215.266403 
L 136.5 202.358678 
L 145.8 207.05621 
L 155.1 187.599238 
L 164.4 200.23437 
L 173.7 213.163726 
L 183 212.095929 
L 192.3 193.98084 
L 201.6 196.019544 
L 210.9 191.692522 
L 220.2 195.557721 
L 229.5 197.51729 
L 238.8 198.715157 
L 248.1 191.757422 
L 257.4 210.895707 
L 266.7 192.875247 
L 276 210.173297 
L 285.3 198.483748 
L 294.6 171.995992 
L 303.9 176.815708 
L 313.2 183.517767 
L 322.5 186.970462 
L 331.8 185.02349 
L 341.1 187.527787 
L 350.4 204.115078 
L 359.7 185.320806 
L 369 195.661385 
L 378.3 179.597302 
L 387.6 167.061747 
L 396.9 190.383329 
L 406.2 200.178832 
L 415.5 187.46182 
L 424.8 182.899255 
L 434.1 187.157955 
L 443.4 169.951692 
L 452.7 186.066005 
L 462 186.273887 
L 471.3 182.904712 
L 480.6 169.27725 
L 489.9 194.818873 
L 499.2 178.359075 
L 508.5 197.531097 
L 517.8 179.618782 
L 527.1 154.16672 
L 536.4 167.498588 
L 545.7 177.461333 
L 555 180.42424 
L 564.3 170.92076 
L 573.6 179.091558 
L 582.9 189.834019 
L 592.2 180.900795 
L 601.5 188.271459 
L 610.8 168.907769 
L 620.1 155.682467 
L 629.4 185.554936 
L 638.7 189.783635 
" style="fill:none;opacity:0.5;stroke:#808080;stroke-dasharray:;stroke-dashoffset:0;stroke-width:1.5;"/>
   </g>
   <g id="line2d_23">
    <path clip-path="url(#p87960a7f84)" d="M 90 292.788179 
L 99.3 192.612643 
L 108.6 217.919987 
L 117.9 199.783982 
L 127.2 208.468838 
L 136.5 201.587784 
L 145.8 192.594466 
L 155.1 191.427961 
L 164.4 169.222106 
L 173.7 174.305963 
L 183 186.280573 
L 192.3 198.377596 
L 201.6 191.284302 
L 210.9 169.356345 
L 220.2 182.789345 
L 229.5 178.913572 
L 238.8 171.455104 
L 248.1 167.794958 
L 257.4 178.834977 
L 266.7 161.092346 
L 276 177.219964 
L 285.3 165.979375 
L 294.6 163.387087 
L 303.9 171.453356 
L 313.2 177.013888 
L 322.5 184.48284 
L 331.8 162.79012 
L 341.1 187.332532 
L 350.4 169.229643 
L 359.7 171.005693 
L 369 166.051237 
L 378.3 159.862356 
L 387.6 183.896484 
L 396.9 157.837432 
L 406.2 162.513844 
L 415.5 167.59522 
L 424.8 190.741337 
L 434.1 176.687115 
L 443.4 165.556349 
L 452.7 179.141298 
L 462 179.198448 
L 471.3 167.000041 
L 480.6 167.694637 
L 489.9 160.522334 
L 499.2 159.744486 
L 508.5 184.026925 
L 517.8 154.632061 
L 527.1 149.995963 
L 536.4 167.187412 
L 545.7 170.072908 
L 555 175.233082 
L 564.3 157.051997 
L 573.6 185.911287 
L 582.9 156.071881 
L 592.2 147.314232 
L 601.5 154.316759 
L 610.8 153.840021 
L 620.1 177.603005 
L 629.4 153.245152 
L 638.7 161.585896 
" style="fill:none;opacity:0.5;stroke:#808080;stroke-dasharray:;stroke-dashoffset:0;stroke-width:1.5;"/>
   </g>
   <g id="line2d_24">
    <path clip-path="url(#p87960a7f84)" d="M 90 297.203913 
L 99.3 201.544352 
L 108.6 215.815239 
L 117.9 220.512306 
L 127.2 214.657317 
L 136.5 218.392247 
L 145.8 195.058141 
L 155.1 187.824772 
L 164.4 208.747252 
L 173.7 198.507115 
L 183 178.418663 
L 192.3 174.109268 
L 201.6 178.456853 
L 210.9 188.498921 
L 220.2 206.332557 
L 229.5 174.378646 
L 238.8 191.665381 
L 248.1 179.247904 
L 257.4 160.667023 
L 266.7 176.041379 
L 276 175.936758 
L 285.3 169.059998 
L 294.6 158.752383 
L 303.9 179.186399 
L 313.2 162.366738 
L 322.5 149.394031 
L 331.8 154.923846 
L 341.1 168.806286 
L 350.4 172.608936 
L 359.7 172.598342 
L 369 175.041626 
L 378.3 163.721716 
L 387.6 151.530012 
L 396.9 173.709382 
L 406.2 166.045211 
L 415.5 153.006236 
L 424.8 175.682983 
L 434.1 171.909301 
L 443.4 166.306172 
L 452.7 182.55454 
L 462 163.089357 
L 471.3 180.507373 
L 480.6 176.336965 
L 489.9 164.609301 
L 499.2 174.154648 
L 508.5 173.579202 
L 517.8 162.965062 
L 527.1 163.844539 
L 536.4 173.735295 
L 545.7 165.518831 
L 555 157.42212 
L 564.3 139.090477 
L 573.6 167.157316 
L 582.9 161.731699 
L 592.2 170.200971 
L 601.5 165.92608 
L 610.8 165.79617 
L 620.1 158.159705 
L 629.4 170.762132 
L 638.7 174.27418 
" style="fill:none;opacity:0.5;stroke:#808080;stroke-dasharray:;stroke-dashoffset:0;stroke-width:1.5;"/>
   </g>
   <g id="line2d_25">
    <path clip-path="url(#p87960a7f84)" d="M 90 285.409501 
L 99.3 204.411437 
L 108.6 208.418122 
L 117.9 221.488789 
L 127.2 223.753392 
L 136.5 222.534438 
L 145.8 212.212759 
L 155.1 203.186691 
L 164.4 207.355585 
L 173.7 189.644936 
L 183 208.928763 
L 192.3 197.319825 
L 201.6 183.062835 
L 210.9 197.923347 
L 220.2 169.338664 
L 229.5 201.15967 
L 238.8 175.836062 
L 248.1 199.970203 
L 257.4 183.200603 
L 266.7 177.87915 
L 276 196.81265 
L 285.3 190.424042 
L 294.6 186.047418 
L 303.9 182.036324 
L 313.2 193.711428 
L 322.5 165.957026 
L 331.8 181.929535 
L 341.1 171.960085 
L 350.4 178.182405 
L 359.7 196.826605 
L 369 189.833198 
L 378.3 191.950107 
L 387.6 168.230874 
L 396.9 175.334142 
L 406.2 169.369505 
L 415.5 179.630892 
L 424.8 179.380392 
L 434.1 154.815562 
L 443.4 167.825033 
L 452.7 159.352042 
L 462 184.260934 
L 471.3 165.751329 
L 480.6 174.469268 
L 489.9 166.650497 
L 499.2 170.057723 
L 508.5 177.362158 
L 517.8 170.201333 
L 527.1 164.45821 
L 536.4 167.672246 
L 545.7 183.192563 
L 555 152.856355 
L 564.3 157.68481 
L 573.6 151.815235 
L 582.9 157.238284 
L 592.2 181.915169 
L 601.5 173.111773 
L 610.8 185.062972 
L 620.1 159.046939 
L 629.4 168.777493 
L 638.7 166.975286 
" style="fill:none;opacity:0.5;stroke:#808080;stroke-dasharray:;stroke-dashoffset:0;stroke-width:1.5;"/>
   </g>
   <g id="line2d_26">
    <path clip-path="url(#p87960a7f84)" d="M 90 294.818203 
L 99.3 205.492205 
L 108.6 205.196721 
L 117.9 216.224999 
L 127.2 204.421051 
L 136.5 208.614376 
L 145.8 172.292367 
L 155.1 194.429292 
L 164.4 189.990528 
L 173.7 193.853602 
L 183 204.895099 
L 192.3 181.216794 
L 201.6 176.797828 
L 210.9 194.42983 
L 220.2 193.763357 
L 229.5 181.944247 
L 238.8 199.49859 
L 248.1 183.260874 
L 257.4 193.318957 
L 266.7 183.73237 
L 276 181.464398 
L 285.3 174.669589 
L 294.6 175.749835 
L 303.9 161.859613 
L 313.2 180.894932 
L 322.5 192.941256 
L 331.8 167.396958 
L 341.1 166.485501 
L 350.4 186.006988 
L 359.7 181.795152 
L 369 169.095551 
L 378.3 142.524271 
L 387.6 163.660875 
L 396.9 172.891365 
L 406.2 182.769922 
L 415.5 177.878358 
L 424.8 160.993696 
L 434.1 152.850485 
L 443.4 186.962658 
L 452.7 175.420784 
L 462 172.565606 
L 471.3 178.999357 
L 480.6 172.201338 
L 489.9 175.211073 
L 499.2 162.774862 
L 508.5 171.975918 
L 517.8 165.795173 
L 527.1 163.122663 
L 536.4 152.583136 
L 545.7 171.203643 
L 555 185.069744 
L 564.3 162.925475 
L 573.6 161.55995 
L 582.9 173.086888 
L 592.2 174.26593 
L 601.5 169.168751 
L 610.8 146.121679 
L 620.1 169.339518 
L 629.4 165.715682 
L 638.7 181.1803 
" style="fill:none;opacity:0.5;stroke:#808080;stroke-dasharray:;stroke-dashoffset:0;stroke-width:1.5;"/>
   </g>
   <g id="line2d_27">
    <path clip-path="url(#p87960a7f84)" d="M 90 287.581194 
L 99.3 205.429231 
L 108.6 213.3386 
L 117.9 211.653354 
L 127.2 211.584376 
L 136.5 205.557078 
L 145.8 202.293461 
L 155.1 197.36423 
L 164.4 196.591867 
L 173.7 193.034315 
L 183 192.226673 
L 192.3 190.420185 
L 201.6 187.371519 
L 210.9 184.25607 
L 220.2 189.231771 
L 229.5 186.299823 
L 238.8 184.944184 
L 248.1 182.224628 
L 257.4 187.411027 
L 266.7 180.70229 
L 276 185.177231 
L 285.3 180.389386 
L 294.6 176.348714 
L 303.9 179.549606 
L 313.2 176.864813 
L 322.5 171.902585 
L 331.8 175.230813 
L 341.1 175.961277 
L 350.4 177.538581 
L 359.7 180.329662 
L 369 177.316139 
L 378.3 174.641333 
L 387.6 172.367733 
L 396.9 178.683119 
L 406.2 173.640509 
L 415.5 172.262834 
L 424.8 174.694423 
L 434.1 167.845709 
L 443.4 166.050381 
L 452.7 173.394718 
L 462 171.38466 
L 471.3 169.440983 
L 480.6 170.500987 
L 489.9 175.776434 
L 499.2 168.016892 
L 508.5 174.178869 
L 517.8 166.847416 
L 527.1 164.890718 
L 536.4 171.150016 
L 545.7 169.319298 
L 555 167.442178 
L 564.3 164.219879 
L 573.6 167.122744 
L 582.9 167.993268 
L 592.2 172.316647 
L 601.5 171.626364 
L 610.8 168.371532 
L 620.1 169.542477 
L 629.4 173.087325 
L 638.7 170.641535 
" style="fill:none;stroke:#1f77b4;stroke-dasharray:;stroke-dashoffset:0;stroke-width:1.5;"/>
   </g>
   <g id="line2d_28">
    <path clip-path="url(#p87960a7f84)" d="M 90 292.943074 
L 99.3 236.416003 
L 108.6 237.461368 
L 117.9 245.346319 
L 127.2 243.760997 
L 136.5 241.773867 
L 145.8 231.88048 
L 155.1 232.835226 
L 164.4 230.349185 
L 173.7 227.246802 
L 183 229.154832 
L 192.3 233.537823 
L 201.6 222.229846 
L 210.9 217.921745 
L 220.2 227.057094 
L 229.5 229.621553 
L 238.8 226.071256 
L 248.1 220.738097 
L 257.4 227.64539 
L 266.7 216.111432 
L 276 234.385799 
L 285.3 214.64639 
L 294.6 225.519979 
L 303.9 217.681606 
L 313.2 222.002152 
L 322.5 220.453822 
L 331.8 221.434742 
L 341.1 209.098116 
L 350.4 207.444508 
L 359.7 223.000402 
L 369 226.273896 
L 378.3 215.133873 
L 387.6 212.141634 
L 396.9 215.375275 
L 406.2 215.433034 
L 415.5 212.423899 
L 424.8 223.222786 
L 434.1 215.436142 
L 443.4 217.859469 
L 452.7 214.369533 
L 462 217.742532 
L 471.3 207.990664 
L 480.6 207.387491 
L 489.9 210.990572 
L 499.2 197.294228 
L 508.5 213.766621 
L 517.8 204.659928 
L 527.1 210.687564 
L 536.4 208.018531 
L 545.7 205.275028 
L 555 205.155204 
L 564.3 208.102534 
L 573.6 197.337887 
L 582.9 193.770741 
L 592.2 217.457514 
L 601.5 213.193451 
L 610.8 206.040973 
L 620.1 199.174082 
L 629.4 200.556826 
L 638.7 210.331511 
" style="fill:none;opacity:0.5;stroke:#808080;stroke-dasharray:1.5,1.5;stroke-dashoffset:0;stroke-width:1.5;"/>
   </g>
   <g id="line2d_29">
    <path clip-path="url(#p87960a7f84)" d="M 90 286.308857 
L 99.3 250.508221 
L 108.6 248.540623 
L 117.9 252.370329 
L 127.2 250.047196 
L 136.5 243.360184 
L 145.8 228.143104 
L 155.1 238.825367 
L 164.4 232.240214 
L 173.7 236.149109 
L 183 242.513671 
L 192.3 242.582653 
L 201.6 230.321091 
L 210.9 226.977086 
L 220.2 225.561798 
L 229.5 226.795879 
L 238.8 231.202076 
L 248.1 219.347785 
L 257.4 221.010187 
L 266.7 223.633121 
L 276 215.389951 
L 285.3 218.59568 
L 294.6 221.123316 
L 303.9 214.317192 
L 313.2 217.897559 
L 322.5 216.009419 
L 331.8 225.77615 
L 341.1 216.955936 
L 350.4 229.496049 
L 359.7 220.637734 
L 369 213.427907 
L 378.3 205.922218 
L 387.6 222.652698 
L 396.9 214.077169 
L 406.2 219.191385 
L 415.5 219.539369 
L 424.8 218.977875 
L 434.1 216.783814 
L 443.4 213.756525 
L 452.7 206.246914 
L 462 218.041612 
L 471.3 214.570221 
L 480.6 208.162853 
L 489.9 213.092214 
L 499.2 215.08991 
L 508.5 202.400114 
L 517.8 202.203474 
L 527.1 210.803031 
L 536.4 200.923683 
L 545.7 213.674068 
L 555 205.320107 
L 564.3 218.146567 
L 573.6 205.550536 
L 582.9 229.081365 
L 592.2 211.857058 
L 601.5 207.574105 
L 610.8 208.521974 
L 620.1 215.965217 
L 629.4 207.376417 
L 638.7 220.065855 
" style="fill:none;opacity:0.5;stroke:#808080;stroke-dasharray:1.5,1.5;stroke-dashoffset:0;stroke-width:1.5;"/>
   </g>
   <g id="line2d_30">
    <path clip-path="url(#p87960a7f84)" d="M 90 281.907441 
L 99.3 241.474507 
L 108.6 245.049578 
L 117.9 251.903914 
L 127.2 240.942066 
L 136.5 240.918414 
L 145.8 239.809823 
L 155.1 232.299963 
L 164.4 238.41835 
L 173.7 233.903372 
L 183 238.174768 
L 192.3 236.557765 
L 201.6 226.30376 
L 210.9 221.376089 
L 220.2 214.475054 
L 229.5 221.600275 
L 238.8 236.203042 
L 248.1 227.635752 
L 257.4 218.7544 
L 266.7 224.075887 
L 276 225.779556 
L 285.3 219.578564 
L 294.6 236.0249 
L 303.9 234.495265 
L 313.2 216.686731 
L 322.5 218.914228 
L 331.8 217.882354 
L 341.1 221.738921 
L 350.4 218.408344 
L 359.7 207.550683 
L 369 208.957908 
L 378.3 208.118656 
L 387.6 213.522052 
L 396.9 222.087095 
L 406.2 217.016121 
L 415.5 223.942213 
L 424.8 210.462104 
L 434.1 207.822601 
L 443.4 200.651288 
L 452.7 202.429504 
L 462 209.737001 
L 471.3 221.946085 
L 480.6 208.988439 
L 489.9 209.732857 
L 499.2 210.500017 
L 508.5 207.063782 
L 517.8 207.271238 
L 527.1 220.242961 
L 536.4 218.652035 
L 545.7 203.748191 
L 555 209.336738 
L 564.3 216.303867 
L 573.6 214.290473 
L 582.9 211.396486 
L 592.2 193.748433 
L 601.5 199.359843 
L 610.8 207.776806 
L 620.1 201.329026 
L 629.4 215.981118 
L 638.7 210.186857 
" style="fill:none;opacity:0.5;stroke:#808080;stroke-dasharray:1.5,1.5;stroke-dashoffset:0;stroke-width:1.5;"/>
   </g>
   <g id="line2d_31">
    <path clip-path="url(#p87960a7f84)" d="M 90 282.425768 
L 99.3 246.546565 
L 108.6 242.535329 
L 117.9 241.576814 
L 127.2 251.195912 
L 136.5 233.866198 
L 145.8 226.674421 
L 155.1 230.541185 
L 164.4 234.838646 
L 173.7 237.563465 
L 183 226.373732 
L 192.3 222.786666 
L 201.6 224.971762 
L 210.9 223.773974 
L 220.2 220.739195 
L 229.5 221.375317 
L 238.8 219.109027 
L 248.1 226.883056 
L 257.4 215.716868 
L 266.7 208.259373 
L 276 231.120197 
L 285.3 223.616353 
L 294.6 224.108729 
L 303.9 220.464815 
L 313.2 219.761518 
L 322.5 216.119885 
L 331.8 203.637087 
L 341.1 212.925518 
L 350.4 211.857512 
L 359.7 218.393366 
L 369 201.956581 
L 378.3 201.034156 
L 387.6 210.1677 
L 396.9 207.225183 
L 406.2 207.633739 
L 415.5 211.217312 
L 424.8 201.296248 
L 434.1 206.070333 
L 443.4 202.471281 
L 452.7 203.162519 
L 462 201.707068 
L 471.3 200.520867 
L 480.6 205.838112 
L 489.9 200.664447 
L 499.2 194.878251 
L 508.5 218.499663 
L 517.8 215.934463 
L 527.1 206.795384 
L 536.4 208.796202 
L 545.7 209.606139 
L 555 197.234656 
L 564.3 200.572287 
L 573.6 201.046219 
L 582.9 203.832585 
L 592.2 207.417376 
L 601.5 187.458238 
L 610.8 191.752707 
L 620.1 207.336063 
L 629.4 203.667574 
L 638.7 204.375349 
" style="fill:none;opacity:0.5;stroke:#808080;stroke-dasharray:1.5,1.5;stroke-dashoffset:0;stroke-width:1.5;"/>
   </g>
   <g id="line2d_32">
    <path clip-path="url(#p87960a7f84)" d="M 90 289.628403 
L 99.3 240.389569 
L 108.6 243.941125 
L 117.9 237.776834 
L 127.2 219.064101 
L 136.5 225.281226 
L 145.8 224.969199 
L 155.1 236.220468 
L 164.4 224.078558 
L 173.7 226.417575 
L 183 215.556404 
L 192.3 221.675663 
L 201.6 209.337147 
L 210.9 229.751976 
L 220.2 218.245875 
L 229.5 218.311062 
L 238.8 224.409023 
L 248.1 221.867427 
L 257.4 222.709203 
L 266.7 221.028378 
L 276 218.431012 
L 285.3 212.542305 
L 294.6 212.985359 
L 303.9 207.302894 
L 313.2 208.68775 
L 322.5 221.518335 
L 331.8 220.091786 
L 341.1 226.074128 
L 350.4 212.666913 
L 359.7 200.653584 
L 369 210.049047 
L 378.3 204.520816 
L 387.6 219.39505 
L 396.9 213.274297 
L 406.2 212.584277 
L 415.5 201.251755 
L 424.8 212.626131 
L 434.1 199.046589 
L 443.4 216.544628 
L 452.7 199.663059 
L 462 201.989012 
L 471.3 216.119127 
L 480.6 203.301326 
L 489.9 205.973663 
L 499.2 205.319033 
L 508.5 199.42828 
L 517.8 198.519382 
L 527.1 197.463443 
L 536.4 204.564611 
L 545.7 196.409189 
L 555 207.201961 
L 564.3 204.367621 
L 573.6 217.060989 
L 582.9 196.012613 
L 592.2 191.110084 
L 601.5 197.510694 
L 610.8 193.716412 
L 620.1 216.008399 
L 629.4 199.860367 
L 638.7 201.721889 
" style="fill:none;opacity:0.5;stroke:#808080;stroke-dasharray:1.5,1.5;stroke-dashoffset:0;stroke-width:1.5;"/>
   </g>
   <g id="line2d_33">
    <path clip-path="url(#p87960a7f84)" d="M 90 294.00403 
L 99.3 240.599606 
L 108.6 254.468733 
L 117.9 249.32897 
L 127.2 237.185022 
L 136.5 241.327875 
L 145.8 229.99407 
L 155.1 223.047233 
L 164.4 231.131126 
L 173.7 223.886076 
L 183 219.701606 
L 192.3 222.510966 
L 201.6 217.180064 
L 210.9 217.409149 
L 220.2 210.504591 
L 229.5 219.897994 
L 238.8 223.063612 
L 248.1 216.646697 
L 257.4 218.902306 
L 266.7 214.710537 
L 276 210.632137 
L 285.3 207.334753 
L 294.6 219.14607 
L 303.9 224.454678 
L 313.2 207.462032 
L 322.5 208.197508 
L 331.8 215.326892 
L 341.1 225.106515 
L 350.4 227.038124 
L 359.7 209.277737 
L 369 217.453192 
L 378.3 212.368623 
L 387.6 211.300981 
L 396.9 214.684423 
L 406.2 200.879691 
L 415.5 210.595859 
L 424.8 203.493007 
L 434.1 197.93768 
L 443.4 200.310495 
L 452.7 200.310949 
L 462 203.221017 
L 471.3 206.90825 
L 480.6 200.488001 
L 489.9 206.791904 
L 499.2 207.617128 
L 508.5 198.068658 
L 517.8 200.526787 
L 527.1 209.492247 
L 536.4 211.086099 
L 545.7 195.029548 
L 555 202.527115 
L 564.3 213.874316 
L 573.6 224.019056 
L 582.9 218.054401 
L 592.2 207.650505 
L 601.5 208.503298 
L 610.8 202.536057 
L 620.1 197.102306 
L 629.4 206.413758 
L 638.7 201.431763 
" style="fill:none;opacity:0.5;stroke:#808080;stroke-dasharray:1.5,1.5;stroke-dashoffset:0;stroke-width:1.5;"/>
   </g>
   <g id="line2d_34">
    <path clip-path="url(#p87960a7f84)" d="M 90 283.939492 
L 99.3 242.088666 
L 108.6 241.457693 
L 117.9 236.111204 
L 127.2 237.251129 
L 136.5 232.415162 
L 145.8 231.594592 
L 155.1 227.616601 
L 164.4 224.16524 
L 173.7 230.226285 
L 183 221.693428 
L 192.3 226.640422 
L 201.6 219.099992 
L 210.9 228.891557 
L 220.2 235.792437 
L 229.5 233.17985 
L 238.8 227.796048 
L 248.1 208.620117 
L 257.4 224.773984 
L 266.7 226.139772 
L 276 218.683047 
L 285.3 211.28721 
L 294.6 223.292535 
L 303.9 206.034817 
L 313.2 212.093406 
L 322.5 213.327783 
L 331.8 221.326824 
L 341.1 209.228139 
L 350.4 218.027707 
L 359.7 215.860024 
L 369 219.845411 
L 378.3 210.495588 
L 387.6 223.296555 
L 396.9 217.019059 
L 406.2 222.861775 
L 415.5 205.599515 
L 424.8 221.878281 
L 434.1 210.639297 
L 443.4 220.719026 
L 452.7 223.747548 
L 462 218.227769 
L 471.3 223.178532 
L 480.6 198.181141 
L 489.9 217.202909 
L 499.2 214.039479 
L 508.5 212.66814 
L 517.8 216.02782 
L 527.1 210.463095 
L 536.4 201.703809 
L 545.7 206.288052 
L 555 201.827568 
L 564.3 218.693043 
L 573.6 213.545104 
L 582.9 216.798708 
L 592.2 199.913469 
L 601.5 204.895804 
L 610.8 205.38753 
L 620.1 207.572154 
L 629.4 206.462088 
L 638.7 213.33762 
" style="fill:none;opacity:0.5;stroke:#808080;stroke-dasharray:1.5,1.5;stroke-dashoffset:0;stroke-width:1.5;"/>
   </g>
   <g id="line2d_35">
    <path clip-path="url(#p87960a7f84)" d="M 90 295.751243 
L 99.3 239.447551 
L 108.6 246.200924 
L 117.9 235.970982 
L 127.2 231.290143 
L 136.5 224.342925 
L 145.8 232.829886 
L 155.1 213.109321 
L 164.4 221.880165 
L 173.7 229.139451 
L 183 236.639938 
L 192.3 227.907704 
L 201.6 225.710374 
L 210.9 212.56761 
L 220.2 217.376028 
L 229.5 221.479672 
L 238.8 220.662069 
L 248.1 230.185597 
L 257.4 219.01925 
L 266.7 229.761574 
L 276 226.60823 
L 285.3 208.928073 
L 294.6 211.950913 
L 303.9 203.900336 
L 313.2 211.053966 
L 322.5 206.278292 
L 331.8 205.429298 
L 341.1 212.82304 
L 350.4 212.254388 
L 359.7 202.311998 
L 369 203.236597 
L 378.3 202.716766 
L 387.6 197.422991 
L 396.9 207.798643 
L 406.2 211.274177 
L 415.5 220.510891 
L 424.8 207.191659 
L 434.1 209.21156 
L 443.4 193.835496 
L 452.7 202.294285 
L 462 210.704995 
L 471.3 203.862451 
L 480.6 204.888649 
L 489.9 209.177816 
L 499.2 218.864027 
L 508.5 216.132691 
L 517.8 202.093827 
L 527.1 206.08292 
L 536.4 196.88388 
L 545.7 202.580767 
L 555 204.687021 
L 564.3 205.48529 
L 573.6 209.628902 
L 582.9 211.58654 
L 592.2 209.293433 
L 601.5 202.769073 
L 610.8 201.24333 
L 620.1 200.74306 
L 629.4 202.792382 
L 638.7 208.568957 
" style="fill:none;opacity:0.5;stroke:#808080;stroke-dasharray:1.5,1.5;stroke-dashoffset:0;stroke-width:1.5;"/>
   </g>
   <g id="line2d_36">
    <path clip-path="url(#p87960a7f84)" d="M 90 289.797762 
L 99.3 242.638776 
L 108.6 245.813893 
L 117.9 231.238829 
L 127.2 231.546102 
L 136.5 233.24155 
L 145.8 237.216177 
L 155.1 221.900048 
L 164.4 231.366412 
L 173.7 222.622212 
L 183 230.115604 
L 192.3 229.77598 
L 201.6 232.372806 
L 210.9 223.811749 
L 220.2 226.61288 
L 229.5 224.792225 
L 238.8 223.340953 
L 248.1 222.782702 
L 257.4 218.066098 
L 266.7 223.838185 
L 276 231.869317 
L 285.3 217.551584 
L 294.6 221.705547 
L 303.9 220.342056 
L 313.2 211.539943 
L 322.5 207.778561 
L 331.8 216.283301 
L 341.1 223.830933 
L 350.4 209.3288 
L 359.7 208.220873 
L 369 216.189169 
L 378.3 218.551384 
L 387.6 217.544912 
L 396.9 211.952115 
L 406.2 203.576855 
L 415.5 214.960035 
L 424.8 210.081286 
L 434.1 213.06791 
L 443.4 206.779407 
L 452.7 212.943548 
L 462 217.312212 
L 471.3 215.536149 
L 480.6 200.671671 
L 489.9 216.737806 
L 499.2 209.704685 
L 508.5 222.891288 
L 517.8 199.152431 
L 527.1 207.870149 
L 536.4 199.916427 
L 545.7 201.138717 
L 555 199.737844 
L 564.3 216.429124 
L 573.6 213.429547 
L 582.9 204.082008 
L 592.2 205.091481 
L 601.5 208.787392 
L 610.8 215.636017 
L 620.1 208.685248 
L 629.4 202.835608 
L 638.7 197.717667 
" style="fill:none;opacity:0.5;stroke:#808080;stroke-dasharray:1.5,1.5;stroke-dashoffset:0;stroke-width:1.5;"/>
   </g>
   <g id="line2d_37">
    <path clip-path="url(#p87960a7f84)" d="M 90 282.841979 
L 99.3 248.834626 
L 108.6 235.782922 
L 117.9 232.604544 
L 127.2 240.728126 
L 136.5 234.316119 
L 145.8 240.443325 
L 155.1 232.467318 
L 164.4 227.681018 
L 173.7 224.317201 
L 183 210.473253 
L 192.3 219.602391 
L 201.6 230.312239 
L 210.9 232.868288 
L 220.2 226.264436 
L 229.5 219.534408 
L 238.8 221.989332 
L 248.1 215.097983 
L 257.4 223.001231 
L 266.7 218.241832 
L 276 226.685238 
L 285.3 221.220839 
L 294.6 206.673901 
L 303.9 214.853712 
L 313.2 226.86516 
L 322.5 217.683165 
L 331.8 219.930621 
L 341.1 210.19871 
L 350.4 211.882085 
L 359.7 217.117168 
L 369 214.622349 
L 378.3 223.935964 
L 387.6 212.755158 
L 396.9 203.8182 
L 406.2 205.871104 
L 415.5 203.696444 
L 424.8 203.115385 
L 434.1 222.74931 
L 443.4 223.866713 
L 452.7 210.388214 
L 462 208.456031 
L 471.3 209.43399 
L 480.6 210.185453 
L 489.9 211.982515 
L 499.2 207.634273 
L 508.5 218.862777 
L 517.8 210.929616 
L 527.1 187.523714 
L 536.4 204.629535 
L 545.7 216.080181 
L 555 210.978348 
L 564.3 205.089986 
L 573.6 201.544293 
L 582.9 195.244769 
L 592.2 207.003126 
L 601.5 207.070729 
L 610.8 219.845721 
L 620.1 202.960698 
L 629.4 200.706078 
L 638.7 196.720365 
" style="fill:none;opacity:0.5;stroke:#808080;stroke-dasharray:1.5,1.5;stroke-dashoffset:0;stroke-width:1.5;"/>
   </g>
   <g id="line2d_38">
    <path clip-path="url(#p87960a7f84)" d="M 90 287.954805 
L 99.3 242.894409 
L 108.6 244.125219 
L 117.9 241.422874 
L 127.2 238.301079 
L 136.5 235.084352 
L 145.8 232.355508 
L 155.1 228.886273 
L 164.4 229.614891 
L 173.7 229.147155 
L 183 227.039724 
L 192.3 228.357803 
L 201.6 223.783908 
L 210.9 223.534922 
L 220.2 222.262939 
L 229.5 223.658824 
L 238.8 225.384644 
L 248.1 220.980521 
L 257.4 220.959892 
L 266.7 220.580009 
L 276 223.958448 
L 285.3 215.530175 
L 294.6 220.253125 
L 303.9 216.384737 
L 313.2 215.405022 
L 322.5 214.6281 
L 331.8 216.711905 
L 341.1 216.797996 
L 350.4 215.840443 
L 359.7 212.302357 
L 369 213.201206 
L 378.3 210.279804 
L 387.6 214.019973 
L 396.9 212.731146 
L 406.2 211.632216 
L 415.5 212.373729 
L 424.8 211.234476 
L 434.1 209.876524 
L 443.4 209.679433 
L 452.7 207.555607 
L 462 210.713925 
L 471.3 212.006634 
L 480.6 204.809314 
L 489.9 210.23467 
L 499.2 208.094103 
L 508.5 210.978201 
L 517.8 205.731897 
L 527.1 206.742451 
L 536.4 205.517481 
L 545.7 204.982988 
L 555 204.400656 
L 564.3 210.706463 
L 573.6 209.745301 
L 582.9 207.986022 
L 592.2 205.054248 
L 601.5 203.712263 
L 610.8 205.245753 
L 620.1 205.687625 
L 629.4 204.665222 
L 638.7 206.445783 
" style="fill:none;stroke:#ff7f0e;stroke-dasharray:1.5,1.5;stroke-dashoffset:0;stroke-width:1.5;"/>
   </g>
   <g id="line2d_39">
    <path clip-path="url(#p87960a7f84)" d="M 90 283.764688 
L 99.3 234.036711 
L 108.6 225.773868 
L 117.9 222.138739 
L 127.2 223.241914 
L 136.5 224.824503 
L 145.8 206.436067 
L 155.1 201.378744 
L 164.4 199.084559 
L 173.7 194.455027 
L 183 210.766789 
L 192.3 194.568841 
L 201.6 204.225283 
L 210.9 191.918802 
L 220.2 184.158472 
L 229.5 172.975615 
L 238.8 172.92912 
L 248.1 172.568149 
L 257.4 159.287795 
L 266.7 161.950502 
L 276 153.718789 
L 285.3 145.095724 
L 294.6 158.607829 
L 303.9 150.627532 
L 313.2 169.174064 
L 322.5 127.364186 
L 331.8 139.76903 
L 341.1 117.384702 
L 350.4 134.138232 
L 359.7 148.576549 
L 369 143.554062 
L 378.3 118.501625 
L 387.6 125.599481 
L 396.9 131.834996 
L 406.2 118.745138 
L 415.5 146.773032 
L 424.8 137.568292 
L 434.1 136.417989 
L 443.4 137.522047 
L 452.7 124.314088 
L 462 115.774622 
L 471.3 112.359712 
L 480.6 117.550541 
L 489.9 110.278041 
L 499.2 114.365134 
L 508.5 123.832153 
L 517.8 105.921191 
L 527.1 121.204843 
L 536.4 108.969 
L 545.7 125.232749 
L 555 90.276693 
L 564.3 95.937839 
L 573.6 80.466316 
L 582.9 95.280506 
L 592.2 113.568075 
L 601.5 121.873325 
L 610.8 82.802894 
L 620.1 89.046127 
L 629.4 101.856498 
L 638.7 97.397553 
" style="fill:none;opacity:0.5;stroke:#808080;stroke-dasharray:7.5,1.5;stroke-dashoffset:0;stroke-width:1.5;"/>
   </g>
   <g id="line2d_40">
    <path clip-path="url(#p87960a7f84)" d="M 90 293.940733 
L 99.3 236.34 
L 108.6 222.966607 
L 117.9 222.975401 
L 127.2 228.705689 
L 136.5 218.141461 
L 145.8 206.283158 
L 155.1 202.560461 
L 164.4 205.835929 
L 173.7 181.283892 
L 183 203.130946 
L 192.3 195.792835 
L 201.6 191.108913 
L 210.9 170.099361 
L 220.2 169.807302 
L 229.5 160.914319 
L 238.8 180.528583 
L 248.1 143.443397 
L 257.4 162.105398 
L 266.7 149.975931 
L 276 159.238096 
L 285.3 139.834853 
L 294.6 135.108693 
L 303.9 130.137777 
L 313.2 117.842534 
L 322.5 150.522447 
L 331.8 129.765324 
L 341.1 102.708117 
L 350.4 140.255995 
L 359.7 127.86582 
L 369 123.850653 
L 378.3 122.723552 
L 387.6 111.505999 
L 396.9 133.258178 
L 406.2 91.896468 
L 415.5 108.444079 
L 424.8 115.945846 
L 434.1 123.152121 
L 443.4 108.523589 
L 452.7 114.549753 
L 462 101.075324 
L 471.3 106.78533 
L 480.6 93.423253 
L 489.9 112.256181 
L 499.2 103.514617 
L 508.5 102.729534 
L 517.8 82.557182 
L 527.1 91.020305 
L 536.4 83.113341 
L 545.7 61.895172 
L 555 117.357807 
L 564.3 99.986406 
L 573.6 80.278339 
L 582.9 110.063703 
L 592.2 100.565158 
L 601.5 102.944858 
L 610.8 86.889838 
L 620.1 82.722282 
L 629.4 107.915435 
L 638.7 79.344717 
" style="fill:none;opacity:0.5;stroke:#808080;stroke-dasharray:7.5,1.5;stroke-dashoffset:0;stroke-width:1.5;"/>
   </g>
   <g id="line2d_41">
    <path clip-path="url(#p87960a7f84)" d="M 90 292.074489 
L 99.3 227.619452 
L 108.6 235.392984 
L 117.9 211.552209 
L 127.2 222.323474 
L 136.5 208.126783 
L 145.8 201.591852 
L 155.1 194.941737 
L 164.4 198.4403 
L 173.7 202.660724 
L 183 194.846414 
L 192.3 165.574484 
L 201.6 180.314726 
L 210.9 187.891217 
L 220.2 173.374611 
L 229.5 160.833225 
L 238.8 154.148374 
L 248.1 150.285574 
L 257.4 132.572715 
L 266.7 137.03686 
L 276 146.715932 
L 285.3 153.815414 
L 294.6 140.49804 
L 303.9 120.139467 
L 313.2 129.492186 
L 322.5 123.804146 
L 331.8 138.882996 
L 341.1 131.371725 
L 350.4 109.792369 
L 359.7 119.428613 
L 369 114.721937 
L 378.3 115.671501 
L 387.6 126.919468 
L 396.9 121.437794 
L 406.2 118.291971 
L 415.5 124.944134 
L 424.8 87.757379 
L 434.1 103.365176 
L 443.4 102.449321 
L 452.7 94.462607 
L 462 101.546528 
L 471.3 63.366797 
L 480.6 83.841058 
L 489.9 70.762261 
L 499.2 81.973421 
L 508.5 85.458444 
L 517.8 100.594232 
L 527.1 98.211965 
L 536.4 82.064818 
L 545.7 91.97812 
L 555 75.791272 
L 564.3 103.895553 
L 573.6 95.2796 
L 582.9 70.334843 
L 592.2 96.828427 
L 601.5 95.185651 
L 610.8 112.233371 
L 620.1 110.722855 
L 629.4 96.920007 
L 638.7 99.133729 
" style="fill:none;opacity:0.5;stroke:#808080;stroke-dasharray:7.5,1.5;stroke-dashoffset:0;stroke-width:1.5;"/>
   </g>
   <g id="line2d_42">
    <path clip-path="url(#p87960a7f84)" d="M 90 281.423867 
L 99.3 239.123326 
L 108.6 226.091029 
L 117.9 226.001804 
L 127.2 197.395282 
L 136.5 210.804858 
L 145.8 209.409018 
L 155.1 218.224914 
L 164.4 199.36369 
L 173.7 197.212092 
L 183 184.153347 
L 192.3 181.574987 
L 201.6 190.742538 
L 210.9 207.75475 
L 220.2 166.939498 
L 229.5 187.63303 
L 238.8 182.803309 
L 248.1 155.894398 
L 257.4 168.54602 
L 266.7 148.590645 
L 276 163.206449 
L 285.3 169.887273 
L 294.6 176.676728 
L 303.9 138.662052 
L 313.2 148.746849 
L 322.5 144.206341 
L 331.8 160.271951 
L 341.1 133.313118 
L 350.4 135.265631 
L 359.7 105.111428 
L 369 134.99344 
L 378.3 107.904133 
L 387.6 133.406096 
L 396.9 113.708438 
L 406.2 114.491113 
L 415.5 107.984054 
L 424.8 92.536597 
L 434.1 99.957444 
L 443.4 138.527986 
L 452.7 95.524673 
L 462 124.261787 
L 471.3 107.888737 
L 480.6 74.084991 
L 489.9 97.070867 
L 499.2 84.158086 
L 508.5 99.389528 
L 517.8 109.164843 
L 527.1 124.015817 
L 536.4 79.106312 
L 545.7 96.791671 
L 555 89.691868 
L 564.3 106.831757 
L 573.6 88.043889 
L 582.9 79.543496 
L 592.2 68.941617 
L 601.5 92.158357 
L 610.8 72.81899 
L 620.1 99.897279 
L 629.4 93.475385 
L 638.7 92.32989 
" style="fill:none;opacity:0.5;stroke:#808080;stroke-dasharray:7.5,1.5;stroke-dashoffset:0;stroke-width:1.5;"/>
   </g>
   <g id="line2d_43">
    <path clip-path="url(#p87960a7f84)" d="M 90 283.403351 
L 99.3 233.869924 
L 108.6 240.161979 
L 117.9 228.888718 
L 127.2 208.177009 
L 136.5 225.408172 
L 145.8 211.593582 
L 155.1 209.02142 
L 164.4 192.149177 
L 173.7 190.994675 
L 183 177.980754 
L 192.3 179.446985 
L 201.6 154.415916 
L 210.9 164.653062 
L 220.2 189.522485 
L 229.5 145.030161 
L 238.8 159.721997 
L 248.1 154.54718 
L 257.4 144.571226 
L 266.7 142.177045 
L 276 139.896886 
L 285.3 158.422423 
L 294.6 132.718268 
L 303.9 141.107475 
L 313.2 136.956005 
L 322.5 118.530876 
L 331.8 127.270748 
L 341.1 137.821579 
L 350.4 132.736986 
L 359.7 120.26121 
L 369 127.377164 
L 378.3 111.393037 
L 387.6 127.313966 
L 396.9 110.043602 
L 406.2 121.966474 
L 415.5 104.396261 
L 424.8 104.283369 
L 434.1 82.563588 
L 443.4 119.055087 
L 452.7 123.905266 
L 462 95.888682 
L 471.3 89.213133 
L 480.6 98.213589 
L 489.9 87.324171 
L 499.2 78.07628 
L 508.5 79.55354 
L 517.8 108.336242 
L 527.1 76.426048 
L 536.4 93.548111 
L 545.7 92.164949 
L 555 63.831044 
L 564.3 95.205278 
L 573.6 104.667798 
L 582.9 99.281554 
L 592.2 103.539217 
L 601.5 99.34972 
L 610.8 83.81146 
L 620.1 100.57423 
L 629.4 91.700201 
L 638.7 115.159556 
" style="fill:none;opacity:0.5;stroke:#808080;stroke-dasharray:7.5,1.5;stroke-dashoffset:0;stroke-width:1.5;"/>
   </g>
   <g id="line2d_44">
    <path clip-path="url(#p87960a7f84)" d="M 90 297.012741 
L 99.3 253.687962 
L 108.6 241.358585 
L 117.9 226.819335 
L 127.2 223.507624 
L 136.5 235.044811 
L 145.8 229.91979 
L 155.1 223.846143 
L 164.4 220.799991 
L 173.7 212.5286 
L 183 210.568337 
L 192.3 185.827603 
L 201.6 208.021055 
L 210.9 181.335129 
L 220.2 179.398106 
L 229.5 171.056709 
L 238.8 182.154526 
L 248.1 170.533869 
L 257.4 165.743951 
L 266.7 177.97666 
L 276 162.061105 
L 285.3 173.113607 
L 294.6 156.84259 
L 303.9 164.626382 
L 313.2 145.217954 
L 322.5 147.063919 
L 331.8 157.727476 
L 341.1 149.906476 
L 350.4 126.416878 
L 359.7 136.610013 
L 369 142.936488 
L 378.3 140.724871 
L 387.6 126.108171 
L 396.9 124.591797 
L 406.2 129.768559 
L 415.5 129.477476 
L 424.8 134.288433 
L 434.1 111.57758 
L 443.4 107.952122 
L 452.7 104.98442 
L 462 96.554838 
L 471.3 117.545418 
L 480.6 127.178643 
L 489.9 121.026502 
L 499.2 125.077031 
L 508.5 108.466561 
L 517.8 121.449262 
L 527.1 101.153805 
L 536.4 119.084072 
L 545.7 119.298774 
L 555 112.156568 
L 564.3 119.311621 
L 573.6 118.737015 
L 582.9 89.630236 
L 592.2 106.863576 
L 601.5 100.462817 
L 610.8 111.620697 
L 620.1 106.743244 
L 629.4 108.749428 
L 638.7 93.422069 
" style="fill:none;opacity:0.5;stroke:#808080;stroke-dasharray:7.5,1.5;stroke-dashoffset:0;stroke-width:1.5;"/>
   </g>
   <g id="line2d_45">
    <path clip-path="url(#p87960a7f84)" d="M 90 292.583896 
L 99.3 231.439851 
L 108.6 227.031828 
L 117.9 224.017071 
L 127.2 217.304239 
L 136.5 237.174228 
L 145.8 209.926167 
L 155.1 208.337088 
L 164.4 204.498959 
L 173.7 189.147439 
L 183 197.609338 
L 192.3 194.343751 
L 201.6 210.521815 
L 210.9 202.49277 
L 220.2 190.360529 
L 229.5 178.488771 
L 238.8 176.140223 
L 248.1 192.616088 
L 257.4 154.80298 
L 266.7 160.348281 
L 276 163.516179 
L 285.3 165.36319 
L 294.6 148.34398 
L 303.9 136.852397 
L 313.2 144.709392 
L 322.5 127.009636 
L 331.8 150.807077 
L 341.1 154.433445 
L 350.4 124.927883 
L 359.7 114.046989 
L 369 154.361434 
L 378.3 127.109229 
L 387.6 106.423109 
L 396.9 136.381519 
L 406.2 124.791752 
L 415.5 117.502644 
L 424.8 107.688937 
L 434.1 118.045614 
L 443.4 116.106098 
L 452.7 113.448374 
L 462 105.20464 
L 471.3 104.030098 
L 480.6 124.300525 
L 489.9 92.45686 
L 499.2 94.424483 
L 508.5 102.052952 
L 517.8 114.366138 
L 527.1 98.340735 
L 536.4 99.78577 
L 545.7 86.720615 
L 555 89.048844 
L 564.3 124.269956 
L 573.6 129.893764 
L 582.9 92.283104 
L 592.2 84.072084 
L 601.5 116.806381 
L 610.8 101.015111 
L 620.1 79.476774 
L 629.4 118.191138 
L 638.7 120.631202 
" style="fill:none;opacity:0.5;stroke:#808080;stroke-dasharray:7.5,1.5;stroke-dashoffset:0;stroke-width:1.5;"/>
   </g>
   <g id="line2d_46">
    <path clip-path="url(#p87960a7f84)" d="M 90 290.511068 
L 99.3 244.687347 
L 108.6 239.949195 
L 117.9 222.379449 
L 127.2 227.590971 
L 136.5 233.223707 
L 145.8 219.920234 
L 155.1 222.19011 
L 164.4 210.058255 
L 173.7 230.179889 
L 183 198.982793 
L 192.3 207.370305 
L 201.6 202.435088 
L 210.9 183.238282 
L 220.2 178.858282 
L 229.5 169.374134 
L 238.8 170.875867 
L 248.1 190.930616 
L 257.4 174.736076 
L 266.7 181.730143 
L 276 168.574665 
L 285.3 173.390936 
L 294.6 154.287892 
L 303.9 171.475916 
L 313.2 131.58087 
L 322.5 135.622706 
L 331.8 142.09551 
L 341.1 140.520443 
L 350.4 108.170394 
L 359.7 114.392035 
L 369 148.964062 
L 378.3 126.451261 
L 387.6 129.592389 
L 396.9 118.890084 
L 406.2 147.404593 
L 415.5 139.796532 
L 424.8 129.397432 
L 434.1 122.603996 
L 443.4 107.148649 
L 452.7 120.884477 
L 462 116.105181 
L 471.3 104.718677 
L 480.6 126.316291 
L 489.9 109.168834 
L 499.2 133.170647 
L 508.5 119.691919 
L 517.8 117.522958 
L 527.1 96.920279 
L 536.4 123.478415 
L 545.7 100.805153 
L 555 94.908493 
L 564.3 104.889399 
L 573.6 103.739313 
L 582.9 75.229989 
L 592.2 97.024508 
L 601.5 116.793543 
L 610.8 98.71325 
L 620.1 95.378107 
L 629.4 100.425183 
L 638.7 114.001498 
" style="fill:none;opacity:0.5;stroke:#808080;stroke-dasharray:7.5,1.5;stroke-dashoffset:0;stroke-width:1.5;"/>
   </g>
   <g id="line2d_47">
    <path clip-path="url(#p87960a7f84)" d="M 90 288.447379 
L 99.3 229.974765 
L 108.6 227.951216 
L 117.9 199.509323 
L 127.2 214.797727 
L 136.5 214.859058 
L 145.8 189.105284 
L 155.1 196.962285 
L 164.4 176.099191 
L 173.7 186.927032 
L 183 187.43516 
L 192.3 193.017563 
L 201.6 179.132034 
L 210.9 194.174366 
L 220.2 183.981218 
L 229.5 162.593398 
L 238.8 169.148286 
L 248.1 158.008011 
L 257.4 151.733311 
L 266.7 151.435112 
L 276 132.565981 
L 285.3 128.610533 
L 294.6 140.93651 
L 303.9 124.732032 
L 313.2 116.410557 
L 322.5 107.67987 
L 331.8 125.85658 
L 341.1 134.484979 
L 350.4 117.55197 
L 359.7 118.100291 
L 369 122.972076 
L 378.3 90.051589 
L 387.6 123.837131 
L 396.9 95.092875 
L 406.2 83.395162 
L 415.5 106.626984 
L 424.8 113.353026 
L 434.1 103.377836 
L 443.4 123.860607 
L 452.7 107.981575 
L 462 90.543637 
L 471.3 112.374066 
L 480.6 114.387478 
L 489.9 85.029431 
L 499.2 93.339097 
L 508.5 68.050523 
L 517.8 78.031138 
L 527.1 84.126464 
L 536.4 85.766868 
L 545.7 73.400049 
L 555 79.806819 
L 564.3 94.709604 
L 573.6 111.354158 
L 582.9 84.687365 
L 592.2 82.619158 
L 601.5 111.739519 
L 610.8 64.767627 
L 620.1 96.537019 
L 629.4 97.777246 
L 638.7 76.254155 
" style="fill:none;opacity:0.5;stroke:#808080;stroke-dasharray:7.5,1.5;stroke-dashoffset:0;stroke-width:1.5;"/>
   </g>
   <g id="line2d_48">
    <path clip-path="url(#p87960a7f84)" d="M 90 293.689234 
L 99.3 242.76111 
L 108.6 212.469268 
L 117.9 210.55637 
L 127.2 204.951739 
L 136.5 200.664201 
L 145.8 200.004425 
L 155.1 201.330534 
L 164.4 196.965654 
L 173.7 195.162126 
L 183 173.245541 
L 192.3 188.449878 
L 201.6 171.121247 
L 210.9 180.624777 
L 220.2 167.522718 
L 229.5 156.861512 
L 238.8 170.986161 
L 248.1 161.864306 
L 257.4 153.974946 
L 266.7 179.372913 
L 276 163.465718 
L 285.3 147.44882 
L 294.6 139.512856 
L 303.9 154.305784 
L 313.2 135.591305 
L 322.5 122.699793 
L 331.8 135.289534 
L 341.1 119.768133 
L 350.4 132.003669 
L 359.7 120.340276 
L 369 123.961307 
L 378.3 138.32678 
L 387.6 126.432588 
L 396.9 104.070108 
L 406.2 127.673024 
L 415.5 101.107732 
L 424.8 132.584214 
L 434.1 105.353505 
L 443.4 112.712643 
L 452.7 96.338035 
L 462 96.734002 
L 471.3 119.847919 
L 480.6 106.795865 
L 489.9 102.230915 
L 499.2 129.382891 
L 508.5 110.354735 
L 517.8 99.508445 
L 527.1 81.64757 
L 536.4 116.238184 
L 545.7 86.584786 
L 555 74.749078 
L 564.3 89.355991 
L 573.6 80.619692 
L 582.9 100.955184 
L 592.2 87.86581 
L 601.5 86.546402 
L 610.8 95.94772 
L 620.1 104.098534 
L 629.4 74.132724 
L 638.7 91.728629 
" style="fill:none;opacity:0.5;stroke:#808080;stroke-dasharray:7.5,1.5;stroke-dashoffset:0;stroke-width:1.5;"/>
   </g>
   <g id="line2d_49">
    <path clip-path="url(#p87960a7f84)" d="M 90 289.685145 
L 99.3 237.354045 
L 108.6 229.914656 
L 117.9 219.483842 
L 127.2 216.799567 
L 136.5 220.827178 
L 145.8 208.418958 
L 155.1 207.879344 
L 164.4 200.329571 
L 173.7 198.05515 
L 183 193.871942 
L 192.3 188.596723 
L 201.6 189.203862 
L 210.9 186.418251 
L 220.2 178.392322 
L 229.5 166.576087 
L 238.8 171.943645 
L 248.1 165.069159 
L 257.4 156.807442 
L 266.7 159.059409 
L 276 155.29598 
L 285.3 155.498277 
L 294.6 148.353339 
L 303.9 143.266682 
L 313.2 137.572172 
L 322.5 130.450392 
L 331.8 140.773623 
L 341.1 132.171272 
L 350.4 126.126001 
L 359.7 122.473322 
L 369 133.769262 
L 378.3 119.885758 
L 387.6 123.71384 
L 396.9 118.930939 
L 406.2 117.842425 
L 415.5 118.705293 
L 424.8 115.540353 
L 434.1 110.641485 
L 443.4 117.385815 
L 452.7 109.639327 
L 462 104.368924 
L 471.3 103.812989 
L 480.6 106.609224 
L 489.9 98.760406 
L 499.2 103.748169 
L 508.5 99.957989 
L 517.8 103.745163 
L 527.1 97.306783 
L 536.4 99.115489 
L 545.7 93.487204 
L 555 88.761849 
L 564.3 103.439341 
L 573.6 99.307988 
L 582.9 89.728998 
L 592.2 94.188763 
L 601.5 104.386057 
L 610.8 91.062096 
L 620.1 96.519645 
L 629.4 99.114324 
L 638.7 97.9403 
" style="fill:none;stroke:#2ca02c;stroke-dasharray:7.5,1.5;stroke-dashoffset:0;stroke-width:1.5;"/>
   </g>
   <g id="patch_3">
    <path d="M 90 315 
L 90 43.2 
" style="fill:none;stroke:#000000;stroke-linecap:square;stroke-linejoin:miter;stroke-width:0.8;"/>
   </g>
   <g id="patch_4">
    <path d="M 648 315 
L 648 43.2 
" style="fill:none;stroke:#000000;stroke-linecap:square;stroke-linejoin:miter;stroke-width:0.8;"/>
   </g>
   <g id="patch_5">
    <path d="M 90 315 
L 648 315 
" style="fill:none;stroke:#000000;stroke-linecap:square;stroke-linejoin:miter;stroke-width:0.8;"/>
   </g>
   <g id="patch_6">
    <path d="M 90 43.2 
L 648 43.2 
" style="fill:none;stroke:#000000;stroke-linecap:square;stroke-linejoin:miter;stroke-width:0.8;"/>
   </g>
   <g id="text_19">
    <!-- Results -->
    <defs>
     <path d="M 44.390625 34.1875 
Q 47.5625 33.109375 50.5625 29.59375 
Q 53.5625 26.078125 56.59375 19.921875 
L 66.609375 0 
L 56 0 
L 46.6875 18.703125 
Q 43.0625 26.03125 39.671875 28.421875 
Q 36.28125 30.8125 30.421875 30.8125 
L 19.671875 30.8125 
L 19.671875 0 
L 9.8125 0 
L 9.8125 72.90625 
L 32.078125 72.90625 
Q 44.578125 72.90625 50.734375 67.671875 
Q 56.890625 62.453125 56.890625 51.90625 
Q 56.890625 45.015625 53.6875 40.46875 
Q 50.484375 35.9375 44.390625 34.1875 
z
M 19.671875 64.796875 
L 19.671875 38.921875 
L 32.078125 38.921875 
Q 39.203125 38.921875 42.84375 42.21875 
Q 46.484375 45.515625 46.484375 51.90625 
Q 46.484375 58.296875 42.84375 61.546875 
Q 39.203125 64.796875 32.078125 64.796875 
z
" id="DejaVuSans-52"/>
     <path d="M 8.5 21.578125 
L 8.5 54.6875 
L 17.484375 54.6875 
L 17.484375 21.921875 
Q 17.484375 14.15625 20.5 10.265625 
Q 23.53125 6.390625 29.59375 6.390625 
Q 36.859375 6.390625 41.078125 11.03125 
Q 45.3125 15.671875 45.3125 23.6875 
L 45.3125 54.6875 
L 54.296875 54.6875 
L 54.296875 0 
L 45.3125 0 
L 45.3125 8.40625 
Q 42.046875 3.421875 37.71875 1 
Q 33.40625 -1.421875 27.6875 -1.421875 
Q 18.265625 -1.421875 13.375 4.4375 
Q 8.5 10.296875 8.5 21.578125 
z
M 31.109375 56 
z
" id="DejaVuSans-75"/>
    </defs>
    <g transform="translate(347.07 37.2)scale(0.12 -0.12)">
     <use xlink:href="#DejaVuSans-52"/>
     <use x="69.419922" xlink:href="#DejaVuSans-65"/>
     <use x="130.943359" xlink:href="#DejaVuSans-73"/>
     <use x="183.042969" xlink:href="#DejaVuSans-75"/>
     <use x="246.421875" xlink:href="#DejaVuSans-6c"/>
     <use x="274.205078" xlink:href="#DejaVuSans-74"/>
     <use x="313.414062" xlink:href="#DejaVuSans-73"/>
    </g>
   </g>
   <g id="legend_1">
    <g id="patch_7">
     <path d="M 97 96.06875 
L 281.9 96.06875 
Q 283.9 96.06875 283.9 94.06875 
L 283.9 50.2 
Q 283.9 48.2 281.9 48.2 
L 97 48.2 
Q 95 48.2 95 50.2 
L 95 94.06875 
Q 95 96.06875 97 96.06875 
z
" style="fill:#ffffff;opacity:0.8;stroke:#cccccc;stroke-linejoin:miter;"/>
    </g>
    <g id="line2d_50">
     <path d="M 99 56.298438 
L 119 56.298438 
" style="fill:none;stroke:#1f77b4;stroke-dasharray:;stroke-dashoffset:0;stroke-width:1.5;"/>
    </g>
    <g id="line2d_51"/>
    <g id="text_20">
     <!-- c_shape_sampling.w_factor0.0 -->
     <defs>
      <path d="M 48.78125 52.59375 
L 48.78125 44.1875 
Q 44.96875 46.296875 41.140625 47.34375 
Q 37.3125 48.390625 33.40625 48.390625 
Q 24.65625 48.390625 19.8125 42.84375 
Q 14.984375 37.3125 14.984375 27.296875 
Q 14.984375 17.28125 19.8125 11.734375 
Q 24.65625 6.203125 33.40625 6.203125 
Q 37.3125 6.203125 41.140625 7.25 
Q 44.96875 8.296875 48.78125 10.40625 
L 48.78125 2.09375 
Q 45.015625 0.34375 40.984375 -0.53125 
Q 36.96875 -1.421875 32.421875 -1.421875 
Q 20.0625 -1.421875 12.78125 6.34375 
Q 5.515625 14.109375 5.515625 27.296875 
Q 5.515625 40.671875 12.859375 48.328125 
Q 20.21875 56 33.015625 56 
Q 37.15625 56 41.109375 55.140625 
Q 45.0625 54.296875 48.78125 52.59375 
z
" id="DejaVuSans-63"/>
      <path d="M 54.890625 33.015625 
L 54.890625 0 
L 45.90625 0 
L 45.90625 32.71875 
Q 45.90625 40.484375 42.875 44.328125 
Q 39.84375 48.1875 33.796875 48.1875 
Q 26.515625 48.1875 22.3125 43.546875 
Q 18.109375 38.921875 18.109375 30.90625 
L 18.109375 0 
L 9.078125 0 
L 9.078125 75.984375 
L 18.109375 75.984375 
L 18.109375 46.1875 
Q 21.34375 51.125 25.703125 53.5625 
Q 30.078125 56 35.796875 56 
Q 45.21875 56 50.046875 50.171875 
Q 54.890625 44.34375 54.890625 33.015625 
z
" id="DejaVuSans-68"/>
      <path d="M 45.40625 27.984375 
Q 45.40625 37.75 41.375 43.109375 
Q 37.359375 48.484375 30.078125 48.484375 
Q 22.859375 48.484375 18.828125 43.109375 
Q 14.796875 37.75 14.796875 27.984375 
Q 14.796875 18.265625 18.828125 12.890625 
Q 22.859375 7.515625 30.078125 7.515625 
Q 37.359375 7.515625 41.375 12.890625 
Q 45.40625 18.265625 45.40625 27.984375 
z
M 54.390625 6.78125 
Q 54.390625 -7.171875 48.1875 -13.984375 
Q 42 -20.796875 29.203125 -20.796875 
Q 24.46875 -20.796875 20.265625 -20.09375 
Q 16.0625 -19.390625 12.109375 -17.921875 
L 12.109375 -9.1875 
Q 16.0625 -11.328125 19.921875 -12.34375 
Q 23.78125 -13.375 27.78125 -13.375 
Q 36.625 -13.375 41.015625 -8.765625 
Q 45.40625 -4.15625 45.40625 5.171875 
L 45.40625 9.625 
Q 42.625 4.78125 38.28125 2.390625 
Q 33.9375 0 27.875 0 
Q 17.828125 0 11.671875 7.65625 
Q 5.515625 15.328125 5.515625 27.984375 
Q 5.515625 40.671875 11.671875 48.328125 
Q 17.828125 56 27.875 56 
Q 33.9375 56 38.28125 53.609375 
Q 42.625 51.21875 45.40625 46.390625 
L 45.40625 54.6875 
L 54.390625 54.6875 
z
" id="DejaVuSans-67"/>
      <path d="M 10.6875 12.40625 
L 21 12.40625 
L 21 0 
L 10.6875 0 
z
" id="DejaVuSans-2e"/>
      <path d="M 37.109375 75.984375 
L 37.109375 68.5 
L 28.515625 68.5 
Q 23.6875 68.5 21.796875 66.546875 
Q 19.921875 64.59375 19.921875 59.515625 
L 19.921875 54.6875 
L 34.71875 54.6875 
L 34.71875 47.703125 
L 19.921875 47.703125 
L 19.921875 0 
L 10.890625 0 
L 10.890625 47.703125 
L 2.296875 47.703125 
L 2.296875 54.6875 
L 10.890625 54.6875 
L 10.890625 58.5 
Q 10.890625 67.625 15.140625 71.796875 
Q 19.390625 75.984375 28.609375 75.984375 
z
" id="DejaVuSans-66"/>
     </defs>
     <g transform="translate(127 59.798438)scale(0.1 -0.1)">
      <use xlink:href="#DejaVuSans-63"/>
      <use x="54.980469" xlink:href="#DejaVuSans-5f"/>
      <use x="104.980469" xlink:href="#DejaVuSans-73"/>
      <use x="157.080078" xlink:href="#DejaVuSans-68"/>
      <use x="220.458984" xlink:href="#DejaVuSans-61"/>
      <use x="281.738281" xlink:href="#DejaVuSans-70"/>
      <use x="345.214844" xlink:href="#DejaVuSans-65"/>
      <use x="406.738281" xlink:href="#DejaVuSans-5f"/>
      <use x="456.738281" xlink:href="#DejaVuSans-73"/>
      <use x="508.837891" xlink:href="#DejaVuSans-61"/>
      <use x="570.117188" xlink:href="#DejaVuSans-6d"/>
      <use x="667.529297" xlink:href="#DejaVuSans-70"/>
      <use x="731.005859" xlink:href="#DejaVuSans-6c"/>
      <use x="758.789062" xlink:href="#DejaVuSans-69"/>
      <use x="786.572266" xlink:href="#DejaVuSans-6e"/>
      <use x="849.951172" xlink:href="#DejaVuSans-67"/>
      <use x="913.427734" xlink:href="#DejaVuSans-2e"/>
      <use x="945.214844" xlink:href="#DejaVuSans-77"/>
      <use x="1027.001953" xlink:href="#DejaVuSans-5f"/>
      <use x="1077.001953" xlink:href="#DejaVuSans-66"/>
      <use x="1112.207031" xlink:href="#DejaVuSans-61"/>
      <use x="1173.486328" xlink:href="#DejaVuSans-63"/>
      <use x="1228.466797" xlink:href="#DejaVuSans-74"/>
      <use x="1267.675781" xlink:href="#DejaVuSans-6f"/>
      <use x="1328.857422" xlink:href="#DejaVuSans-72"/>
      <use x="1369.970703" xlink:href="#DejaVuSans-30"/>
      <use x="1433.59375" xlink:href="#DejaVuSans-2e"/>
      <use x="1465.380859" xlink:href="#DejaVuSans-30"/>
     </g>
    </g>
    <g id="line2d_52">
     <path d="M 99 71.254688 
L 119 71.254688 
" style="fill:none;stroke:#ff7f0e;stroke-dasharray:1.5,1.5;stroke-dashoffset:0;stroke-width:1.5;"/>
    </g>
    <g id="line2d_53"/>
    <g id="text_21">
     <!-- c_shape_sampling.w_factor0.5 -->
     <g transform="translate(127 74.754688)scale(0.1 -0.1)">
      <use xlink:href="#DejaVuSans-63"/>
      <use x="54.980469" xlink:href="#DejaVuSans-5f"/>
      <use x="104.980469" xlink:href="#DejaVuSans-73"/>
      <use x="157.080078" xlink:href="#DejaVuSans-68"/>
      <use x="220.458984" xlink:href="#DejaVuSans-61"/>
      <use x="281.738281" xlink:href="#DejaVuSans-70"/>
      <use x="345.214844" xlink:href="#DejaVuSans-65"/>
      <use x="406.738281" xlink:href="#DejaVuSans-5f"/>
      <use x="456.738281" xlink:href="#DejaVuSans-73"/>
      <use x="508.837891" xlink:href="#DejaVuSans-61"/>
      <use x="570.117188" xlink:href="#DejaVuSans-6d"/>
      <use x="667.529297" xlink:href="#DejaVuSans-70"/>
      <use x="731.005859" xlink:href="#DejaVuSans-6c"/>
      <use x="758.789062" xlink:href="#DejaVuSans-69"/>
      <use x="786.572266" xlink:href="#DejaVuSans-6e"/>
      <use x="849.951172" xlink:href="#DejaVuSans-67"/>
      <use x="913.427734" xlink:href="#DejaVuSans-2e"/>
      <use x="945.214844" xlink:href="#DejaVuSans-77"/>
      <use x="1027.001953" xlink:href="#DejaVuSans-5f"/>
      <use x="1077.001953" xlink:href="#DejaVuSans-66"/>
      <use x="1112.207031" xlink:href="#DejaVuSans-61"/>
      <use x="1173.486328" xlink:href="#DejaVuSans-63"/>
      <use x="1228.466797" xlink:href="#DejaVuSans-74"/>
      <use x="1267.675781" xlink:href="#DejaVuSans-6f"/>
      <use x="1328.857422" xlink:href="#DejaVuSans-72"/>
      <use x="1369.970703" xlink:href="#DejaVuSans-30"/>
      <use x="1433.59375" xlink:href="#DejaVuSans-2e"/>
      <use x="1465.380859" xlink:href="#DejaVuSans-35"/>
     </g>
    </g>
    <g id="line2d_54">
     <path d="M 99 86.210938 
L 119 86.210938 
" style="fill:none;stroke:#2ca02c;stroke-dasharray:7.5,1.5;stroke-dashoffset:0;stroke-width:1.5;"/>
    </g>
    <g id="line2d_55"/>
    <g id="text_22">
     <!-- c_shape_sampling.w_factor1.0 -->
     <g transform="translate(127 89.710938)scale(0.1 -0.1)">
      <use xlink:href="#DejaVuSans-63"/>
      <use x="54.980469" xlink:href="#DejaVuSans-5f"/>
      <use x="104.980469" xlink:href="#DejaVuSans-73"/>
      <use x="157.080078" xlink:href="#DejaVuSans-68"/>
      <use x="220.458984" xlink:href="#DejaVuSans-61"/>
      <use x="281.738281" xlink:href="#DejaVuSans-70"/>
      <use x="345.214844" xlink:href="#DejaVuSans-65"/>
      <use x="406.738281" xlink:href="#DejaVuSans-5f"/>
      <use x="456.738281" xlink:href="#DejaVuSans-73"/>
      <use x="508.837891" xlink:href="#DejaVuSans-61"/>
      <use x="570.117188" xlink:href="#DejaVuSans-6d"/>
      <use x="667.529297" xlink:href="#DejaVuSans-70"/>
      <use x="731.005859" xlink:href="#DejaVuSans-6c"/>
      <use x="758.789062" xlink:href="#DejaVuSans-69"/>
      <use x="786.572266" xlink:href="#DejaVuSans-6e"/>
      <use x="849.951172" xlink:href="#DejaVuSans-67"/>
      <use x="913.427734" xlink:href="#DejaVuSans-2e"/>
      <use x="945.214844" xlink:href="#DejaVuSans-77"/>
      <use x="1027.001953" xlink:href="#DejaVuSans-5f"/>
      <use x="1077.001953" xlink:href="#DejaVuSans-66"/>
      <use x="1112.207031" xlink:href="#DejaVuSans-61"/>
      <use x="1173.486328" xlink:href="#DejaVuSans-63"/>
      <use x="1228.466797" xlink:href="#DejaVuSans-74"/>
      <use x="1267.675781" xlink:href="#DejaVuSans-6f"/>
      <use x="1328.857422" xlink:href="#DejaVuSans-72"/>
      <use x="1369.970703" xlink:href="#DejaVuSans-31"/>
      <use x="1433.59375" xlink:href="#DejaVuSans-2e"/>
      <use x="1465.380859" xlink:href="#DejaVuSans-30"/>
     </g>
    </g>
   </g>
  </g>
 </g>
 <defs>
  <clipPath id="p87960a7f84">
   <rect height="271.8" width="558" x="90" y="43.2"/>
  </clipPath>
 </defs>
</svg>
