<?xml version="1.0" encoding="utf-8" standalone="no"?>
<!DOCTYPE svg PUBLIC "-//W3C//DTD SVG 1.1//EN"
  "http://www.w3.org/Graphics/SVG/1.1/DTD/svg11.dtd">
<!-- Created with matplotlib (https://matplotlib.org/) -->
<svg height="360pt" version="1.1" viewBox="0 0 720 360" width="720pt" xmlns="http://www.w3.org/2000/svg" xmlns:xlink="http://www.w3.org/1999/xlink">
 <defs>
  <style type="text/css">
*{stroke-linecap:butt;stroke-linejoin:round;}
  </style>
 </defs>
 <g id="figure_1">
  <g id="patch_1">
   <path d="M 0 360 
L 720 360 
L 720 0 
L 0 0 
z
" style="fill:#ffffff;"/>
  </g>
  <g id="axes_1">
   <g id="patch_2">
    <path d="M 90 320.4 
L 648 320.4 
L 648 43.2 
L 90 43.2 
z
" style="fill:#ffffff;"/>
   </g>
   <g id="PolyCollection_1">
    <path clip-path="url(#p4b6a511662)" d="M 90 278.468834 
L 90 307.8 
L 99.3 258.396511 
L 108.6 271.630315 
L 117.9 252.769786 
L 127.2 251.919142 
L 136.5 256.005115 
L 145.8 245.508204 
L 155.1 256.716737 
L 164.4 245.017061 
L 173.7 252.849013 
L 183 249.531324 
L 192.3 242.664495 
L 201.6 243.450195 
L 210.9 239.761271 
L 220.2 227.461996 
L 229.5 237.076094 
L 238.8 242.878353 
L 248.1 241.504274 
L 257.4 223.661805 
L 266.7 237.232195 
L 276 235.99319 
L 285.3 222.863612 
L 294.6 226.564891 
L 303.9 232.485672 
L 313.2 227.096814 
L 322.5 233.842117 
L 331.8 236.402335 
L 341.1 242.838333 
L 350.4 235.066316 
L 359.7 230.901628 
L 369 230.369911 
L 378.3 229.994206 
L 387.6 240.645658 
L 396.9 231.75864 
L 406.2 237.795181 
L 415.5 235.510526 
L 424.8 223.975281 
L 434.1 230.563309 
L 443.4 225.560684 
L 452.7 216.65785 
L 462 232.912089 
L 471.3 231.685761 
L 480.6 232.037637 
L 489.9 220.225158 
L 499.2 236.79288 
L 508.5 233.095883 
L 517.8 219.323423 
L 527.1 214.953795 
L 536.4 228.913328 
L 545.7 212.994189 
L 555 224.916345 
L 564.3 220.483281 
L 573.6 227.676242 
L 582.9 226.57167 
L 592.2 216.829002 
L 601.5 230.209395 
L 610.8 229.336117 
L 620.1 230.405395 
L 629.4 231.690331 
L 638.7 235.253107 
L 638.7 172.29471 
L 638.7 172.29471 
L 629.4 172.128206 
L 620.1 177.745986 
L 610.8 168.998869 
L 601.5 170.307728 
L 592.2 182.444627 
L 582.9 179.806111 
L 573.6 173.654122 
L 564.3 189.107392 
L 555 176.126262 
L 545.7 189.341189 
L 536.4 184.272405 
L 527.1 172.650396 
L 517.8 179.153495 
L 508.5 180.976894 
L 499.2 173.628088 
L 489.9 175.024395 
L 480.6 182.009729 
L 471.3 185.098711 
L 462 171.570392 
L 452.7 180.460236 
L 443.4 185.745532 
L 434.1 175.926457 
L 424.8 181.532035 
L 415.5 179.224576 
L 406.2 175.836832 
L 396.9 183.251635 
L 387.6 176.563216 
L 378.3 187.098703 
L 369 181.888871 
L 359.7 180.341572 
L 350.4 186.776514 
L 341.1 176.609163 
L 331.8 183.059907 
L 322.5 189.961707 
L 313.2 192.16785 
L 303.9 194.718094 
L 294.6 178.826894 
L 285.3 192.672559 
L 276 194.47883 
L 266.7 187.579322 
L 257.4 190.253714 
L 248.1 191.161507 
L 238.8 196.369425 
L 229.5 183.912626 
L 220.2 192.383698 
L 210.9 197.478664 
L 201.6 193.144247 
L 192.3 192.911241 
L 183 202.535395 
L 173.7 195.64527 
L 164.4 208.647525 
L 155.1 199.800159 
L 145.8 218.607108 
L 136.5 199.541556 
L 127.2 221.021297 
L 117.9 214.935774 
L 108.6 229.672108 
L 99.3 219.273899 
L 90 278.468834 
z
" style="fill:#1f77b4;fill-opacity:0.5;"/>
   </g>
   <g id="PolyCollection_2">
    <path clip-path="url(#p4b6a511662)" d="M 90 286.639657 
L 90 303.66344 
L 99.3 277.044434 
L 108.6 273.488218 
L 117.9 268.481681 
L 127.2 271.862307 
L 136.5 266.602785 
L 145.8 264.414454 
L 155.1 255.871052 
L 164.4 254.229653 
L 173.7 254.72142 
L 183 250.671185 
L 192.3 252.507579 
L 201.6 255.585405 
L 210.9 246.09962 
L 220.2 256.120692 
L 229.5 242.513684 
L 238.8 247.253612 
L 248.1 245.428729 
L 257.4 242.09966 
L 266.7 245.443668 
L 276 247.072488 
L 285.3 240.640891 
L 294.6 245.256004 
L 303.9 252.605012 
L 313.2 237.344148 
L 322.5 245.043153 
L 331.8 240.659967 
L 341.1 238.520991 
L 350.4 237.587803 
L 359.7 239.31407 
L 369 235.735869 
L 378.3 241.079702 
L 387.6 230.073352 
L 396.9 232.713105 
L 406.2 230.337672 
L 415.5 234.325691 
L 424.8 235.172509 
L 434.1 235.726573 
L 443.4 230.951998 
L 452.7 236.38662 
L 462 223.953727 
L 471.3 228.370967 
L 480.6 232.305602 
L 489.9 230.444954 
L 499.2 231.216081 
L 508.5 232.215479 
L 517.8 226.357427 
L 527.1 229.601112 
L 536.4 240.232604 
L 545.7 228.101138 
L 555 238.952639 
L 564.3 235.790073 
L 573.6 233.011649 
L 582.9 239.290931 
L 592.2 232.580745 
L 601.5 225.244507 
L 610.8 234.996437 
L 620.1 223.848697 
L 629.4 224.798427 
L 638.7 219.002394 
L 638.7 200.127999 
L 638.7 200.127999 
L 629.4 194.402863 
L 620.1 198.723489 
L 610.8 188.1248 
L 601.5 202.616534 
L 592.2 199.044212 
L 582.9 192.978925 
L 573.6 199.333892 
L 564.3 196.885362 
L 555 196.794401 
L 545.7 202.704235 
L 536.4 200.342453 
L 527.1 208.812299 
L 517.8 206.809589 
L 508.5 195.668887 
L 499.2 205.915584 
L 489.9 199.635085 
L 480.6 196.206758 
L 471.3 208.504319 
L 462 207.072767 
L 452.7 201.918562 
L 443.4 207.301994 
L 434.1 198.745507 
L 424.8 199.093078 
L 415.5 206.816766 
L 406.2 203.264369 
L 396.9 207.147334 
L 387.6 204.640196 
L 378.3 202.62704 
L 369 212.888271 
L 359.7 209.397723 
L 350.4 209.950786 
L 341.1 210.164799 
L 331.8 209.614579 
L 322.5 204.589156 
L 313.2 210.517913 
L 303.9 206.859407 
L 294.6 216.011504 
L 285.3 217.488375 
L 276 212.114793 
L 266.7 218.656977 
L 257.4 216.359217 
L 248.1 216.26673 
L 238.8 221.632332 
L 229.5 220.529812 
L 220.2 218.358452 
L 210.9 227.5256 
L 201.6 218.340482 
L 192.3 227.495274 
L 183 228.598689 
L 173.7 225.414322 
L 164.4 231.02697 
L 155.1 234.792143 
L 145.8 233.550913 
L 136.5 240.255359 
L 127.2 244.914541 
L 117.9 242.311632 
L 108.6 254.588095 
L 99.3 257.100663 
L 90 286.639657 
z
" style="fill:#ff7f0e;fill-opacity:0.5;"/>
   </g>
   <g id="PolyCollection_3">
    <path clip-path="url(#p4b6a511662)" d="M 90 294.47696 
L 90 302.534329 
L 99.3 274.840981 
L 108.6 270.835437 
L 117.9 264.634349 
L 127.2 261.070839 
L 136.5 261.800325 
L 145.8 246.097106 
L 155.1 243.025916 
L 164.4 233.265575 
L 173.7 222.87792 
L 183 219.827262 
L 192.3 216.961022 
L 201.6 209.608158 
L 210.9 206.393313 
L 220.2 203.547129 
L 229.5 192.198276 
L 238.8 180.754398 
L 248.1 185.157828 
L 257.4 168.640623 
L 266.7 184.939525 
L 276 176.852258 
L 285.3 169.484535 
L 294.6 153.43045 
L 303.9 157.062482 
L 313.2 154.768874 
L 322.5 146.535371 
L 331.8 138.653221 
L 341.1 155.169976 
L 350.4 152.926554 
L 359.7 148.825853 
L 369 159.932354 
L 378.3 140.880513 
L 387.6 154.660156 
L 396.9 143.914168 
L 406.2 136.929612 
L 415.5 143.74183 
L 424.8 146.745267 
L 434.1 130.157275 
L 443.4 148.991003 
L 452.7 139.78529 
L 462 138.799216 
L 471.3 125.524315 
L 480.6 136.446546 
L 489.9 141.163369 
L 499.2 144.941341 
L 508.5 126.612421 
L 517.8 133.592593 
L 527.1 109.390488 
L 536.4 124.012661 
L 545.7 121.081567 
L 555 123.817567 
L 564.3 117.348981 
L 573.6 129.908562 
L 582.9 131.651035 
L 592.2 130.592753 
L 601.5 141.450768 
L 610.8 132.659111 
L 620.1 140.551085 
L 629.4 131.1772 
L 638.7 116.717528 
L 638.7 68.912235 
L 638.7 68.912235 
L 629.4 62.771025 
L 620.1 80.49395 
L 610.8 65.860742 
L 601.5 73.539409 
L 592.2 61.55862 
L 582.9 86.506036 
L 573.6 68.39972 
L 564.3 62.436703 
L 555 69.80502 
L 545.7 76.115555 
L 536.4 77.562036 
L 527.1 73.737248 
L 517.8 63.809972 
L 508.5 63.726668 
L 499.2 63.613284 
L 489.9 62.289515 
L 480.6 69.127832 
L 471.3 71.534968 
L 462 92.095562 
L 452.7 81.314658 
L 443.4 67.986396 
L 434.1 68.695718 
L 424.8 69.49086 
L 415.5 66.880644 
L 406.2 81.710394 
L 396.9 81.913227 
L 387.6 96.188794 
L 378.3 88.904188 
L 369 85.832531 
L 359.7 81.248282 
L 350.4 101.179002 
L 341.1 86.301265 
L 331.8 92.705209 
L 322.5 102.02442 
L 313.2 105.262125 
L 303.9 100.11397 
L 294.6 107.400609 
L 285.3 100.48599 
L 276 92.276389 
L 266.7 97.23852 
L 257.4 122.652156 
L 248.1 119.646768 
L 238.8 117.623097 
L 229.5 131.714952 
L 220.2 131.782018 
L 210.9 128.527913 
L 201.6 124.458098 
L 192.3 136.640235 
L 183 150.462899 
L 173.7 153.990467 
L 164.4 164.749264 
L 155.1 175.949913 
L 145.8 185.613661 
L 136.5 185.388655 
L 127.2 193.661269 
L 117.9 221.904192 
L 108.6 228.470344 
L 99.3 245.500686 
L 90 294.47696 
z
" style="fill:#2ca02c;fill-opacity:0.5;"/>
   </g>
   <g id="matplotlib.axis_1">
    <g id="xtick_1">
     <g id="line2d_1">
      <defs>
       <path d="M 0 0 
L 0 3.5 
" id="m806b1f154c" style="stroke:#000000;stroke-width:0.8;"/>
      </defs>
      <g>
       <use style="stroke:#000000;stroke-width:0.8;" x="90" xlink:href="#m806b1f154c" y="320.4"/>
      </g>
     </g>
     <g id="text_1">
      <!-- 0 -->
      <defs>
       <path d="M 31.78125 66.40625 
Q 24.171875 66.40625 20.328125 58.90625 
Q 16.5 51.421875 16.5 36.375 
Q 16.5 21.390625 20.328125 13.890625 
Q 24.171875 6.390625 31.78125 6.390625 
Q 39.453125 6.390625 43.28125 13.890625 
Q 47.125 21.390625 47.125 36.375 
Q 47.125 51.421875 43.28125 58.90625 
Q 39.453125 66.40625 31.78125 66.40625 
z
M 31.78125 74.21875 
Q 44.046875 74.21875 50.515625 64.515625 
Q 56.984375 54.828125 56.984375 36.375 
Q 56.984375 17.96875 50.515625 8.265625 
Q 44.046875 -1.421875 31.78125 -1.421875 
Q 19.53125 -1.421875 13.0625 8.265625 
Q 6.59375 17.96875 6.59375 36.375 
Q 6.59375 54.828125 13.0625 64.515625 
Q 19.53125 74.21875 31.78125 74.21875 
z
" id="DejaVuSans-48"/>
      </defs>
      <g transform="translate(86.81875 334.998438)scale(0.1 -0.1)">
       <use xlink:href="#DejaVuSans-48"/>
      </g>
     </g>
    </g>
    <g id="xtick_2">
     <g id="line2d_2">
      <g>
       <use style="stroke:#000000;stroke-width:0.8;" x="183" xlink:href="#m806b1f154c" y="320.4"/>
      </g>
     </g>
     <g id="text_2">
      <!-- 10 -->
      <defs>
       <path d="M 12.40625 8.296875 
L 28.515625 8.296875 
L 28.515625 63.921875 
L 10.984375 60.40625 
L 10.984375 69.390625 
L 28.421875 72.90625 
L 38.28125 72.90625 
L 38.28125 8.296875 
L 54.390625 8.296875 
L 54.390625 0 
L 12.40625 0 
z
" id="DejaVuSans-49"/>
      </defs>
      <g transform="translate(176.6375 334.998438)scale(0.1 -0.1)">
       <use xlink:href="#DejaVuSans-49"/>
       <use x="63.623047" xlink:href="#DejaVuSans-48"/>
      </g>
     </g>
    </g>
    <g id="xtick_3">
     <g id="line2d_3">
      <g>
       <use style="stroke:#000000;stroke-width:0.8;" x="276" xlink:href="#m806b1f154c" y="320.4"/>
      </g>
     </g>
     <g id="text_3">
      <!-- 20 -->
      <defs>
       <path d="M 19.1875 8.296875 
L 53.609375 8.296875 
L 53.609375 0 
L 7.328125 0 
L 7.328125 8.296875 
Q 12.9375 14.109375 22.625 23.890625 
Q 32.328125 33.6875 34.8125 36.53125 
Q 39.546875 41.84375 41.421875 45.53125 
Q 43.3125 49.21875 43.3125 52.78125 
Q 43.3125 58.59375 39.234375 62.25 
Q 35.15625 65.921875 28.609375 65.921875 
Q 23.96875 65.921875 18.8125 64.3125 
Q 13.671875 62.703125 7.8125 59.421875 
L 7.8125 69.390625 
Q 13.765625 71.78125 18.9375 73 
Q 24.125 74.21875 28.421875 74.21875 
Q 39.75 74.21875 46.484375 68.546875 
Q 53.21875 62.890625 53.21875 53.421875 
Q 53.21875 48.921875 51.53125 44.890625 
Q 49.859375 40.875 45.40625 35.40625 
Q 44.1875 33.984375 37.640625 27.21875 
Q 31.109375 20.453125 19.1875 8.296875 
z
" id="DejaVuSans-50"/>
      </defs>
      <g transform="translate(269.6375 334.998438)scale(0.1 -0.1)">
       <use xlink:href="#DejaVuSans-50"/>
       <use x="63.623047" xlink:href="#DejaVuSans-48"/>
      </g>
     </g>
    </g>
    <g id="xtick_4">
     <g id="line2d_4">
      <g>
       <use style="stroke:#000000;stroke-width:0.8;" x="369" xlink:href="#m806b1f154c" y="320.4"/>
      </g>
     </g>
     <g id="text_4">
      <!-- 30 -->
      <defs>
       <path d="M 40.578125 39.3125 
Q 47.65625 37.796875 51.625 33 
Q 55.609375 28.21875 55.609375 21.1875 
Q 55.609375 10.40625 48.1875 4.484375 
Q 40.765625 -1.421875 27.09375 -1.421875 
Q 22.515625 -1.421875 17.65625 -0.515625 
Q 12.796875 0.390625 7.625 2.203125 
L 7.625 11.71875 
Q 11.71875 9.328125 16.59375 8.109375 
Q 21.484375 6.890625 26.8125 6.890625 
Q 36.078125 6.890625 40.9375 10.546875 
Q 45.796875 14.203125 45.796875 21.1875 
Q 45.796875 27.640625 41.28125 31.265625 
Q 36.765625 34.90625 28.71875 34.90625 
L 20.21875 34.90625 
L 20.21875 43.015625 
L 29.109375 43.015625 
Q 36.375 43.015625 40.234375 45.921875 
Q 44.09375 48.828125 44.09375 54.296875 
Q 44.09375 59.90625 40.109375 62.90625 
Q 36.140625 65.921875 28.71875 65.921875 
Q 24.65625 65.921875 20.015625 65.03125 
Q 15.375 64.15625 9.8125 62.3125 
L 9.8125 71.09375 
Q 15.4375 72.65625 20.34375 73.4375 
Q 25.25 74.21875 29.59375 74.21875 
Q 40.828125 74.21875 47.359375 69.109375 
Q 53.90625 64.015625 53.90625 55.328125 
Q 53.90625 49.265625 50.4375 45.09375 
Q 46.96875 40.921875 40.578125 39.3125 
z
" id="DejaVuSans-51"/>
      </defs>
      <g transform="translate(362.6375 334.998438)scale(0.1 -0.1)">
       <use xlink:href="#DejaVuSans-51"/>
       <use x="63.623047" xlink:href="#DejaVuSans-48"/>
      </g>
     </g>
    </g>
    <g id="xtick_5">
     <g id="line2d_5">
      <g>
       <use style="stroke:#000000;stroke-width:0.8;" x="462" xlink:href="#m806b1f154c" y="320.4"/>
      </g>
     </g>
     <g id="text_5">
      <!-- 40 -->
      <defs>
       <path d="M 37.796875 64.3125 
L 12.890625 25.390625 
L 37.796875 25.390625 
z
M 35.203125 72.90625 
L 47.609375 72.90625 
L 47.609375 25.390625 
L 58.015625 25.390625 
L 58.015625 17.1875 
L 47.609375 17.1875 
L 47.609375 0 
L 37.796875 0 
L 37.796875 17.1875 
L 4.890625 17.1875 
L 4.890625 26.703125 
z
" id="DejaVuSans-52"/>
      </defs>
      <g transform="translate(455.6375 334.998438)scale(0.1 -0.1)">
       <use xlink:href="#DejaVuSans-52"/>
       <use x="63.623047" xlink:href="#DejaVuSans-48"/>
      </g>
     </g>
    </g>
    <g id="xtick_6">
     <g id="line2d_6">
      <g>
       <use style="stroke:#000000;stroke-width:0.8;" x="555" xlink:href="#m806b1f154c" y="320.4"/>
      </g>
     </g>
     <g id="text_6">
      <!-- 50 -->
      <defs>
       <path d="M 10.796875 72.90625 
L 49.515625 72.90625 
L 49.515625 64.59375 
L 19.828125 64.59375 
L 19.828125 46.734375 
Q 21.96875 47.46875 24.109375 47.828125 
Q 26.265625 48.1875 28.421875 48.1875 
Q 40.625 48.1875 47.75 41.5 
Q 54.890625 34.8125 54.890625 23.390625 
Q 54.890625 11.625 47.5625 5.09375 
Q 40.234375 -1.421875 26.90625 -1.421875 
Q 22.3125 -1.421875 17.546875 -0.640625 
Q 12.796875 0.140625 7.71875 1.703125 
L 7.71875 11.625 
Q 12.109375 9.234375 16.796875 8.0625 
Q 21.484375 6.890625 26.703125 6.890625 
Q 35.15625 6.890625 40.078125 11.328125 
Q 45.015625 15.765625 45.015625 23.390625 
Q 45.015625 31 40.078125 35.4375 
Q 35.15625 39.890625 26.703125 39.890625 
Q 22.75 39.890625 18.8125 39.015625 
Q 14.890625 38.140625 10.796875 36.28125 
z
" id="DejaVuSans-53"/>
      </defs>
      <g transform="translate(548.6375 334.998438)scale(0.1 -0.1)">
       <use xlink:href="#DejaVuSans-53"/>
       <use x="63.623047" xlink:href="#DejaVuSans-48"/>
      </g>
     </g>
    </g>
    <g id="xtick_7">
     <g id="line2d_7">
      <g>
       <use style="stroke:#000000;stroke-width:0.8;" x="648" xlink:href="#m806b1f154c" y="320.4"/>
      </g>
     </g>
     <g id="text_7">
      <!-- 60 -->
      <defs>
       <path d="M 33.015625 40.375 
Q 26.375 40.375 22.484375 35.828125 
Q 18.609375 31.296875 18.609375 23.390625 
Q 18.609375 15.53125 22.484375 10.953125 
Q 26.375 6.390625 33.015625 6.390625 
Q 39.65625 6.390625 43.53125 10.953125 
Q 47.40625 15.53125 47.40625 23.390625 
Q 47.40625 31.296875 43.53125 35.828125 
Q 39.65625 40.375 33.015625 40.375 
z
M 52.59375 71.296875 
L 52.59375 62.3125 
Q 48.875 64.0625 45.09375 64.984375 
Q 41.3125 65.921875 37.59375 65.921875 
Q 27.828125 65.921875 22.671875 59.328125 
Q 17.53125 52.734375 16.796875 39.40625 
Q 19.671875 43.65625 24.015625 45.921875 
Q 28.375 48.1875 33.59375 48.1875 
Q 44.578125 48.1875 50.953125 41.515625 
Q 57.328125 34.859375 57.328125 23.390625 
Q 57.328125 12.15625 50.6875 5.359375 
Q 44.046875 -1.421875 33.015625 -1.421875 
Q 20.359375 -1.421875 13.671875 8.265625 
Q 6.984375 17.96875 6.984375 36.375 
Q 6.984375 53.65625 15.1875 63.9375 
Q 23.390625 74.21875 37.203125 74.21875 
Q 40.921875 74.21875 44.703125 73.484375 
Q 48.484375 72.75 52.59375 71.296875 
z
" id="DejaVuSans-54"/>
      </defs>
      <g transform="translate(641.6375 334.998438)scale(0.1 -0.1)">
       <use xlink:href="#DejaVuSans-54"/>
       <use x="63.623047" xlink:href="#DejaVuSans-48"/>
      </g>
     </g>
    </g>
    <g id="text_8">
     <!-- iterations -->
     <defs>
      <path d="M 9.421875 54.6875 
L 18.40625 54.6875 
L 18.40625 0 
L 9.421875 0 
z
M 9.421875 75.984375 
L 18.40625 75.984375 
L 18.40625 64.59375 
L 9.421875 64.59375 
z
" id="DejaVuSans-105"/>
      <path d="M 18.3125 70.21875 
L 18.3125 54.6875 
L 36.8125 54.6875 
L 36.8125 47.703125 
L 18.3125 47.703125 
L 18.3125 18.015625 
Q 18.3125 11.328125 20.140625 9.421875 
Q 21.96875 7.515625 27.59375 7.515625 
L 36.8125 7.515625 
L 36.8125 0 
L 27.59375 0 
Q 17.1875 0 13.234375 3.875 
Q 9.28125 7.765625 9.28125 18.015625 
L 9.28125 47.703125 
L 2.6875 47.703125 
L 2.6875 54.6875 
L 9.28125 54.6875 
L 9.28125 70.21875 
z
" id="DejaVuSans-116"/>
      <path d="M 56.203125 29.59375 
L 56.203125 25.203125 
L 14.890625 25.203125 
Q 15.484375 15.921875 20.484375 11.0625 
Q 25.484375 6.203125 34.421875 6.203125 
Q 39.59375 6.203125 44.453125 7.46875 
Q 49.3125 8.734375 54.109375 11.28125 
L 54.109375 2.78125 
Q 49.265625 0.734375 44.1875 -0.34375 
Q 39.109375 -1.421875 33.890625 -1.421875 
Q 20.796875 -1.421875 13.15625 6.1875 
Q 5.515625 13.8125 5.515625 26.8125 
Q 5.515625 40.234375 12.765625 48.109375 
Q 20.015625 56 32.328125 56 
Q 43.359375 56 49.78125 48.890625 
Q 56.203125 41.796875 56.203125 29.59375 
z
M 47.21875 32.234375 
Q 47.125 39.59375 43.09375 43.984375 
Q 39.0625 48.390625 32.421875 48.390625 
Q 24.90625 48.390625 20.390625 44.140625 
Q 15.875 39.890625 15.1875 32.171875 
z
" id="DejaVuSans-101"/>
      <path d="M 41.109375 46.296875 
Q 39.59375 47.171875 37.8125 47.578125 
Q 36.03125 48 33.890625 48 
Q 26.265625 48 22.1875 43.046875 
Q 18.109375 38.09375 18.109375 28.8125 
L 18.109375 0 
L 9.078125 0 
L 9.078125 54.6875 
L 18.109375 54.6875 
L 18.109375 46.1875 
Q 20.953125 51.171875 25.484375 53.578125 
Q 30.03125 56 36.53125 56 
Q 37.453125 56 38.578125 55.875 
Q 39.703125 55.765625 41.0625 55.515625 
z
" id="DejaVuSans-114"/>
      <path d="M 34.28125 27.484375 
Q 23.390625 27.484375 19.1875 25 
Q 14.984375 22.515625 14.984375 16.5 
Q 14.984375 11.71875 18.140625 8.90625 
Q 21.296875 6.109375 26.703125 6.109375 
Q 34.1875 6.109375 38.703125 11.40625 
Q 43.21875 16.703125 43.21875 25.484375 
L 43.21875 27.484375 
z
M 52.203125 31.203125 
L 52.203125 0 
L 43.21875 0 
L 43.21875 8.296875 
Q 40.140625 3.328125 35.546875 0.953125 
Q 30.953125 -1.421875 24.3125 -1.421875 
Q 15.921875 -1.421875 10.953125 3.296875 
Q 6 8.015625 6 15.921875 
Q 6 25.140625 12.171875 29.828125 
Q 18.359375 34.515625 30.609375 34.515625 
L 43.21875 34.515625 
L 43.21875 35.40625 
Q 43.21875 41.609375 39.140625 45 
Q 35.0625 48.390625 27.6875 48.390625 
Q 23 48.390625 18.546875 47.265625 
Q 14.109375 46.140625 10.015625 43.890625 
L 10.015625 52.203125 
Q 14.9375 54.109375 19.578125 55.046875 
Q 24.21875 56 28.609375 56 
Q 40.484375 56 46.34375 49.84375 
Q 52.203125 43.703125 52.203125 31.203125 
z
" id="DejaVuSans-97"/>
      <path d="M 30.609375 48.390625 
Q 23.390625 48.390625 19.1875 42.75 
Q 14.984375 37.109375 14.984375 27.296875 
Q 14.984375 17.484375 19.15625 11.84375 
Q 23.34375 6.203125 30.609375 6.203125 
Q 37.796875 6.203125 41.984375 11.859375 
Q 46.1875 17.53125 46.1875 27.296875 
Q 46.1875 37.015625 41.984375 42.703125 
Q 37.796875 48.390625 30.609375 48.390625 
z
M 30.609375 56 
Q 42.328125 56 49.015625 48.375 
Q 55.71875 40.765625 55.71875 27.296875 
Q 55.71875 13.875 49.015625 6.21875 
Q 42.328125 -1.421875 30.609375 -1.421875 
Q 18.84375 -1.421875 12.171875 6.21875 
Q 5.515625 13.875 5.515625 27.296875 
Q 5.515625 40.765625 12.171875 48.375 
Q 18.84375 56 30.609375 56 
z
" id="DejaVuSans-111"/>
      <path d="M 54.890625 33.015625 
L 54.890625 0 
L 45.90625 0 
L 45.90625 32.71875 
Q 45.90625 40.484375 42.875 44.328125 
Q 39.84375 48.1875 33.796875 48.1875 
Q 26.515625 48.1875 22.3125 43.546875 
Q 18.109375 38.921875 18.109375 30.90625 
L 18.109375 0 
L 9.078125 0 
L 9.078125 54.6875 
L 18.109375 54.6875 
L 18.109375 46.1875 
Q 21.34375 51.125 25.703125 53.5625 
Q 30.078125 56 35.796875 56 
Q 45.21875 56 50.046875 50.171875 
Q 54.890625 44.34375 54.890625 33.015625 
z
" id="DejaVuSans-110"/>
      <path d="M 44.28125 53.078125 
L 44.28125 44.578125 
Q 40.484375 46.53125 36.375 47.5 
Q 32.28125 48.484375 27.875 48.484375 
Q 21.1875 48.484375 17.84375 46.4375 
Q 14.5 44.390625 14.5 40.28125 
Q 14.5 37.15625 16.890625 35.375 
Q 19.28125 33.59375 26.515625 31.984375 
L 29.59375 31.296875 
Q 39.15625 29.25 43.1875 25.515625 
Q 47.21875 21.78125 47.21875 15.09375 
Q 47.21875 7.46875 41.1875 3.015625 
Q 35.15625 -1.421875 24.609375 -1.421875 
Q 20.21875 -1.421875 15.453125 -0.5625 
Q 10.6875 0.296875 5.421875 2 
L 5.421875 11.28125 
Q 10.40625 8.6875 15.234375 7.390625 
Q 20.0625 6.109375 24.8125 6.109375 
Q 31.15625 6.109375 34.5625 8.28125 
Q 37.984375 10.453125 37.984375 14.40625 
Q 37.984375 18.0625 35.515625 20.015625 
Q 33.0625 21.96875 24.703125 23.78125 
L 21.578125 24.515625 
Q 13.234375 26.265625 9.515625 29.90625 
Q 5.8125 33.546875 5.8125 39.890625 
Q 5.8125 47.609375 11.28125 51.796875 
Q 16.75 56 26.8125 56 
Q 31.78125 56 36.171875 55.265625 
Q 40.578125 54.546875 44.28125 53.078125 
z
" id="DejaVuSans-115"/>
     </defs>
     <g transform="translate(345.272656 348.676562)scale(0.1 -0.1)">
      <use xlink:href="#DejaVuSans-105"/>
      <use x="27.783203" xlink:href="#DejaVuSans-116"/>
      <use x="66.992188" xlink:href="#DejaVuSans-101"/>
      <use x="128.515625" xlink:href="#DejaVuSans-114"/>
      <use x="169.628906" xlink:href="#DejaVuSans-97"/>
      <use x="230.908203" xlink:href="#DejaVuSans-116"/>
      <use x="270.117188" xlink:href="#DejaVuSans-105"/>
      <use x="297.900391" xlink:href="#DejaVuSans-111"/>
      <use x="359.082031" xlink:href="#DejaVuSans-110"/>
      <use x="422.460938" xlink:href="#DejaVuSans-115"/>
     </g>
    </g>
   </g>
   <g id="matplotlib.axis_2">
    <g id="ytick_1">
     <g id="line2d_8">
      <defs>
       <path d="M 0 0 
L -3.5 0 
" id="mf1e65da423" style="stroke:#000000;stroke-width:0.8;"/>
      </defs>
      <g>
       <use style="stroke:#000000;stroke-width:0.8;" x="90" xlink:href="#mf1e65da423" y="273.838251"/>
      </g>
     </g>
     <g id="text_9">
      <!-- 0 -->
      <g transform="translate(76.6375 277.63747)scale(0.1 -0.1)">
       <use xlink:href="#DejaVuSans-48"/>
      </g>
     </g>
    </g>
    <g id="ytick_2">
     <g id="line2d_9">
      <g>
       <use style="stroke:#000000;stroke-width:0.8;" x="90" xlink:href="#mf1e65da423" y="223.107814"/>
      </g>
     </g>
     <g id="text_10">
      <!-- 5 -->
      <g transform="translate(76.6375 226.907032)scale(0.1 -0.1)">
       <use xlink:href="#DejaVuSans-53"/>
      </g>
     </g>
    </g>
    <g id="ytick_3">
     <g id="line2d_10">
      <g>
       <use style="stroke:#000000;stroke-width:0.8;" x="90" xlink:href="#mf1e65da423" y="172.377376"/>
      </g>
     </g>
     <g id="text_11">
      <!-- 10 -->
      <g transform="translate(70.275 176.176595)scale(0.1 -0.1)">
       <use xlink:href="#DejaVuSans-49"/>
       <use x="63.623047" xlink:href="#DejaVuSans-48"/>
      </g>
     </g>
    </g>
    <g id="ytick_4">
     <g id="line2d_11">
      <g>
       <use style="stroke:#000000;stroke-width:0.8;" x="90" xlink:href="#mf1e65da423" y="121.646939"/>
      </g>
     </g>
     <g id="text_12">
      <!-- 15 -->
      <g transform="translate(70.275 125.446158)scale(0.1 -0.1)">
       <use xlink:href="#DejaVuSans-49"/>
       <use x="63.623047" xlink:href="#DejaVuSans-53"/>
      </g>
     </g>
    </g>
    <g id="ytick_5">
     <g id="line2d_12">
      <g>
       <use style="stroke:#000000;stroke-width:0.8;" x="90" xlink:href="#mf1e65da423" y="70.916501"/>
      </g>
     </g>
     <g id="text_13">
      <!-- 20 -->
      <g transform="translate(70.275 74.71572)scale(0.1 -0.1)">
       <use xlink:href="#DejaVuSans-50"/>
       <use x="63.623047" xlink:href="#DejaVuSans-48"/>
      </g>
     </g>
    </g>
    <g id="text_14">
     <!-- samples_episode_reward_mean -->
     <defs>
      <path d="M 52 44.1875 
Q 55.375 50.25 60.0625 53.125 
Q 64.75 56 71.09375 56 
Q 79.640625 56 84.28125 50.015625 
Q 88.921875 44.046875 88.921875 33.015625 
L 88.921875 0 
L 79.890625 0 
L 79.890625 32.71875 
Q 79.890625 40.578125 77.09375 44.375 
Q 74.3125 48.1875 68.609375 48.1875 
Q 61.625 48.1875 57.5625 43.546875 
Q 53.515625 38.921875 53.515625 30.90625 
L 53.515625 0 
L 44.484375 0 
L 44.484375 32.71875 
Q 44.484375 40.625 41.703125 44.40625 
Q 38.921875 48.1875 33.109375 48.1875 
Q 26.21875 48.1875 22.15625 43.53125 
Q 18.109375 38.875 18.109375 30.90625 
L 18.109375 0 
L 9.078125 0 
L 9.078125 54.6875 
L 18.109375 54.6875 
L 18.109375 46.1875 
Q 21.1875 51.21875 25.484375 53.609375 
Q 29.78125 56 35.6875 56 
Q 41.65625 56 45.828125 52.96875 
Q 50 49.953125 52 44.1875 
z
" id="DejaVuSans-109"/>
      <path d="M 18.109375 8.203125 
L 18.109375 -20.796875 
L 9.078125 -20.796875 
L 9.078125 54.6875 
L 18.109375 54.6875 
L 18.109375 46.390625 
Q 20.953125 51.265625 25.265625 53.625 
Q 29.59375 56 35.59375 56 
Q 45.5625 56 51.78125 48.09375 
Q 58.015625 40.1875 58.015625 27.296875 
Q 58.015625 14.40625 51.78125 6.484375 
Q 45.5625 -1.421875 35.59375 -1.421875 
Q 29.59375 -1.421875 25.265625 0.953125 
Q 20.953125 3.328125 18.109375 8.203125 
z
M 48.6875 27.296875 
Q 48.6875 37.203125 44.609375 42.84375 
Q 40.53125 48.484375 33.40625 48.484375 
Q 26.265625 48.484375 22.1875 42.84375 
Q 18.109375 37.203125 18.109375 27.296875 
Q 18.109375 17.390625 22.1875 11.75 
Q 26.265625 6.109375 33.40625 6.109375 
Q 40.53125 6.109375 44.609375 11.75 
Q 48.6875 17.390625 48.6875 27.296875 
z
" id="DejaVuSans-112"/>
      <path d="M 9.421875 75.984375 
L 18.40625 75.984375 
L 18.40625 0 
L 9.421875 0 
z
" id="DejaVuSans-108"/>
      <path d="M 50.984375 -16.609375 
L 50.984375 -23.578125 
L -0.984375 -23.578125 
L -0.984375 -16.609375 
z
" id="DejaVuSans-95"/>
      <path d="M 45.40625 46.390625 
L 45.40625 75.984375 
L 54.390625 75.984375 
L 54.390625 0 
L 45.40625 0 
L 45.40625 8.203125 
Q 42.578125 3.328125 38.25 0.953125 
Q 33.9375 -1.421875 27.875 -1.421875 
Q 17.96875 -1.421875 11.734375 6.484375 
Q 5.515625 14.40625 5.515625 27.296875 
Q 5.515625 40.1875 11.734375 48.09375 
Q 17.96875 56 27.875 56 
Q 33.9375 56 38.25 53.625 
Q 42.578125 51.265625 45.40625 46.390625 
z
M 14.796875 27.296875 
Q 14.796875 17.390625 18.875 11.75 
Q 22.953125 6.109375 30.078125 6.109375 
Q 37.203125 6.109375 41.296875 11.75 
Q 45.40625 17.390625 45.40625 27.296875 
Q 45.40625 37.203125 41.296875 42.84375 
Q 37.203125 48.484375 30.078125 48.484375 
Q 22.953125 48.484375 18.875 42.84375 
Q 14.796875 37.203125 14.796875 27.296875 
z
" id="DejaVuSans-100"/>
      <path d="M 4.203125 54.6875 
L 13.1875 54.6875 
L 24.421875 12.015625 
L 35.59375 54.6875 
L 46.1875 54.6875 
L 57.421875 12.015625 
L 68.609375 54.6875 
L 77.59375 54.6875 
L 63.28125 0 
L 52.6875 0 
L 40.921875 44.828125 
L 29.109375 0 
L 18.5 0 
z
" id="DejaVuSans-119"/>
     </defs>
     <g transform="translate(63.917187 261.330469)rotate(-90)scale(0.1 -0.1)">
      <use xlink:href="#DejaVuSans-115"/>
      <use x="52.099609" xlink:href="#DejaVuSans-97"/>
      <use x="113.378906" xlink:href="#DejaVuSans-109"/>
      <use x="210.791016" xlink:href="#DejaVuSans-112"/>
      <use x="274.267578" xlink:href="#DejaVuSans-108"/>
      <use x="302.050781" xlink:href="#DejaVuSans-101"/>
      <use x="363.574219" xlink:href="#DejaVuSans-115"/>
      <use x="415.673828" xlink:href="#DejaVuSans-95"/>
      <use x="465.673828" xlink:href="#DejaVuSans-101"/>
      <use x="527.197266" xlink:href="#DejaVuSans-112"/>
      <use x="590.673828" xlink:href="#DejaVuSans-105"/>
      <use x="618.457031" xlink:href="#DejaVuSans-115"/>
      <use x="670.556641" xlink:href="#DejaVuSans-111"/>
      <use x="731.738281" xlink:href="#DejaVuSans-100"/>
      <use x="795.214844" xlink:href="#DejaVuSans-101"/>
      <use x="856.738281" xlink:href="#DejaVuSans-95"/>
      <use x="906.738281" xlink:href="#DejaVuSans-114"/>
      <use x="947.820312" xlink:href="#DejaVuSans-101"/>
      <use x="1009.34375" xlink:href="#DejaVuSans-119"/>
      <use x="1091.130859" xlink:href="#DejaVuSans-97"/>
      <use x="1152.410156" xlink:href="#DejaVuSans-114"/>
      <use x="1193.507812" xlink:href="#DejaVuSans-100"/>
      <use x="1256.984375" xlink:href="#DejaVuSans-95"/>
      <use x="1306.984375" xlink:href="#DejaVuSans-109"/>
      <use x="1404.396484" xlink:href="#DejaVuSans-101"/>
      <use x="1465.919922" xlink:href="#DejaVuSans-97"/>
      <use x="1527.199219" xlink:href="#DejaVuSans-110"/>
     </g>
    </g>
   </g>
   <g id="line2d_13">
    <path clip-path="url(#p4b6a511662)" d="M 90 282.572711 
L 99.3 232.767528 
L 108.6 260.491684 
L 117.9 243.614917 
L 127.2 245.295155 
L 136.5 222.949543 
L 145.8 220.310237 
L 155.1 220.37627 
L 164.4 222.894679 
L 173.7 234.169262 
L 183 222.02346 
L 192.3 217.08136 
L 201.6 198.799258 
L 210.9 218.771667 
L 220.2 201.641112 
L 229.5 200.171685 
L 238.8 212.140502 
L 248.1 197.355056 
L 257.4 197.446349 
L 266.7 212.919322 
L 276 214.73157 
L 285.3 201.820811 
L 294.6 181.074641 
L 303.9 211.360343 
L 313.2 207.51001 
L 322.5 215.047581 
L 331.8 203.050754 
L 341.1 212.006704 
L 350.4 221.796183 
L 359.7 203.699631 
L 369 193.603946 
L 378.3 190.65676 
L 387.6 199.573398 
L 396.9 198.046617 
L 406.2 215.284139 
L 415.5 195.143141 
L 424.8 188.914213 
L 434.1 177.449343 
L 443.4 207.236179 
L 452.7 187.527365 
L 462 187.398122 
L 471.3 198.30274 
L 480.6 185.996679 
L 489.9 175.298097 
L 499.2 207.969873 
L 508.5 203.27644 
L 517.8 188.833949 
L 527.1 176.775368 
L 536.4 192.439655 
L 545.7 198.787537 
L 555 197.942611 
L 564.3 198.891158 
L 573.6 206.965906 
L 582.9 218.523321 
L 592.2 193.803166 
L 601.5 190.11686 
L 610.8 188.642567 
L 620.1 195.000392 
L 629.4 192.007825 
L 638.7 208.446447 
" style="fill:none;stroke:#808080;stroke-dasharray:;stroke-dashoffset:0;stroke-opacity:0.5;stroke-width:1.5;"/>
   </g>
   <g id="line2d_14">
    <path clip-path="url(#p4b6a511662)" d="M 90 287.114451 
L 99.3 247.461132 
L 108.6 237.915311 
L 117.9 246.038334 
L 127.2 240.280843 
L 136.5 212.470328 
L 145.8 231.738513 
L 155.1 232.976546 
L 164.4 216.145315 
L 173.7 214.097973 
L 183 218.758056 
L 192.3 200.858426 
L 201.6 216.738771 
L 210.9 216.641355 
L 220.2 218.183622 
L 229.5 221.580586 
L 238.8 240.235595 
L 248.1 226.815317 
L 257.4 210.972811 
L 266.7 209.35981 
L 276 236.474932 
L 285.3 198.198865 
L 294.6 227.727248 
L 303.9 211.469806 
L 313.2 215.094671 
L 322.5 205.874106 
L 331.8 228.930083 
L 341.1 219.317078 
L 350.4 228.437052 
L 359.7 226.8175 
L 369 200.761723 
L 378.3 213.261851 
L 387.6 221.38139 
L 396.9 202.386766 
L 406.2 206.264895 
L 415.5 205.125087 
L 424.8 191.5831 
L 434.1 202.419736 
L 443.4 211.681193 
L 452.7 210.667776 
L 462 210.620504 
L 471.3 216.617572 
L 480.6 225.359351 
L 489.9 193.170711 
L 499.2 201.322176 
L 508.5 229.430928 
L 517.8 192.554745 
L 527.1 208.541439 
L 536.4 205.16418 
L 545.7 196.345228 
L 555 186.212214 
L 564.3 214.725218 
L 573.6 189.390787 
L 582.9 212.006971 
L 592.2 211.391061 
L 601.5 191.33822 
L 610.8 186.0598 
L 620.1 205.933995 
L 629.4 192.662655 
L 638.7 189.5442 
" style="fill:none;stroke:#808080;stroke-dasharray:;stroke-dashoffset:0;stroke-opacity:0.5;stroke-width:1.5;"/>
   </g>
   <g id="line2d_15">
    <path clip-path="url(#p4b6a511662)" d="M 90 286.414115 
L 99.3 233.716119 
L 108.6 228.428231 
L 117.9 233.400025 
L 127.2 240.923333 
L 136.5 243.003979 
L 145.8 234.425921 
L 155.1 217.278099 
L 164.4 218.624777 
L 173.7 238.314967 
L 183 231.814708 
L 192.3 221.946728 
L 201.6 224.117586 
L 210.9 223.15675 
L 220.2 218.772292 
L 229.5 219.161103 
L 238.8 209.187647 
L 248.1 225.773254 
L 257.4 206.99599 
L 266.7 185.806748 
L 276 216.53225 
L 285.3 196.769465 
L 294.6 194.617691 
L 303.9 210.34194 
L 313.2 204.389971 
L 322.5 192.651692 
L 331.8 199.062136 
L 341.1 172.158356 
L 350.4 203.703751 
L 359.7 205.092806 
L 369 214.194753 
L 378.3 203.939335 
L 387.6 188.108143 
L 396.9 199.816946 
L 406.2 217.878809 
L 415.5 215.279732 
L 424.8 197.128951 
L 434.1 194.361362 
L 443.4 205.461448 
L 452.7 201.431349 
L 462 215.889715 
L 471.3 195.267707 
L 480.6 200.347554 
L 489.9 199.036535 
L 499.2 174.439346 
L 508.5 200.344624 
L 517.8 190.464326 
L 527.1 178.842265 
L 536.4 207.236424 
L 545.7 200.068219 
L 555 191.991036 
L 564.3 206.605662 
L 573.6 175.533551 
L 582.9 207.059338 
L 592.2 213.023562 
L 601.5 208.029379 
L 610.8 204.796301 
L 620.1 195.493924 
L 629.4 196.824386 
L 638.7 218.444761 
" style="fill:none;stroke:#808080;stroke-dasharray:;stroke-dashoffset:0;stroke-opacity:0.5;stroke-width:1.5;"/>
   </g>
   <g id="line2d_16">
    <path clip-path="url(#p4b6a511662)" d="M 90 296.726423 
L 99.3 243.958 
L 108.6 260.805361 
L 117.9 236.914331 
L 127.2 246.789088 
L 136.5 238.663476 
L 145.8 235.217125 
L 155.1 223.322122 
L 164.4 242.985998 
L 173.7 237.044492 
L 183 225.141798 
L 192.3 220.458828 
L 201.6 211.478743 
L 210.9 225.367514 
L 220.2 193.472433 
L 229.5 213.015755 
L 238.8 230.884019 
L 248.1 220.228736 
L 257.4 192.077409 
L 266.7 216.607348 
L 276 219.950887 
L 285.3 213.199491 
L 294.6 205.237737 
L 303.9 217.732231 
L 313.2 199.970938 
L 322.5 226.183552 
L 331.8 210.969148 
L 341.1 228.423563 
L 350.4 220.744144 
L 359.7 204.734686 
L 369 217.31834 
L 378.3 216.313241 
L 387.6 210.393083 
L 396.9 223.824325 
L 406.2 210.233268 
L 415.5 221.145165 
L 424.8 206.01787 
L 434.1 202.410972 
L 443.4 192.560051 
L 452.7 192.123494 
L 462 229.004108 
L 471.3 223.48772 
L 480.6 219.858572 
L 489.9 192.075275 
L 499.2 212.009828 
L 508.5 218.370561 
L 517.8 192.514329 
L 527.1 205.711757 
L 536.4 207.451145 
L 545.7 199.300595 
L 555 222.826286 
L 564.3 212.272132 
L 573.6 221.357485 
L 582.9 204.197446 
L 592.2 195.922327 
L 601.5 221.055439 
L 610.8 216.997179 
L 620.1 217.924539 
L 629.4 219.336275 
L 638.7 207.300802 
" style="fill:none;stroke:#808080;stroke-dasharray:;stroke-dashoffset:0;stroke-opacity:0.5;stroke-width:1.5;"/>
   </g>
   <g id="line2d_17">
    <path clip-path="url(#p4b6a511662)" d="M 90 292.116541 
L 99.3 240.00057 
L 108.6 254.782172 
L 117.9 244.643911 
L 127.2 228.788998 
L 136.5 237.70492 
L 145.8 245.258389 
L 155.1 243.333432 
L 164.4 228.014499 
L 173.7 216.520563 
L 183 221.149325 
L 192.3 224.472942 
L 201.6 231.885872 
L 210.9 234.813437 
L 220.2 211.367307 
L 229.5 215.949717 
L 238.8 220.946951 
L 248.1 220.832396 
L 257.4 211.453378 
L 266.7 203.870189 
L 276 209.61107 
L 285.3 205.180492 
L 294.6 201.328487 
L 303.9 203.392593 
L 313.2 221.092934 
L 322.5 223.840775 
L 331.8 199.593717 
L 341.1 194.760499 
L 350.4 212.677324 
L 359.7 184.152859 
L 369 212.004112 
L 378.3 223.736939 
L 387.6 208.163563 
L 396.9 206.501242 
L 406.2 184.136285 
L 415.5 195.022852 
L 424.8 199.047768 
L 434.1 216.255943 
L 443.4 222.433126 
L 452.7 200.520864 
L 462 208.972395 
L 471.3 212.851339 
L 480.6 205.723508 
L 489.9 198.310034 
L 499.2 191.755055 
L 508.5 201.540065 
L 517.8 190.512577 
L 527.1 184.679353 
L 536.4 193.870714 
L 545.7 206.841156 
L 555 212.27332 
L 564.3 191.429119 
L 573.6 189.231927 
L 582.9 198.129666 
L 592.2 185.700547 
L 601.5 209.925024 
L 610.8 216.441122 
L 620.1 199.120412 
L 629.4 203.06379 
L 638.7 185.780698 
" style="fill:none;stroke:#808080;stroke-dasharray:;stroke-dashoffset:0;stroke-opacity:0.5;stroke-width:1.5;"/>
   </g>
   <g id="line2d_18">
    <path clip-path="url(#p4b6a511662)" d="M 90 293.447989 
L 99.3 218.508006 
L 108.6 252.298797 
L 117.9 223.700358 
L 127.2 238.282197 
L 136.5 244.249585 
L 145.8 228.006409 
L 155.1 236.461709 
L 164.4 223.462793 
L 173.7 241.467686 
L 183 243.492219 
L 192.3 242.108099 
L 201.6 223.574873 
L 210.9 205.350822 
L 220.2 202.56201 
L 229.5 198.558646 
L 238.8 231.033038 
L 248.1 218.749532 
L 257.4 200.068234 
L 266.7 232.95223 
L 276 206.381561 
L 285.3 215.37313 
L 294.6 204.121443 
L 303.9 221.177139 
L 313.2 220.662078 
L 322.5 198.025588 
L 331.8 187.283795 
L 341.1 212.391032 
L 350.4 189.250417 
L 359.7 212.601238 
L 369 227.966459 
L 378.3 196.741313 
L 387.6 229.656599 
L 396.9 197.424899 
L 406.2 225.301063 
L 415.5 225.813238 
L 424.8 218.495443 
L 434.1 214.768767 
L 443.4 204.605197 
L 452.7 200.305147 
L 462 186.391187 
L 471.3 224.709178 
L 480.6 210.612403 
L 489.9 190.2539 
L 499.2 225.400396 
L 508.5 196.438273 
L 517.8 209.978347 
L 527.1 194.57727 
L 536.4 213.098874 
L 545.7 208.162176 
L 555 186.534276 
L 564.3 197.784168 
L 573.6 208.629625 
L 582.9 184.615793 
L 592.2 195.480976 
L 601.5 219.562288 
L 610.8 171.34658 
L 620.1 211.698944 
L 629.4 201.808988 
L 638.7 222.369843 
" style="fill:none;stroke:#808080;stroke-dasharray:;stroke-dashoffset:0;stroke-opacity:0.5;stroke-width:1.5;"/>
   </g>
   <g id="line2d_19">
    <path clip-path="url(#p4b6a511662)" d="M 90 303.389799 
L 99.3 246.907575 
L 108.6 255.020954 
L 117.9 233.657746 
L 127.2 232.392281 
L 136.5 239.068431 
L 145.8 236.503501 
L 155.1 243.304989 
L 164.4 217.641881 
L 173.7 206.76733 
L 183 238.546879 
L 192.3 200.900185 
L 201.6 221.139453 
L 210.9 197.447221 
L 220.2 215.99541 
L 229.5 191.264644 
L 238.8 205.477378 
L 248.1 200.433198 
L 257.4 204.518501 
L 266.7 214.604205 
L 276 220.852637 
L 285.3 203.076961 
L 294.6 211.075454 
L 303.9 217.960731 
L 313.2 207.924028 
L 322.5 208.420625 
L 331.8 215.140563 
L 341.1 203.849646 
L 350.4 205.617346 
L 359.7 210.703427 
L 369 206.370826 
L 378.3 211.013566 
L 387.6 221.111984 
L 396.9 192.897773 
L 406.2 183.871054 
L 415.5 223.544011 
L 424.8 193.602605 
L 434.1 217.857027 
L 443.4 193.441126 
L 452.7 197.10986 
L 462 181.690422 
L 471.3 205.862341 
L 480.6 190.214001 
L 489.9 201.883381 
L 499.2 217.790423 
L 508.5 218.262867 
L 517.8 196.282002 
L 527.1 197.572856 
L 536.4 216.482844 
L 545.7 209.389042 
L 555 189.148996 
L 564.3 204.158211 
L 573.6 197.268643 
L 582.9 203.870174 
L 592.2 199.961857 
L 601.5 198.837556 
L 610.8 199.245095 
L 620.1 219.485406 
L 629.4 172.449358 
L 638.7 182.681 
" style="fill:none;stroke:#808080;stroke-dasharray:;stroke-dashoffset:0;stroke-opacity:0.5;stroke-width:1.5;"/>
   </g>
   <g id="line2d_20">
    <path clip-path="url(#p4b6a511662)" d="M 90 293.55773 
L 99.3 252.910056 
L 108.6 251.831136 
L 117.9 216.816177 
L 127.2 221.09881 
L 136.5 213.116929 
L 145.8 225.554744 
L 155.1 197.195884 
L 164.4 228.576381 
L 173.7 217.366144 
L 183 211.210688 
L 192.3 214.404585 
L 201.6 210.294655 
L 210.9 222.484098 
L 220.2 211.419451 
L 229.5 198.91844 
L 238.8 207.398042 
L 248.1 198.914887 
L 257.4 212.842193 
L 266.7 209.606681 
L 276 209.86896 
L 285.3 212.836252 
L 294.6 201.327802 
L 303.9 200.590155 
L 313.2 194.011994 
L 322.5 212.508225 
L 331.8 227.548591 
L 341.1 222.210418 
L 350.4 196.929543 
L 359.7 195.4652 
L 369 191.292596 
L 378.3 213.129019 
L 387.6 178.930207 
L 396.9 215.277467 
L 406.2 206.387149 
L 415.5 201.434643 
L 424.8 213.561982 
L 434.1 194.260984 
L 443.4 219.177289 
L 452.7 214.162211 
L 462 197.028341 
L 471.3 203.561179 
L 480.6 203.533539 
L 489.9 218.647473 
L 499.2 190.0921 
L 508.5 199.158828 
L 517.8 212.989897 
L 527.1 198.528954 
L 536.4 197.520721 
L 545.7 189.702722 
L 555 206.709162 
L 564.3 214.940867 
L 573.6 207.156336 
L 582.9 182.620915 
L 592.2 198.804293 
L 601.5 185.908491 
L 610.8 202.3474 
L 620.1 176.348942 
L 629.4 206.81555 
L 638.7 202.504925 
" style="fill:none;stroke:#808080;stroke-dasharray:;stroke-dashoffset:0;stroke-opacity:0.5;stroke-width:1.5;"/>
   </g>
   <g id="line2d_21">
    <path clip-path="url(#p4b6a511662)" d="M 90 305.882456 
L 99.3 237.488939 
L 108.6 259.079603 
L 117.9 232.139392 
L 127.2 234.747506 
L 136.5 218.309675 
L 145.8 232.27612 
L 155.1 238.481856 
L 164.4 240.122675 
L 173.7 234.158653 
L 183 238.704126 
L 192.3 209.21962 
L 201.6 240.375005 
L 210.9 217.770856 
L 220.2 219.733581 
L 229.5 211.28774 
L 238.8 216.416578 
L 248.1 231.388393 
L 257.4 218.265953 
L 266.7 224.314277 
L 276 220.056567 
L 285.3 215.67466 
L 294.6 203.960236 
L 303.9 233.362108 
L 313.2 210.520878 
L 322.5 214.07603 
L 331.8 219.899242 
L 341.1 223.390713 
L 350.4 216.98994 
L 359.7 219.586331 
L 369 206.300218 
L 378.3 197.994554 
L 387.6 207.466496 
L 396.9 229.955832 
L 406.2 226.092659 
L 415.5 207.992407 
L 424.8 202.554349 
L 434.1 218.943576 
L 443.4 198.957226 
L 452.7 195.789339 
L 462 193.300442 
L 471.3 190.586921 
L 480.6 212.697821 
L 489.9 201.872442 
L 499.2 219.811681 
L 508.5 216.820528 
L 517.8 214.007482 
L 527.1 196.416987 
L 536.4 229.436463 
L 545.7 200.966508 
L 555 205.284915 
L 564.3 207.245831 
L 573.6 213.281956 
L 582.9 211.502953 
L 592.2 207.583382 
L 601.5 203.246234 
L 610.8 190.544139 
L 620.1 204.756599 
L 629.4 225.122609 
L 638.7 227.29626 
" style="fill:none;stroke:#808080;stroke-dasharray:;stroke-dashoffset:0;stroke-opacity:0.5;stroke-width:1.5;"/>
   </g>
   <g id="line2d_22">
    <path clip-path="url(#p4b6a511662)" d="M 90 290.121955 
L 99.3 234.634126 
L 108.6 245.858864 
L 117.9 227.602608 
L 127.2 236.103979 
L 136.5 208.196488 
L 145.8 231.285605 
L 155.1 229.853572 
L 164.4 229.853935 
L 173.7 202.564344 
L 183 209.492336 
L 192.3 226.427907 
L 201.6 204.567992 
L 210.9 224.395957 
L 220.2 206.081251 
L 229.5 235.035283 
L 238.8 222.519137 
L 248.1 222.83814 
L 257.4 214.936779 
L 266.7 214.016774 
L 276 197.899663 
L 285.3 215.550726 
L 294.6 196.488187 
L 303.9 208.631788 
L 313.2 215.145819 
L 322.5 222.390949 
L 331.8 205.833182 
L 341.1 208.729467 
L 350.4 213.068447 
L 359.7 193.362322 
L 369 191.480937 
L 378.3 218.677968 
L 387.6 221.259504 
L 396.9 208.919512 
L 406.2 192.710746 
L 415.5 183.175236 
L 424.8 216.630297 
L 434.1 193.721122 
L 443.4 200.978244 
L 452.7 185.953023 
L 462 212.117168 
L 471.3 212.675665 
L 480.6 215.893401 
L 489.9 205.699919 
L 499.2 211.51396 
L 508.5 186.720772 
L 517.8 204.246938 
L 527.1 196.374707 
L 536.4 203.227648 
L 545.7 202.113708 
L 555 206.290218 
L 564.3 199.900995 
L 573.6 197.835604 
L 582.9 209.362331 
L 592.2 194.696971 
L 601.5 174.566124 
L 610.8 215.25475 
L 620.1 214.993753 
L 629.4 209.001248 
L 638.7 193.37015 
" style="fill:none;stroke:#808080;stroke-dasharray:;stroke-dashoffset:0;stroke-opacity:0.5;stroke-width:1.5;"/>
   </g>
   <g id="line2d_23">
    <path clip-path="url(#p4b6a511662)" d="M 90 293.134417 
L 99.3 238.835205 
L 108.6 250.651211 
L 117.9 233.85278 
L 127.2 236.470219 
L 136.5 227.773335 
L 145.8 232.057656 
L 155.1 228.258448 
L 164.4 226.832293 
L 173.7 224.247141 
L 183 226.033359 
L 192.3 217.787868 
L 201.6 218.297221 
L 210.9 218.619968 
L 220.2 209.922847 
L 229.5 210.49436 
L 238.8 219.623889 
L 248.1 216.332891 
L 257.4 206.95776 
L 266.7 212.405758 
L 276 215.23601 
L 285.3 207.768085 
L 294.6 202.695893 
L 303.9 213.601883 
L 313.2 209.632332 
L 322.5 211.901912 
L 331.8 209.731121 
L 341.1 209.723748 
L 350.4 210.921415 
L 359.7 205.6216 
L 369 206.129391 
L 378.3 208.546455 
L 387.6 208.604437 
L 396.9 207.505138 
L 406.2 206.816007 
L 415.5 207.367551 
L 424.8 202.753658 
L 434.1 203.244883 
L 443.4 205.653108 
L 452.7 198.559043 
L 462 202.24124 
L 471.3 208.392236 
L 480.6 207.023683 
L 489.9 197.624777 
L 499.2 205.210484 
L 508.5 207.036389 
L 517.8 199.238459 
L 527.1 193.802096 
L 536.4 206.592867 
L 545.7 201.167689 
L 555 200.521303 
L 564.3 204.795336 
L 573.6 200.665182 
L 582.9 203.188891 
L 592.2 199.636814 
L 601.5 200.258562 
L 610.8 199.167493 
L 620.1 204.07569 
L 629.4 201.909268 
L 638.7 203.773909 
" style="fill:none;stroke:#1f77b4;stroke-dasharray:;stroke-dashoffset:0;stroke-width:1.5;"/>
   </g>
   <g id="line2d_24">
    <path clip-path="url(#p4b6a511662)" d="M 90 297.251731 
L 99.3 271.061699 
L 108.6 267.350797 
L 117.9 254.619084 
L 127.2 263.451978 
L 136.5 254.328871 
L 145.8 252.397791 
L 155.1 243.832357 
L 164.4 236.449178 
L 173.7 232.593504 
L 183 242.040616 
L 192.3 235.749081 
L 201.6 235.302571 
L 210.9 234.894632 
L 220.2 239.007521 
L 229.5 231.371474 
L 238.8 236.59383 
L 248.1 235.764552 
L 257.4 224.038673 
L 266.7 237.807148 
L 276 216.401776 
L 285.3 225.236889 
L 294.6 231.935142 
L 303.9 225.280054 
L 313.2 239.152201 
L 322.5 236.369746 
L 331.8 231.108243 
L 341.1 214.905461 
L 350.4 221.217432 
L 359.7 221.78394 
L 369 222.418011 
L 378.3 224.011229 
L 387.6 213.213147 
L 396.9 219.49697 
L 406.2 208.099421 
L 415.5 222.893513 
L 424.8 212.13612 
L 434.1 211.163348 
L 443.4 219.86719 
L 452.7 214.888558 
L 462 214.678373 
L 471.3 212.383408 
L 480.6 220.316848 
L 489.9 205.295678 
L 499.2 226.829916 
L 508.5 195.801419 
L 517.8 211.296284 
L 527.1 213.229817 
L 536.4 208.565746 
L 545.7 224.167294 
L 555 225.32708 
L 564.3 220.144293 
L 573.6 205.160464 
L 582.9 205.993731 
L 592.2 207.006875 
L 601.5 211.97005 
L 610.8 213.383379 
L 620.1 207.192138 
L 629.4 216.78071 
L 638.7 209.976154 
" style="fill:none;stroke:#808080;stroke-dasharray:1.5,1.5;stroke-dashoffset:0;stroke-opacity:0.5;stroke-width:1.5;"/>
   </g>
   <g id="line2d_25">
    <path clip-path="url(#p4b6a511662)" d="M 90 289.966383 
L 99.3 266.313689 
L 108.6 263.108451 
L 117.9 257.924879 
L 127.2 252.227417 
L 136.5 253.547751 
L 145.8 248.183045 
L 155.1 245.75954 
L 164.4 238.207361 
L 173.7 242.027679 
L 183 234.472601 
L 192.3 240.643323 
L 201.6 235.653127 
L 210.9 238.945498 
L 220.2 229.840565 
L 229.5 231.167501 
L 238.8 240.739741 
L 248.1 236.559998 
L 257.4 224.7421 
L 266.7 239.650174 
L 276 232.999275 
L 285.3 229.679305 
L 294.6 229.14438 
L 303.9 231.553732 
L 313.2 221.860311 
L 322.5 216.128263 
L 331.8 222.094656 
L 341.1 213.976021 
L 350.4 224.266651 
L 359.7 212.170344 
L 369 227.008053 
L 378.3 230.297981 
L 387.6 222.979765 
L 396.9 207.89043 
L 406.2 220.650332 
L 415.5 212.411754 
L 424.8 220.129055 
L 434.1 216.367942 
L 443.4 221.870177 
L 452.7 209.542816 
L 462 213.984938 
L 471.3 220.116487 
L 480.6 217.045364 
L 489.9 208.015674 
L 499.2 225.963725 
L 508.5 219.862736 
L 517.8 220.165608 
L 527.1 223.87925 
L 536.4 221.192364 
L 545.7 210.071796 
L 555 204.24891 
L 564.3 214.38797 
L 573.6 207.516112 
L 582.9 211.628673 
L 592.2 200.963553 
L 601.5 209.422898 
L 610.8 211.485893 
L 620.1 210.137297 
L 629.4 193.023796 
L 638.7 210.577461 
" style="fill:none;stroke:#808080;stroke-dasharray:1.5,1.5;stroke-dashoffset:0;stroke-opacity:0.5;stroke-width:1.5;"/>
   </g>
   <g id="line2d_26">
    <path clip-path="url(#p4b6a511662)" d="M 90 302.026597 
L 99.3 275.183778 
L 108.6 260.710232 
L 117.9 249.045297 
L 127.2 259.078892 
L 136.5 258.210806 
L 145.8 255.09721 
L 155.1 250.688784 
L 164.4 238.923627 
L 173.7 241.531252 
L 183 233.877916 
L 192.3 247.205229 
L 201.6 229.027287 
L 210.9 232.230979 
L 220.2 239.041197 
L 229.5 222.78328 
L 238.8 222.240613 
L 248.1 225.570398 
L 257.4 228.310637 
L 266.7 227.394801 
L 276 225.847829 
L 285.3 220.406003 
L 294.6 216.134502 
L 303.9 212.493637 
L 313.2 221.844915 
L 322.5 234.17472 
L 331.8 228.265424 
L 341.1 227.229605 
L 350.4 213.515182 
L 359.7 216.326951 
L 369 222.709989 
L 378.3 222.338532 
L 387.6 219.888068 
L 396.9 215.470882 
L 406.2 220.688616 
L 415.5 212.597395 
L 424.8 224.939141 
L 434.1 216.900145 
L 443.4 210.186412 
L 452.7 218.414396 
L 462 215.791987 
L 471.3 220.781388 
L 480.6 215.575418 
L 489.9 220.666032 
L 499.2 219.49462 
L 508.5 216.115076 
L 517.8 212.344583 
L 527.1 216.36489 
L 536.4 208.913041 
L 545.7 220.293848 
L 555 237.12698 
L 564.3 227.172804 
L 573.6 225.216197 
L 582.9 216.504793 
L 592.2 214.653747 
L 601.5 214.989731 
L 610.8 222.283662 
L 620.1 217.448343 
L 629.4 207.24807 
L 638.7 211.997866 
" style="fill:none;stroke:#808080;stroke-dasharray:1.5,1.5;stroke-dashoffset:0;stroke-opacity:0.5;stroke-width:1.5;"/>
   </g>
   <g id="line2d_27">
    <path clip-path="url(#p4b6a511662)" d="M 90 301.627107 
L 99.3 272.037609 
L 108.6 272.501523 
L 117.9 260.31788 
L 127.2 258.190775 
L 136.5 263.3104 
L 145.8 256.260937 
L 155.1 251.427398 
L 164.4 246.084157 
L 173.7 230.42644 
L 183 239.175255 
L 192.3 249.268964 
L 201.6 238.564191 
L 210.9 239.482522 
L 220.2 235.062844 
L 229.5 234.572124 
L 238.8 228.295652 
L 248.1 220.096183 
L 257.4 244.039185 
L 266.7 226.714493 
L 276 229.000546 
L 285.3 222.243064 
L 294.6 232.817333 
L 303.9 241.661696 
L 313.2 219.908188 
L 322.5 214.198673 
L 331.8 217.307248 
L 341.1 232.717264 
L 350.4 225.574351 
L 359.7 219.782436 
L 369 222.710213 
L 378.3 233.229079 
L 387.6 224.708611 
L 396.9 221.843154 
L 406.2 216.192271 
L 415.5 221.656765 
L 424.8 227.076632 
L 434.1 214.319309 
L 443.4 221.744172 
L 452.7 215.448234 
L 462 220.441848 
L 471.3 211.290694 
L 480.6 194.930219 
L 489.9 228.813243 
L 499.2 210.502954 
L 508.5 217.660345 
L 517.8 213.506285 
L 527.1 224.807372 
L 536.4 235.266288 
L 545.7 215.5569 
L 555 205.964432 
L 564.3 205.871639 
L 573.6 226.820387 
L 582.9 220.965989 
L 592.2 217.578033 
L 601.5 215.31117 
L 610.8 222.039399 
L 620.1 214.183187 
L 629.4 212.160392 
L 638.7 209.216278 
" style="fill:none;stroke:#808080;stroke-dasharray:1.5,1.5;stroke-dashoffset:0;stroke-opacity:0.5;stroke-width:1.5;"/>
   </g>
   <g id="line2d_28">
    <path clip-path="url(#p4b6a511662)" d="M 90 295.422671 
L 99.3 266.88475 
L 108.6 261.73572 
L 117.9 259.178182 
L 127.2 268.356811 
L 136.5 251.221906 
L 145.8 252.47058 
L 155.1 236.867261 
L 164.4 242.545972 
L 173.7 248.059691 
L 183 243.530535 
L 192.3 242.60992 
L 201.6 243.171541 
L 210.9 238.051776 
L 220.2 241.949716 
L 229.5 224.511431 
L 238.8 231.491509 
L 248.1 221.921354 
L 257.4 221.686164 
L 266.7 229.201139 
L 276 241.30754 
L 285.3 227.246667 
L 294.6 232.676752 
L 303.9 247.721757 
L 313.2 225.156474 
L 322.5 233.253077 
L 331.8 225.040927 
L 341.1 227.157504 
L 350.4 229.498505 
L 359.7 236.378583 
L 369 229.438339 
L 378.3 225.560874 
L 387.6 207.743503 
L 396.9 210.939174 
L 406.2 222.136424 
L 415.5 218.215763 
L 424.8 227.243573 
L 434.1 223.657912 
L 443.4 224.46188 
L 452.7 224.456934 
L 462 209.185558 
L 471.3 215.596642 
L 480.6 203.62682 
L 489.9 211.622174 
L 499.2 213.893347 
L 508.5 222.155533 
L 517.8 212.29768 
L 527.1 213.629209 
L 536.4 228.7003 
L 545.7 211.347509 
L 555 218.283696 
L 564.3 208.054373 
L 573.6 219.008684 
L 582.9 223.782486 
L 592.2 228.825548 
L 601.5 221.214097 
L 610.8 217.076303 
L 620.1 202.767014 
L 629.4 204.815588 
L 638.7 210.315439 
" style="fill:none;stroke:#808080;stroke-dasharray:1.5,1.5;stroke-dashoffset:0;stroke-opacity:0.5;stroke-width:1.5;"/>
   </g>
   <g id="line2d_29">
    <path clip-path="url(#p4b6a511662)" d="M 90 290.655038 
L 99.3 260.116119 
L 108.6 263.21549 
L 117.9 256.220359 
L 127.2 256.453611 
L 136.5 249.808536 
L 145.8 253.100989 
L 155.1 248.751262 
L 164.4 248.307332 
L 173.7 250.577068 
L 183 248.02873 
L 192.3 245.54239 
L 201.6 240.594389 
L 210.9 240.082209 
L 220.2 248.771015 
L 229.5 233.678018 
L 238.8 242.77611 
L 248.1 228.473801 
L 257.4 233.314782 
L 266.7 225.809663 
L 276 243.057676 
L 285.3 230.352314 
L 294.6 226.456161 
L 303.9 233.36271 
L 313.2 223.525196 
L 322.5 214.987179 
L 331.8 229.047706 
L 341.1 232.632036 
L 350.4 233.66549 
L 359.7 227.230363 
L 369 228.752872 
L 378.3 226.063833 
L 387.6 218.371415 
L 396.9 225.257029 
L 406.2 227.517184 
L 415.5 233.694486 
L 424.8 218.724362 
L 434.1 219.839748 
L 443.4 218.891002 
L 452.7 230.658463 
L 462 217.223318 
L 471.3 226.236956 
L 480.6 217.922228 
L 489.9 217.675528 
L 499.2 218.518353 
L 508.5 222.793331 
L 517.8 217.000735 
L 527.1 217.203351 
L 536.4 224.349317 
L 545.7 216.964776 
L 555 208.608457 
L 564.3 219.279523 
L 573.6 224.733365 
L 582.9 228.732225 
L 592.2 224.503545 
L 601.5 217.984073 
L 610.8 217.007436 
L 620.1 213.369636 
L 629.4 205.449984 
L 638.7 210.21926 
" style="fill:none;stroke:#808080;stroke-dasharray:1.5,1.5;stroke-dashoffset:0;stroke-opacity:0.5;stroke-width:1.5;"/>
   </g>
   <g id="line2d_30">
    <path clip-path="url(#p4b6a511662)" d="M 90 295.663157 
L 99.3 270.513507 
L 108.6 271.126675 
L 117.9 267.559162 
L 127.2 268.614048 
L 136.5 256.023566 
L 145.8 251.600316 
L 155.1 249.386398 
L 164.4 255.001252 
L 173.7 248.079753 
L 183 248.264542 
L 192.3 236.360275 
L 201.6 256.118806 
L 210.9 242.911804 
L 220.2 237.447898 
L 229.5 232.988331 
L 238.8 235.332101 
L 248.1 244.620541 
L 257.4 227.483196 
L 266.7 221.911435 
L 276 230.5888 
L 285.3 231.180884 
L 294.6 232.65331 
L 303.9 228.957328 
L 313.2 212.674245 
L 322.5 210.233721 
L 331.8 225.748887 
L 341.1 218.235662 
L 350.4 218.503095 
L 359.7 233.778558 
L 369 225.550218 
L 378.3 202.835732 
L 387.6 214.51514 
L 396.9 225.370327 
L 406.2 214.680132 
L 415.5 225.337019 
L 424.8 202.651567 
L 434.1 235.363996 
L 443.4 222.019974 
L 452.7 220.733868 
L 462 215.261232 
L 471.3 222.963944 
L 480.6 225.863125 
L 489.9 204.096102 
L 499.2 207.392769 
L 508.5 210.49978 
L 517.8 213.417345 
L 527.1 214.92625 
L 536.4 216.486134 
L 545.7 201.939811 
L 555 215.737984 
L 564.3 220.889521 
L 573.6 204.028 
L 582.9 209.073263 
L 592.2 220.628503 
L 601.5 214.601389 
L 610.8 191.204249 
L 620.1 211.767022 
L 629.4 213.872068 
L 638.7 208.565482 
" style="fill:none;stroke:#808080;stroke-dasharray:1.5,1.5;stroke-dashoffset:0;stroke-opacity:0.5;stroke-width:1.5;"/>
   </g>
   <g id="line2d_31">
    <path clip-path="url(#p4b6a511662)" d="M 90 295.197975 
L 99.3 264.08347 
L 108.6 258.550507 
L 117.9 255.463405 
L 127.2 251.01201 
L 136.5 249.691092 
L 145.8 250.800882 
L 155.1 246.581898 
L 164.4 240.416772 
L 173.7 238.946191 
L 183 236.150288 
L 192.3 233.514794 
L 201.6 239.651373 
L 210.9 240.808291 
L 220.2 245.37383 
L 229.5 238.336167 
L 238.8 241.277144 
L 248.1 231.679362 
L 257.4 232.113625 
L 266.7 241.698034 
L 276 217.017235 
L 285.3 235.728783 
L 294.6 234.552668 
L 303.9 228.894966 
L 313.2 223.230975 
L 322.5 232.638515 
L 331.8 225.626626 
L 341.1 219.697882 
L 350.4 233.638893 
L 359.7 222.358402 
L 369 227.619065 
L 378.3 229.268469 
L 387.6 223.087386 
L 396.9 225.119861 
L 406.2 220.664986 
L 415.5 225.77739 
L 424.8 215.855248 
L 434.1 223.758737 
L 443.4 227.362696 
L 452.7 229.853724 
L 462 214.597882 
L 471.3 223.229243 
L 480.6 219.562853 
L 489.9 219.179544 
L 499.2 221.885436 
L 508.5 204.737142 
L 517.8 224.889784 
L 527.1 220.165402 
L 536.4 227.423206 
L 545.7 215.860823 
L 555 228.8509 
L 564.3 226.24464 
L 573.6 219.481545 
L 582.9 237.805902 
L 592.2 216.591079 
L 601.5 220.160409 
L 610.8 224.763662 
L 620.1 218.731463 
L 629.4 218.693088 
L 638.7 218.443413 
" style="fill:none;stroke:#808080;stroke-dasharray:1.5,1.5;stroke-dashoffset:0;stroke-opacity:0.5;stroke-width:1.5;"/>
   </g>
   <g id="line2d_32">
    <path clip-path="url(#p4b6a511662)" d="M 90 291.538396 
L 99.3 263.097565 
L 108.6 262.062696 
L 117.9 248.166207 
L 127.2 249.411594 
L 136.5 239.262374 
L 145.8 235.43626 
L 155.1 236.570332 
L 164.4 237.245641 
L 173.7 231.045287 
L 183 235.733945 
L 192.3 239.227916 
L 201.6 221.653309 
L 210.9 232.483697 
L 220.2 214.867712 
L 229.5 226.586682 
L 238.8 230.90342 
L 248.1 232.225571 
L 257.4 225.225853 
L 266.7 234.765353 
L 276 232.048711 
L 285.3 239.606198 
L 294.6 225.411313 
L 303.9 211.377916 
L 313.2 223.629958 
L 322.5 223.178663 
L 331.8 209.33111 
L 341.1 226.409905 
L 350.4 216.531258 
L 359.7 228.403537 
L 369 209.779102 
L 378.3 213.374463 
L 387.6 207.30992 
L 396.9 224.586385 
L 406.2 206.243141 
L 415.5 220.387527 
L 424.8 220.060826 
L 434.1 201.745377 
L 443.4 215.999505 
L 452.7 203.569368 
L 462 210.475875 
L 471.3 216.447882 
L 480.6 217.297803 
L 489.9 217.022992 
L 499.2 222.215494 
L 508.5 222.78511 
L 517.8 223.550862 
L 527.1 219.077801 
L 536.4 205.657114 
L 545.7 216.831764 
L 555 213.152909 
L 564.3 197.51913 
L 573.6 216.207031 
L 582.9 202.997782 
L 592.2 218.807666 
L 601.5 201.769833 
L 610.8 198.833922 
L 620.1 200.147682 
L 629.4 215.781247 
L 638.7 199.261896 
" style="fill:none;stroke:#808080;stroke-dasharray:1.5,1.5;stroke-dashoffset:0;stroke-opacity:0.5;stroke-width:1.5;"/>
   </g>
   <g id="line2d_33">
    <path clip-path="url(#p4b6a511662)" d="M 90 292.166432 
L 99.3 261.433299 
L 108.6 260.019471 
L 117.9 245.472109 
L 127.2 257.087104 
L 136.5 258.885415 
L 145.8 234.478827 
L 155.1 243.450743 
L 164.4 243.101825 
L 173.7 237.391848 
L 183 235.07494 
L 192.3 229.892372 
L 201.6 229.892839 
L 210.9 228.234692 
L 220.2 241.033422 
L 229.5 239.222474 
L 238.8 234.779596 
L 248.1 231.565536 
L 257.4 231.340169 
L 266.7 235.550986 
L 276 227.667016 
L 285.3 228.966222 
L 294.6 244.555976 
L 303.9 236.018301 
L 313.2 228.327841 
L 322.5 232.998984 
L 331.8 237.801903 
L 341.1 230.467612 
L 350.4 221.282089 
L 359.7 225.345852 
L 369 227.134838 
L 378.3 211.55352 
L 387.6 221.750787 
L 396.9 223.327984 
L 406.2 211.1377 
L 415.5 212.740673 
L 424.8 202.511411 
L 434.1 209.243888 
L 443.4 208.866953 
L 452.7 223.959551 
L 462 223.491454 
L 471.3 215.329792 
L 480.6 210.421124 
L 489.9 218.013225 
L 499.2 218.961711 
L 508.5 207.01136 
L 517.8 217.365912 
L 527.1 228.783717 
L 536.4 226.321773 
L 545.7 220.992344 
L 555 221.433855 
L 564.3 223.813284 
L 573.6 213.555918 
L 582.9 203.864433 
L 592.2 208.566233 
L 601.5 211.881557 
L 610.8 197.528281 
L 620.1 217.117149 
L 629.4 208.181505 
L 638.7 207.078719 
" style="fill:none;stroke:#808080;stroke-dasharray:1.5,1.5;stroke-dashoffset:0;stroke-opacity:0.5;stroke-width:1.5;"/>
   </g>
   <g id="line2d_34">
    <path clip-path="url(#p4b6a511662)" d="M 90 295.151549 
L 99.3 267.072549 
L 108.6 264.038156 
L 117.9 255.396656 
L 127.2 258.388424 
L 136.5 253.429072 
L 145.8 248.982684 
L 155.1 245.331597 
L 164.4 242.628312 
L 173.7 240.067871 
L 183 239.634937 
L 192.3 240.001426 
L 201.6 236.962943 
L 210.9 236.81261 
L 220.2 237.239572 
L 229.5 231.521748 
L 238.8 234.442972 
L 248.1 230.847729 
L 257.4 229.229438 
L 266.7 232.050323 
L 276 229.59364 
L 285.3 229.064633 
L 294.6 230.633754 
L 303.9 229.73221 
L 313.2 223.93103 
L 322.5 224.816154 
L 331.8 225.137273 
L 341.1 224.342895 
L 350.4 223.769295 
L 359.7 224.355897 
L 369 224.31207 
L 378.3 221.853371 
L 387.6 217.356774 
L 396.9 219.93022 
L 406.2 216.801021 
L 415.5 220.571229 
L 424.8 217.132793 
L 434.1 217.23604 
L 443.4 219.126996 
L 452.7 219.152591 
L 462 215.513247 
L 471.3 218.437643 
L 480.6 214.25618 
L 489.9 215.040019 
L 499.2 218.565833 
L 508.5 213.942183 
L 517.8 216.583508 
L 527.1 219.206706 
L 536.4 220.287528 
L 545.7 215.402687 
L 555 217.87352 
L 564.3 216.337718 
L 573.6 216.17277 
L 582.9 216.134928 
L 592.2 215.812478 
L 601.5 213.930521 
L 610.8 211.560619 
L 620.1 211.286093 
L 629.4 209.600645 
L 638.7 209.565197 
" style="fill:none;stroke:#ff7f0e;stroke-dasharray:1.5,1.5;stroke-dashoffset:0;stroke-width:1.5;"/>
   </g>
   <g id="line2d_35">
    <path clip-path="url(#p4b6a511662)" d="M 90 299.091943 
L 99.3 264.190446 
L 108.6 239.427232 
L 117.9 239.618635 
L 127.2 227.253099 
L 136.5 217.563179 
L 145.8 217.739165 
L 155.1 186.222206 
L 164.4 188.21284 
L 173.7 181.777687 
L 183 178.583877 
L 192.3 159.704238 
L 201.6 176.542236 
L 210.9 135.092512 
L 220.2 152.018152 
L 229.5 141.889598 
L 238.8 148.138698 
L 248.1 134.163261 
L 257.4 122.808216 
L 266.7 95.32089 
L 276 128.246102 
L 285.3 104.955726 
L 294.6 115.075964 
L 303.9 106.16792 
L 313.2 107.351057 
L 322.5 102.156711 
L 331.8 94.014231 
L 341.1 94.658207 
L 350.4 122.825782 
L 359.7 109.851259 
L 369 112.641068 
L 378.3 121.05379 
L 387.6 106.655159 
L 396.9 108.279902 
L 406.2 113.386045 
L 415.5 101.231133 
L 424.8 96.260904 
L 434.1 123.897667 
L 443.4 72.192119 
L 452.7 106.372853 
L 462 98.593838 
L 471.3 108.488852 
L 480.6 75.797442 
L 489.9 78.999998 
L 499.2 62.479261 
L 508.5 95.021883 
L 517.8 65.621449 
L 527.1 90.565452 
L 536.4 80.121891 
L 545.7 85.303037 
L 555 77.66119 
L 564.3 67.565966 
L 573.6 72.929082 
L 582.9 116.941157 
L 592.2 104.498142 
L 601.5 104.027684 
L 610.8 111.850135 
L 620.1 101.892645 
L 629.4 107.071408 
L 638.7 112.587639 
" style="fill:none;stroke:#808080;stroke-dasharray:7.5,1.5;stroke-dashoffset:0;stroke-opacity:0.5;stroke-width:1.5;"/>
   </g>
   <g id="line2d_36">
    <path clip-path="url(#p4b6a511662)" d="M 90 294.600352 
L 99.3 262.072122 
L 108.6 266.59581 
L 117.9 243.442895 
L 127.2 242.015886 
L 136.5 232.35535 
L 145.8 221.747893 
L 155.1 199.092008 
L 164.4 210.38522 
L 173.7 194.403365 
L 183 184.286505 
L 192.3 182.864009 
L 201.6 186.597513 
L 210.9 161.047709 
L 220.2 197.037816 
L 229.5 180.485776 
L 238.8 158.2531 
L 248.1 148.773288 
L 257.4 152.766296 
L 266.7 159.340463 
L 276 126.884634 
L 285.3 141.183394 
L 294.6 134.768566 
L 303.9 124.990096 
L 313.2 125.020559 
L 322.5 138.592657 
L 331.8 124.230341 
L 341.1 152.302527 
L 350.4 115.158122 
L 359.7 123.529596 
L 369 147.470322 
L 378.3 121.497794 
L 387.6 110.140725 
L 396.9 126.198433 
L 406.2 110.378386 
L 415.5 95.289965 
L 424.8 116.832691 
L 434.1 119.088379 
L 443.4 108.283281 
L 452.7 126.136567 
L 462 132.0166 
L 471.3 114.565914 
L 480.6 118.688352 
L 489.9 127.653712 
L 499.2 117.538722 
L 508.5 97.750004 
L 517.8 108.691703 
L 527.1 108.537221 
L 536.4 101.417171 
L 545.7 105.449524 
L 555 116.660848 
L 564.3 106.379594 
L 573.6 130.574692 
L 582.9 101.96936 
L 592.2 103.612143 
L 601.5 130.072881 
L 610.8 117.399128 
L 620.1 88.50339 
L 629.4 116.436472 
L 638.7 82.946663 
" style="fill:none;stroke:#808080;stroke-dasharray:7.5,1.5;stroke-dashoffset:0;stroke-opacity:0.5;stroke-width:1.5;"/>
   </g>
   <g id="line2d_37">
    <path clip-path="url(#p4b6a511662)" d="M 90 300.697286 
L 99.3 255.902285 
L 108.6 259.525634 
L 117.9 251.288669 
L 127.2 238.249326 
L 136.5 241.913181 
L 145.8 221.375237 
L 155.1 209.360634 
L 164.4 216.526979 
L 173.7 203.660248 
L 183 189.360791 
L 192.3 177.086105 
L 201.6 184.303624 
L 210.9 177.888948 
L 220.2 166.553938 
L 229.5 170.606083 
L 238.8 148.23039 
L 248.1 149.964886 
L 257.4 143.772765 
L 266.7 140.72108 
L 276 140.602565 
L 285.3 143.219634 
L 294.6 132.909829 
L 303.9 129.718287 
L 313.2 128.664252 
L 322.5 122.487917 
L 331.8 121.32997 
L 341.1 123.482135 
L 350.4 152.484721 
L 359.7 123.145218 
L 369 127.296716 
L 378.3 113.989742 
L 387.6 138.452091 
L 396.9 117.720878 
L 406.2 123.963986 
L 415.5 116.701309 
L 424.8 106.590548 
L 434.1 90.441194 
L 443.4 87.033794 
L 452.7 97.389687 
L 462 114.060413 
L 471.3 96.810355 
L 480.6 88.733166 
L 489.9 92.904846 
L 499.2 92.150024 
L 508.5 89.561419 
L 517.8 90.475058 
L 527.1 91.265584 
L 536.4 108.800775 
L 545.7 84.472862 
L 555 93.120547 
L 564.3 89.501971 
L 573.6 93.185819 
L 582.9 114.780235 
L 592.2 88.23263 
L 601.5 98.12325 
L 610.8 77.649239 
L 620.1 112.850594 
L 629.4 93.208521 
L 638.7 96.724097 
" style="fill:none;stroke:#808080;stroke-dasharray:7.5,1.5;stroke-dashoffset:0;stroke-opacity:0.5;stroke-width:1.5;"/>
   </g>
   <g id="line2d_38">
    <path clip-path="url(#p4b6a511662)" d="M 90 297.402579 
L 99.3 261.728165 
L 108.6 258.69039 
L 117.9 257.577608 
L 127.2 244.909638 
L 136.5 240.459399 
L 145.8 234.097081 
L 155.1 235.102101 
L 164.4 218.146054 
L 173.7 201.377513 
L 183 213.664092 
L 192.3 199.487162 
L 201.6 187.172412 
L 210.9 188.868965 
L 220.2 175.360899 
L 229.5 166.767165 
L 238.8 165.527423 
L 248.1 178.346463 
L 257.4 157.479677 
L 266.7 173.712521 
L 276 158.959181 
L 285.3 160.450555 
L 294.6 142.792566 
L 303.9 149.401359 
L 313.2 128.999602 
L 322.5 136.906312 
L 331.8 128.976033 
L 341.1 126.487274 
L 350.4 144.545335 
L 359.7 143.84052 
L 369 142.054444 
L 378.3 117.051271 
L 387.6 152.451509 
L 396.9 122.780787 
L 406.2 118.359647 
L 415.5 136.1573 
L 424.8 138.97114 
L 434.1 109.246529 
L 443.4 130.567699 
L 452.7 127.317077 
L 462 131.008453 
L 471.3 111.340308 
L 480.6 124.470229 
L 489.9 111.654011 
L 499.2 123.41522 
L 508.5 110.775195 
L 517.8 119.489282 
L 527.1 97.218043 
L 536.4 114.494955 
L 545.7 94.016433 
L 555 109.950541 
L 564.3 112.103706 
L 573.6 103.578289 
L 582.9 122.78337 
L 592.2 119.559007 
L 601.5 113.067492 
L 610.8 114.135328 
L 620.1 131.731395 
L 629.4 101.336334 
L 638.7 105.114412 
" style="fill:none;stroke:#808080;stroke-dasharray:7.5,1.5;stroke-dashoffset:0;stroke-opacity:0.5;stroke-width:1.5;"/>
   </g>
   <g id="line2d_39">
    <path clip-path="url(#p4b6a511662)" d="M 90 298.865953 
L 99.3 258.471236 
L 108.6 237.587545 
L 117.9 224.591072 
L 127.2 210.877182 
L 136.5 214.296951 
L 145.8 201.674227 
L 155.1 209.217879 
L 164.4 178.646457 
L 173.7 157.56303 
L 183 161.989535 
L 192.3 178.75186 
L 201.6 130.226559 
L 210.9 166.900053 
L 220.2 147.845566 
L 229.5 149.276509 
L 238.8 156.124822 
L 248.1 153.13031 
L 257.4 144.887654 
L 266.7 122.945486 
L 276 120.978706 
L 285.3 135.227069 
L 294.6 126.324858 
L 303.9 115.239344 
L 313.2 117.491421 
L 322.5 120.4969 
L 331.8 110.802297 
L 341.1 111.542496 
L 350.4 116.7062 
L 359.7 101.447137 
L 369 132.362166 
L 378.3 110.546345 
L 387.6 126.784741 
L 396.9 117.644971 
L 406.2 79.282861 
L 415.5 98.897941 
L 424.8 117.89509 
L 434.1 75.444828 
L 443.4 120.204263 
L 452.7 100.770222 
L 462 108.164629 
L 471.3 109.299577 
L 480.6 111.132697 
L 489.9 118.940827 
L 499.2 90.218475 
L 508.5 99.067352 
L 517.8 116.38007 
L 527.1 95.628119 
L 536.4 96.043504 
L 545.7 93.655906 
L 555 99.846858 
L 564.3 97.713308 
L 573.6 91.63071 
L 582.9 114.877903 
L 592.2 92.230368 
L 601.5 119.145073 
L 610.8 106.728721 
L 620.1 110.744276 
L 629.4 117.69385 
L 638.7 70.94673 
" style="fill:none;stroke:#808080;stroke-dasharray:7.5,1.5;stroke-dashoffset:0;stroke-opacity:0.5;stroke-width:1.5;"/>
   </g>
   <g id="line2d_40">
    <path clip-path="url(#p4b6a511662)" d="M 90 298.865678 
L 99.3 258.291048 
L 108.6 244.996174 
L 117.9 236.694587 
L 127.2 213.131983 
L 136.5 201.433541 
L 145.8 205.280817 
L 155.1 216.638604 
L 164.4 175.282082 
L 173.7 173.404403 
L 183 172.739665 
L 192.3 143.925485 
L 201.6 152.504225 
L 210.9 134.211889 
L 220.2 151.283773 
L 229.5 142.854003 
L 238.8 110.22291 
L 248.1 152.625063 
L 257.4 161.548049 
L 266.7 147.272518 
L 276 129.804535 
L 285.3 111.692352 
L 294.6 142.588655 
L 303.9 128.990269 
L 313.2 144.716578 
L 322.5 121.447533 
L 331.8 109.668022 
L 341.1 105.900618 
L 350.4 121.701988 
L 359.7 100.256684 
L 369 115.92533 
L 378.3 103.58047 
L 387.6 135.891361 
L 396.9 85.899599 
L 406.2 103.05628 
L 415.5 102.10636 
L 424.8 81.616822 
L 434.1 92.192583 
L 443.4 83.883113 
L 452.7 101.251416 
L 462 106.34653 
L 471.3 68.898747 
L 480.6 104.848724 
L 489.9 130.721152 
L 499.2 114.360677 
L 508.5 89.482387 
L 517.8 77.633135 
L 527.1 89.763702 
L 536.4 112.4733 
L 545.7 118.041021 
L 555 94.008404 
L 564.3 76.597192 
L 573.6 91.605735 
L 582.9 110.970401 
L 592.2 78.192938 
L 601.5 97.372448 
L 610.8 101.613277 
L 620.1 122.306373 
L 629.4 73.885246 
L 638.7 86.058073 
" style="fill:none;stroke:#808080;stroke-dasharray:7.5,1.5;stroke-dashoffset:0;stroke-opacity:0.5;stroke-width:1.5;"/>
   </g>
   <g id="line2d_41">
    <path clip-path="url(#p4b6a511662)" d="M 90 295.764842 
L 99.3 244.419217 
L 108.6 236.946258 
L 117.9 229.059109 
L 127.2 197.828187 
L 136.5 188.062612 
L 145.8 189.810467 
L 155.1 182.958946 
L 164.4 183.390807 
L 173.7 170.445528 
L 183 177.697663 
L 192.3 149.292897 
L 201.6 135.726894 
L 210.9 172.334192 
L 220.2 145.233154 
L 229.5 147.374717 
L 238.8 146.417405 
L 248.1 135.084436 
L 257.4 134.452306 
L 266.7 126.408013 
L 276 87.77311 
L 285.3 120.739165 
L 294.6 114.043917 
L 303.9 114.08308 
L 313.2 134.802329 
L 322.5 117.056868 
L 331.8 107.405769 
L 341.1 105.148735 
L 350.4 128.949564 
L 359.7 95.04937 
L 369 91.746846 
L 378.3 96.721915 
L 387.6 110.781817 
L 396.9 104.453159 
L 406.2 94.936446 
L 415.5 99.076331 
L 424.8 74.306004 
L 434.1 86.878815 
L 443.4 122.143309 
L 452.7 84.058653 
L 462 110.861368 
L 471.3 96.284947 
L 480.6 88.151091 
L 489.9 84.112179 
L 499.2 101.109117 
L 508.5 55.8 
L 517.8 97.110096 
L 527.1 84.611505 
L 536.4 84.428285 
L 545.7 104.187092 
L 555 108.248727 
L 564.3 94.219877 
L 573.6 108.733637 
L 582.9 121.025068 
L 592.2 93.710927 
L 601.5 103.445168 
L 610.8 76.858148 
L 620.1 96.040694 
L 629.4 91.355012 
L 638.7 91.548374 
" style="fill:none;stroke:#808080;stroke-dasharray:7.5,1.5;stroke-dashoffset:0;stroke-opacity:0.5;stroke-width:1.5;"/>
   </g>
   <g id="line2d_42">
    <path clip-path="url(#p4b6a511662)" d="M 90 299.740815 
L 99.3 257.36926 
L 108.6 242.97973 
L 117.9 251.918113 
L 127.2 223.966062 
L 136.5 216.915053 
L 145.8 204.302769 
L 155.1 207.903995 
L 164.4 210.545325 
L 173.7 190.394369 
L 183 173.725558 
L 192.3 180.546489 
L 201.6 159.703986 
L 210.9 170.929786 
L 220.2 176.436634 
L 229.5 166.266903 
L 238.8 149.396904 
L 248.1 131.357179 
L 257.4 141.577881 
L 266.7 140.703699 
L 276 146.452442 
L 285.3 140.069871 
L 294.6 121.131686 
L 303.9 144.610253 
L 313.2 129.45584 
L 322.5 124.636949 
L 331.8 127.723148 
L 341.1 129.377803 
L 350.4 121.029426 
L 359.7 108.531151 
L 369 98.47083 
L 378.3 107.438347 
L 387.6 128.122087 
L 396.9 124.520962 
L 406.2 109.869991 
L 415.5 71.933343 
L 424.8 120.86605 
L 434.1 88.170155 
L 443.4 120.999634 
L 452.7 118.073545 
L 462 105.26273 
L 471.3 88.615825 
L 480.6 86.018507 
L 489.9 100.198264 
L 499.2 116.050576 
L 508.5 107.115185 
L 517.8 97.407183 
L 527.1 81.403745 
L 536.4 103.967491 
L 545.7 101.34455 
L 555 83.037746 
L 564.3 90.477439 
L 573.6 90.338566 
L 582.9 94.910096 
L 592.2 92.042822 
L 601.5 70.329293 
L 610.8 76.340664 
L 620.1 101.930583 
L 629.4 92.223346 
L 638.7 88.14077 
" style="fill:none;stroke:#808080;stroke-dasharray:7.5,1.5;stroke-dashoffset:0;stroke-opacity:0.5;stroke-width:1.5;"/>
   </g>
   <g id="line2d_43">
    <path clip-path="url(#p4b6a511662)" d="M 90 300.741075 
L 99.3 268.539245 
L 108.6 257.202899 
L 117.9 247.791881 
L 127.2 250.799951 
L 136.5 245.161582 
L 145.8 225.936578 
L 155.1 228.400858 
L 164.4 216.865253 
L 173.7 212.379551 
L 183 216.008043 
L 192.3 201.018694 
L 201.6 175.175991 
L 210.9 190.28992 
L 220.2 177.378436 
L 229.5 175.816988 
L 238.8 143.521328 
L 248.1 168.564056 
L 257.4 143.05086 
L 266.7 151.067831 
L 276 159.198321 
L 285.3 146.61363 
L 294.6 128.168159 
L 303.9 128.974767 
L 313.2 150.825237 
L 322.5 137.51481 
L 331.8 107.318886 
L 341.1 119.629302 
L 350.4 113.708622 
L 359.7 139.997331 
L 369 121.085851 
L 378.3 112.267051 
L 387.6 129.065649 
L 396.9 131.755483 
L 406.2 116.427999 
L 415.5 134.539247 
L 424.8 111.151148 
L 434.1 104.186733 
L 443.4 113.285736 
L 452.7 120.907708 
L 462 121.374494 
L 471.3 95.983528 
L 480.6 119.003203 
L 489.9 76.229115 
L 499.2 131.34712 
L 508.5 109.118669 
L 517.8 115.572699 
L 527.1 78.284217 
L 536.4 109.65689 
L 545.7 110.920178 
L 555 105.518258 
L 564.3 76.868155 
L 573.6 99.093303 
L 582.9 103.49628 
L 592.2 122.423898 
L 601.5 116.478859 
L 610.8 95.541024 
L 620.1 134.217281 
L 629.4 110.059842 
L 638.7 101.917533 
" style="fill:none;stroke:#808080;stroke-dasharray:7.5,1.5;stroke-dashoffset:0;stroke-opacity:0.5;stroke-width:1.5;"/>
   </g>
   <g id="line2d_44">
    <path clip-path="url(#p4b6a511662)" d="M 90 299.285923 
L 99.3 270.725314 
L 108.6 252.577235 
L 117.9 250.710135 
L 127.2 224.629228 
L 136.5 237.78405 
L 145.8 236.5896 
L 155.1 219.981911 
L 164.4 192.073179 
L 173.7 198.936241 
L 183 183.395077 
L 192.3 195.329348 
L 201.6 182.37784 
L 210.9 177.042154 
L 220.2 187.497369 
L 229.5 178.228399 
L 238.8 166.054493 
L 248.1 172.014037 
L 257.4 154.120194 
L 266.7 153.397725 
L 276 146.743637 
L 285.3 145.701233 
L 294.6 146.351096 
L 303.9 143.706886 
L 313.2 132.828117 
L 322.5 121.502299 
L 331.8 125.323452 
L 341.1 138.827109 
L 350.4 133.41802 
L 359.7 104.722406 
L 369 139.77085 
L 378.3 144.776778 
L 387.6 115.899611 
L 396.9 89.8828 
L 406.2 123.538388 
L 415.5 97.179439 
L 424.8 116.690236 
L 434.1 104.718078 
L 443.4 126.294047 
L 452.7 123.222013 
L 462 126.784832 
L 471.3 95.008366 
L 480.6 111.02848 
L 489.9 95.850315 
L 499.2 94.103932 
L 508.5 98.00335 
L 517.8 98.632153 
L 527.1 98.361096 
L 536.4 96.469223 
L 545.7 88.595007 
L 555 80.059817 
L 564.3 87.50121 
L 573.6 109.871579 
L 582.9 89.031486 
L 592.2 66.253993 
L 601.5 122.888737 
L 610.8 114.483603 
L 620.1 105.007942 
L 629.4 66.471095 
L 638.7 92.164524 
" style="fill:none;stroke:#808080;stroke-dasharray:7.5,1.5;stroke-dashoffset:0;stroke-opacity:0.5;stroke-width:1.5;"/>
   </g>
   <g id="line2d_45">
    <path clip-path="url(#p4b6a511662)" d="M 90 298.505645 
L 99.3 260.170834 
L 108.6 249.652891 
L 117.9 243.26927 
L 127.2 227.366054 
L 136.5 223.59449 
L 145.8 215.855383 
L 155.1 209.487914 
L 164.4 199.00742 
L 173.7 188.434193 
L 183 185.14508 
L 192.3 176.800629 
L 201.6 167.033128 
L 210.9 167.460613 
L 220.2 167.664574 
L 229.5 161.956614 
L 238.8 149.188747 
L 248.1 152.402298 
L 257.4 145.64639 
L 266.7 141.089023 
L 276 134.564323 
L 285.3 134.985263 
L 294.6 130.41553 
L 303.9 128.588226 
L 313.2 130.015499 
L 322.5 124.279895 
L 331.8 115.679215 
L 341.1 120.735621 
L 350.4 127.052778 
L 359.7 115.037067 
L 369 122.882442 
L 378.3 114.89235 
L 387.6 125.424475 
L 396.9 112.913697 
L 406.2 109.320003 
L 415.5 105.311237 
L 424.8 108.118063 
L 434.1 99.426496 
L 443.4 108.488699 
L 452.7 110.549974 
L 462 115.447389 
L 471.3 98.529642 
L 480.6 102.787189 
L 489.9 101.726442 
L 499.2 104.277313 
L 508.5 95.169544 
L 517.8 98.701283 
L 527.1 91.563868 
L 536.4 100.787348 
L 545.7 98.598561 
L 555 96.811294 
L 564.3 89.892842 
L 573.6 99.154141 
L 582.9 109.078536 
L 592.2 96.075687 
L 601.5 107.495088 
L 610.8 99.259927 
L 620.1 110.522517 
L 629.4 96.974113 
L 638.7 92.814882 
" style="fill:none;stroke:#2ca02c;stroke-dasharray:7.5,1.5;stroke-dashoffset:0;stroke-width:1.5;"/>
   </g>
   <g id="patch_3">
    <path d="M 90 320.4 
L 90 43.2 
" style="fill:none;stroke:#000000;stroke-linecap:square;stroke-linejoin:miter;stroke-width:0.8;"/>
   </g>
   <g id="patch_4">
    <path d="M 648 320.4 
L 648 43.2 
" style="fill:none;stroke:#000000;stroke-linecap:square;stroke-linejoin:miter;stroke-width:0.8;"/>
   </g>
   <g id="patch_5">
    <path d="M 90 320.4 
L 648 320.4 
" style="fill:none;stroke:#000000;stroke-linecap:square;stroke-linejoin:miter;stroke-width:0.8;"/>
   </g>
   <g id="patch_6">
    <path d="M 90 43.2 
L 648 43.2 
" style="fill:none;stroke:#000000;stroke-linecap:square;stroke-linejoin:miter;stroke-width:0.8;"/>
   </g>
   <g id="text_15">
    <!-- Results -->
    <defs>
     <path d="M 44.390625 34.1875 
Q 47.5625 33.109375 50.5625 29.59375 
Q 53.5625 26.078125 56.59375 19.921875 
L 66.609375 0 
L 56 0 
L 46.6875 18.703125 
Q 43.0625 26.03125 39.671875 28.421875 
Q 36.28125 30.8125 30.421875 30.8125 
L 19.671875 30.8125 
L 19.671875 0 
L 9.8125 0 
L 9.8125 72.90625 
L 32.078125 72.90625 
Q 44.578125 72.90625 50.734375 67.671875 
Q 56.890625 62.453125 56.890625 51.90625 
Q 56.890625 45.015625 53.6875 40.46875 
Q 50.484375 35.9375 44.390625 34.1875 
z
M 19.671875 64.796875 
L 19.671875 38.921875 
L 32.078125 38.921875 
Q 39.203125 38.921875 42.84375 42.21875 
Q 46.484375 45.515625 46.484375 51.90625 
Q 46.484375 58.296875 42.84375 61.546875 
Q 39.203125 64.796875 32.078125 64.796875 
z
" id="DejaVuSans-82"/>
     <path d="M 8.5 21.578125 
L 8.5 54.6875 
L 17.484375 54.6875 
L 17.484375 21.921875 
Q 17.484375 14.15625 20.5 10.265625 
Q 23.53125 6.390625 29.59375 6.390625 
Q 36.859375 6.390625 41.078125 11.03125 
Q 45.3125 15.671875 45.3125 23.6875 
L 45.3125 54.6875 
L 54.296875 54.6875 
L 54.296875 0 
L 45.3125 0 
L 45.3125 8.40625 
Q 42.046875 3.421875 37.71875 1 
Q 33.40625 -1.421875 27.6875 -1.421875 
Q 18.265625 -1.421875 13.375 4.4375 
Q 8.5 10.296875 8.5 21.578125 
z
M 31.109375 56 
z
" id="DejaVuSans-117"/>
    </defs>
    <g transform="translate(347.07 37.2)scale(0.12 -0.12)">
     <use xlink:href="#DejaVuSans-82"/>
     <use x="69.419922" xlink:href="#DejaVuSans-101"/>
     <use x="130.943359" xlink:href="#DejaVuSans-115"/>
     <use x="183.042969" xlink:href="#DejaVuSans-117"/>
     <use x="246.421875" xlink:href="#DejaVuSans-108"/>
     <use x="274.205078" xlink:href="#DejaVuSans-116"/>
     <use x="313.414062" xlink:href="#DejaVuSans-115"/>
    </g>
   </g>
   <g id="legend_1">
    <g id="patch_7">
     <path d="M 97 96.06875 
L 260.904688 96.06875 
Q 262.904688 96.06875 262.904688 94.06875 
L 262.904688 50.2 
Q 262.904688 48.2 260.904688 48.2 
L 97 48.2 
Q 95 48.2 95 50.2 
L 95 94.06875 
Q 95 96.06875 97 96.06875 
z
" style="fill:#ffffff;opacity:0.8;stroke:#cccccc;stroke-linejoin:miter;"/>
    </g>
    <g id="line2d_46">
     <path d="M 99 56.298437 
L 119 56.298437 
" style="fill:none;stroke:#1f77b4;stroke-dasharray:;stroke-dashoffset:0;stroke-width:1.5;"/>
    </g>
    <g id="line2d_47"/>
    <g id="text_16">
     <!-- rect_sampling.w_factor0.0 -->
     <defs>
      <path d="M 48.78125 52.59375 
L 48.78125 44.1875 
Q 44.96875 46.296875 41.140625 47.34375 
Q 37.3125 48.390625 33.40625 48.390625 
Q 24.65625 48.390625 19.8125 42.84375 
Q 14.984375 37.3125 14.984375 27.296875 
Q 14.984375 17.28125 19.8125 11.734375 
Q 24.65625 6.203125 33.40625 6.203125 
Q 37.3125 6.203125 41.140625 7.25 
Q 44.96875 8.296875 48.78125 10.40625 
L 48.78125 2.09375 
Q 45.015625 0.34375 40.984375 -0.53125 
Q 36.96875 -1.421875 32.421875 -1.421875 
Q 20.0625 -1.421875 12.78125 6.34375 
Q 5.515625 14.109375 5.515625 27.296875 
Q 5.515625 40.671875 12.859375 48.328125 
Q 20.21875 56 33.015625 56 
Q 37.15625 56 41.109375 55.140625 
Q 45.0625 54.296875 48.78125 52.59375 
z
" id="DejaVuSans-99"/>
      <path d="M 45.40625 27.984375 
Q 45.40625 37.75 41.375 43.109375 
Q 37.359375 48.484375 30.078125 48.484375 
Q 22.859375 48.484375 18.828125 43.109375 
Q 14.796875 37.75 14.796875 27.984375 
Q 14.796875 18.265625 18.828125 12.890625 
Q 22.859375 7.515625 30.078125 7.515625 
Q 37.359375 7.515625 41.375 12.890625 
Q 45.40625 18.265625 45.40625 27.984375 
z
M 54.390625 6.78125 
Q 54.390625 -7.171875 48.1875 -13.984375 
Q 42 -20.796875 29.203125 -20.796875 
Q 24.46875 -20.796875 20.265625 -20.09375 
Q 16.0625 -19.390625 12.109375 -17.921875 
L 12.109375 -9.1875 
Q 16.0625 -11.328125 19.921875 -12.34375 
Q 23.78125 -13.375 27.78125 -13.375 
Q 36.625 -13.375 41.015625 -8.765625 
Q 45.40625 -4.15625 45.40625 5.171875 
L 45.40625 9.625 
Q 42.625 4.78125 38.28125 2.390625 
Q 33.9375 0 27.875 0 
Q 17.828125 0 11.671875 7.65625 
Q 5.515625 15.328125 5.515625 27.984375 
Q 5.515625 40.671875 11.671875 48.328125 
Q 17.828125 56 27.875 56 
Q 33.9375 56 38.28125 53.609375 
Q 42.625 51.21875 45.40625 46.390625 
L 45.40625 54.6875 
L 54.390625 54.6875 
z
" id="DejaVuSans-103"/>
      <path d="M 10.6875 12.40625 
L 21 12.40625 
L 21 0 
L 10.6875 0 
z
" id="DejaVuSans-46"/>
      <path d="M 37.109375 75.984375 
L 37.109375 68.5 
L 28.515625 68.5 
Q 23.6875 68.5 21.796875 66.546875 
Q 19.921875 64.59375 19.921875 59.515625 
L 19.921875 54.6875 
L 34.71875 54.6875 
L 34.71875 47.703125 
L 19.921875 47.703125 
L 19.921875 0 
L 10.890625 0 
L 10.890625 47.703125 
L 2.296875 47.703125 
L 2.296875 54.6875 
L 10.890625 54.6875 
L 10.890625 58.5 
Q 10.890625 67.625 15.140625 71.796875 
Q 19.390625 75.984375 28.609375 75.984375 
z
" id="DejaVuSans-102"/>
     </defs>
     <g transform="translate(127 59.798437)scale(0.1 -0.1)">
      <use xlink:href="#DejaVuSans-114"/>
      <use x="41.082031" xlink:href="#DejaVuSans-101"/>
      <use x="102.605469" xlink:href="#DejaVuSans-99"/>
      <use x="157.585938" xlink:href="#DejaVuSans-116"/>
      <use x="196.794922" xlink:href="#DejaVuSans-95"/>
      <use x="246.794922" xlink:href="#DejaVuSans-115"/>
      <use x="298.894531" xlink:href="#DejaVuSans-97"/>
      <use x="360.173828" xlink:href="#DejaVuSans-109"/>
      <use x="457.585938" xlink:href="#DejaVuSans-112"/>
      <use x="521.0625" xlink:href="#DejaVuSans-108"/>
      <use x="548.845703" xlink:href="#DejaVuSans-105"/>
      <use x="576.628906" xlink:href="#DejaVuSans-110"/>
      <use x="640.007812" xlink:href="#DejaVuSans-103"/>
      <use x="703.484375" xlink:href="#DejaVuSans-46"/>
      <use x="735.271484" xlink:href="#DejaVuSans-119"/>
      <use x="817.058594" xlink:href="#DejaVuSans-95"/>
      <use x="867.058594" xlink:href="#DejaVuSans-102"/>
      <use x="902.263672" xlink:href="#DejaVuSans-97"/>
      <use x="963.542969" xlink:href="#DejaVuSans-99"/>
      <use x="1018.523438" xlink:href="#DejaVuSans-116"/>
      <use x="1057.732422" xlink:href="#DejaVuSans-111"/>
      <use x="1118.914062" xlink:href="#DejaVuSans-114"/>
      <use x="1160.027344" xlink:href="#DejaVuSans-48"/>
      <use x="1223.650391" xlink:href="#DejaVuSans-46"/>
      <use x="1255.4375" xlink:href="#DejaVuSans-48"/>
     </g>
    </g>
    <g id="line2d_48">
     <path d="M 99 71.254687 
L 119 71.254687 
" style="fill:none;stroke:#ff7f0e;stroke-dasharray:1.5,1.5;stroke-dashoffset:0;stroke-width:1.5;"/>
    </g>
    <g id="line2d_49"/>
    <g id="text_17">
     <!-- rect_sampling.w_factor0.5 -->
     <g transform="translate(127 74.754687)scale(0.1 -0.1)">
      <use xlink:href="#DejaVuSans-114"/>
      <use x="41.082031" xlink:href="#DejaVuSans-101"/>
      <use x="102.605469" xlink:href="#DejaVuSans-99"/>
      <use x="157.585938" xlink:href="#DejaVuSans-116"/>
      <use x="196.794922" xlink:href="#DejaVuSans-95"/>
      <use x="246.794922" xlink:href="#DejaVuSans-115"/>
      <use x="298.894531" xlink:href="#DejaVuSans-97"/>
      <use x="360.173828" xlink:href="#DejaVuSans-109"/>
      <use x="457.585938" xlink:href="#DejaVuSans-112"/>
      <use x="521.0625" xlink:href="#DejaVuSans-108"/>
      <use x="548.845703" xlink:href="#DejaVuSans-105"/>
      <use x="576.628906" xlink:href="#DejaVuSans-110"/>
      <use x="640.007812" xlink:href="#DejaVuSans-103"/>
      <use x="703.484375" xlink:href="#DejaVuSans-46"/>
      <use x="735.271484" xlink:href="#DejaVuSans-119"/>
      <use x="817.058594" xlink:href="#DejaVuSans-95"/>
      <use x="867.058594" xlink:href="#DejaVuSans-102"/>
      <use x="902.263672" xlink:href="#DejaVuSans-97"/>
      <use x="963.542969" xlink:href="#DejaVuSans-99"/>
      <use x="1018.523438" xlink:href="#DejaVuSans-116"/>
      <use x="1057.732422" xlink:href="#DejaVuSans-111"/>
      <use x="1118.914062" xlink:href="#DejaVuSans-114"/>
      <use x="1160.027344" xlink:href="#DejaVuSans-48"/>
      <use x="1223.650391" xlink:href="#DejaVuSans-46"/>
      <use x="1255.4375" xlink:href="#DejaVuSans-53"/>
     </g>
    </g>
    <g id="line2d_50">
     <path d="M 99 86.210938 
L 119 86.210938 
" style="fill:none;stroke:#2ca02c;stroke-dasharray:7.5,1.5;stroke-dashoffset:0;stroke-width:1.5;"/>
    </g>
    <g id="line2d_51"/>
    <g id="text_18">
     <!-- rect_sampling.w_factor1.0 -->
     <g transform="translate(127 89.710938)scale(0.1 -0.1)">
      <use xlink:href="#DejaVuSans-114"/>
      <use x="41.082031" xlink:href="#DejaVuSans-101"/>
      <use x="102.605469" xlink:href="#DejaVuSans-99"/>
      <use x="157.585938" xlink:href="#DejaVuSans-116"/>
      <use x="196.794922" xlink:href="#DejaVuSans-95"/>
      <use x="246.794922" xlink:href="#DejaVuSans-115"/>
      <use x="298.894531" xlink:href="#DejaVuSans-97"/>
      <use x="360.173828" xlink:href="#DejaVuSans-109"/>
      <use x="457.585938" xlink:href="#DejaVuSans-112"/>
      <use x="521.0625" xlink:href="#DejaVuSans-108"/>
      <use x="548.845703" xlink:href="#DejaVuSans-105"/>
      <use x="576.628906" xlink:href="#DejaVuSans-110"/>
      <use x="640.007812" xlink:href="#DejaVuSans-103"/>
      <use x="703.484375" xlink:href="#DejaVuSans-46"/>
      <use x="735.271484" xlink:href="#DejaVuSans-119"/>
      <use x="817.058594" xlink:href="#DejaVuSans-95"/>
      <use x="867.058594" xlink:href="#DejaVuSans-102"/>
      <use x="902.263672" xlink:href="#DejaVuSans-97"/>
      <use x="963.542969" xlink:href="#DejaVuSans-99"/>
      <use x="1018.523438" xlink:href="#DejaVuSans-116"/>
      <use x="1057.732422" xlink:href="#DejaVuSans-111"/>
      <use x="1118.914062" xlink:href="#DejaVuSans-114"/>
      <use x="1160.027344" xlink:href="#DejaVuSans-49"/>
      <use x="1223.650391" xlink:href="#DejaVuSans-46"/>
      <use x="1255.4375" xlink:href="#DejaVuSans-48"/>
     </g>
    </g>
   </g>
  </g>
 </g>
 <defs>
  <clipPath id="p4b6a511662">
   <rect height="277.2" width="558" x="90" y="43.2"/>
  </clipPath>
 </defs>
</svg>
