<?xml version="1.0" encoding="utf-8" standalone="no"?>
<!DOCTYPE svg PUBLIC "-//W3C//DTD SVG 1.1//EN"
  "http://www.w3.org/Graphics/SVG/1.1/DTD/svg11.dtd">
<!-- Created with matplotlib (http://matplotlib.org/) -->
<svg height="360pt" version="1.1" viewBox="0 0 720 360" width="720pt" xmlns="http://www.w3.org/2000/svg" xmlns:xlink="http://www.w3.org/1999/xlink">
 <defs>
  <style type="text/css">
*{stroke-linecap:butt;stroke-linejoin:round;}
  </style>
 </defs>
 <g id="figure_1">
  <g id="patch_1">
   <path d="M 0 360 
L 720 360 
L 720 0 
L 0 0 
z
" style="fill:#ffffff;"/>
  </g>
  <g id="axes_1">
   <g id="patch_2">
    <path d="M 90 315 
L 648 315 
L 648 43.2 
L 90 43.2 
z
" style="fill:#ffffff;"/>
   </g>
   <g id="PolyCollection_1">
    <path clip-path="url(#p81072b510e)" d="M 90 284.697105 
L 90 297.526638 
L 99.3 270.223748 
L 108.6 275.996561 
L 117.9 261.726247 
L 127.2 267.675759 
L 136.5 253.863919 
L 145.8 268.13291 
L 155.1 257.969261 
L 164.4 262.510511 
L 173.7 249.666604 
L 183 252.975672 
L 192.3 249.585022 
L 201.6 253.836087 
L 210.9 250.701924 
L 220.2 243.940623 
L 229.5 241.709897 
L 238.8 239.238919 
L 248.1 250.43107 
L 257.4 242.451572 
L 266.7 243.169876 
L 276 241.562467 
L 285.3 245.420318 
L 294.6 250.397323 
L 303.9 236.555257 
L 313.2 246.339269 
L 322.5 233.864457 
L 331.8 233.262177 
L 341.1 240.392955 
L 350.4 230.746556 
L 359.7 231.151324 
L 369 241.871294 
L 378.3 235.50823 
L 387.6 235.957702 
L 396.9 245.562455 
L 406.2 233.982341 
L 415.5 230.517415 
L 424.8 227.515312 
L 434.1 233.713379 
L 443.4 242.319003 
L 452.7 232.495076 
L 462 225.268593 
L 471.3 222.936718 
L 480.6 237.460085 
L 489.9 232.721589 
L 499.2 230.784951 
L 508.5 228.99616 
L 517.8 235.659367 
L 527.1 241.252817 
L 536.4 224.041579 
L 545.7 240.947201 
L 555 224.181498 
L 564.3 228.325569 
L 573.6 242.649023 
L 582.9 228.650743 
L 592.2 225.442854 
L 601.5 235.114202 
L 610.8 231.803431 
L 620.1 236.537317 
L 629.4 234.049779 
L 638.7 230.61024 
L 638.7 203.697245 
L 638.7 203.697245 
L 629.4 193.458967 
L 620.1 196.94365 
L 610.8 203.792967 
L 601.5 199.752924 
L 592.2 199.700765 
L 582.9 195.375818 
L 573.6 191.755761 
L 564.3 199.403173 
L 555 200.142934 
L 545.7 193.329299 
L 536.4 202.703617 
L 527.1 191.547035 
L 517.8 203.326828 
L 508.5 201.512206 
L 499.2 191.999096 
L 489.9 198.397793 
L 480.6 200.308318 
L 471.3 202.950277 
L 462 201.304654 
L 452.7 197.40215 
L 443.4 192.96822 
L 434.1 191.083476 
L 424.8 208.628482 
L 415.5 204.120145 
L 406.2 199.323818 
L 396.9 199.868288 
L 387.6 205.018961 
L 378.3 206.93254 
L 369 203.251908 
L 359.7 207.776263 
L 350.4 201.342775 
L 341.1 205.998976 
L 331.8 209.10377 
L 322.5 205.119781 
L 313.2 204.940751 
L 303.9 210.264819 
L 294.6 204.997139 
L 285.3 216.772996 
L 276 218.589297 
L 266.7 206.54449 
L 257.4 217.730965 
L 248.1 212.717841 
L 238.8 214.631133 
L 229.5 219.215056 
L 220.2 219.467537 
L 210.9 219.470489 
L 201.6 212.442493 
L 192.3 224.814106 
L 183 226.939292 
L 173.7 223.888063 
L 164.4 229.933236 
L 155.1 225.91477 
L 145.8 231.314162 
L 136.5 237.296354 
L 127.2 237.003673 
L 117.9 237.972456 
L 108.6 249.007459 
L 99.3 246.044094 
L 90 284.697105 
z
" style="fill:#1f77b4;fill-opacity:0.5;"/>
   </g>
   <g id="PolyCollection_2">
    <path clip-path="url(#p81072b510e)" d="M 90 287.148073 
L 90 299.630425 
L 99.3 282.088155 
L 108.6 278.348571 
L 117.9 274.702776 
L 127.2 271.741452 
L 136.5 268.297948 
L 145.8 268.021744 
L 155.1 264.20005 
L 164.4 265.150075 
L 173.7 261.449265 
L 183 265.838265 
L 192.3 254.963324 
L 201.6 251.789258 
L 210.9 251.602723 
L 220.2 255.143893 
L 229.5 248.663942 
L 238.8 247.331954 
L 248.1 239.878335 
L 257.4 237.579367 
L 266.7 244.587285 
L 276 233.421385 
L 285.3 232.538706 
L 294.6 231.705945 
L 303.9 229.053214 
L 313.2 227.561018 
L 322.5 230.337119 
L 331.8 228.530283 
L 341.1 218.372642 
L 350.4 222.271076 
L 359.7 228.118643 
L 369 223.893298 
L 378.3 218.775521 
L 387.6 220.347412 
L 396.9 218.672525 
L 406.2 218.514025 
L 415.5 222.247928 
L 424.8 213.558231 
L 434.1 216.034811 
L 443.4 219.765447 
L 452.7 219.223361 
L 462 212.386584 
L 471.3 212.540602 
L 480.6 214.609945 
L 489.9 212.191918 
L 499.2 214.351809 
L 508.5 209.942842 
L 517.8 214.153768 
L 527.1 208.38411 
L 536.4 207.673861 
L 545.7 211.712249 
L 555 209.557123 
L 564.3 211.918998 
L 573.6 204.805946 
L 582.9 202.343021 
L 592.2 214.792971 
L 601.5 208.120042 
L 610.8 204.726895 
L 620.1 211.979886 
L 629.4 210.842628 
L 638.7 209.030061 
L 638.7 186.440856 
L 638.7 186.440856 
L 629.4 181.877585 
L 620.1 177.972867 
L 610.8 184.619565 
L 601.5 186.061566 
L 592.2 175.050327 
L 582.9 182.864652 
L 573.6 184.005822 
L 564.3 178.334652 
L 555 186.251078 
L 545.7 182.077754 
L 536.4 188.44501 
L 527.1 184.576821 
L 517.8 182.351556 
L 508.5 188.21228 
L 499.2 193.137547 
L 489.9 191.359912 
L 480.6 187.510304 
L 471.3 187.335294 
L 462 189.461037 
L 452.7 185.268708 
L 443.4 192.392844 
L 434.1 194.702453 
L 424.8 194.347934 
L 415.5 191.266924 
L 406.2 200.677564 
L 396.9 197.864018 
L 387.6 193.914035 
L 378.3 197.153584 
L 369 197.324876 
L 359.7 190.865963 
L 350.4 200.487301 
L 341.1 206.833706 
L 331.8 200.657728 
L 322.5 206.605723 
L 313.2 210.060789 
L 303.9 209.990379 
L 294.6 209.42692 
L 285.3 213.220937 
L 276 214.705499 
L 266.7 218.588355 
L 257.4 223.408454 
L 248.1 226.11336 
L 238.8 222.393644 
L 229.5 224.23217 
L 220.2 223.63727 
L 210.9 232.077712 
L 201.6 237.142658 
L 192.3 238.450655 
L 183 235.347012 
L 173.7 239.969708 
L 164.4 241.934447 
L 155.1 245.920228 
L 145.8 249.427202 
L 136.5 250.179356 
L 127.2 256.118188 
L 117.9 257.286827 
L 108.6 258.406357 
L 99.3 264.708459 
L 90 287.148073 
z
" style="fill:#ff7f0e;fill-opacity:0.5;"/>
   </g>
   <g id="PolyCollection_3">
    <path clip-path="url(#p81072b510e)" d="M 90 285.70088 
L 90 302.645455 
L 99.3 275.997232 
L 108.6 266.099835 
L 117.9 259.682421 
L 127.2 257.825222 
L 136.5 248.32171 
L 145.8 235.458118 
L 155.1 228.113919 
L 164.4 223.686726 
L 173.7 210.411076 
L 183 191.230055 
L 192.3 193.903121 
L 201.6 191.835539 
L 210.9 187.705515 
L 220.2 171.80635 
L 229.5 182.396726 
L 238.8 164.865572 
L 248.1 169.03924 
L 257.4 149.707462 
L 266.7 164.460835 
L 276 149.402744 
L 285.3 161.558605 
L 294.6 144.62874 
L 303.9 138.847613 
L 313.2 145.522159 
L 322.5 143.055387 
L 331.8 139.98102 
L 341.1 124.87524 
L 350.4 130.187493 
L 359.7 146.582642 
L 369 123.985913 
L 378.3 129.615408 
L 387.6 118.923735 
L 396.9 125.035641 
L 406.2 122.781062 
L 415.5 109.179328 
L 424.8 114.877241 
L 434.1 123.33725 
L 443.4 118.753286 
L 452.7 114.405561 
L 462 130.534815 
L 471.3 118.092368 
L 480.6 112.607573 
L 489.9 104.259152 
L 499.2 118.978384 
L 508.5 125.883847 
L 517.8 128.486354 
L 527.1 107.973753 
L 536.4 100.426647 
L 545.7 113.22738 
L 555 115.825055 
L 564.3 124.839745 
L 573.6 112.777563 
L 582.9 111.043113 
L 592.2 124.747409 
L 601.5 120.241422 
L 610.8 115.321262 
L 620.1 109.678247 
L 629.4 116.116615 
L 638.7 115.779826 
L 638.7 69.318285 
L 638.7 69.318285 
L 629.4 64.233373 
L 620.1 61.266959 
L 610.8 55.554545 
L 601.5 69.464207 
L 592.2 64.280864 
L 582.9 68.139664 
L 573.6 64.950176 
L 564.3 62.309891 
L 555 73.592807 
L 545.7 68.305013 
L 536.4 80.92962 
L 527.1 71.999678 
L 517.8 67.615922 
L 508.5 65.799281 
L 499.2 68.266211 
L 489.9 74.481203 
L 480.6 72.394199 
L 471.3 60.206961 
L 462 56.447745 
L 452.7 78.372519 
L 443.4 74.661361 
L 434.1 79.719846 
L 424.8 80.747729 
L 415.5 85.856859 
L 406.2 78.640143 
L 396.9 78.186051 
L 387.6 81.823525 
L 378.3 74.197247 
L 369 91.590565 
L 359.7 78.117026 
L 350.4 85.925777 
L 341.1 88.97737 
L 331.8 97.775211 
L 322.5 91.299289 
L 313.2 94.951711 
L 303.9 101.966145 
L 294.6 100.229542 
L 285.3 106.176836 
L 276 110.543155 
L 266.7 105.694057 
L 257.4 118.946759 
L 248.1 112.187023 
L 238.8 112.490009 
L 229.5 117.239551 
L 220.2 133.017737 
L 210.9 140.002599 
L 201.6 145.71641 
L 192.3 153.534547 
L 183 161.709336 
L 173.7 167.414421 
L 164.4 166.325109 
L 155.1 171.798595 
L 145.8 186.184356 
L 136.5 198.191011 
L 127.2 210.086317 
L 117.9 231.158943 
L 108.6 243.454652 
L 99.3 253.096491 
L 90 285.70088 
z
" style="fill:#2ca02c;fill-opacity:0.5;"/>
   </g>
   <g id="matplotlib.axis_1">
    <g id="xtick_1">
     <g id="line2d_1">
      <defs>
       <path d="M 0 0 
L 0 3.5 
" id="m9bf2677a05" style="stroke:#000000;stroke-width:0.8;"/>
      </defs>
      <g>
       <use style="stroke:#000000;stroke-width:0.8;" x="90" xlink:href="#m9bf2677a05" y="315"/>
      </g>
     </g>
     <g id="text_1">
      <!-- 0 -->
      <defs>
       <path d="M 31.78125 66.40625 
Q 24.171875 66.40625 20.328125 58.90625 
Q 16.5 51.421875 16.5 36.375 
Q 16.5 21.390625 20.328125 13.890625 
Q 24.171875 6.390625 31.78125 6.390625 
Q 39.453125 6.390625 43.28125 13.890625 
Q 47.125 21.390625 47.125 36.375 
Q 47.125 51.421875 43.28125 58.90625 
Q 39.453125 66.40625 31.78125 66.40625 
z
M 31.78125 74.21875 
Q 44.046875 74.21875 50.515625 64.515625 
Q 56.984375 54.828125 56.984375 36.375 
Q 56.984375 17.96875 50.515625 8.265625 
Q 44.046875 -1.421875 31.78125 -1.421875 
Q 19.53125 -1.421875 13.0625 8.265625 
Q 6.59375 17.96875 6.59375 36.375 
Q 6.59375 54.828125 13.0625 64.515625 
Q 19.53125 74.21875 31.78125 74.21875 
z
" id="DejaVuSans-30"/>
      </defs>
      <g transform="translate(86.81875 329.598437)scale(0.1 -0.1)">
       <use xlink:href="#DejaVuSans-30"/>
      </g>
     </g>
    </g>
    <g id="xtick_2">
     <g id="line2d_2">
      <g>
       <use style="stroke:#000000;stroke-width:0.8;" x="183" xlink:href="#m9bf2677a05" y="315"/>
      </g>
     </g>
     <g id="text_2">
      <!-- 10 -->
      <defs>
       <path d="M 12.40625 8.296875 
L 28.515625 8.296875 
L 28.515625 63.921875 
L 10.984375 60.40625 
L 10.984375 69.390625 
L 28.421875 72.90625 
L 38.28125 72.90625 
L 38.28125 8.296875 
L 54.390625 8.296875 
L 54.390625 0 
L 12.40625 0 
z
" id="DejaVuSans-31"/>
      </defs>
      <g transform="translate(176.6375 329.598437)scale(0.1 -0.1)">
       <use xlink:href="#DejaVuSans-31"/>
       <use x="63.623047" xlink:href="#DejaVuSans-30"/>
      </g>
     </g>
    </g>
    <g id="xtick_3">
     <g id="line2d_3">
      <g>
       <use style="stroke:#000000;stroke-width:0.8;" x="276" xlink:href="#m9bf2677a05" y="315"/>
      </g>
     </g>
     <g id="text_3">
      <!-- 20 -->
      <defs>
       <path d="M 19.1875 8.296875 
L 53.609375 8.296875 
L 53.609375 0 
L 7.328125 0 
L 7.328125 8.296875 
Q 12.9375 14.109375 22.625 23.890625 
Q 32.328125 33.6875 34.8125 36.53125 
Q 39.546875 41.84375 41.421875 45.53125 
Q 43.3125 49.21875 43.3125 52.78125 
Q 43.3125 58.59375 39.234375 62.25 
Q 35.15625 65.921875 28.609375 65.921875 
Q 23.96875 65.921875 18.8125 64.3125 
Q 13.671875 62.703125 7.8125 59.421875 
L 7.8125 69.390625 
Q 13.765625 71.78125 18.9375 73 
Q 24.125 74.21875 28.421875 74.21875 
Q 39.75 74.21875 46.484375 68.546875 
Q 53.21875 62.890625 53.21875 53.421875 
Q 53.21875 48.921875 51.53125 44.890625 
Q 49.859375 40.875 45.40625 35.40625 
Q 44.1875 33.984375 37.640625 27.21875 
Q 31.109375 20.453125 19.1875 8.296875 
z
" id="DejaVuSans-32"/>
      </defs>
      <g transform="translate(269.6375 329.598437)scale(0.1 -0.1)">
       <use xlink:href="#DejaVuSans-32"/>
       <use x="63.623047" xlink:href="#DejaVuSans-30"/>
      </g>
     </g>
    </g>
    <g id="xtick_4">
     <g id="line2d_4">
      <g>
       <use style="stroke:#000000;stroke-width:0.8;" x="369" xlink:href="#m9bf2677a05" y="315"/>
      </g>
     </g>
     <g id="text_4">
      <!-- 30 -->
      <defs>
       <path d="M 40.578125 39.3125 
Q 47.65625 37.796875 51.625 33 
Q 55.609375 28.21875 55.609375 21.1875 
Q 55.609375 10.40625 48.1875 4.484375 
Q 40.765625 -1.421875 27.09375 -1.421875 
Q 22.515625 -1.421875 17.65625 -0.515625 
Q 12.796875 0.390625 7.625 2.203125 
L 7.625 11.71875 
Q 11.71875 9.328125 16.59375 8.109375 
Q 21.484375 6.890625 26.8125 6.890625 
Q 36.078125 6.890625 40.9375 10.546875 
Q 45.796875 14.203125 45.796875 21.1875 
Q 45.796875 27.640625 41.28125 31.265625 
Q 36.765625 34.90625 28.71875 34.90625 
L 20.21875 34.90625 
L 20.21875 43.015625 
L 29.109375 43.015625 
Q 36.375 43.015625 40.234375 45.921875 
Q 44.09375 48.828125 44.09375 54.296875 
Q 44.09375 59.90625 40.109375 62.90625 
Q 36.140625 65.921875 28.71875 65.921875 
Q 24.65625 65.921875 20.015625 65.03125 
Q 15.375 64.15625 9.8125 62.3125 
L 9.8125 71.09375 
Q 15.4375 72.65625 20.34375 73.4375 
Q 25.25 74.21875 29.59375 74.21875 
Q 40.828125 74.21875 47.359375 69.109375 
Q 53.90625 64.015625 53.90625 55.328125 
Q 53.90625 49.265625 50.4375 45.09375 
Q 46.96875 40.921875 40.578125 39.3125 
z
" id="DejaVuSans-33"/>
      </defs>
      <g transform="translate(362.6375 329.598437)scale(0.1 -0.1)">
       <use xlink:href="#DejaVuSans-33"/>
       <use x="63.623047" xlink:href="#DejaVuSans-30"/>
      </g>
     </g>
    </g>
    <g id="xtick_5">
     <g id="line2d_5">
      <g>
       <use style="stroke:#000000;stroke-width:0.8;" x="462" xlink:href="#m9bf2677a05" y="315"/>
      </g>
     </g>
     <g id="text_5">
      <!-- 40 -->
      <defs>
       <path d="M 37.796875 64.3125 
L 12.890625 25.390625 
L 37.796875 25.390625 
z
M 35.203125 72.90625 
L 47.609375 72.90625 
L 47.609375 25.390625 
L 58.015625 25.390625 
L 58.015625 17.1875 
L 47.609375 17.1875 
L 47.609375 0 
L 37.796875 0 
L 37.796875 17.1875 
L 4.890625 17.1875 
L 4.890625 26.703125 
z
" id="DejaVuSans-34"/>
      </defs>
      <g transform="translate(455.6375 329.598437)scale(0.1 -0.1)">
       <use xlink:href="#DejaVuSans-34"/>
       <use x="63.623047" xlink:href="#DejaVuSans-30"/>
      </g>
     </g>
    </g>
    <g id="xtick_6">
     <g id="line2d_6">
      <g>
       <use style="stroke:#000000;stroke-width:0.8;" x="555" xlink:href="#m9bf2677a05" y="315"/>
      </g>
     </g>
     <g id="text_6">
      <!-- 50 -->
      <defs>
       <path d="M 10.796875 72.90625 
L 49.515625 72.90625 
L 49.515625 64.59375 
L 19.828125 64.59375 
L 19.828125 46.734375 
Q 21.96875 47.46875 24.109375 47.828125 
Q 26.265625 48.1875 28.421875 48.1875 
Q 40.625 48.1875 47.75 41.5 
Q 54.890625 34.8125 54.890625 23.390625 
Q 54.890625 11.625 47.5625 5.09375 
Q 40.234375 -1.421875 26.90625 -1.421875 
Q 22.3125 -1.421875 17.546875 -0.640625 
Q 12.796875 0.140625 7.71875 1.703125 
L 7.71875 11.625 
Q 12.109375 9.234375 16.796875 8.0625 
Q 21.484375 6.890625 26.703125 6.890625 
Q 35.15625 6.890625 40.078125 11.328125 
Q 45.015625 15.765625 45.015625 23.390625 
Q 45.015625 31 40.078125 35.4375 
Q 35.15625 39.890625 26.703125 39.890625 
Q 22.75 39.890625 18.8125 39.015625 
Q 14.890625 38.140625 10.796875 36.28125 
z
" id="DejaVuSans-35"/>
      </defs>
      <g transform="translate(548.6375 329.598437)scale(0.1 -0.1)">
       <use xlink:href="#DejaVuSans-35"/>
       <use x="63.623047" xlink:href="#DejaVuSans-30"/>
      </g>
     </g>
    </g>
    <g id="xtick_7">
     <g id="line2d_7">
      <g>
       <use style="stroke:#000000;stroke-width:0.8;" x="648" xlink:href="#m9bf2677a05" y="315"/>
      </g>
     </g>
     <g id="text_7">
      <!-- 60 -->
      <defs>
       <path d="M 33.015625 40.375 
Q 26.375 40.375 22.484375 35.828125 
Q 18.609375 31.296875 18.609375 23.390625 
Q 18.609375 15.53125 22.484375 10.953125 
Q 26.375 6.390625 33.015625 6.390625 
Q 39.65625 6.390625 43.53125 10.953125 
Q 47.40625 15.53125 47.40625 23.390625 
Q 47.40625 31.296875 43.53125 35.828125 
Q 39.65625 40.375 33.015625 40.375 
z
M 52.59375 71.296875 
L 52.59375 62.3125 
Q 48.875 64.0625 45.09375 64.984375 
Q 41.3125 65.921875 37.59375 65.921875 
Q 27.828125 65.921875 22.671875 59.328125 
Q 17.53125 52.734375 16.796875 39.40625 
Q 19.671875 43.65625 24.015625 45.921875 
Q 28.375 48.1875 33.59375 48.1875 
Q 44.578125 48.1875 50.953125 41.515625 
Q 57.328125 34.859375 57.328125 23.390625 
Q 57.328125 12.15625 50.6875 5.359375 
Q 44.046875 -1.421875 33.015625 -1.421875 
Q 20.359375 -1.421875 13.671875 8.265625 
Q 6.984375 17.96875 6.984375 36.375 
Q 6.984375 53.65625 15.1875 63.9375 
Q 23.390625 74.21875 37.203125 74.21875 
Q 40.921875 74.21875 44.703125 73.484375 
Q 48.484375 72.75 52.59375 71.296875 
z
" id="DejaVuSans-36"/>
      </defs>
      <g transform="translate(641.6375 329.598437)scale(0.1 -0.1)">
       <use xlink:href="#DejaVuSans-36"/>
       <use x="63.623047" xlink:href="#DejaVuSans-30"/>
      </g>
     </g>
    </g>
    <g id="text_8">
     <!-- iterations -->
     <defs>
      <path d="M 9.421875 54.6875 
L 18.40625 54.6875 
L 18.40625 0 
L 9.421875 0 
z
M 9.421875 75.984375 
L 18.40625 75.984375 
L 18.40625 64.59375 
L 9.421875 64.59375 
z
" id="DejaVuSans-69"/>
      <path d="M 18.3125 70.21875 
L 18.3125 54.6875 
L 36.8125 54.6875 
L 36.8125 47.703125 
L 18.3125 47.703125 
L 18.3125 18.015625 
Q 18.3125 11.328125 20.140625 9.421875 
Q 21.96875 7.515625 27.59375 7.515625 
L 36.8125 7.515625 
L 36.8125 0 
L 27.59375 0 
Q 17.1875 0 13.234375 3.875 
Q 9.28125 7.765625 9.28125 18.015625 
L 9.28125 47.703125 
L 2.6875 47.703125 
L 2.6875 54.6875 
L 9.28125 54.6875 
L 9.28125 70.21875 
z
" id="DejaVuSans-74"/>
      <path d="M 56.203125 29.59375 
L 56.203125 25.203125 
L 14.890625 25.203125 
Q 15.484375 15.921875 20.484375 11.0625 
Q 25.484375 6.203125 34.421875 6.203125 
Q 39.59375 6.203125 44.453125 7.46875 
Q 49.3125 8.734375 54.109375 11.28125 
L 54.109375 2.78125 
Q 49.265625 0.734375 44.1875 -0.34375 
Q 39.109375 -1.421875 33.890625 -1.421875 
Q 20.796875 -1.421875 13.15625 6.1875 
Q 5.515625 13.8125 5.515625 26.8125 
Q 5.515625 40.234375 12.765625 48.109375 
Q 20.015625 56 32.328125 56 
Q 43.359375 56 49.78125 48.890625 
Q 56.203125 41.796875 56.203125 29.59375 
z
M 47.21875 32.234375 
Q 47.125 39.59375 43.09375 43.984375 
Q 39.0625 48.390625 32.421875 48.390625 
Q 24.90625 48.390625 20.390625 44.140625 
Q 15.875 39.890625 15.1875 32.171875 
z
" id="DejaVuSans-65"/>
      <path d="M 41.109375 46.296875 
Q 39.59375 47.171875 37.8125 47.578125 
Q 36.03125 48 33.890625 48 
Q 26.265625 48 22.1875 43.046875 
Q 18.109375 38.09375 18.109375 28.8125 
L 18.109375 0 
L 9.078125 0 
L 9.078125 54.6875 
L 18.109375 54.6875 
L 18.109375 46.1875 
Q 20.953125 51.171875 25.484375 53.578125 
Q 30.03125 56 36.53125 56 
Q 37.453125 56 38.578125 55.875 
Q 39.703125 55.765625 41.0625 55.515625 
z
" id="DejaVuSans-72"/>
      <path d="M 34.28125 27.484375 
Q 23.390625 27.484375 19.1875 25 
Q 14.984375 22.515625 14.984375 16.5 
Q 14.984375 11.71875 18.140625 8.90625 
Q 21.296875 6.109375 26.703125 6.109375 
Q 34.1875 6.109375 38.703125 11.40625 
Q 43.21875 16.703125 43.21875 25.484375 
L 43.21875 27.484375 
z
M 52.203125 31.203125 
L 52.203125 0 
L 43.21875 0 
L 43.21875 8.296875 
Q 40.140625 3.328125 35.546875 0.953125 
Q 30.953125 -1.421875 24.3125 -1.421875 
Q 15.921875 -1.421875 10.953125 3.296875 
Q 6 8.015625 6 15.921875 
Q 6 25.140625 12.171875 29.828125 
Q 18.359375 34.515625 30.609375 34.515625 
L 43.21875 34.515625 
L 43.21875 35.40625 
Q 43.21875 41.609375 39.140625 45 
Q 35.0625 48.390625 27.6875 48.390625 
Q 23 48.390625 18.546875 47.265625 
Q 14.109375 46.140625 10.015625 43.890625 
L 10.015625 52.203125 
Q 14.9375 54.109375 19.578125 55.046875 
Q 24.21875 56 28.609375 56 
Q 40.484375 56 46.34375 49.84375 
Q 52.203125 43.703125 52.203125 31.203125 
z
" id="DejaVuSans-61"/>
      <path d="M 30.609375 48.390625 
Q 23.390625 48.390625 19.1875 42.75 
Q 14.984375 37.109375 14.984375 27.296875 
Q 14.984375 17.484375 19.15625 11.84375 
Q 23.34375 6.203125 30.609375 6.203125 
Q 37.796875 6.203125 41.984375 11.859375 
Q 46.1875 17.53125 46.1875 27.296875 
Q 46.1875 37.015625 41.984375 42.703125 
Q 37.796875 48.390625 30.609375 48.390625 
z
M 30.609375 56 
Q 42.328125 56 49.015625 48.375 
Q 55.71875 40.765625 55.71875 27.296875 
Q 55.71875 13.875 49.015625 6.21875 
Q 42.328125 -1.421875 30.609375 -1.421875 
Q 18.84375 -1.421875 12.171875 6.21875 
Q 5.515625 13.875 5.515625 27.296875 
Q 5.515625 40.765625 12.171875 48.375 
Q 18.84375 56 30.609375 56 
z
" id="DejaVuSans-6f"/>
      <path d="M 54.890625 33.015625 
L 54.890625 0 
L 45.90625 0 
L 45.90625 32.71875 
Q 45.90625 40.484375 42.875 44.328125 
Q 39.84375 48.1875 33.796875 48.1875 
Q 26.515625 48.1875 22.3125 43.546875 
Q 18.109375 38.921875 18.109375 30.90625 
L 18.109375 0 
L 9.078125 0 
L 9.078125 54.6875 
L 18.109375 54.6875 
L 18.109375 46.1875 
Q 21.34375 51.125 25.703125 53.5625 
Q 30.078125 56 35.796875 56 
Q 45.21875 56 50.046875 50.171875 
Q 54.890625 44.34375 54.890625 33.015625 
z
" id="DejaVuSans-6e"/>
      <path d="M 44.28125 53.078125 
L 44.28125 44.578125 
Q 40.484375 46.53125 36.375 47.5 
Q 32.28125 48.484375 27.875 48.484375 
Q 21.1875 48.484375 17.84375 46.4375 
Q 14.5 44.390625 14.5 40.28125 
Q 14.5 37.15625 16.890625 35.375 
Q 19.28125 33.59375 26.515625 31.984375 
L 29.59375 31.296875 
Q 39.15625 29.25 43.1875 25.515625 
Q 47.21875 21.78125 47.21875 15.09375 
Q 47.21875 7.46875 41.1875 3.015625 
Q 35.15625 -1.421875 24.609375 -1.421875 
Q 20.21875 -1.421875 15.453125 -0.5625 
Q 10.6875 0.296875 5.421875 2 
L 5.421875 11.28125 
Q 10.40625 8.6875 15.234375 7.390625 
Q 20.0625 6.109375 24.8125 6.109375 
Q 31.15625 6.109375 34.5625 8.28125 
Q 37.984375 10.453125 37.984375 14.40625 
Q 37.984375 18.0625 35.515625 20.015625 
Q 33.0625 21.96875 24.703125 23.78125 
L 21.578125 24.515625 
Q 13.234375 26.265625 9.515625 29.90625 
Q 5.8125 33.546875 5.8125 39.890625 
Q 5.8125 47.609375 11.28125 51.796875 
Q 16.75 56 26.8125 56 
Q 31.78125 56 36.171875 55.265625 
Q 40.578125 54.546875 44.28125 53.078125 
z
" id="DejaVuSans-73"/>
     </defs>
     <g transform="translate(345.272656 343.276563)scale(0.1 -0.1)">
      <use xlink:href="#DejaVuSans-69"/>
      <use x="27.783203" xlink:href="#DejaVuSans-74"/>
      <use x="66.992188" xlink:href="#DejaVuSans-65"/>
      <use x="128.515625" xlink:href="#DejaVuSans-72"/>
      <use x="169.628906" xlink:href="#DejaVuSans-61"/>
      <use x="230.908203" xlink:href="#DejaVuSans-74"/>
      <use x="270.117188" xlink:href="#DejaVuSans-69"/>
      <use x="297.900391" xlink:href="#DejaVuSans-6f"/>
      <use x="359.082031" xlink:href="#DejaVuSans-6e"/>
      <use x="422.460938" xlink:href="#DejaVuSans-73"/>
     </g>
    </g>
   </g>
   <g id="matplotlib.axis_2">
    <g id="ytick_1">
     <g id="line2d_8">
      <defs>
       <path d="M 0 0 
L -3.5 0 
" id="m360bca8ed3" style="stroke:#000000;stroke-width:0.8;"/>
      </defs>
      <g>
       <use style="stroke:#000000;stroke-width:0.8;" x="90" xlink:href="#m360bca8ed3" y="279.104938"/>
      </g>
     </g>
     <g id="text_9">
      <!-- 0 -->
      <g transform="translate(76.6375 282.904157)scale(0.1 -0.1)">
       <use xlink:href="#DejaVuSans-30"/>
      </g>
     </g>
    </g>
    <g id="ytick_2">
     <g id="line2d_9">
      <g>
       <use style="stroke:#000000;stroke-width:0.8;" x="90" xlink:href="#m360bca8ed3" y="238.492717"/>
      </g>
     </g>
     <g id="text_10">
      <!-- 10 -->
      <g transform="translate(70.275 242.291936)scale(0.1 -0.1)">
       <use xlink:href="#DejaVuSans-31"/>
       <use x="63.623047" xlink:href="#DejaVuSans-30"/>
      </g>
     </g>
    </g>
    <g id="ytick_3">
     <g id="line2d_10">
      <g>
       <use style="stroke:#000000;stroke-width:0.8;" x="90" xlink:href="#m360bca8ed3" y="197.880497"/>
      </g>
     </g>
     <g id="text_11">
      <!-- 20 -->
      <g transform="translate(70.275 201.679715)scale(0.1 -0.1)">
       <use xlink:href="#DejaVuSans-32"/>
       <use x="63.623047" xlink:href="#DejaVuSans-30"/>
      </g>
     </g>
    </g>
    <g id="ytick_4">
     <g id="line2d_11">
      <g>
       <use style="stroke:#000000;stroke-width:0.8;" x="90" xlink:href="#m360bca8ed3" y="157.268276"/>
      </g>
     </g>
     <g id="text_12">
      <!-- 30 -->
      <g transform="translate(70.275 161.067495)scale(0.1 -0.1)">
       <use xlink:href="#DejaVuSans-33"/>
       <use x="63.623047" xlink:href="#DejaVuSans-30"/>
      </g>
     </g>
    </g>
    <g id="ytick_5">
     <g id="line2d_12">
      <g>
       <use style="stroke:#000000;stroke-width:0.8;" x="90" xlink:href="#m360bca8ed3" y="116.656055"/>
      </g>
     </g>
     <g id="text_13">
      <!-- 40 -->
      <g transform="translate(70.275 120.455274)scale(0.1 -0.1)">
       <use xlink:href="#DejaVuSans-34"/>
       <use x="63.623047" xlink:href="#DejaVuSans-30"/>
      </g>
     </g>
    </g>
    <g id="ytick_6">
     <g id="line2d_13">
      <g>
       <use style="stroke:#000000;stroke-width:0.8;" x="90" xlink:href="#m360bca8ed3" y="76.043834"/>
      </g>
     </g>
     <g id="text_14">
      <!-- 50 -->
      <g transform="translate(70.275 79.843053)scale(0.1 -0.1)">
       <use xlink:href="#DejaVuSans-35"/>
       <use x="63.623047" xlink:href="#DejaVuSans-30"/>
      </g>
     </g>
    </g>
    <g id="text_15">
     <!-- samples_episode_reward_mean -->
     <defs>
      <path d="M 52 44.1875 
Q 55.375 50.25 60.0625 53.125 
Q 64.75 56 71.09375 56 
Q 79.640625 56 84.28125 50.015625 
Q 88.921875 44.046875 88.921875 33.015625 
L 88.921875 0 
L 79.890625 0 
L 79.890625 32.71875 
Q 79.890625 40.578125 77.09375 44.375 
Q 74.3125 48.1875 68.609375 48.1875 
Q 61.625 48.1875 57.5625 43.546875 
Q 53.515625 38.921875 53.515625 30.90625 
L 53.515625 0 
L 44.484375 0 
L 44.484375 32.71875 
Q 44.484375 40.625 41.703125 44.40625 
Q 38.921875 48.1875 33.109375 48.1875 
Q 26.21875 48.1875 22.15625 43.53125 
Q 18.109375 38.875 18.109375 30.90625 
L 18.109375 0 
L 9.078125 0 
L 9.078125 54.6875 
L 18.109375 54.6875 
L 18.109375 46.1875 
Q 21.1875 51.21875 25.484375 53.609375 
Q 29.78125 56 35.6875 56 
Q 41.65625 56 45.828125 52.96875 
Q 50 49.953125 52 44.1875 
z
" id="DejaVuSans-6d"/>
      <path d="M 18.109375 8.203125 
L 18.109375 -20.796875 
L 9.078125 -20.796875 
L 9.078125 54.6875 
L 18.109375 54.6875 
L 18.109375 46.390625 
Q 20.953125 51.265625 25.265625 53.625 
Q 29.59375 56 35.59375 56 
Q 45.5625 56 51.78125 48.09375 
Q 58.015625 40.1875 58.015625 27.296875 
Q 58.015625 14.40625 51.78125 6.484375 
Q 45.5625 -1.421875 35.59375 -1.421875 
Q 29.59375 -1.421875 25.265625 0.953125 
Q 20.953125 3.328125 18.109375 8.203125 
z
M 48.6875 27.296875 
Q 48.6875 37.203125 44.609375 42.84375 
Q 40.53125 48.484375 33.40625 48.484375 
Q 26.265625 48.484375 22.1875 42.84375 
Q 18.109375 37.203125 18.109375 27.296875 
Q 18.109375 17.390625 22.1875 11.75 
Q 26.265625 6.109375 33.40625 6.109375 
Q 40.53125 6.109375 44.609375 11.75 
Q 48.6875 17.390625 48.6875 27.296875 
z
" id="DejaVuSans-70"/>
      <path d="M 9.421875 75.984375 
L 18.40625 75.984375 
L 18.40625 0 
L 9.421875 0 
z
" id="DejaVuSans-6c"/>
      <path d="M 50.984375 -16.609375 
L 50.984375 -23.578125 
L -0.984375 -23.578125 
L -0.984375 -16.609375 
z
" id="DejaVuSans-5f"/>
      <path d="M 45.40625 46.390625 
L 45.40625 75.984375 
L 54.390625 75.984375 
L 54.390625 0 
L 45.40625 0 
L 45.40625 8.203125 
Q 42.578125 3.328125 38.25 0.953125 
Q 33.9375 -1.421875 27.875 -1.421875 
Q 17.96875 -1.421875 11.734375 6.484375 
Q 5.515625 14.40625 5.515625 27.296875 
Q 5.515625 40.1875 11.734375 48.09375 
Q 17.96875 56 27.875 56 
Q 33.9375 56 38.25 53.625 
Q 42.578125 51.265625 45.40625 46.390625 
z
M 14.796875 27.296875 
Q 14.796875 17.390625 18.875 11.75 
Q 22.953125 6.109375 30.078125 6.109375 
Q 37.203125 6.109375 41.296875 11.75 
Q 45.40625 17.390625 45.40625 27.296875 
Q 45.40625 37.203125 41.296875 42.84375 
Q 37.203125 48.484375 30.078125 48.484375 
Q 22.953125 48.484375 18.875 42.84375 
Q 14.796875 37.203125 14.796875 27.296875 
z
" id="DejaVuSans-64"/>
      <path d="M 4.203125 54.6875 
L 13.1875 54.6875 
L 24.421875 12.015625 
L 35.59375 54.6875 
L 46.1875 54.6875 
L 57.421875 12.015625 
L 68.609375 54.6875 
L 77.59375 54.6875 
L 63.28125 0 
L 52.6875 0 
L 40.921875 44.828125 
L 29.109375 0 
L 18.5 0 
z
" id="DejaVuSans-77"/>
     </defs>
     <g transform="translate(63.917187 258.630469)rotate(-90)scale(0.1 -0.1)">
      <use xlink:href="#DejaVuSans-73"/>
      <use x="52.099609" xlink:href="#DejaVuSans-61"/>
      <use x="113.378906" xlink:href="#DejaVuSans-6d"/>
      <use x="210.791016" xlink:href="#DejaVuSans-70"/>
      <use x="274.267578" xlink:href="#DejaVuSans-6c"/>
      <use x="302.050781" xlink:href="#DejaVuSans-65"/>
      <use x="363.574219" xlink:href="#DejaVuSans-73"/>
      <use x="415.673828" xlink:href="#DejaVuSans-5f"/>
      <use x="465.673828" xlink:href="#DejaVuSans-65"/>
      <use x="527.197266" xlink:href="#DejaVuSans-70"/>
      <use x="590.673828" xlink:href="#DejaVuSans-69"/>
      <use x="618.457031" xlink:href="#DejaVuSans-73"/>
      <use x="670.556641" xlink:href="#DejaVuSans-6f"/>
      <use x="731.738281" xlink:href="#DejaVuSans-64"/>
      <use x="795.214844" xlink:href="#DejaVuSans-65"/>
      <use x="856.738281" xlink:href="#DejaVuSans-5f"/>
      <use x="906.738281" xlink:href="#DejaVuSans-72"/>
      <use x="947.820312" xlink:href="#DejaVuSans-65"/>
      <use x="1009.34375" xlink:href="#DejaVuSans-77"/>
      <use x="1091.130859" xlink:href="#DejaVuSans-61"/>
      <use x="1152.410156" xlink:href="#DejaVuSans-72"/>
      <use x="1193.507812" xlink:href="#DejaVuSans-64"/>
      <use x="1256.984375" xlink:href="#DejaVuSans-5f"/>
      <use x="1306.984375" xlink:href="#DejaVuSans-6d"/>
      <use x="1404.396484" xlink:href="#DejaVuSans-65"/>
      <use x="1465.919922" xlink:href="#DejaVuSans-61"/>
      <use x="1527.199219" xlink:href="#DejaVuSans-6e"/>
     </g>
    </g>
   </g>
   <g id="line2d_14">
    <path clip-path="url(#p81072b510e)" d="M 90 291.129087 
L 99.3 265.319777 
L 108.6 248.987047 
L 117.9 250.595454 
L 127.2 245.590169 
L 136.5 248.163153 
L 145.8 248.178368 
L 155.1 242.664037 
L 164.4 255.600541 
L 173.7 241.256025 
L 183 228.619705 
L 192.3 241.162049 
L 201.6 239.157725 
L 210.9 252.682999 
L 220.2 240.468847 
L 229.5 237.749686 
L 238.8 233.028252 
L 248.1 238.356269 
L 257.4 233.271012 
L 266.7 225.933666 
L 276 232.760457 
L 285.3 228.910967 
L 294.6 242.861548 
L 303.9 222.884144 
L 313.2 240.747477 
L 322.5 214.611459 
L 331.8 227.223344 
L 341.1 214.983131 
L 350.4 224.301574 
L 359.7 227.680057 
L 369 217.118523 
L 378.3 223.37533 
L 387.6 223.320713 
L 396.9 241.868486 
L 406.2 217.44303 
L 415.5 205.26248 
L 424.8 221.571778 
L 434.1 214.195557 
L 443.4 241.654867 
L 452.7 226.19028 
L 462 216.095086 
L 471.3 212.68125 
L 480.6 223.89235 
L 489.9 213.094763 
L 499.2 214.010609 
L 508.5 217.822881 
L 517.8 214.870525 
L 527.1 231.474222 
L 536.4 220.538971 
L 545.7 232.341259 
L 555 206.290491 
L 564.3 223.390479 
L 573.6 206.173433 
L 582.9 217.83978 
L 592.2 217.631065 
L 601.5 216.481566 
L 610.8 222.912206 
L 620.1 216.466797 
L 629.4 230.621658 
L 638.7 224.476206 
" style="fill:none;opacity:0.5;stroke:#808080;stroke-dasharray:;stroke-dashoffset:0;stroke-width:1.5;"/>
   </g>
   <g id="line2d_15">
    <path clip-path="url(#p81072b510e)" d="M 90 291.374418 
L 99.3 257.514158 
L 108.6 260.673331 
L 117.9 240.451415 
L 127.2 238.744426 
L 136.5 252.354878 
L 145.8 248.282809 
L 155.1 242.271214 
L 164.4 228.723885 
L 173.7 240.169072 
L 183 242.559616 
L 192.3 232.420873 
L 201.6 249.693271 
L 210.9 233.01084 
L 220.2 225.508395 
L 229.5 234.213563 
L 238.8 229.456046 
L 248.1 223.960961 
L 257.4 222.245253 
L 266.7 216.164552 
L 276 222.008095 
L 285.3 236.299898 
L 294.6 237.206333 
L 303.9 225.218338 
L 313.2 233.890683 
L 322.5 229.280579 
L 331.8 226.8503 
L 341.1 233.27113 
L 350.4 216.900621 
L 359.7 220.555067 
L 369 236.005042 
L 378.3 223.191226 
L 387.6 224.821654 
L 396.9 209.786929 
L 406.2 223.534731 
L 415.5 222.144914 
L 424.8 217.599674 
L 434.1 228.860145 
L 443.4 215.659725 
L 452.7 218.087268 
L 462 222.63278 
L 471.3 221.968039 
L 480.6 214.335866 
L 489.9 215.639415 
L 499.2 206.33099 
L 508.5 202.802356 
L 517.8 221.210858 
L 527.1 223.460036 
L 536.4 215.556544 
L 545.7 219.876575 
L 555 217.641653 
L 564.3 219.875605 
L 573.6 236.81751 
L 582.9 213.388042 
L 592.2 214.187372 
L 601.5 222.921457 
L 610.8 218.637422 
L 620.1 212.412714 
L 629.4 200.270928 
L 638.7 221.623544 
" style="fill:none;opacity:0.5;stroke:#808080;stroke-dasharray:;stroke-dashoffset:0;stroke-width:1.5;"/>
   </g>
   <g id="line2d_16">
    <path clip-path="url(#p81072b510e)" d="M 90 286.247761 
L 99.3 255.6399 
L 108.6 265.672941 
L 117.9 253.216468 
L 127.2 253.000038 
L 136.5 249.52301 
L 145.8 233.201826 
L 155.1 237.418855 
L 164.4 236.657523 
L 173.7 242.820523 
L 183 238.237331 
L 192.3 230.824322 
L 201.6 227.958768 
L 210.9 221.645459 
L 220.2 227.029138 
L 229.5 232.638692 
L 238.8 218.554605 
L 248.1 227.775696 
L 257.4 230.057453 
L 266.7 228.722974 
L 276 231.418045 
L 285.3 235.048665 
L 294.6 213.070663 
L 303.9 230.394425 
L 313.2 224.244231 
L 322.5 212.408489 
L 331.8 217.849707 
L 341.1 229.152306 
L 350.4 223.310162 
L 359.7 218.45104 
L 369 218.113856 
L 378.3 209.33502 
L 387.6 207.322095 
L 396.9 216.679947 
L 406.2 223.619428 
L 415.5 212.559595 
L 424.8 214.752497 
L 434.1 209.17227 
L 443.4 196.453474 
L 452.7 213.732881 
L 462 213.527611 
L 471.3 211.494517 
L 480.6 222.06009 
L 489.9 215.72806 
L 499.2 216.59228 
L 508.5 227.331574 
L 517.8 226.09702 
L 527.1 203.920966 
L 536.4 212.856299 
L 545.7 216.525885 
L 555 211.754299 
L 564.3 218.110552 
L 573.6 225.921548 
L 582.9 223.36988 
L 592.2 223.91242 
L 601.5 210.388274 
L 610.8 203.563056 
L 620.1 209.659112 
L 629.4 212.326439 
L 638.7 227.340625 
" style="fill:none;opacity:0.5;stroke:#808080;stroke-dasharray:;stroke-dashoffset:0;stroke-width:1.5;"/>
   </g>
   <g id="line2d_17">
    <path clip-path="url(#p81072b510e)" d="M 90 287.692018 
L 99.3 264.79094 
L 108.6 266.985966 
L 117.9 247.367092 
L 127.2 247.272418 
L 136.5 244.533821 
L 145.8 251.355722 
L 155.1 235.882091 
L 164.4 255.357128 
L 173.7 235.094056 
L 183 243.020002 
L 192.3 230.761158 
L 201.6 233.552787 
L 210.9 232.55053 
L 220.2 226.707783 
L 229.5 222.729322 
L 238.8 224.452375 
L 248.1 225.530236 
L 257.4 231.604707 
L 266.7 241.487967 
L 276 234.747447 
L 285.3 223.314379 
L 294.6 219.58539 
L 303.9 221.183249 
L 313.2 243.151032 
L 322.5 221.121679 
L 331.8 213.921388 
L 341.1 228.396699 
L 350.4 218.954855 
L 359.7 219.901316 
L 369 227.325679 
L 378.3 232.036989 
L 387.6 214.384317 
L 396.9 234.037623 
L 406.2 216.495793 
L 415.5 227.12567 
L 424.8 211.022008 
L 434.1 209.544943 
L 443.4 226.383503 
L 452.7 213.002131 
L 462 202.012917 
L 471.3 212.877467 
L 480.6 219.260203 
L 489.9 226.462474 
L 499.2 230.758303 
L 508.5 221.566418 
L 517.8 211.663997 
L 527.1 216.493073 
L 536.4 215.863187 
L 545.7 241.457333 
L 555 216.582345 
L 564.3 205.029496 
L 573.6 233.641366 
L 582.9 217.138327 
L 592.2 210.152368 
L 601.5 226.099371 
L 610.8 228.606542 
L 620.1 211.381218 
L 629.4 216.475777 
L 638.7 211.060819 
" style="fill:none;opacity:0.5;stroke:#808080;stroke-dasharray:;stroke-dashoffset:0;stroke-width:1.5;"/>
   </g>
   <g id="line2d_18">
    <path clip-path="url(#p81072b510e)" d="M 90 293.960558 
L 99.3 250.696816 
L 108.6 258.941067 
L 117.9 245.34482 
L 127.2 252.288595 
L 136.5 246.030185 
L 145.8 262.934019 
L 155.1 257.845127 
L 164.4 246.776766 
L 173.7 240.189623 
L 183 244.468473 
L 192.3 241.190026 
L 201.6 219.27245 
L 210.9 236.70685 
L 220.2 234.223517 
L 229.5 221.215038 
L 238.8 220.49013 
L 248.1 221.310561 
L 257.4 219.743022 
L 266.7 231.380779 
L 276 225.101856 
L 285.3 224.733893 
L 294.6 211.263596 
L 303.9 211.93065 
L 313.2 212.46466 
L 322.5 227.291743 
L 331.8 221.387079 
L 341.1 223.362809 
L 350.4 206.723223 
L 359.7 212.575008 
L 369 224.386572 
L 378.3 227.555446 
L 387.6 232.451388 
L 396.9 214.575108 
L 406.2 229.028618 
L 415.5 218.544148 
L 424.8 214.197543 
L 434.1 194.369251 
L 443.4 212.656162 
L 452.7 214.430227 
L 462 212.45546 
L 471.3 208.226578 
L 480.6 209.509546 
L 489.9 201.793692 
L 499.2 212.912339 
L 508.5 211.925602 
L 517.8 218.441084 
L 527.1 200.743586 
L 536.4 203.258161 
L 545.7 203.277878 
L 555 222.055289 
L 564.3 211.907234 
L 573.6 214.365513 
L 582.9 203.877873 
L 592.2 203.006035 
L 601.5 220.407988 
L 610.8 222.794969 
L 620.1 232.300916 
L 629.4 199.438315 
L 638.7 225.202676 
" style="fill:none;opacity:0.5;stroke:#808080;stroke-dasharray:;stroke-dashoffset:0;stroke-width:1.5;"/>
   </g>
   <g id="line2d_19">
    <path clip-path="url(#p81072b510e)" d="M 90 287.252064 
L 99.3 261.582224 
L 108.6 262.831523 
L 117.9 241.588849 
L 127.2 260.741888 
L 136.5 242.244959 
L 145.8 254.776156 
L 155.1 242.691851 
L 164.4 245.246923 
L 173.7 221.817816 
L 183 237.209985 
L 192.3 232.650987 
L 201.6 217.188374 
L 210.9 237.383006 
L 220.2 243.091459 
L 229.5 234.019795 
L 238.8 222.520075 
L 248.1 239.495762 
L 257.4 224.209036 
L 266.7 212.995102 
L 276 229.696418 
L 285.3 234.147813 
L 294.6 243.704955 
L 303.9 215.436467 
L 313.2 223.792125 
L 322.5 213.118306 
L 331.8 210.88476 
L 341.1 208.394822 
L 350.4 212.395123 
L 359.7 218.989205 
L 369 218.07173 
L 378.3 226.123167 
L 387.6 227.67099 
L 396.9 220.097472 
L 406.2 202.689854 
L 415.5 211.005997 
L 424.8 219.030212 
L 434.1 197.081989 
L 443.4 217.690097 
L 452.7 231.737466 
L 462 221.02659 
L 471.3 211.346389 
L 480.6 234.133168 
L 489.9 208.824181 
L 499.2 199.334907 
L 508.5 218.015886 
L 517.8 227.740765 
L 527.1 240.033737 
L 536.4 207.999405 
L 545.7 214.216116 
L 555 213.403846 
L 564.3 215.107549 
L 573.6 199.543032 
L 582.9 211.969246 
L 592.2 214.171573 
L 601.5 211.11803 
L 610.8 217.983017 
L 620.1 231.597879 
L 629.4 212.107225 
L 638.7 211.08439 
" style="fill:none;opacity:0.5;stroke:#808080;stroke-dasharray:;stroke-dashoffset:0;stroke-width:1.5;"/>
   </g>
   <g id="line2d_20">
    <path clip-path="url(#p81072b510e)" d="M 90 292.619805 
L 99.3 259.610335 
L 108.6 264.511122 
L 117.9 255.204189 
L 127.2 263.677214 
L 136.5 242.092268 
L 145.8 258.367114 
L 155.1 237.202826 
L 164.4 250.659985 
L 173.7 238.324115 
L 183 243.216814 
L 192.3 240.543042 
L 201.6 238.197771 
L 210.9 237.985673 
L 220.2 225.759804 
L 229.5 234.769961 
L 238.8 231.937168 
L 248.1 247.760403 
L 257.4 231.508399 
L 266.7 221.557839 
L 276 239.916512 
L 285.3 229.4093 
L 294.6 227.408922 
L 303.9 229.594692 
L 313.2 218.014438 
L 322.5 221.015128 
L 331.8 223.351904 
L 341.1 221.169417 
L 350.4 220.902594 
L 359.7 227.289521 
L 369 229.410075 
L 378.3 221.041042 
L 387.6 217.996588 
L 396.9 227.144554 
L 406.2 212.144534 
L 415.5 218.702401 
L 424.8 222.254474 
L 434.1 220.837941 
L 443.4 222.066275 
L 452.7 213.194993 
L 462 214.817959 
L 471.3 209.592885 
L 480.6 228.926083 
L 489.9 211.242809 
L 499.2 213.227727 
L 508.5 217.874614 
L 517.8 224.357349 
L 527.1 211.822079 
L 536.4 211.272362 
L 545.7 215.410027 
L 555 209.855763 
L 564.3 220.740669 
L 573.6 208.728247 
L 582.9 211.836523 
L 592.2 218.01352 
L 601.5 216.817787 
L 610.8 219.301761 
L 620.1 217.35467 
L 629.4 217.142928 
L 638.7 212.539094 
" style="fill:none;opacity:0.5;stroke:#808080;stroke-dasharray:;stroke-dashoffset:0;stroke-width:1.5;"/>
   </g>
   <g id="line2d_21">
    <path clip-path="url(#p81072b510e)" d="M 90 291.842054 
L 99.3 256.896185 
L 108.6 269.043449 
L 117.9 255.488612 
L 127.2 251.955295 
L 136.5 248.743726 
L 145.8 247.257028 
L 155.1 233.598198 
L 164.4 247.475388 
L 173.7 238.180962 
L 183 250.060302 
L 192.3 233.257398 
L 201.6 229.457866 
L 210.9 236.412096 
L 220.2 232.283991 
L 229.5 233.1771 
L 238.8 225.160216 
L 248.1 219.947307 
L 257.4 232.957619 
L 266.7 212.542316 
L 276 230.079489 
L 285.3 235.17911 
L 294.6 223.103102 
L 303.9 218.505538 
L 313.2 224.413888 
L 322.5 208.793502 
L 331.8 230.218997 
L 341.1 235.56785 
L 350.4 216.749465 
L 359.7 211.397192 
L 369 223.904815 
L 378.3 218.19666 
L 387.6 215.376316 
L 396.9 217.927968 
L 406.2 224.827982 
L 415.5 223.971677 
L 424.8 214.688403 
L 434.1 212.108325 
L 443.4 205.982414 
L 452.7 202.372123 
L 462 209.431335 
L 471.3 221.867589 
L 480.6 203.270589 
L 489.9 215.707773 
L 499.2 195.38377 
L 508.5 212.739378 
L 517.8 224.971205 
L 527.1 205.557509 
L 536.4 210.160224 
L 545.7 215.822866 
L 555 201.735068 
L 564.3 215.893931 
L 573.6 227.230099 
L 582.9 208.567837 
L 592.2 204.046319 
L 601.5 222.120943 
L 610.8 219.76745 
L 620.1 219.818935 
L 629.4 212.289373 
L 638.7 215.210533 
" style="fill:none;opacity:0.5;stroke:#808080;stroke-dasharray:;stroke-dashoffset:0;stroke-width:1.5;"/>
   </g>
   <g id="line2d_22">
    <path clip-path="url(#p81072b510e)" d="M 90 292.453994 
L 99.3 246.549809 
L 108.6 255.589012 
L 117.9 251.744167 
L 127.2 249.652424 
L 136.5 243.379602 
L 145.8 236.952922 
L 155.1 236.067773 
L 164.4 247.809042 
L 173.7 229.646018 
L 183 230.470894 
L 192.3 239.500764 
L 201.6 231.971473 
L 210.9 231.177056 
L 220.2 229.94817 
L 229.5 225.3796 
L 238.8 225.444528 
L 248.1 231.109401 
L 257.4 236.361679 
L 266.7 226.9044 
L 276 221.765858 
L 285.3 220.070306 
L 294.6 227.636977 
L 303.9 229.826665 
L 313.2 218.483845 
L 322.5 219.187672 
L 331.8 219.391458 
L 341.1 221.956396 
L 350.4 219.084675 
L 359.7 224.503444 
L 369 230.098355 
L 378.3 210.304548 
L 387.6 226.844752 
L 396.9 235.93678 
L 406.2 210.211769 
L 415.5 219.822154 
L 424.8 227.151809 
L 434.1 216.280842 
L 443.4 225.280348 
L 452.7 211.631524 
L 462 208.624271 
L 471.3 208.233228 
L 480.6 211.928609 
L 489.9 232.39596 
L 499.2 213.379269 
L 508.5 208.65473 
L 517.8 201.695862 
L 527.1 217.705189 
L 536.4 219.276129 
L 545.7 205.343597 
L 555 207.592571 
L 564.3 202.343632 
L 573.6 210.91507 
L 582.9 217.969364 
L 592.2 211.598875 
L 601.5 229.036818 
L 610.8 211.381126 
L 620.1 217.30981 
L 629.4 228.076896 
L 638.7 210.426953 
" style="fill:none;opacity:0.5;stroke:#808080;stroke-dasharray:;stroke-dashoffset:0;stroke-width:1.5;"/>
   </g>
   <g id="line2d_23">
    <path clip-path="url(#p81072b510e)" d="M 90 296.546954 
L 99.3 262.739069 
L 108.6 271.784638 
L 117.9 257.492449 
L 127.2 260.474694 
L 136.5 238.735765 
L 145.8 255.929395 
L 155.1 253.778183 
L 164.4 247.911551 
L 173.7 240.275124 
L 183 241.711696 
L 192.3 249.685023 
L 201.6 244.942412 
L 210.9 231.307555 
L 220.2 232.019695 
L 229.5 228.732009 
L 238.8 238.306861 
L 248.1 240.497962 
L 257.4 238.954505 
L 266.7 230.882232 
L 276 233.264643 
L 285.3 243.852239 
L 294.6 231.130824 
L 303.9 229.126212 
L 313.2 217.197718 
L 322.5 228.092634 
L 331.8 220.750799 
L 341.1 215.705093 
L 350.4 201.124363 
L 359.7 213.296087 
L 369 201.181364 
L 378.3 221.044423 
L 387.6 214.694499 
L 396.9 209.098845 
L 406.2 206.535056 
L 415.5 214.048765 
L 424.8 218.450572 
L 434.1 221.533011 
L 443.4 212.609254 
L 452.7 205.107239 
L 462 212.24223 
L 471.3 211.147035 
L 480.6 221.525513 
L 489.9 214.707786 
L 499.2 211.990039 
L 508.5 213.80839 
L 517.8 223.882306 
L 527.1 212.788863 
L 536.4 216.944702 
L 545.7 207.110961 
L 555 214.710834 
L 564.3 206.244565 
L 573.6 208.688103 
L 582.9 194.175931 
L 592.2 208.998549 
L 601.5 198.943398 
L 610.8 213.03444 
L 620.1 199.102787 
L 629.4 208.794189 
L 638.7 212.572589 
" style="fill:none;opacity:0.5;stroke:#808080;stroke-dasharray:;stroke-dashoffset:0;stroke-width:1.5;"/>
   </g>
   <g id="line2d_24">
    <path clip-path="url(#p81072b510e)" d="M 90 291.111871 
L 99.3 258.133921 
L 108.6 262.50201 
L 117.9 249.849351 
L 127.2 252.339716 
L 136.5 245.580137 
L 145.8 249.723536 
L 155.1 241.942016 
L 164.4 246.221873 
L 173.7 236.777333 
L 183 239.957482 
L 192.3 237.199564 
L 201.6 233.13929 
L 210.9 235.086206 
L 220.2 231.70408 
L 229.5 230.462476 
L 238.8 226.935026 
L 248.1 231.574456 
L 257.4 230.091269 
L 266.7 224.857183 
L 276 230.075882 
L 285.3 231.096657 
L 294.6 227.697231 
L 303.9 223.410038 
L 313.2 225.64001 
L 322.5 219.492119 
L 331.8 221.182974 
L 341.1 223.195965 
L 350.4 216.044666 
L 359.7 219.463794 
L 369 222.561601 
L 378.3 221.220385 
L 387.6 220.488331 
L 396.9 222.715371 
L 406.2 216.653079 
L 415.5 217.31878 
L 424.8 218.071897 
L 434.1 212.398428 
L 443.4 217.643612 
L 452.7 214.948613 
L 462 213.286624 
L 471.3 212.943498 
L 480.6 218.884202 
L 489.9 215.559691 
L 499.2 211.392023 
L 508.5 215.254183 
L 517.8 219.493097 
L 527.1 216.399926 
L 536.4 213.372598 
L 545.7 217.13825 
L 555 212.162216 
L 564.3 213.864371 
L 573.6 217.202392 
L 582.9 212.01328 
L 592.2 212.57181 
L 601.5 217.433563 
L 610.8 217.798199 
L 620.1 216.740484 
L 629.4 213.754373 
L 638.7 217.153743 
" style="fill:none;stroke:#1f77b4;stroke-dasharray:;stroke-dashoffset:0;stroke-width:1.5;"/>
   </g>
   <g id="line2d_25">
    <path clip-path="url(#p81072b510e)" d="M 90 298.561932 
L 99.3 274.655847 
L 108.6 268.118892 
L 117.9 263.770975 
L 127.2 264.995789 
L 136.5 266.299453 
L 145.8 257.788364 
L 155.1 257.253143 
L 164.4 261.896324 
L 173.7 255.722324 
L 183 255.247781 
L 192.3 246.279544 
L 201.6 247.266489 
L 210.9 244.829696 
L 220.2 243.553597 
L 229.5 237.370464 
L 238.8 226.402207 
L 248.1 233.552821 
L 257.4 230.969119 
L 266.7 230.615212 
L 276 220.207189 
L 285.3 225.943047 
L 294.6 224.98085 
L 303.9 214.875026 
L 313.2 216.177754 
L 322.5 224.044095 
L 331.8 205.44006 
L 341.1 213.093314 
L 350.4 207.333149 
L 359.7 203.305387 
L 369 212.968738 
L 378.3 199.921084 
L 387.6 207.585857 
L 396.9 218.003203 
L 406.2 213.106049 
L 415.5 214.06818 
L 424.8 210.276213 
L 434.1 204.751292 
L 443.4 219.156267 
L 452.7 211.705426 
L 462 209.307657 
L 471.3 199.465907 
L 480.6 206.203896 
L 489.9 206.89531 
L 499.2 210.241966 
L 508.5 200.154675 
L 517.8 202.286072 
L 527.1 203.659606 
L 536.4 192.617976 
L 545.7 191.187341 
L 555 199.922196 
L 564.3 183.168813 
L 573.6 203.073775 
L 582.9 191.908629 
L 592.2 183.607772 
L 601.5 201.560276 
L 610.8 186.818946 
L 620.1 191.741901 
L 629.4 210.433645 
L 638.7 197.984306 
" style="fill:none;opacity:0.5;stroke:#808080;stroke-dasharray:1.5,1.5;stroke-dashoffset:0;stroke-width:1.5;"/>
   </g>
   <g id="line2d_26">
    <path clip-path="url(#p81072b510e)" d="M 90 295.467637 
L 99.3 274.687239 
L 108.6 268.55548 
L 117.9 259.7003 
L 127.2 264.123867 
L 136.5 255.578806 
L 145.8 262.886046 
L 155.1 255.915854 
L 164.4 253.341833 
L 173.7 244.347419 
L 183 247.371429 
L 192.3 242.540818 
L 201.6 243.915751 
L 210.9 243.307344 
L 220.2 230.983263 
L 229.5 239.099366 
L 238.8 229.902985 
L 248.1 229.411471 
L 257.4 229.001249 
L 266.7 227.050329 
L 276 217.510303 
L 285.3 228.816632 
L 294.6 222.903624 
L 303.9 221.011841 
L 313.2 219.116578 
L 322.5 221.268481 
L 331.8 216.21495 
L 341.1 211.579256 
L 350.4 208.13242 
L 359.7 212.236277 
L 369 204.598411 
L 378.3 215.229521 
L 387.6 211.85591 
L 396.9 208.624064 
L 406.2 206.627541 
L 415.5 208.511358 
L 424.8 201.866763 
L 434.1 212.705741 
L 443.4 205.741367 
L 452.7 201.269845 
L 462 204.929281 
L 471.3 201.249956 
L 480.6 195.534544 
L 489.9 201.217481 
L 499.2 204.186958 
L 508.5 201.399986 
L 517.8 212.439854 
L 527.1 204.349279 
L 536.4 205.117975 
L 545.7 203.808276 
L 555 206.546597 
L 564.3 199.589492 
L 573.6 195.870168 
L 582.9 191.082655 
L 592.2 204.774603 
L 601.5 195.070535 
L 610.8 199.967835 
L 620.1 199.206608 
L 629.4 193.543466 
L 638.7 197.958007 
" style="fill:none;opacity:0.5;stroke:#808080;stroke-dasharray:1.5,1.5;stroke-dashoffset:0;stroke-width:1.5;"/>
   </g>
   <g id="line2d_27">
    <path clip-path="url(#p81072b510e)" d="M 90 296.316068 
L 99.3 277.354329 
L 108.6 272.032571 
L 117.9 275.067653 
L 127.2 268.998479 
L 136.5 256.154361 
L 145.8 258.109943 
L 155.1 252.075828 
L 164.4 255.720829 
L 173.7 254.321965 
L 183 245.271185 
L 192.3 243.802665 
L 201.6 241.249553 
L 210.9 234.949662 
L 220.2 232.968208 
L 229.5 238.291735 
L 238.8 235.814981 
L 248.1 236.698252 
L 257.4 233.657895 
L 266.7 226.70207 
L 276 222.433688 
L 285.3 222.527695 
L 294.6 215.991717 
L 303.9 217.370808 
L 313.2 216.77555 
L 322.5 214.019851 
L 331.8 210.124618 
L 341.1 209.12222 
L 350.4 214.313379 
L 359.7 226.825453 
L 369 196.422427 
L 378.3 202.380452 
L 387.6 195.240019 
L 396.9 208.50212 
L 406.2 211.254306 
L 415.5 195.862183 
L 424.8 199.312233 
L 434.1 196.324092 
L 443.4 195.189488 
L 452.7 187.30062 
L 462 199.172009 
L 471.3 195.526033 
L 480.6 211.606806 
L 489.9 206.864632 
L 499.2 192.910327 
L 508.5 197.232742 
L 517.8 191.819769 
L 527.1 193.303758 
L 536.4 191.80975 
L 545.7 194.901498 
L 555 194.505455 
L 564.3 186.157384 
L 573.6 196.921484 
L 582.9 198.998852 
L 592.2 208.294935 
L 601.5 185.643856 
L 610.8 196.515589 
L 620.1 184.426418 
L 629.4 194.943349 
L 638.7 206.29954 
" style="fill:none;opacity:0.5;stroke:#808080;stroke-dasharray:1.5,1.5;stroke-dashoffset:0;stroke-width:1.5;"/>
   </g>
   <g id="line2d_28">
    <path clip-path="url(#p81072b510e)" d="M 90 291.017956 
L 99.3 268.648392 
L 108.6 266.188947 
L 117.9 266.016254 
L 127.2 259.543887 
L 136.5 255.690574 
L 145.8 255.367921 
L 155.1 251.907289 
L 164.4 244.628867 
L 173.7 245.945006 
L 183 237.928044 
L 192.3 251.709397 
L 201.6 243.977129 
L 210.9 246.05727 
L 220.2 241.866057 
L 229.5 236.18383 
L 238.8 239.316067 
L 248.1 230.724079 
L 257.4 233.531697 
L 266.7 235.760536 
L 276 224.555442 
L 285.3 222.648482 
L 294.6 220.323953 
L 303.9 219.828059 
L 313.2 224.987 
L 322.5 219.547161 
L 331.8 210.144016 
L 341.1 212.011991 
L 350.4 211.349121 
L 359.7 208.211456 
L 369 211.357594 
L 378.3 206.339323 
L 387.6 211.895599 
L 396.9 204.870689 
L 406.2 204.18248 
L 415.5 199.234208 
L 424.8 201.193085 
L 434.1 205.276023 
L 443.4 208.706595 
L 452.7 208.018215 
L 462 201.698115 
L 471.3 193.88859 
L 480.6 197.102539 
L 489.9 202.008331 
L 499.2 202.247716 
L 508.5 199.378999 
L 517.8 200.083543 
L 527.1 188.665213 
L 536.4 198.022526 
L 545.7 205.535756 
L 555 203.425653 
L 564.3 193.406647 
L 573.6 195.179382 
L 582.9 196.817448 
L 592.2 189.354968 
L 601.5 203.678752 
L 610.8 193.812699 
L 620.1 206.910345 
L 629.4 194.118284 
L 638.7 194.506732 
" style="fill:none;opacity:0.5;stroke:#808080;stroke-dasharray:1.5,1.5;stroke-dashoffset:0;stroke-width:1.5;"/>
   </g>
   <g id="line2d_29">
    <path clip-path="url(#p81072b510e)" d="M 90 291.933869 
L 99.3 276.576189 
L 108.6 272.914381 
L 117.9 267.245779 
L 127.2 267.27004 
L 136.5 259.553344 
L 145.8 263.753237 
L 155.1 256.102604 
L 164.4 252.885741 
L 173.7 254.443661 
L 183 254.376822 
L 192.3 247.738128 
L 201.6 239.58907 
L 210.9 239.633997 
L 220.2 241.122315 
L 229.5 228.991543 
L 238.8 235.707934 
L 248.1 230.256206 
L 257.4 234.288427 
L 266.7 229.584684 
L 276 228.425935 
L 285.3 217.294695 
L 294.6 216.14176 
L 303.9 219.72392 
L 313.2 217.085215 
L 322.5 212.947489 
L 331.8 212.041628 
L 341.1 213.693309 
L 350.4 206.977122 
L 359.7 198.874724 
L 369 207.752622 
L 378.3 216.111554 
L 387.6 200.899265 
L 396.9 199.30262 
L 406.2 212.470508 
L 415.5 210.178726 
L 424.8 199.977341 
L 434.1 198.707498 
L 443.4 209.820312 
L 452.7 208.187955 
L 462 194.587514 
L 471.3 199.726025 
L 480.6 191.035081 
L 489.9 204.376103 
L 499.2 199.11907 
L 508.5 202.011184 
L 517.8 194.617585 
L 527.1 186.681653 
L 536.4 199.263138 
L 545.7 192.820001 
L 555 197.914903 
L 564.3 192.987866 
L 573.6 193.854201 
L 582.9 187.532086 
L 592.2 184.689075 
L 601.5 194.493973 
L 610.8 203.73405 
L 620.1 185.977865 
L 629.4 186.900735 
L 638.7 195.863285 
" style="fill:none;opacity:0.5;stroke:#808080;stroke-dasharray:1.5,1.5;stroke-dashoffset:0;stroke-width:1.5;"/>
   </g>
   <g id="line2d_30">
    <path clip-path="url(#p81072b510e)" d="M 90 295.785959 
L 99.3 280.108613 
L 108.6 274.899548 
L 117.9 267.760528 
L 127.2 267.981324 
L 136.5 259.104834 
L 145.8 256.366628 
L 155.1 257.730485 
L 164.4 248.003287 
L 173.7 251.142059 
L 183 254.79752 
L 192.3 246.038871 
L 201.6 242.883569 
L 210.9 235.947822 
L 220.2 235.250356 
L 229.5 225.095107 
L 238.8 230.79323 
L 248.1 232.321921 
L 257.4 223.64981 
L 266.7 228.82797 
L 276 225.735544 
L 285.3 213.971698 
L 294.6 218.533614 
L 303.9 222.317944 
L 313.2 216.312701 
L 322.5 224.60135 
L 331.8 221.794763 
L 341.1 218.749676 
L 350.4 220.688618 
L 359.7 219.232178 
L 369 217.211379 
L 378.3 208.72873 
L 387.6 208.572192 
L 396.9 207.470392 
L 406.2 216.522856 
L 415.5 217.045909 
L 424.8 211.327355 
L 434.1 212.423544 
L 443.4 208.898221 
L 452.7 202.865351 
L 462 193.643671 
L 471.3 203.995808 
L 480.6 210.04256 
L 489.9 205.602671 
L 499.2 206.960201 
L 508.5 202.880873 
L 517.8 191.32425 
L 527.1 196.763745 
L 536.4 204.537693 
L 545.7 201.947764 
L 555 204.551749 
L 564.3 211.815544 
L 573.6 200.727211 
L 582.9 195.954965 
L 592.2 211.005518 
L 601.5 204.361392 
L 610.8 193.55525 
L 620.1 201.099432 
L 629.4 197.413159 
L 638.7 205.311218 
" style="fill:none;opacity:0.5;stroke:#808080;stroke-dasharray:1.5,1.5;stroke-dashoffset:0;stroke-width:1.5;"/>
   </g>
   <g id="line2d_31">
    <path clip-path="url(#p81072b510e)" d="M 90 292.318606 
L 99.3 274.364121 
L 108.6 272.742361 
L 117.9 267.131273 
L 127.2 265.730062 
L 136.5 267.03083 
L 145.8 265.387559 
L 155.1 261.626022 
L 164.4 260.257162 
L 173.7 257.557039 
L 183 259.140449 
L 192.3 247.705039 
L 201.6 249.921268 
L 210.9 242.535169 
L 220.2 243.18558 
L 229.5 240.68343 
L 238.8 235.603131 
L 248.1 233.791329 
L 257.4 233.121922 
L 266.7 242.119135 
L 276 232.985421 
L 285.3 221.680605 
L 294.6 225.662805 
L 303.9 220.179429 
L 313.2 212.721844 
L 322.5 215.772847 
L 331.8 218.810775 
L 341.1 212.448589 
L 350.4 204.244184 
L 359.7 201.48345 
L 369 208.962327 
L 378.3 207.03313 
L 387.6 208.60721 
L 396.9 207.976569 
L 406.2 211.979005 
L 415.5 206.601198 
L 424.8 204.234188 
L 434.1 206.948593 
L 443.4 196.316536 
L 452.7 197.459059 
L 462 197.739406 
L 471.3 196.504418 
L 480.6 195.596349 
L 489.9 200.468886 
L 499.2 208.237955 
L 508.5 200.651345 
L 517.8 189.406222 
L 527.1 199.04493 
L 536.4 195.504724 
L 545.7 187.163645 
L 555 195.361309 
L 564.3 198.063619 
L 573.6 191.547138 
L 582.9 187.780381 
L 592.2 191.891737 
L 601.5 194.953869 
L 610.8 196.747319 
L 620.1 205.581465 
L 629.4 201.584366 
L 638.7 202.788221 
" style="fill:none;opacity:0.5;stroke:#808080;stroke-dasharray:1.5,1.5;stroke-dashoffset:0;stroke-width:1.5;"/>
   </g>
   <g id="line2d_32">
    <path clip-path="url(#p81072b510e)" d="M 90 288.911449 
L 99.3 271.9053 
L 108.6 265.744785 
L 117.9 268.821754 
L 127.2 258.943968 
L 136.5 259.933295 
L 145.8 256.439243 
L 155.1 258.645813 
L 164.4 259.181167 
L 173.7 249.601825 
L 183 256.855717 
L 192.3 246.291495 
L 201.6 245.936094 
L 210.9 248.531578 
L 220.2 251.850325 
L 229.5 246.826135 
L 238.8 248.907385 
L 248.1 233.939345 
L 257.4 230.641905 
L 266.7 239.447833 
L 276 223.206163 
L 285.3 230.153231 
L 294.6 222.217569 
L 303.9 228.35659 
L 313.2 227.349978 
L 322.5 220.601547 
L 331.8 227.350692 
L 341.1 214.798799 
L 350.4 219.844663 
L 359.7 217.36069 
L 369 219.407576 
L 378.3 206.753348 
L 387.6 219.018987 
L 396.9 211.237034 
L 406.2 206.221564 
L 415.5 216.14716 
L 424.8 197.285638 
L 434.1 208.49073 
L 443.4 203.600288 
L 452.7 214.075707 
L 462 207.997685 
L 471.3 211.844039 
L 480.6 204.421892 
L 489.9 195.123218 
L 499.2 207.559339 
L 508.5 188.537029 
L 517.8 200.981176 
L 527.1 194.505403 
L 536.4 202.286384 
L 545.7 200.561266 
L 555 190.875075 
L 564.3 203.304148 
L 573.6 188.451004 
L 582.9 198.976586 
L 592.2 194.921256 
L 601.5 197.961224 
L 610.8 190.505847 
L 620.1 199.910823 
L 629.4 194.708903 
L 638.7 194.183548 
" style="fill:none;opacity:0.5;stroke:#808080;stroke-dasharray:1.5,1.5;stroke-dashoffset:0;stroke-width:1.5;"/>
   </g>
   <g id="line2d_33">
    <path clip-path="url(#p81072b510e)" d="M 90 289.764747 
L 99.3 269.891629 
L 108.6 264.104149 
L 117.9 261.436273 
L 127.2 263.738222 
L 136.5 259.927438 
L 145.8 261.243762 
L 155.1 254.217871 
L 164.4 252.247486 
L 173.7 252.859114 
L 183 255.787346 
L 192.3 254.499714 
L 201.6 249.610098 
L 210.9 246.436515 
L 220.2 246.984416 
L 229.5 238.59849 
L 238.8 235.493206 
L 248.1 240.095912 
L 257.4 230.387943 
L 266.7 235.15383 
L 276 226.718136 
L 285.3 222.552342 
L 294.6 228.89826 
L 303.9 221.321757 
L 313.2 217.422973 
L 322.5 225.021262 
L 331.8 217.420067 
L 341.1 212.058215 
L 350.4 211.188279 
L 359.7 207.690519 
L 369 214.822352 
L 378.3 213.136931 
L 387.6 203.74095 
L 396.9 203.493399 
L 406.2 211.085433 
L 415.5 202.197011 
L 424.8 206.554733 
L 434.1 201.79594 
L 443.4 206.079789 
L 452.7 198.909136 
L 462 195.037103 
L 471.3 190.662689 
L 480.6 198.484913 
L 489.9 190.914962 
L 499.2 206.419791 
L 508.5 191.555516 
L 517.8 190.980351 
L 527.1 196.108729 
L 536.4 193.40325 
L 545.7 186.002212 
L 555 197.209098 
L 564.3 190.498512 
L 573.6 185.944682 
L 582.9 185.548365 
L 592.2 194.751263 
L 601.5 198.803564 
L 610.8 195.653714 
L 620.1 187.442643 
L 629.4 186.778155 
L 638.7 194.349102 
" style="fill:none;opacity:0.5;stroke:#808080;stroke-dasharray:1.5,1.5;stroke-dashoffset:0;stroke-width:1.5;"/>
   </g>
   <g id="line2d_34">
    <path clip-path="url(#p81072b510e)" d="M 90 293.814265 
L 99.3 265.791406 
L 108.6 258.473527 
L 117.9 262.997226 
L 127.2 257.972566 
L 136.5 253.11359 
L 145.8 249.902028 
L 155.1 245.12648 
L 164.4 247.259915 
L 173.7 241.154451 
L 183 239.150092 
L 192.3 240.464226 
L 201.6 240.310559 
L 210.9 236.173122 
L 220.2 226.1417 
L 229.5 233.340464 
L 238.8 230.686865 
L 248.1 229.167138 
L 257.4 225.689137 
L 266.7 220.616601 
L 276 218.856602 
L 285.3 223.209791 
L 294.6 210.010173 
L 303.9 210.232591 
L 313.2 220.159442 
L 322.5 206.890128 
L 331.8 206.598491 
L 341.1 208.476371 
L 350.4 209.72095 
L 359.7 199.702897 
L 369 212.587443 
L 378.3 204.011454 
L 387.6 203.891247 
L 396.9 213.202624 
L 406.2 202.508198 
L 415.5 197.728327 
L 424.8 207.503272 
L 434.1 206.262869 
L 443.4 207.282594 
L 452.7 192.669032 
L 462 205.125661 
L 471.3 206.51601 
L 480.6 200.572667 
L 489.9 204.287558 
L 499.2 199.563458 
L 508.5 206.973261 
L 517.8 208.587802 
L 527.1 201.722342 
L 536.4 198.03094 
L 545.7 205.022252 
L 555 188.728974 
L 564.3 192.276221 
L 573.6 192.489792 
L 582.9 191.438395 
L 592.2 185.925361 
L 601.5 194.380601 
L 610.8 189.421052 
L 620.1 187.466264 
L 629.4 203.177001 
L 638.7 188.110624 
" style="fill:none;opacity:0.5;stroke:#808080;stroke-dasharray:1.5,1.5;stroke-dashoffset:0;stroke-width:1.5;"/>
   </g>
   <g id="line2d_35">
    <path clip-path="url(#p81072b510e)" d="M 90 293.389249 
L 99.3 273.398307 
L 108.6 268.377464 
L 117.9 265.994801 
L 127.2 263.92982 
L 136.5 259.238652 
L 145.8 258.724473 
L 155.1 255.060139 
L 164.4 253.542261 
L 173.7 250.709486 
L 183 250.592638 
L 192.3 246.70699 
L 201.6 244.465958 
L 210.9 241.840218 
L 220.2 239.390582 
L 229.5 236.448056 
L 238.8 234.862799 
L 248.1 232.995847 
L 257.4 230.49391 
L 266.7 231.58782 
L 276 224.063442 
L 285.3 222.879822 
L 294.6 220.566433 
L 303.9 219.521797 
L 313.2 218.810904 
L 322.5 218.471421 
L 331.8 214.594006 
L 341.1 212.603174 
L 350.4 211.379189 
L 359.7 209.492303 
L 369 210.609087 
L 378.3 207.964553 
L 387.6 207.130724 
L 396.9 208.268271 
L 406.2 209.595794 
L 415.5 206.757426 
L 424.8 203.953082 
L 434.1 205.368632 
L 443.4 206.079145 
L 452.7 202.246035 
L 462 200.92381 
L 471.3 199.937948 
L 480.6 201.060125 
L 489.9 201.775915 
L 499.2 203.744678 
L 508.5 199.077561 
L 517.8 198.252662 
L 527.1 196.480466 
L 536.4 198.059436 
L 545.7 196.895001 
L 555 197.904101 
L 564.3 195.126825 
L 573.6 194.405884 
L 582.9 192.603836 
L 592.2 194.921649 
L 601.5 197.090804 
L 610.8 194.67323 
L 620.1 194.976376 
L 629.4 196.360106 
L 638.7 197.735458 
" style="fill:none;stroke:#ff7f0e;stroke-dasharray:1.5,1.5;stroke-dashoffset:0;stroke-width:1.5;"/>
   </g>
   <g id="line2d_36">
    <path clip-path="url(#p81072b510e)" d="M 90 293.125282 
L 99.3 271.135332 
L 108.6 258.865752 
L 117.9 247.277403 
L 127.2 239.89071 
L 136.5 234.542558 
L 145.8 223.704609 
L 155.1 213.946539 
L 164.4 206.099193 
L 173.7 202.140506 
L 183 193.196745 
L 192.3 196.080153 
L 201.6 184.261293 
L 210.9 171.177115 
L 220.2 164.48563 
L 229.5 175.345387 
L 238.8 157.518027 
L 248.1 166.008347 
L 257.4 144.882002 
L 266.7 169.0633 
L 276 126.413207 
L 285.3 164.352915 
L 294.6 137.408988 
L 303.9 134.687355 
L 313.2 127.194233 
L 322.5 146.338697 
L 331.8 113.42027 
L 341.1 121.624963 
L 350.4 129.005121 
L 359.7 99.002153 
L 369 113.630446 
L 378.3 120.501111 
L 387.6 111.241389 
L 396.9 115.034306 
L 406.2 115.093249 
L 415.5 104.433965 
L 424.8 110.102143 
L 434.1 98.077515 
L 443.4 95.891217 
L 452.7 93.887323 
L 462 108.965483 
L 471.3 98.390057 
L 480.6 109.14435 
L 489.9 87.808566 
L 499.2 101.786729 
L 508.5 75.130205 
L 517.8 115.818099 
L 527.1 78.791453 
L 536.4 86.45124 
L 545.7 88.026506 
L 555 102.916651 
L 564.3 75.452586 
L 573.6 89.531205 
L 582.9 107.823311 
L 592.2 66.772031 
L 601.5 82.697884 
L 610.8 102.894187 
L 620.1 77.416343 
L 629.4 93.029858 
L 638.7 100.335812 
" style="fill:none;opacity:0.5;stroke:#808080;stroke-dasharray:7.5,1.5;stroke-dashoffset:0;stroke-width:1.5;"/>
   </g>
   <g id="line2d_37">
    <path clip-path="url(#p81072b510e)" d="M 90 298.661129 
L 99.3 256.530148 
L 108.6 257.685114 
L 117.9 255.776196 
L 127.2 234.707692 
L 136.5 234.197106 
L 145.8 225.08524 
L 155.1 221.996895 
L 164.4 205.900834 
L 173.7 197.9117 
L 183 173.853488 
L 192.3 172.04717 
L 201.6 174.970265 
L 210.9 189.548184 
L 220.2 149.928959 
L 229.5 141.44884 
L 238.8 149.56684 
L 248.1 136.688801 
L 257.4 144.883405 
L 266.7 133.455514 
L 276 137.402035 
L 285.3 127.534171 
L 294.6 119.129841 
L 303.9 127.364528 
L 313.2 135.101038 
L 322.5 116.280669 
L 331.8 104.639614 
L 341.1 104.84212 
L 350.4 99.835922 
L 359.7 85.178285 
L 369 104.217429 
L 378.3 94.029366 
L 387.6 110.14659 
L 396.9 111.684559 
L 406.2 103.731258 
L 415.5 85.448045 
L 424.8 87.381678 
L 434.1 97.638261 
L 443.4 105.034128 
L 452.7 83.589128 
L 462 67.596172 
L 471.3 90.471572 
L 480.6 77.82458 
L 489.9 81.627406 
L 499.2 82.935727 
L 508.5 97.017504 
L 517.8 78.927925 
L 527.1 77.530924 
L 536.4 87.540144 
L 545.7 87.376559 
L 555 73.031201 
L 564.3 75.567415 
L 573.6 90.787202 
L 582.9 83.882124 
L 592.2 74.724468 
L 601.5 94.334661 
L 610.8 69.664977 
L 620.1 89.414675 
L 629.4 110.823689 
L 638.7 90.563716 
" style="fill:none;opacity:0.5;stroke:#808080;stroke-dasharray:7.5,1.5;stroke-dashoffset:0;stroke-width:1.5;"/>
   </g>
   <g id="line2d_38">
    <path clip-path="url(#p81072b510e)" d="M 90 291.999101 
L 99.3 263.916308 
L 108.6 256.75994 
L 117.9 246.702165 
L 127.2 238.732403 
L 136.5 228.760224 
L 145.8 210.877249 
L 155.1 207.486278 
L 164.4 205.065105 
L 173.7 193.38495 
L 183 176.170416 
L 192.3 175.937045 
L 201.6 171.338339 
L 210.9 164.134892 
L 220.2 164.81556 
L 229.5 145.368395 
L 238.8 139.27912 
L 248.1 136.01381 
L 257.4 134.647088 
L 266.7 113.394904 
L 276 153.166206 
L 285.3 124.293356 
L 294.6 119.578166 
L 303.9 120.512494 
L 313.2 121.445093 
L 322.5 125.96543 
L 331.8 114.832536 
L 341.1 102.486313 
L 350.4 110.065736 
L 359.7 135.932453 
L 369 117.025851 
L 378.3 108.414192 
L 387.6 107.828965 
L 396.9 111.260634 
L 406.2 110.34553 
L 415.5 95.236959 
L 424.8 88.889073 
L 434.1 111.574307 
L 443.4 111.825098 
L 452.7 114.975457 
L 462 82.987374 
L 471.3 87.16908 
L 480.6 83.779537 
L 489.9 88.488983 
L 499.2 75.313948 
L 508.5 119.588359 
L 517.8 81.720785 
L 527.1 91.235393 
L 536.4 90.729571 
L 545.7 96.432268 
L 555 99.799903 
L 564.3 82.772476 
L 573.6 103.762885 
L 582.9 89.571617 
L 592.2 104.01018 
L 601.5 115.98787 
L 610.8 95.892171 
L 620.1 104.708742 
L 629.4 107.233639 
L 638.7 107.443173 
" style="fill:none;opacity:0.5;stroke:#808080;stroke-dasharray:7.5,1.5;stroke-dashoffset:0;stroke-width:1.5;"/>
   </g>
   <g id="line2d_39">
    <path clip-path="url(#p81072b510e)" d="M 90 297.396095 
L 99.3 269.663735 
L 108.6 256.883161 
L 117.9 253.724085 
L 127.2 246.637969 
L 136.5 237.575087 
L 145.8 210.28092 
L 155.1 203.729192 
L 164.4 190.133764 
L 173.7 183.001094 
L 183 173.18884 
L 192.3 175.504449 
L 201.6 166.313534 
L 210.9 159.262185 
L 220.2 152.772492 
L 229.5 162.966541 
L 238.8 131.61599 
L 248.1 142.261467 
L 257.4 135.198436 
L 266.7 133.798833 
L 276 124.129648 
L 285.3 149.571666 
L 294.6 142.499483 
L 303.9 103.732794 
L 313.2 110.063742 
L 322.5 117.441425 
L 331.8 131.853669 
L 341.1 92.207187 
L 350.4 105.249676 
L 359.7 131.399853 
L 369 121.36051 
L 378.3 94.334681 
L 387.6 108.152274 
L 396.9 94.33487 
L 406.2 86.400654 
L 415.5 104.09768 
L 424.8 104.106849 
L 434.1 97.15173 
L 443.4 98.029243 
L 452.7 102.218867 
L 462 121.488879 
L 471.3 86.974372 
L 480.6 102.886211 
L 489.9 98.058497 
L 499.2 110.658452 
L 508.5 104.3481 
L 517.8 123.283285 
L 527.1 106.25948 
L 536.4 92.526247 
L 545.7 81.138447 
L 555 106.052968 
L 564.3 106.316966 
L 573.6 64.830446 
L 582.9 82.834406 
L 592.2 110.639513 
L 601.5 115.395507 
L 610.8 85.231755 
L 620.1 97.695898 
L 629.4 79.09261 
L 638.7 95.802798 
" style="fill:none;opacity:0.5;stroke:#808080;stroke-dasharray:7.5,1.5;stroke-dashoffset:0;stroke-width:1.5;"/>
   </g>
   <g id="line2d_40">
    <path clip-path="url(#p81072b510e)" d="M 90 287.553629 
L 99.3 269.177943 
L 108.6 254.670012 
L 117.9 250.45924 
L 127.2 235.740292 
L 136.5 218.807265 
L 145.8 208.179022 
L 155.1 193.518675 
L 164.4 199.658249 
L 173.7 175.192485 
L 183 175.586339 
L 192.3 171.512022 
L 201.6 184.412968 
L 210.9 151.476055 
L 220.2 160.345028 
L 229.5 139.258432 
L 238.8 151.923308 
L 248.1 141.733919 
L 257.4 130.903029 
L 266.7 131.346765 
L 276 118.629379 
L 285.3 139.371697 
L 294.6 118.587848 
L 303.9 127.889109 
L 313.2 116.396347 
L 322.5 112.415239 
L 331.8 117.81795 
L 341.1 116.713025 
L 350.4 113.106817 
L 359.7 111.409561 
L 369 99.775235 
L 378.3 95.681141 
L 387.6 95.6909 
L 396.9 89.598946 
L 406.2 83.513092 
L 415.5 93.559607 
L 424.8 92.657976 
L 434.1 120.907298 
L 443.4 88.886694 
L 452.7 99.254817 
L 462 77.451346 
L 471.3 103.069487 
L 480.6 83.073875 
L 489.9 82.56841 
L 499.2 84.295942 
L 508.5 93.177116 
L 517.8 101.251437 
L 527.1 83.929657 
L 536.4 99.293966 
L 545.7 86.534012 
L 555 83.224169 
L 564.3 99.593847 
L 573.6 103.426266 
L 582.9 104.147486 
L 592.2 89.100215 
L 601.5 83.096517 
L 610.8 84.70946 
L 620.1 101.821781 
L 629.4 82.483183 
L 638.7 80.072596 
" style="fill:none;opacity:0.5;stroke:#808080;stroke-dasharray:7.5,1.5;stroke-dashoffset:0;stroke-width:1.5;"/>
   </g>
   <g id="line2d_41">
    <path clip-path="url(#p81072b510e)" d="M 90 299.053819 
L 99.3 267.396011 
L 108.6 248.781074 
L 117.9 240.065625 
L 127.2 232.011398 
L 136.5 205.08211 
L 145.8 188.440936 
L 155.1 181.658843 
L 164.4 179.872751 
L 173.7 178.853085 
L 183 166.834006 
L 192.3 161.06918 
L 201.6 167.815247 
L 210.9 156.654994 
L 220.2 151.822033 
L 229.5 130.169363 
L 238.8 113.983148 
L 248.1 121.765399 
L 257.4 119.845244 
L 266.7 147.127804 
L 276 134.606224 
L 285.3 134.399021 
L 294.6 105.259776 
L 303.9 114.273427 
L 313.2 97.091238 
L 322.5 97.329185 
L 331.8 125.848301 
L 341.1 98.564629 
L 350.4 100.892772 
L 359.7 110.515402 
L 369 94.698394 
L 378.3 77.171391 
L 387.6 84.851101 
L 396.9 102.189237 
L 406.2 94.507527 
L 415.5 99.399357 
L 424.8 95.980644 
L 434.1 98.519296 
L 443.4 79.862355 
L 452.7 96.400145 
L 462 78.070024 
L 471.3 69.260013 
L 480.6 87.436838 
L 489.9 85.731521 
L 499.2 113.353685 
L 508.5 116.712104 
L 517.8 105.964503 
L 527.1 85.499419 
L 536.4 85.810664 
L 545.7 84.600078 
L 555 91.264349 
L 564.3 105.631837 
L 573.6 83.157444 
L 582.9 87.071729 
L 592.2 99.318007 
L 601.5 83.973197 
L 610.8 57.245872 
L 620.1 70.134101 
L 629.4 88.955028 
L 638.7 79.428784 
" style="fill:none;opacity:0.5;stroke:#808080;stroke-dasharray:7.5,1.5;stroke-dashoffset:0;stroke-width:1.5;"/>
   </g>
   <g id="line2d_42">
    <path clip-path="url(#p81072b510e)" d="M 90 295.26242 
L 99.3 267.02248 
L 108.6 265.389828 
L 117.9 246.242372 
L 127.2 253.255912 
L 136.5 237.381372 
L 145.8 228.133929 
L 155.1 213.180713 
L 164.4 213.825382 
L 173.7 203.807523 
L 183 181.103365 
L 192.3 183.489123 
L 201.6 174.900079 
L 210.9 175.035352 
L 220.2 144.337233 
L 229.5 175.832753 
L 238.8 132.315102 
L 248.1 149.260778 
L 257.4 136.276461 
L 266.7 123.188787 
L 276 126.593189 
L 285.3 126.801731 
L 294.6 124.0224 
L 303.9 114.226311 
L 313.2 116.507189 
L 322.5 117.759266 
L 331.8 119.624149 
L 341.1 112.92244 
L 350.4 104.705355 
L 359.7 129.205833 
L 369 103.506865 
L 378.3 107.070228 
L 387.6 103.414672 
L 396.9 99.258344 
L 406.2 110.312835 
L 415.5 94.952638 
L 424.8 106.901014 
L 434.1 110.533723 
L 443.4 103.877059 
L 452.7 89.40171 
L 462 110.559584 
L 471.3 68.897134 
L 480.6 92.785318 
L 489.9 80.650311 
L 499.2 81.817783 
L 508.5 80.919804 
L 517.8 87.749144 
L 527.1 92.289781 
L 536.4 92.176984 
L 545.7 81.790758 
L 555 91.843889 
L 564.3 86.183109 
L 573.6 81.129375 
L 582.9 72.865287 
L 592.2 111.756976 
L 601.5 86.513814 
L 610.8 78.910637 
L 620.1 77.236222 
L 629.4 90.930614 
L 638.7 106.870898 
" style="fill:none;opacity:0.5;stroke:#808080;stroke-dasharray:7.5,1.5;stroke-dashoffset:0;stroke-width:1.5;"/>
   </g>
   <g id="line2d_43">
    <path clip-path="url(#p81072b510e)" d="M 90 298.649178 
L 99.3 254.536314 
L 108.6 245.475457 
L 117.9 233.543073 
L 127.2 225.746158 
L 136.5 213.648026 
L 145.8 198.592605 
L 155.1 193.663523 
L 164.4 170.654981 
L 173.7 174.360986 
L 183 178.366957 
L 192.3 163.80404 
L 201.6 151.380053 
L 210.9 163.869886 
L 220.2 132.160156 
L 229.5 133.917036 
L 238.8 126.359058 
L 248.1 122.296749 
L 257.4 125.71602 
L 266.7 133.525614 
L 276 124.490957 
L 285.3 125.702741 
L 294.6 126.410461 
L 303.9 127.175944 
L 313.2 110.091282 
L 322.5 117.008143 
L 331.8 110.936602 
L 341.1 109.129525 
L 350.4 88.980674 
L 359.7 116.935527 
L 369 108.393899 
L 378.3 91.09312 
L 387.6 92.569892 
L 396.9 79.230356 
L 406.2 91.304046 
L 415.5 95.023915 
L 424.8 89.103117 
L 434.1 88.584494 
L 443.4 97.276922 
L 452.7 87.363083 
L 462 79.673439 
L 471.3 74.851176 
L 480.6 91.374154 
L 489.9 103.593491 
L 499.2 93.954421 
L 508.5 99.02877 
L 517.8 89.223979 
L 527.1 100.526954 
L 536.4 94.569683 
L 545.7 81.204181 
L 555 100.369905 
L 564.3 80.361854 
L 573.6 85.529208 
L 582.9 80.065966 
L 592.2 107.099322 
L 601.5 91.824499 
L 610.8 81.987549 
L 620.1 75.889568 
L 629.4 67.764818 
L 638.7 79.45736 
" style="fill:none;opacity:0.5;stroke:#808080;stroke-dasharray:7.5,1.5;stroke-dashoffset:0;stroke-width:1.5;"/>
   </g>
   <g id="line2d_44">
    <path clip-path="url(#p81072b510e)" d="M 90 289.088659 
L 99.3 259.85694 
L 108.6 251.662694 
L 117.9 243.828915 
L 127.2 215.937308 
L 136.5 210.133736 
L 145.8 210.306698 
L 155.1 186.726635 
L 164.4 200.00834 
L 173.7 191.341393 
L 183 178.327296 
L 192.3 169.109689 
L 201.6 154.969176 
L 210.9 155.73879 
L 220.2 151.079645 
L 229.5 150.805021 
L 238.8 145.129211 
L 248.1 132.249546 
L 257.4 133.645686 
L 266.7 133.688619 
L 276 128.127623 
L 285.3 128.226591 
L 294.6 111.004006 
L 303.9 112.901571 
L 313.2 132.697804 
L 322.5 104.48483 
L 331.8 110.783326 
L 341.1 110.718471 
L 350.4 109.25374 
L 359.7 90.21379 
L 369 104.506127 
L 378.3 120.977861 
L 387.6 100.020728 
L 396.9 113.929914 
L 406.2 103.439264 
L 415.5 101.553369 
L 424.8 107.002885 
L 434.1 106.917967 
L 443.4 106.832427 
L 452.7 102.535746 
L 462 110.48431 
L 471.3 107.456823 
L 480.6 93.403412 
L 489.9 91.696023 
L 499.2 98.575505 
L 508.5 93.474709 
L 517.8 109.296401 
L 527.1 91.379451 
L 536.4 94.34737 
L 545.7 111.247887 
L 555 92.762124 
L 564.3 102.376646 
L 573.6 101.275205 
L 582.9 94.102415 
L 592.2 88.583768 
L 601.5 90.801319 
L 610.8 107.076334 
L 620.1 80.786018 
L 629.4 97.853105 
L 638.7 82.441231 
" style="fill:none;opacity:0.5;stroke:#808080;stroke-dasharray:7.5,1.5;stroke-dashoffset:0;stroke-width:1.5;"/>
   </g>
   <g id="line2d_45">
    <path clip-path="url(#p81072b510e)" d="M 90 290.942361 
L 99.3 266.233401 
L 108.6 251.599404 
L 117.9 236.587747 
L 127.2 216.89785 
L 136.5 212.436118 
L 145.8 204.611165 
L 155.1 183.655279 
L 164.4 178.84058 
L 173.7 189.133763 
L 183 168.069505 
L 192.3 168.635465 
L 201.6 157.398793 
L 210.9 151.643119 
L 220.2 152.3737 
L 229.5 143.069613 
L 238.8 139.088099 
L 248.1 157.852497 
L 257.4 137.273735 
L 266.7 132.184315 
L 276 126.171026 
L 285.3 118.423315 
L 294.6 120.390437 
L 303.9 121.305254 
L 313.2 135.781381 
L 322.5 116.750495 
L 331.8 139.024737 
L 341.1 100.054376 
L 350.4 119.470534 
L 359.7 113.70548 
L 369 110.767635 
L 378.3 109.790184 
L 387.6 89.819794 
L 396.9 99.587292 
L 406.2 108.458572 
L 415.5 101.4754 
L 424.8 95.999472 
L 434.1 85.380887 
L 443.4 79.558088 
L 452.7 94.264123 
L 462 97.63619 
L 471.3 104.956931 
L 480.6 103.300588 
L 489.9 93.478564 
L 499.2 93.530784 
L 508.5 79.018969 
L 517.8 87.27582 
L 527.1 92.424641 
L 536.4 83.335464 
L 545.7 109.311264 
L 555 105.824154 
L 564.3 121.491444 
L 573.6 85.20946 
L 582.9 93.549544 
L 592.2 93.136885 
L 601.5 103.902878 
L 610.8 90.766092 
L 620.1 79.622685 
L 629.4 83.583391 
L 638.7 103.074191 
" style="fill:none;opacity:0.5;stroke:#808080;stroke-dasharray:7.5,1.5;stroke-dashoffset:0;stroke-width:1.5;"/>
   </g>
   <g id="line2d_46">
    <path clip-path="url(#p81072b510e)" d="M 90 294.173167 
L 99.3 264.546861 
L 108.6 254.777244 
L 117.9 245.420682 
L 127.2 233.955769 
L 136.5 223.25636 
L 145.8 210.821237 
L 155.1 199.956257 
L 164.4 195.005918 
L 173.7 188.912749 
L 183 176.469696 
L 192.3 173.718834 
L 201.6 168.775975 
L 210.9 163.854057 
L 220.2 152.412043 
L 229.5 149.818138 
L 238.8 138.67779 
L 248.1 140.613131 
L 257.4 134.327111 
L 266.7 135.077446 
L 276 129.97295 
L 285.3 133.867721 
L 294.6 122.429141 
L 303.9 120.406879 
L 313.2 120.236935 
L 322.5 117.177338 
L 331.8 118.878115 
L 341.1 106.926305 
L 350.4 108.056635 
L 359.7 112.349834 
L 369 107.788239 
L 378.3 101.906327 
L 387.6 100.37363 
L 396.9 101.610846 
L 406.2 100.710603 
L 415.5 97.518093 
L 424.8 97.812485 
L 434.1 101.528548 
L 443.4 96.707323 
L 452.7 96.38904 
L 462 93.49128 
L 471.3 89.149664 
L 480.6 92.500886 
L 489.9 89.370177 
L 499.2 93.622298 
L 508.5 95.841564 
L 517.8 98.051138 
L 527.1 89.986715 
L 536.4 90.678133 
L 545.7 90.766196 
L 555 94.708931 
L 564.3 93.574818 
L 573.6 88.86387 
L 582.9 89.591389 
L 592.2 94.514137 
L 601.5 94.852815 
L 610.8 85.437904 
L 620.1 85.472603 
L 629.4 90.174994 
L 638.7 92.549056 
" style="fill:none;stroke:#2ca02c;stroke-dasharray:7.5,1.5;stroke-dashoffset:0;stroke-width:1.5;"/>
   </g>
   <g id="patch_3">
    <path d="M 90 315 
L 90 43.2 
" style="fill:none;stroke:#000000;stroke-linecap:square;stroke-linejoin:miter;stroke-width:0.8;"/>
   </g>
   <g id="patch_4">
    <path d="M 648 315 
L 648 43.2 
" style="fill:none;stroke:#000000;stroke-linecap:square;stroke-linejoin:miter;stroke-width:0.8;"/>
   </g>
   <g id="patch_5">
    <path d="M 90 315 
L 648 315 
" style="fill:none;stroke:#000000;stroke-linecap:square;stroke-linejoin:miter;stroke-width:0.8;"/>
   </g>
   <g id="patch_6">
    <path d="M 90 43.2 
L 648 43.2 
" style="fill:none;stroke:#000000;stroke-linecap:square;stroke-linejoin:miter;stroke-width:0.8;"/>
   </g>
   <g id="text_16">
    <!-- Results -->
    <defs>
     <path d="M 44.390625 34.1875 
Q 47.5625 33.109375 50.5625 29.59375 
Q 53.5625 26.078125 56.59375 19.921875 
L 66.609375 0 
L 56 0 
L 46.6875 18.703125 
Q 43.0625 26.03125 39.671875 28.421875 
Q 36.28125 30.8125 30.421875 30.8125 
L 19.671875 30.8125 
L 19.671875 0 
L 9.8125 0 
L 9.8125 72.90625 
L 32.078125 72.90625 
Q 44.578125 72.90625 50.734375 67.671875 
Q 56.890625 62.453125 56.890625 51.90625 
Q 56.890625 45.015625 53.6875 40.46875 
Q 50.484375 35.9375 44.390625 34.1875 
z
M 19.671875 64.796875 
L 19.671875 38.921875 
L 32.078125 38.921875 
Q 39.203125 38.921875 42.84375 42.21875 
Q 46.484375 45.515625 46.484375 51.90625 
Q 46.484375 58.296875 42.84375 61.546875 
Q 39.203125 64.796875 32.078125 64.796875 
z
" id="DejaVuSans-52"/>
     <path d="M 8.5 21.578125 
L 8.5 54.6875 
L 17.484375 54.6875 
L 17.484375 21.921875 
Q 17.484375 14.15625 20.5 10.265625 
Q 23.53125 6.390625 29.59375 6.390625 
Q 36.859375 6.390625 41.078125 11.03125 
Q 45.3125 15.671875 45.3125 23.6875 
L 45.3125 54.6875 
L 54.296875 54.6875 
L 54.296875 0 
L 45.3125 0 
L 45.3125 8.40625 
Q 42.046875 3.421875 37.71875 1 
Q 33.40625 -1.421875 27.6875 -1.421875 
Q 18.265625 -1.421875 13.375 4.4375 
Q 8.5 10.296875 8.5 21.578125 
z
M 31.109375 56 
z
" id="DejaVuSans-75"/>
    </defs>
    <g transform="translate(347.07 37.2)scale(0.12 -0.12)">
     <use xlink:href="#DejaVuSans-52"/>
     <use x="69.419922" xlink:href="#DejaVuSans-65"/>
     <use x="130.943359" xlink:href="#DejaVuSans-73"/>
     <use x="183.042969" xlink:href="#DejaVuSans-75"/>
     <use x="246.421875" xlink:href="#DejaVuSans-6c"/>
     <use x="274.205078" xlink:href="#DejaVuSans-74"/>
     <use x="313.414062" xlink:href="#DejaVuSans-73"/>
    </g>
   </g>
   <g id="legend_1">
    <g id="patch_7">
     <path d="M 97 96.06875 
L 279.779688 96.06875 
Q 281.779688 96.06875 281.779688 94.06875 
L 281.779688 50.2 
Q 281.779688 48.2 279.779688 48.2 
L 97 48.2 
Q 95 48.2 95 50.2 
L 95 94.06875 
Q 95 96.06875 97 96.06875 
z
" style="fill:#ffffff;opacity:0.8;stroke:#cccccc;stroke-linejoin:miter;"/>
    </g>
    <g id="line2d_47">
     <path d="M 99 56.298438 
L 119 56.298438 
" style="fill:none;stroke:#1f77b4;stroke-dasharray:;stroke-dashoffset:0;stroke-width:1.5;"/>
    </g>
    <g id="line2d_48"/>
    <g id="text_17">
     <!-- triangle_sampling.w_factor0.0 -->
     <defs>
      <path d="M 45.40625 27.984375 
Q 45.40625 37.75 41.375 43.109375 
Q 37.359375 48.484375 30.078125 48.484375 
Q 22.859375 48.484375 18.828125 43.109375 
Q 14.796875 37.75 14.796875 27.984375 
Q 14.796875 18.265625 18.828125 12.890625 
Q 22.859375 7.515625 30.078125 7.515625 
Q 37.359375 7.515625 41.375 12.890625 
Q 45.40625 18.265625 45.40625 27.984375 
z
M 54.390625 6.78125 
Q 54.390625 -7.171875 48.1875 -13.984375 
Q 42 -20.796875 29.203125 -20.796875 
Q 24.46875 -20.796875 20.265625 -20.09375 
Q 16.0625 -19.390625 12.109375 -17.921875 
L 12.109375 -9.1875 
Q 16.0625 -11.328125 19.921875 -12.34375 
Q 23.78125 -13.375 27.78125 -13.375 
Q 36.625 -13.375 41.015625 -8.765625 
Q 45.40625 -4.15625 45.40625 5.171875 
L 45.40625 9.625 
Q 42.625 4.78125 38.28125 2.390625 
Q 33.9375 0 27.875 0 
Q 17.828125 0 11.671875 7.65625 
Q 5.515625 15.328125 5.515625 27.984375 
Q 5.515625 40.671875 11.671875 48.328125 
Q 17.828125 56 27.875 56 
Q 33.9375 56 38.28125 53.609375 
Q 42.625 51.21875 45.40625 46.390625 
L 45.40625 54.6875 
L 54.390625 54.6875 
z
" id="DejaVuSans-67"/>
      <path d="M 10.6875 12.40625 
L 21 12.40625 
L 21 0 
L 10.6875 0 
z
" id="DejaVuSans-2e"/>
      <path d="M 37.109375 75.984375 
L 37.109375 68.5 
L 28.515625 68.5 
Q 23.6875 68.5 21.796875 66.546875 
Q 19.921875 64.59375 19.921875 59.515625 
L 19.921875 54.6875 
L 34.71875 54.6875 
L 34.71875 47.703125 
L 19.921875 47.703125 
L 19.921875 0 
L 10.890625 0 
L 10.890625 47.703125 
L 2.296875 47.703125 
L 2.296875 54.6875 
L 10.890625 54.6875 
L 10.890625 58.5 
Q 10.890625 67.625 15.140625 71.796875 
Q 19.390625 75.984375 28.609375 75.984375 
z
" id="DejaVuSans-66"/>
      <path d="M 48.78125 52.59375 
L 48.78125 44.1875 
Q 44.96875 46.296875 41.140625 47.34375 
Q 37.3125 48.390625 33.40625 48.390625 
Q 24.65625 48.390625 19.8125 42.84375 
Q 14.984375 37.3125 14.984375 27.296875 
Q 14.984375 17.28125 19.8125 11.734375 
Q 24.65625 6.203125 33.40625 6.203125 
Q 37.3125 6.203125 41.140625 7.25 
Q 44.96875 8.296875 48.78125 10.40625 
L 48.78125 2.09375 
Q 45.015625 0.34375 40.984375 -0.53125 
Q 36.96875 -1.421875 32.421875 -1.421875 
Q 20.0625 -1.421875 12.78125 6.34375 
Q 5.515625 14.109375 5.515625 27.296875 
Q 5.515625 40.671875 12.859375 48.328125 
Q 20.21875 56 33.015625 56 
Q 37.15625 56 41.109375 55.140625 
Q 45.0625 54.296875 48.78125 52.59375 
z
" id="DejaVuSans-63"/>
     </defs>
     <g transform="translate(127 59.798438)scale(0.1 -0.1)">
      <use xlink:href="#DejaVuSans-74"/>
      <use x="39.208984" xlink:href="#DejaVuSans-72"/>
      <use x="80.322266" xlink:href="#DejaVuSans-69"/>
      <use x="108.105469" xlink:href="#DejaVuSans-61"/>
      <use x="169.384766" xlink:href="#DejaVuSans-6e"/>
      <use x="232.763672" xlink:href="#DejaVuSans-67"/>
      <use x="296.240234" xlink:href="#DejaVuSans-6c"/>
      <use x="324.023438" xlink:href="#DejaVuSans-65"/>
      <use x="385.546875" xlink:href="#DejaVuSans-5f"/>
      <use x="435.546875" xlink:href="#DejaVuSans-73"/>
      <use x="487.646484" xlink:href="#DejaVuSans-61"/>
      <use x="548.925781" xlink:href="#DejaVuSans-6d"/>
      <use x="646.337891" xlink:href="#DejaVuSans-70"/>
      <use x="709.814453" xlink:href="#DejaVuSans-6c"/>
      <use x="737.597656" xlink:href="#DejaVuSans-69"/>
      <use x="765.380859" xlink:href="#DejaVuSans-6e"/>
      <use x="828.759766" xlink:href="#DejaVuSans-67"/>
      <use x="892.236328" xlink:href="#DejaVuSans-2e"/>
      <use x="924.023438" xlink:href="#DejaVuSans-77"/>
      <use x="1005.810547" xlink:href="#DejaVuSans-5f"/>
      <use x="1055.810547" xlink:href="#DejaVuSans-66"/>
      <use x="1091.015625" xlink:href="#DejaVuSans-61"/>
      <use x="1152.294922" xlink:href="#DejaVuSans-63"/>
      <use x="1207.275391" xlink:href="#DejaVuSans-74"/>
      <use x="1246.484375" xlink:href="#DejaVuSans-6f"/>
      <use x="1307.666016" xlink:href="#DejaVuSans-72"/>
      <use x="1348.779297" xlink:href="#DejaVuSans-30"/>
      <use x="1412.402344" xlink:href="#DejaVuSans-2e"/>
      <use x="1444.189453" xlink:href="#DejaVuSans-30"/>
     </g>
    </g>
    <g id="line2d_49">
     <path d="M 99 71.254688 
L 119 71.254688 
" style="fill:none;stroke:#ff7f0e;stroke-dasharray:1.5,1.5;stroke-dashoffset:0;stroke-width:1.5;"/>
    </g>
    <g id="line2d_50"/>
    <g id="text_18">
     <!-- triangle_sampling.w_factor0.5 -->
     <g transform="translate(127 74.754688)scale(0.1 -0.1)">
      <use xlink:href="#DejaVuSans-74"/>
      <use x="39.208984" xlink:href="#DejaVuSans-72"/>
      <use x="80.322266" xlink:href="#DejaVuSans-69"/>
      <use x="108.105469" xlink:href="#DejaVuSans-61"/>
      <use x="169.384766" xlink:href="#DejaVuSans-6e"/>
      <use x="232.763672" xlink:href="#DejaVuSans-67"/>
      <use x="296.240234" xlink:href="#DejaVuSans-6c"/>
      <use x="324.023438" xlink:href="#DejaVuSans-65"/>
      <use x="385.546875" xlink:href="#DejaVuSans-5f"/>
      <use x="435.546875" xlink:href="#DejaVuSans-73"/>
      <use x="487.646484" xlink:href="#DejaVuSans-61"/>
      <use x="548.925781" xlink:href="#DejaVuSans-6d"/>
      <use x="646.337891" xlink:href="#DejaVuSans-70"/>
      <use x="709.814453" xlink:href="#DejaVuSans-6c"/>
      <use x="737.597656" xlink:href="#DejaVuSans-69"/>
      <use x="765.380859" xlink:href="#DejaVuSans-6e"/>
      <use x="828.759766" xlink:href="#DejaVuSans-67"/>
      <use x="892.236328" xlink:href="#DejaVuSans-2e"/>
      <use x="924.023438" xlink:href="#DejaVuSans-77"/>
      <use x="1005.810547" xlink:href="#DejaVuSans-5f"/>
      <use x="1055.810547" xlink:href="#DejaVuSans-66"/>
      <use x="1091.015625" xlink:href="#DejaVuSans-61"/>
      <use x="1152.294922" xlink:href="#DejaVuSans-63"/>
      <use x="1207.275391" xlink:href="#DejaVuSans-74"/>
      <use x="1246.484375" xlink:href="#DejaVuSans-6f"/>
      <use x="1307.666016" xlink:href="#DejaVuSans-72"/>
      <use x="1348.779297" xlink:href="#DejaVuSans-30"/>
      <use x="1412.402344" xlink:href="#DejaVuSans-2e"/>
      <use x="1444.189453" xlink:href="#DejaVuSans-35"/>
     </g>
    </g>
    <g id="line2d_51">
     <path d="M 99 86.210938 
L 119 86.210938 
" style="fill:none;stroke:#2ca02c;stroke-dasharray:7.5,1.5;stroke-dashoffset:0;stroke-width:1.5;"/>
    </g>
    <g id="line2d_52"/>
    <g id="text_19">
     <!-- triangle_sampling.w_factor1.0 -->
     <g transform="translate(127 89.710938)scale(0.1 -0.1)">
      <use xlink:href="#DejaVuSans-74"/>
      <use x="39.208984" xlink:href="#DejaVuSans-72"/>
      <use x="80.322266" xlink:href="#DejaVuSans-69"/>
      <use x="108.105469" xlink:href="#DejaVuSans-61"/>
      <use x="169.384766" xlink:href="#DejaVuSans-6e"/>
      <use x="232.763672" xlink:href="#DejaVuSans-67"/>
      <use x="296.240234" xlink:href="#DejaVuSans-6c"/>
      <use x="324.023438" xlink:href="#DejaVuSans-65"/>
      <use x="385.546875" xlink:href="#DejaVuSans-5f"/>
      <use x="435.546875" xlink:href="#DejaVuSans-73"/>
      <use x="487.646484" xlink:href="#DejaVuSans-61"/>
      <use x="548.925781" xlink:href="#DejaVuSans-6d"/>
      <use x="646.337891" xlink:href="#DejaVuSans-70"/>
      <use x="709.814453" xlink:href="#DejaVuSans-6c"/>
      <use x="737.597656" xlink:href="#DejaVuSans-69"/>
      <use x="765.380859" xlink:href="#DejaVuSans-6e"/>
      <use x="828.759766" xlink:href="#DejaVuSans-67"/>
      <use x="892.236328" xlink:href="#DejaVuSans-2e"/>
      <use x="924.023438" xlink:href="#DejaVuSans-77"/>
      <use x="1005.810547" xlink:href="#DejaVuSans-5f"/>
      <use x="1055.810547" xlink:href="#DejaVuSans-66"/>
      <use x="1091.015625" xlink:href="#DejaVuSans-61"/>
      <use x="1152.294922" xlink:href="#DejaVuSans-63"/>
      <use x="1207.275391" xlink:href="#DejaVuSans-74"/>
      <use x="1246.484375" xlink:href="#DejaVuSans-6f"/>
      <use x="1307.666016" xlink:href="#DejaVuSans-72"/>
      <use x="1348.779297" xlink:href="#DejaVuSans-31"/>
      <use x="1412.402344" xlink:href="#DejaVuSans-2e"/>
      <use x="1444.189453" xlink:href="#DejaVuSans-30"/>
     </g>
    </g>
   </g>
  </g>
 </g>
 <defs>
  <clipPath id="p81072b510e">
   <rect height="271.8" width="558" x="90" y="43.2"/>
  </clipPath>
 </defs>
</svg>
