<?xml version="1.0" encoding="utf-8" standalone="no"?>
<!DOCTYPE svg PUBLIC "-//W3C//DTD SVG 1.1//EN"
  "http://www.w3.org/Graphics/SVG/1.1/DTD/svg11.dtd">
<!-- Created with matplotlib (http://matplotlib.org/) -->
<svg height="360pt" version="1.1" viewBox="0 0 720 360" width="720pt" xmlns="http://www.w3.org/2000/svg" xmlns:xlink="http://www.w3.org/1999/xlink">
 <defs>
  <style type="text/css">
*{stroke-linecap:butt;stroke-linejoin:round;}
  </style>
 </defs>
 <g id="figure_1">
  <g id="patch_1">
   <path d="M 0 360 
L 720 360 
L 720 0 
L 0 0 
z
" style="fill:#ffffff;"/>
  </g>
  <g id="axes_1">
   <g id="patch_2">
    <path d="M 90 315 
L 648 315 
L 648 43.2 
L 90 43.2 
z
" style="fill:#ffffff;"/>
   </g>
   <g id="PolyCollection_1">
    <path clip-path="url(#pc8301e2623)" d="M 90 285.697839 
L 90 300.850086 
L 99.3 239.111698 
L 108.6 256.112246 
L 117.9 244.954342 
L 127.2 243.196236 
L 136.5 247.226673 
L 145.8 236.949525 
L 155.1 231.191478 
L 164.4 229.111584 
L 173.7 228.585755 
L 183 236.608457 
L 192.3 235.666634 
L 201.6 219.607496 
L 210.9 231.576531 
L 220.2 222.20518 
L 229.5 229.562314 
L 238.8 218.251771 
L 248.1 227.087456 
L 257.4 229.071746 
L 266.7 221.469437 
L 276 227.529938 
L 285.3 219.472668 
L 294.6 220.376468 
L 303.9 224.002114 
L 313.2 226.754645 
L 322.5 215.380184 
L 331.8 209.456105 
L 341.1 213.039651 
L 350.4 222.978331 
L 359.7 214.337343 
L 369 217.15931 
L 378.3 217.786355 
L 387.6 209.039166 
L 396.9 214.047757 
L 406.2 206.396472 
L 415.5 211.379147 
L 424.8 217.948019 
L 434.1 209.704174 
L 443.4 214.235745 
L 452.7 211.081772 
L 462 217.13846 
L 471.3 216.253808 
L 480.6 213.016064 
L 489.9 210.374931 
L 499.2 211.270786 
L 508.5 213.238926 
L 517.8 209.961585 
L 527.1 208.928215 
L 536.4 214.825972 
L 545.7 219.409185 
L 555 205.17743 
L 564.3 198.948597 
L 573.6 205.928765 
L 582.9 209.964895 
L 592.2 205.436461 
L 601.5 212.698919 
L 610.8 208.234289 
L 620.1 212.770992 
L 629.4 204.599086 
L 638.7 203.980313 
L 638.7 169.607267 
L 638.7 169.607267 
L 629.4 171.10224 
L 620.1 165.197013 
L 610.8 160.344295 
L 601.5 168.096123 
L 592.2 169.08069 
L 582.9 163.631612 
L 573.6 162.61608 
L 564.3 172.672536 
L 555 171.697252 
L 545.7 169.226316 
L 536.4 158.037584 
L 527.1 169.584219 
L 517.8 168.44773 
L 508.5 169.592521 
L 499.2 166.574245 
L 489.9 176.084167 
L 480.6 169.381871 
L 471.3 161.10538 
L 462 156.484303 
L 452.7 170.865211 
L 443.4 167.953758 
L 434.1 167.726475 
L 424.8 164.971831 
L 415.5 171.934158 
L 406.2 175.699927 
L 396.9 168.101651 
L 387.6 178.554814 
L 378.3 167.562807 
L 369 174.220534 
L 359.7 171.891058 
L 350.4 161.54462 
L 341.1 170.783814 
L 331.8 176.04813 
L 322.5 179.20199 
L 313.2 172.833842 
L 303.9 165.269119 
L 294.6 178.890369 
L 285.3 176.931916 
L 276 180.895968 
L 266.7 177.071122 
L 257.4 178.346836 
L 248.1 175.166181 
L 238.8 188.064932 
L 229.5 175.381273 
L 220.2 188.259929 
L 210.9 180.927251 
L 201.6 195.793241 
L 192.3 192.329866 
L 183 190.577998 
L 173.7 195.38532 
L 164.4 200.544962 
L 155.1 207.396126 
L 145.8 201.471845 
L 136.5 203.091609 
L 127.2 207.226553 
L 117.9 202.924216 
L 108.6 206.384632 
L 99.3 212.795568 
L 90 285.697839 
z
" style="fill:#1f77b4;fill-opacity:0.5;"/>
   </g>
   <g id="PolyCollection_2">
    <path clip-path="url(#pc8301e2623)" d="M 90 284.175321 
L 90 298.515066 
L 99.3 265.604356 
L 108.6 266.167953 
L 117.9 268.781092 
L 127.2 259.346496 
L 136.5 258.731922 
L 145.8 254.295552 
L 155.1 256.556969 
L 164.4 253.344819 
L 173.7 256.912809 
L 183 253.699263 
L 192.3 253.162732 
L 201.6 247.74611 
L 210.9 247.948811 
L 220.2 244.478476 
L 229.5 247.69071 
L 238.8 240.902336 
L 248.1 248.614405 
L 257.4 241.513032 
L 266.7 242.859908 
L 276 240.671121 
L 285.3 246.557048 
L 294.6 239.136912 
L 303.9 239.298549 
L 313.2 242.208277 
L 322.5 235.723173 
L 331.8 237.011988 
L 341.1 236.559521 
L 350.4 235.457951 
L 359.7 235.699798 
L 369 240.911095 
L 378.3 229.923918 
L 387.6 229.939146 
L 396.9 229.516073 
L 406.2 237.092271 
L 415.5 230.738877 
L 424.8 238.416583 
L 434.1 239.020628 
L 443.4 237.606665 
L 452.7 227.818844 
L 462 231.312435 
L 471.3 229.299424 
L 480.6 233.763259 
L 489.9 228.390073 
L 499.2 228.521885 
L 508.5 233.097398 
L 517.8 234.693062 
L 527.1 228.262067 
L 536.4 233.539061 
L 545.7 227.445832 
L 555 225.555585 
L 564.3 227.004599 
L 573.6 232.892875 
L 582.9 232.36528 
L 592.2 230.606284 
L 601.5 234.579499 
L 610.8 228.504692 
L 620.1 226.515852 
L 629.4 224.000865 
L 638.7 226.320135 
L 638.7 195.087154 
L 638.7 195.087154 
L 629.4 198.856586 
L 620.1 196.065518 
L 610.8 192.173486 
L 601.5 190.861057 
L 592.2 193.171559 
L 582.9 192.671081 
L 573.6 194.068763 
L 564.3 199.317904 
L 555 200.577543 
L 545.7 191.154515 
L 536.4 199.064693 
L 527.1 201.140955 
L 517.8 202.008016 
L 508.5 201.879906 
L 499.2 204.622517 
L 489.9 208.05416 
L 480.6 201.058544 
L 471.3 211.549414 
L 462 207.700121 
L 452.7 205.480841 
L 443.4 209.201415 
L 434.1 196.849862 
L 424.8 205.192101 
L 415.5 205.061062 
L 406.2 198.902914 
L 396.9 210.726325 
L 387.6 207.156512 
L 378.3 205.353879 
L 369 197.636384 
L 359.7 206.078976 
L 350.4 210.124579 
L 341.1 210.009972 
L 331.8 210.780455 
L 322.5 211.518061 
L 313.2 201.83962 
L 303.9 213.018681 
L 294.6 212.548005 
L 285.3 214.161879 
L 276 219.2593 
L 266.7 219.127431 
L 257.4 223.865244 
L 248.1 215.73268 
L 238.8 229.535317 
L 229.5 220.044238 
L 220.2 225.989391 
L 210.9 229.342614 
L 201.6 230.165064 
L 192.3 227.62041 
L 183 226.742832 
L 173.7 224.260364 
L 164.4 232.896781 
L 155.1 237.23635 
L 145.8 234.142142 
L 136.5 237.91164 
L 127.2 234.695892 
L 117.9 237.13515 
L 108.6 247.819851 
L 99.3 248.305695 
L 90 284.175321 
z
" style="fill:#ff7f0e;fill-opacity:0.5;"/>
   </g>
   <g id="PolyCollection_3">
    <path clip-path="url(#pc8301e2623)" d="M 90 285.162767 
L 90 302.16889 
L 99.3 267.813813 
L 108.6 262.615223 
L 117.9 249.791645 
L 127.2 249.77576 
L 136.5 256.512129 
L 145.8 242.141675 
L 155.1 238.064978 
L 164.4 224.778279 
L 173.7 229.415184 
L 183 226.247981 
L 192.3 216.55773 
L 201.6 223.149693 
L 210.9 217.942675 
L 220.2 203.453461 
L 229.5 198.748354 
L 238.8 211.849673 
L 248.1 201.427272 
L 257.4 198.071422 
L 266.7 175.21729 
L 276 190.477493 
L 285.3 200.112451 
L 294.6 173.571839 
L 303.9 171.180709 
L 313.2 179.428113 
L 322.5 181.405005 
L 331.8 164.150157 
L 341.1 162.113804 
L 350.4 166.903966 
L 359.7 168.078446 
L 369 164.414861 
L 378.3 148.173142 
L 387.6 157.522993 
L 396.9 165.22393 
L 406.2 147.446352 
L 415.5 164.345569 
L 424.8 151.077308 
L 434.1 148.000858 
L 443.4 148.57791 
L 452.7 144.000096 
L 462 135.796823 
L 471.3 142.351134 
L 480.6 139.993068 
L 489.9 147.955224 
L 499.2 124.044831 
L 508.5 138.441829 
L 517.8 146.607904 
L 527.1 125.062985 
L 536.4 131.957774 
L 545.7 135.801269 
L 555 152.746174 
L 564.3 127.635324 
L 573.6 122.977635 
L 582.9 121.689434 
L 592.2 130.834476 
L 601.5 147.223386 
L 610.8 124.541458 
L 620.1 126.799765 
L 629.4 130.086812 
L 638.7 123.796554 
L 638.7 69.548936 
L 638.7 69.548936 
L 629.4 70.2132 
L 620.1 73.433955 
L 610.8 70.282189 
L 601.5 64.36968 
L 592.2 81.84244 
L 582.9 64.794737 
L 573.6 64.967906 
L 564.3 80.752941 
L 555 55.554545 
L 545.7 75.707592 
L 536.4 63.186524 
L 527.1 70.435528 
L 517.8 81.998308 
L 508.5 88.759243 
L 499.2 82.186988 
L 489.9 71.58944 
L 480.6 76.483923 
L 471.3 80.172287 
L 462 90.364578 
L 452.7 70.347077 
L 443.4 85.783056 
L 434.1 90.09954 
L 424.8 85.849802 
L 415.5 89.065753 
L 406.2 89.925198 
L 396.9 79.072936 
L 387.6 100.321186 
L 378.3 104.64853 
L 369 101.129634 
L 359.7 101.532531 
L 350.4 83.290653 
L 341.1 104.791272 
L 331.8 119.144049 
L 322.5 106.04833 
L 313.2 116.974723 
L 303.9 117.124036 
L 294.6 123.231818 
L 285.3 125.778102 
L 276 137.627736 
L 266.7 139.627863 
L 257.4 137.841852 
L 248.1 140.256542 
L 238.8 136.415409 
L 229.5 158.496337 
L 220.2 147.251365 
L 210.9 157.138625 
L 201.6 162.689879 
L 192.3 176.270991 
L 183 175.852787 
L 173.7 174.154616 
L 164.4 189.428765 
L 155.1 195.16496 
L 145.8 202.856591 
L 136.5 206.684571 
L 127.2 221.218354 
L 117.9 216.013434 
L 108.6 232.929946 
L 99.3 239.686141 
L 90 285.162767 
z
" style="fill:#2ca02c;fill-opacity:0.5;"/>
   </g>
   <g id="matplotlib.axis_1">
    <g id="xtick_1">
     <g id="line2d_1">
      <defs>
       <path d="M 0 0 
L 0 3.5 
" id="m2d767d01a3" style="stroke:#000000;stroke-width:0.8;"/>
      </defs>
      <g>
       <use style="stroke:#000000;stroke-width:0.8;" x="90" xlink:href="#m2d767d01a3" y="315"/>
      </g>
     </g>
     <g id="text_1">
      <!-- 0 -->
      <defs>
       <path d="M 31.78125 66.40625 
Q 24.171875 66.40625 20.328125 58.90625 
Q 16.5 51.421875 16.5 36.375 
Q 16.5 21.390625 20.328125 13.890625 
Q 24.171875 6.390625 31.78125 6.390625 
Q 39.453125 6.390625 43.28125 13.890625 
Q 47.125 21.390625 47.125 36.375 
Q 47.125 51.421875 43.28125 58.90625 
Q 39.453125 66.40625 31.78125 66.40625 
z
M 31.78125 74.21875 
Q 44.046875 74.21875 50.515625 64.515625 
Q 56.984375 54.828125 56.984375 36.375 
Q 56.984375 17.96875 50.515625 8.265625 
Q 44.046875 -1.421875 31.78125 -1.421875 
Q 19.53125 -1.421875 13.0625 8.265625 
Q 6.59375 17.96875 6.59375 36.375 
Q 6.59375 54.828125 13.0625 64.515625 
Q 19.53125 74.21875 31.78125 74.21875 
z
" id="DejaVuSans-30"/>
      </defs>
      <g transform="translate(86.81875 329.598437)scale(0.1 -0.1)">
       <use xlink:href="#DejaVuSans-30"/>
      </g>
     </g>
    </g>
    <g id="xtick_2">
     <g id="line2d_2">
      <g>
       <use style="stroke:#000000;stroke-width:0.8;" x="183" xlink:href="#m2d767d01a3" y="315"/>
      </g>
     </g>
     <g id="text_2">
      <!-- 10 -->
      <defs>
       <path d="M 12.40625 8.296875 
L 28.515625 8.296875 
L 28.515625 63.921875 
L 10.984375 60.40625 
L 10.984375 69.390625 
L 28.421875 72.90625 
L 38.28125 72.90625 
L 38.28125 8.296875 
L 54.390625 8.296875 
L 54.390625 0 
L 12.40625 0 
z
" id="DejaVuSans-31"/>
      </defs>
      <g transform="translate(176.6375 329.598437)scale(0.1 -0.1)">
       <use xlink:href="#DejaVuSans-31"/>
       <use x="63.623047" xlink:href="#DejaVuSans-30"/>
      </g>
     </g>
    </g>
    <g id="xtick_3">
     <g id="line2d_3">
      <g>
       <use style="stroke:#000000;stroke-width:0.8;" x="276" xlink:href="#m2d767d01a3" y="315"/>
      </g>
     </g>
     <g id="text_3">
      <!-- 20 -->
      <defs>
       <path d="M 19.1875 8.296875 
L 53.609375 8.296875 
L 53.609375 0 
L 7.328125 0 
L 7.328125 8.296875 
Q 12.9375 14.109375 22.625 23.890625 
Q 32.328125 33.6875 34.8125 36.53125 
Q 39.546875 41.84375 41.421875 45.53125 
Q 43.3125 49.21875 43.3125 52.78125 
Q 43.3125 58.59375 39.234375 62.25 
Q 35.15625 65.921875 28.609375 65.921875 
Q 23.96875 65.921875 18.8125 64.3125 
Q 13.671875 62.703125 7.8125 59.421875 
L 7.8125 69.390625 
Q 13.765625 71.78125 18.9375 73 
Q 24.125 74.21875 28.421875 74.21875 
Q 39.75 74.21875 46.484375 68.546875 
Q 53.21875 62.890625 53.21875 53.421875 
Q 53.21875 48.921875 51.53125 44.890625 
Q 49.859375 40.875 45.40625 35.40625 
Q 44.1875 33.984375 37.640625 27.21875 
Q 31.109375 20.453125 19.1875 8.296875 
z
" id="DejaVuSans-32"/>
      </defs>
      <g transform="translate(269.6375 329.598437)scale(0.1 -0.1)">
       <use xlink:href="#DejaVuSans-32"/>
       <use x="63.623047" xlink:href="#DejaVuSans-30"/>
      </g>
     </g>
    </g>
    <g id="xtick_4">
     <g id="line2d_4">
      <g>
       <use style="stroke:#000000;stroke-width:0.8;" x="369" xlink:href="#m2d767d01a3" y="315"/>
      </g>
     </g>
     <g id="text_4">
      <!-- 30 -->
      <defs>
       <path d="M 40.578125 39.3125 
Q 47.65625 37.796875 51.625 33 
Q 55.609375 28.21875 55.609375 21.1875 
Q 55.609375 10.40625 48.1875 4.484375 
Q 40.765625 -1.421875 27.09375 -1.421875 
Q 22.515625 -1.421875 17.65625 -0.515625 
Q 12.796875 0.390625 7.625 2.203125 
L 7.625 11.71875 
Q 11.71875 9.328125 16.59375 8.109375 
Q 21.484375 6.890625 26.8125 6.890625 
Q 36.078125 6.890625 40.9375 10.546875 
Q 45.796875 14.203125 45.796875 21.1875 
Q 45.796875 27.640625 41.28125 31.265625 
Q 36.765625 34.90625 28.71875 34.90625 
L 20.21875 34.90625 
L 20.21875 43.015625 
L 29.109375 43.015625 
Q 36.375 43.015625 40.234375 45.921875 
Q 44.09375 48.828125 44.09375 54.296875 
Q 44.09375 59.90625 40.109375 62.90625 
Q 36.140625 65.921875 28.71875 65.921875 
Q 24.65625 65.921875 20.015625 65.03125 
Q 15.375 64.15625 9.8125 62.3125 
L 9.8125 71.09375 
Q 15.4375 72.65625 20.34375 73.4375 
Q 25.25 74.21875 29.59375 74.21875 
Q 40.828125 74.21875 47.359375 69.109375 
Q 53.90625 64.015625 53.90625 55.328125 
Q 53.90625 49.265625 50.4375 45.09375 
Q 46.96875 40.921875 40.578125 39.3125 
z
" id="DejaVuSans-33"/>
      </defs>
      <g transform="translate(362.6375 329.598437)scale(0.1 -0.1)">
       <use xlink:href="#DejaVuSans-33"/>
       <use x="63.623047" xlink:href="#DejaVuSans-30"/>
      </g>
     </g>
    </g>
    <g id="xtick_5">
     <g id="line2d_5">
      <g>
       <use style="stroke:#000000;stroke-width:0.8;" x="462" xlink:href="#m2d767d01a3" y="315"/>
      </g>
     </g>
     <g id="text_5">
      <!-- 40 -->
      <defs>
       <path d="M 37.796875 64.3125 
L 12.890625 25.390625 
L 37.796875 25.390625 
z
M 35.203125 72.90625 
L 47.609375 72.90625 
L 47.609375 25.390625 
L 58.015625 25.390625 
L 58.015625 17.1875 
L 47.609375 17.1875 
L 47.609375 0 
L 37.796875 0 
L 37.796875 17.1875 
L 4.890625 17.1875 
L 4.890625 26.703125 
z
" id="DejaVuSans-34"/>
      </defs>
      <g transform="translate(455.6375 329.598437)scale(0.1 -0.1)">
       <use xlink:href="#DejaVuSans-34"/>
       <use x="63.623047" xlink:href="#DejaVuSans-30"/>
      </g>
     </g>
    </g>
    <g id="xtick_6">
     <g id="line2d_6">
      <g>
       <use style="stroke:#000000;stroke-width:0.8;" x="555" xlink:href="#m2d767d01a3" y="315"/>
      </g>
     </g>
     <g id="text_6">
      <!-- 50 -->
      <defs>
       <path d="M 10.796875 72.90625 
L 49.515625 72.90625 
L 49.515625 64.59375 
L 19.828125 64.59375 
L 19.828125 46.734375 
Q 21.96875 47.46875 24.109375 47.828125 
Q 26.265625 48.1875 28.421875 48.1875 
Q 40.625 48.1875 47.75 41.5 
Q 54.890625 34.8125 54.890625 23.390625 
Q 54.890625 11.625 47.5625 5.09375 
Q 40.234375 -1.421875 26.90625 -1.421875 
Q 22.3125 -1.421875 17.546875 -0.640625 
Q 12.796875 0.140625 7.71875 1.703125 
L 7.71875 11.625 
Q 12.109375 9.234375 16.796875 8.0625 
Q 21.484375 6.890625 26.703125 6.890625 
Q 35.15625 6.890625 40.078125 11.328125 
Q 45.015625 15.765625 45.015625 23.390625 
Q 45.015625 31 40.078125 35.4375 
Q 35.15625 39.890625 26.703125 39.890625 
Q 22.75 39.890625 18.8125 39.015625 
Q 14.890625 38.140625 10.796875 36.28125 
z
" id="DejaVuSans-35"/>
      </defs>
      <g transform="translate(548.6375 329.598437)scale(0.1 -0.1)">
       <use xlink:href="#DejaVuSans-35"/>
       <use x="63.623047" xlink:href="#DejaVuSans-30"/>
      </g>
     </g>
    </g>
    <g id="xtick_7">
     <g id="line2d_7">
      <g>
       <use style="stroke:#000000;stroke-width:0.8;" x="648" xlink:href="#m2d767d01a3" y="315"/>
      </g>
     </g>
     <g id="text_7">
      <!-- 60 -->
      <defs>
       <path d="M 33.015625 40.375 
Q 26.375 40.375 22.484375 35.828125 
Q 18.609375 31.296875 18.609375 23.390625 
Q 18.609375 15.53125 22.484375 10.953125 
Q 26.375 6.390625 33.015625 6.390625 
Q 39.65625 6.390625 43.53125 10.953125 
Q 47.40625 15.53125 47.40625 23.390625 
Q 47.40625 31.296875 43.53125 35.828125 
Q 39.65625 40.375 33.015625 40.375 
z
M 52.59375 71.296875 
L 52.59375 62.3125 
Q 48.875 64.0625 45.09375 64.984375 
Q 41.3125 65.921875 37.59375 65.921875 
Q 27.828125 65.921875 22.671875 59.328125 
Q 17.53125 52.734375 16.796875 39.40625 
Q 19.671875 43.65625 24.015625 45.921875 
Q 28.375 48.1875 33.59375 48.1875 
Q 44.578125 48.1875 50.953125 41.515625 
Q 57.328125 34.859375 57.328125 23.390625 
Q 57.328125 12.15625 50.6875 5.359375 
Q 44.046875 -1.421875 33.015625 -1.421875 
Q 20.359375 -1.421875 13.671875 8.265625 
Q 6.984375 17.96875 6.984375 36.375 
Q 6.984375 53.65625 15.1875 63.9375 
Q 23.390625 74.21875 37.203125 74.21875 
Q 40.921875 74.21875 44.703125 73.484375 
Q 48.484375 72.75 52.59375 71.296875 
z
" id="DejaVuSans-36"/>
      </defs>
      <g transform="translate(641.6375 329.598437)scale(0.1 -0.1)">
       <use xlink:href="#DejaVuSans-36"/>
       <use x="63.623047" xlink:href="#DejaVuSans-30"/>
      </g>
     </g>
    </g>
    <g id="text_8">
     <!-- iterations -->
     <defs>
      <path d="M 9.421875 54.6875 
L 18.40625 54.6875 
L 18.40625 0 
L 9.421875 0 
z
M 9.421875 75.984375 
L 18.40625 75.984375 
L 18.40625 64.59375 
L 9.421875 64.59375 
z
" id="DejaVuSans-69"/>
      <path d="M 18.3125 70.21875 
L 18.3125 54.6875 
L 36.8125 54.6875 
L 36.8125 47.703125 
L 18.3125 47.703125 
L 18.3125 18.015625 
Q 18.3125 11.328125 20.140625 9.421875 
Q 21.96875 7.515625 27.59375 7.515625 
L 36.8125 7.515625 
L 36.8125 0 
L 27.59375 0 
Q 17.1875 0 13.234375 3.875 
Q 9.28125 7.765625 9.28125 18.015625 
L 9.28125 47.703125 
L 2.6875 47.703125 
L 2.6875 54.6875 
L 9.28125 54.6875 
L 9.28125 70.21875 
z
" id="DejaVuSans-74"/>
      <path d="M 56.203125 29.59375 
L 56.203125 25.203125 
L 14.890625 25.203125 
Q 15.484375 15.921875 20.484375 11.0625 
Q 25.484375 6.203125 34.421875 6.203125 
Q 39.59375 6.203125 44.453125 7.46875 
Q 49.3125 8.734375 54.109375 11.28125 
L 54.109375 2.78125 
Q 49.265625 0.734375 44.1875 -0.34375 
Q 39.109375 -1.421875 33.890625 -1.421875 
Q 20.796875 -1.421875 13.15625 6.1875 
Q 5.515625 13.8125 5.515625 26.8125 
Q 5.515625 40.234375 12.765625 48.109375 
Q 20.015625 56 32.328125 56 
Q 43.359375 56 49.78125 48.890625 
Q 56.203125 41.796875 56.203125 29.59375 
z
M 47.21875 32.234375 
Q 47.125 39.59375 43.09375 43.984375 
Q 39.0625 48.390625 32.421875 48.390625 
Q 24.90625 48.390625 20.390625 44.140625 
Q 15.875 39.890625 15.1875 32.171875 
z
" id="DejaVuSans-65"/>
      <path d="M 41.109375 46.296875 
Q 39.59375 47.171875 37.8125 47.578125 
Q 36.03125 48 33.890625 48 
Q 26.265625 48 22.1875 43.046875 
Q 18.109375 38.09375 18.109375 28.8125 
L 18.109375 0 
L 9.078125 0 
L 9.078125 54.6875 
L 18.109375 54.6875 
L 18.109375 46.1875 
Q 20.953125 51.171875 25.484375 53.578125 
Q 30.03125 56 36.53125 56 
Q 37.453125 56 38.578125 55.875 
Q 39.703125 55.765625 41.0625 55.515625 
z
" id="DejaVuSans-72"/>
      <path d="M 34.28125 27.484375 
Q 23.390625 27.484375 19.1875 25 
Q 14.984375 22.515625 14.984375 16.5 
Q 14.984375 11.71875 18.140625 8.90625 
Q 21.296875 6.109375 26.703125 6.109375 
Q 34.1875 6.109375 38.703125 11.40625 
Q 43.21875 16.703125 43.21875 25.484375 
L 43.21875 27.484375 
z
M 52.203125 31.203125 
L 52.203125 0 
L 43.21875 0 
L 43.21875 8.296875 
Q 40.140625 3.328125 35.546875 0.953125 
Q 30.953125 -1.421875 24.3125 -1.421875 
Q 15.921875 -1.421875 10.953125 3.296875 
Q 6 8.015625 6 15.921875 
Q 6 25.140625 12.171875 29.828125 
Q 18.359375 34.515625 30.609375 34.515625 
L 43.21875 34.515625 
L 43.21875 35.40625 
Q 43.21875 41.609375 39.140625 45 
Q 35.0625 48.390625 27.6875 48.390625 
Q 23 48.390625 18.546875 47.265625 
Q 14.109375 46.140625 10.015625 43.890625 
L 10.015625 52.203125 
Q 14.9375 54.109375 19.578125 55.046875 
Q 24.21875 56 28.609375 56 
Q 40.484375 56 46.34375 49.84375 
Q 52.203125 43.703125 52.203125 31.203125 
z
" id="DejaVuSans-61"/>
      <path d="M 30.609375 48.390625 
Q 23.390625 48.390625 19.1875 42.75 
Q 14.984375 37.109375 14.984375 27.296875 
Q 14.984375 17.484375 19.15625 11.84375 
Q 23.34375 6.203125 30.609375 6.203125 
Q 37.796875 6.203125 41.984375 11.859375 
Q 46.1875 17.53125 46.1875 27.296875 
Q 46.1875 37.015625 41.984375 42.703125 
Q 37.796875 48.390625 30.609375 48.390625 
z
M 30.609375 56 
Q 42.328125 56 49.015625 48.375 
Q 55.71875 40.765625 55.71875 27.296875 
Q 55.71875 13.875 49.015625 6.21875 
Q 42.328125 -1.421875 30.609375 -1.421875 
Q 18.84375 -1.421875 12.171875 6.21875 
Q 5.515625 13.875 5.515625 27.296875 
Q 5.515625 40.765625 12.171875 48.375 
Q 18.84375 56 30.609375 56 
z
" id="DejaVuSans-6f"/>
      <path d="M 54.890625 33.015625 
L 54.890625 0 
L 45.90625 0 
L 45.90625 32.71875 
Q 45.90625 40.484375 42.875 44.328125 
Q 39.84375 48.1875 33.796875 48.1875 
Q 26.515625 48.1875 22.3125 43.546875 
Q 18.109375 38.921875 18.109375 30.90625 
L 18.109375 0 
L 9.078125 0 
L 9.078125 54.6875 
L 18.109375 54.6875 
L 18.109375 46.1875 
Q 21.34375 51.125 25.703125 53.5625 
Q 30.078125 56 35.796875 56 
Q 45.21875 56 50.046875 50.171875 
Q 54.890625 44.34375 54.890625 33.015625 
z
" id="DejaVuSans-6e"/>
      <path d="M 44.28125 53.078125 
L 44.28125 44.578125 
Q 40.484375 46.53125 36.375 47.5 
Q 32.28125 48.484375 27.875 48.484375 
Q 21.1875 48.484375 17.84375 46.4375 
Q 14.5 44.390625 14.5 40.28125 
Q 14.5 37.15625 16.890625 35.375 
Q 19.28125 33.59375 26.515625 31.984375 
L 29.59375 31.296875 
Q 39.15625 29.25 43.1875 25.515625 
Q 47.21875 21.78125 47.21875 15.09375 
Q 47.21875 7.46875 41.1875 3.015625 
Q 35.15625 -1.421875 24.609375 -1.421875 
Q 20.21875 -1.421875 15.453125 -0.5625 
Q 10.6875 0.296875 5.421875 2 
L 5.421875 11.28125 
Q 10.40625 8.6875 15.234375 7.390625 
Q 20.0625 6.109375 24.8125 6.109375 
Q 31.15625 6.109375 34.5625 8.28125 
Q 37.984375 10.453125 37.984375 14.40625 
Q 37.984375 18.0625 35.515625 20.015625 
Q 33.0625 21.96875 24.703125 23.78125 
L 21.578125 24.515625 
Q 13.234375 26.265625 9.515625 29.90625 
Q 5.8125 33.546875 5.8125 39.890625 
Q 5.8125 47.609375 11.28125 51.796875 
Q 16.75 56 26.8125 56 
Q 31.78125 56 36.171875 55.265625 
Q 40.578125 54.546875 44.28125 53.078125 
z
" id="DejaVuSans-73"/>
     </defs>
     <g transform="translate(345.272656 343.276563)scale(0.1 -0.1)">
      <use xlink:href="#DejaVuSans-69"/>
      <use x="27.783203" xlink:href="#DejaVuSans-74"/>
      <use x="66.992188" xlink:href="#DejaVuSans-65"/>
      <use x="128.515625" xlink:href="#DejaVuSans-72"/>
      <use x="169.628906" xlink:href="#DejaVuSans-61"/>
      <use x="230.908203" xlink:href="#DejaVuSans-74"/>
      <use x="270.117188" xlink:href="#DejaVuSans-69"/>
      <use x="297.900391" xlink:href="#DejaVuSans-6f"/>
      <use x="359.082031" xlink:href="#DejaVuSans-6e"/>
      <use x="422.460938" xlink:href="#DejaVuSans-73"/>
     </g>
    </g>
   </g>
   <g id="matplotlib.axis_2">
    <g id="ytick_1">
     <g id="line2d_8">
      <defs>
       <path d="M 0 0 
L -3.5 0 
" id="mb038cf706b" style="stroke:#000000;stroke-width:0.8;"/>
      </defs>
      <g>
       <use style="stroke:#000000;stroke-width:0.8;" x="90" xlink:href="#mb038cf706b" y="275.747146"/>
      </g>
     </g>
     <g id="text_9">
      <!-- 0 -->
      <g transform="translate(76.6375 279.546365)scale(0.1 -0.1)">
       <use xlink:href="#DejaVuSans-30"/>
      </g>
     </g>
    </g>
    <g id="ytick_2">
     <g id="line2d_9">
      <g>
       <use style="stroke:#000000;stroke-width:0.8;" x="90" xlink:href="#mb038cf706b" y="222.508575"/>
      </g>
     </g>
     <g id="text_10">
      <!-- 10 -->
      <g transform="translate(70.275 226.307794)scale(0.1 -0.1)">
       <use xlink:href="#DejaVuSans-31"/>
       <use x="63.623047" xlink:href="#DejaVuSans-30"/>
      </g>
     </g>
    </g>
    <g id="ytick_3">
     <g id="line2d_10">
      <g>
       <use style="stroke:#000000;stroke-width:0.8;" x="90" xlink:href="#mb038cf706b" y="169.270005"/>
      </g>
     </g>
     <g id="text_11">
      <!-- 20 -->
      <g transform="translate(70.275 173.069224)scale(0.1 -0.1)">
       <use xlink:href="#DejaVuSans-32"/>
       <use x="63.623047" xlink:href="#DejaVuSans-30"/>
      </g>
     </g>
    </g>
    <g id="ytick_4">
     <g id="line2d_11">
      <g>
       <use style="stroke:#000000;stroke-width:0.8;" x="90" xlink:href="#mb038cf706b" y="116.031435"/>
      </g>
     </g>
     <g id="text_12">
      <!-- 30 -->
      <g transform="translate(70.275 119.830653)scale(0.1 -0.1)">
       <use xlink:href="#DejaVuSans-33"/>
       <use x="63.623047" xlink:href="#DejaVuSans-30"/>
      </g>
     </g>
    </g>
    <g id="ytick_5">
     <g id="line2d_12">
      <g>
       <use style="stroke:#000000;stroke-width:0.8;" x="90" xlink:href="#mb038cf706b" y="62.792864"/>
      </g>
     </g>
     <g id="text_13">
      <!-- 40 -->
      <g transform="translate(70.275 66.592083)scale(0.1 -0.1)">
       <use xlink:href="#DejaVuSans-34"/>
       <use x="63.623047" xlink:href="#DejaVuSans-30"/>
      </g>
     </g>
    </g>
    <g id="text_14">
     <!-- samples_episode_reward_mean -->
     <defs>
      <path d="M 52 44.1875 
Q 55.375 50.25 60.0625 53.125 
Q 64.75 56 71.09375 56 
Q 79.640625 56 84.28125 50.015625 
Q 88.921875 44.046875 88.921875 33.015625 
L 88.921875 0 
L 79.890625 0 
L 79.890625 32.71875 
Q 79.890625 40.578125 77.09375 44.375 
Q 74.3125 48.1875 68.609375 48.1875 
Q 61.625 48.1875 57.5625 43.546875 
Q 53.515625 38.921875 53.515625 30.90625 
L 53.515625 0 
L 44.484375 0 
L 44.484375 32.71875 
Q 44.484375 40.625 41.703125 44.40625 
Q 38.921875 48.1875 33.109375 48.1875 
Q 26.21875 48.1875 22.15625 43.53125 
Q 18.109375 38.875 18.109375 30.90625 
L 18.109375 0 
L 9.078125 0 
L 9.078125 54.6875 
L 18.109375 54.6875 
L 18.109375 46.1875 
Q 21.1875 51.21875 25.484375 53.609375 
Q 29.78125 56 35.6875 56 
Q 41.65625 56 45.828125 52.96875 
Q 50 49.953125 52 44.1875 
z
" id="DejaVuSans-6d"/>
      <path d="M 18.109375 8.203125 
L 18.109375 -20.796875 
L 9.078125 -20.796875 
L 9.078125 54.6875 
L 18.109375 54.6875 
L 18.109375 46.390625 
Q 20.953125 51.265625 25.265625 53.625 
Q 29.59375 56 35.59375 56 
Q 45.5625 56 51.78125 48.09375 
Q 58.015625 40.1875 58.015625 27.296875 
Q 58.015625 14.40625 51.78125 6.484375 
Q 45.5625 -1.421875 35.59375 -1.421875 
Q 29.59375 -1.421875 25.265625 0.953125 
Q 20.953125 3.328125 18.109375 8.203125 
z
M 48.6875 27.296875 
Q 48.6875 37.203125 44.609375 42.84375 
Q 40.53125 48.484375 33.40625 48.484375 
Q 26.265625 48.484375 22.1875 42.84375 
Q 18.109375 37.203125 18.109375 27.296875 
Q 18.109375 17.390625 22.1875 11.75 
Q 26.265625 6.109375 33.40625 6.109375 
Q 40.53125 6.109375 44.609375 11.75 
Q 48.6875 17.390625 48.6875 27.296875 
z
" id="DejaVuSans-70"/>
      <path d="M 9.421875 75.984375 
L 18.40625 75.984375 
L 18.40625 0 
L 9.421875 0 
z
" id="DejaVuSans-6c"/>
      <path d="M 50.984375 -16.609375 
L 50.984375 -23.578125 
L -0.984375 -23.578125 
L -0.984375 -16.609375 
z
" id="DejaVuSans-5f"/>
      <path d="M 45.40625 46.390625 
L 45.40625 75.984375 
L 54.390625 75.984375 
L 54.390625 0 
L 45.40625 0 
L 45.40625 8.203125 
Q 42.578125 3.328125 38.25 0.953125 
Q 33.9375 -1.421875 27.875 -1.421875 
Q 17.96875 -1.421875 11.734375 6.484375 
Q 5.515625 14.40625 5.515625 27.296875 
Q 5.515625 40.1875 11.734375 48.09375 
Q 17.96875 56 27.875 56 
Q 33.9375 56 38.25 53.625 
Q 42.578125 51.265625 45.40625 46.390625 
z
M 14.796875 27.296875 
Q 14.796875 17.390625 18.875 11.75 
Q 22.953125 6.109375 30.078125 6.109375 
Q 37.203125 6.109375 41.296875 11.75 
Q 45.40625 17.390625 45.40625 27.296875 
Q 45.40625 37.203125 41.296875 42.84375 
Q 37.203125 48.484375 30.078125 48.484375 
Q 22.953125 48.484375 18.875 42.84375 
Q 14.796875 37.203125 14.796875 27.296875 
z
" id="DejaVuSans-64"/>
      <path d="M 4.203125 54.6875 
L 13.1875 54.6875 
L 24.421875 12.015625 
L 35.59375 54.6875 
L 46.1875 54.6875 
L 57.421875 12.015625 
L 68.609375 54.6875 
L 77.59375 54.6875 
L 63.28125 0 
L 52.6875 0 
L 40.921875 44.828125 
L 29.109375 0 
L 18.5 0 
z
" id="DejaVuSans-77"/>
     </defs>
     <g transform="translate(63.917187 258.630469)rotate(-90)scale(0.1 -0.1)">
      <use xlink:href="#DejaVuSans-73"/>
      <use x="52.099609" xlink:href="#DejaVuSans-61"/>
      <use x="113.378906" xlink:href="#DejaVuSans-6d"/>
      <use x="210.791016" xlink:href="#DejaVuSans-70"/>
      <use x="274.267578" xlink:href="#DejaVuSans-6c"/>
      <use x="302.050781" xlink:href="#DejaVuSans-65"/>
      <use x="363.574219" xlink:href="#DejaVuSans-73"/>
      <use x="415.673828" xlink:href="#DejaVuSans-5f"/>
      <use x="465.673828" xlink:href="#DejaVuSans-65"/>
      <use x="527.197266" xlink:href="#DejaVuSans-70"/>
      <use x="590.673828" xlink:href="#DejaVuSans-69"/>
      <use x="618.457031" xlink:href="#DejaVuSans-73"/>
      <use x="670.556641" xlink:href="#DejaVuSans-6f"/>
      <use x="731.738281" xlink:href="#DejaVuSans-64"/>
      <use x="795.214844" xlink:href="#DejaVuSans-65"/>
      <use x="856.738281" xlink:href="#DejaVuSans-5f"/>
      <use x="906.738281" xlink:href="#DejaVuSans-72"/>
      <use x="947.820312" xlink:href="#DejaVuSans-65"/>
      <use x="1009.34375" xlink:href="#DejaVuSans-77"/>
      <use x="1091.130859" xlink:href="#DejaVuSans-61"/>
      <use x="1152.410156" xlink:href="#DejaVuSans-72"/>
      <use x="1193.507812" xlink:href="#DejaVuSans-64"/>
      <use x="1256.984375" xlink:href="#DejaVuSans-5f"/>
      <use x="1306.984375" xlink:href="#DejaVuSans-6d"/>
      <use x="1404.396484" xlink:href="#DejaVuSans-65"/>
      <use x="1465.919922" xlink:href="#DejaVuSans-61"/>
      <use x="1527.199219" xlink:href="#DejaVuSans-6e"/>
     </g>
    </g>
   </g>
   <g id="line2d_13">
    <path clip-path="url(#pc8301e2623)" d="M 90 296.286149 
L 99.3 228.685694 
L 108.6 238.441554 
L 117.9 219.445942 
L 127.2 226.823305 
L 136.5 215.775548 
L 145.8 226.281995 
L 155.1 216.608896 
L 164.4 198.953412 
L 173.7 205.117618 
L 183 201.020536 
L 192.3 205.968997 
L 201.6 209.972635 
L 210.9 214.096627 
L 220.2 199.239705 
L 229.5 178.838636 
L 238.8 213.673781 
L 248.1 180.564508 
L 257.4 202.440043 
L 266.7 204.170041 
L 276 209.184207 
L 285.3 200.557707 
L 294.6 193.286198 
L 303.9 163.507671 
L 313.2 179.634947 
L 322.5 200.18068 
L 331.8 185.050061 
L 341.1 206.030449 
L 350.4 167.378002 
L 359.7 194.567719 
L 369 187.160922 
L 378.3 214.460419 
L 387.6 188.284294 
L 396.9 185.526461 
L 406.2 194.91542 
L 415.5 181.911845 
L 424.8 189.542283 
L 434.1 200.158757 
L 443.4 196.199407 
L 452.7 184.859027 
L 462 174.319268 
L 471.3 216.638703 
L 480.6 173.968285 
L 489.9 190.678295 
L 499.2 198.693263 
L 508.5 195.506153 
L 517.8 194.418151 
L 527.1 176.75711 
L 536.4 164.163527 
L 545.7 180.271382 
L 555 194.18769 
L 564.3 176.6673 
L 573.6 200.586014 
L 582.9 172.22925 
L 592.2 187.907748 
L 601.5 184.375068 
L 610.8 202.218506 
L 620.1 191.708748 
L 629.4 189.633456 
L 638.7 189.691991 
" style="fill:none;opacity:0.5;stroke:#808080;stroke-dasharray:;stroke-dashoffset:0;stroke-width:1.5;"/>
   </g>
   <g id="line2d_14">
    <path clip-path="url(#pc8301e2623)" d="M 90 290.749988 
L 99.3 222.605634 
L 108.6 214.610032 
L 117.9 234.527364 
L 127.2 230.67596 
L 136.5 229.298658 
L 145.8 220.523151 
L 155.1 213.564581 
L 164.4 217.971325 
L 173.7 214.690727 
L 183 214.741146 
L 192.3 196.965684 
L 201.6 206.526786 
L 210.9 202.673582 
L 220.2 211.079751 
L 229.5 215.293412 
L 238.8 203.976439 
L 248.1 190.881198 
L 257.4 177.787662 
L 266.7 217.103713 
L 276 195.502899 
L 285.3 183.167768 
L 294.6 197.570791 
L 303.9 201.819054 
L 313.2 220.033012 
L 322.5 194.419224 
L 331.8 184.21579 
L 341.1 181.045036 
L 350.4 205.535903 
L 359.7 190.840582 
L 369 189.729256 
L 378.3 197.358306 
L 387.6 194.125551 
L 396.9 201.345098 
L 406.2 189.408175 
L 415.5 199.4847 
L 424.8 172.600966 
L 434.1 193.800279 
L 443.4 201.716502 
L 452.7 195.779725 
L 462 198.015418 
L 471.3 198.224816 
L 480.6 185.286773 
L 489.9 176.381611 
L 499.2 195.88974 
L 508.5 184.605806 
L 517.8 170.071661 
L 527.1 192.086915 
L 536.4 208.49139 
L 545.7 213.270881 
L 555 189.885893 
L 564.3 192.768863 
L 573.6 171.487474 
L 582.9 199.255657 
L 592.2 183.555979 
L 601.5 183.456407 
L 610.8 198.341881 
L 620.1 188.908463 
L 629.4 196.826569 
L 638.7 184.700933 
" style="fill:none;opacity:0.5;stroke:#808080;stroke-dasharray:;stroke-dashoffset:0;stroke-width:1.5;"/>
   </g>
   <g id="line2d_15">
    <path clip-path="url(#pc8301e2623)" d="M 90 291.452823 
L 99.3 225.735707 
L 108.6 214.416562 
L 117.9 233.013424 
L 127.2 230.777769 
L 136.5 214.744811 
L 145.8 214.777858 
L 155.1 228.676844 
L 164.4 207.975272 
L 173.7 218.362733 
L 183 201.40339 
L 192.3 204.444815 
L 201.6 201.854608 
L 210.9 185.759554 
L 220.2 188.757388 
L 229.5 195.069623 
L 238.8 204.943192 
L 248.1 194.336147 
L 257.4 194.095358 
L 266.7 183.889508 
L 276 206.574415 
L 285.3 187.88571 
L 294.6 199.189656 
L 303.9 179.836902 
L 313.2 209.451596 
L 322.5 192.63429 
L 331.8 199.194848 
L 341.1 167.931643 
L 350.4 197.370387 
L 359.7 182.759581 
L 369 179.301119 
L 378.3 194.031922 
L 387.6 205.161486 
L 396.9 178.417848 
L 406.2 191.57927 
L 415.5 176.131829 
L 424.8 185.958846 
L 434.1 193.450788 
L 443.4 190.155816 
L 452.7 171.151724 
L 462 188.84582 
L 471.3 193.251825 
L 480.6 193.981119 
L 489.9 186.636707 
L 499.2 182.231712 
L 508.5 197.36075 
L 517.8 182.588328 
L 527.1 194.786133 
L 536.4 177.106582 
L 545.7 203.731293 
L 555 182.464265 
L 564.3 183.277854 
L 573.6 167.037621 
L 582.9 198.131274 
L 592.2 189.643064 
L 601.5 183.114592 
L 610.8 197.383679 
L 620.1 202.133588 
L 629.4 189.351361 
L 638.7 196.453096 
" style="fill:none;opacity:0.5;stroke:#808080;stroke-dasharray:;stroke-dashoffset:0;stroke-width:1.5;"/>
   </g>
   <g id="line2d_16">
    <path clip-path="url(#pc8301e2623)" d="M 90 290.856228 
L 99.3 230.645047 
L 108.6 240.303212 
L 117.9 226.454679 
L 127.2 208.363693 
L 136.5 212.311592 
L 145.8 220.420335 
L 155.1 214.032816 
L 164.4 213.541613 
L 173.7 202.641283 
L 183 197.269067 
L 192.3 206.387807 
L 201.6 213.229154 
L 210.9 196.963927 
L 220.2 216.436093 
L 229.5 188.329602 
L 238.8 214.416894 
L 248.1 210.555232 
L 257.4 219.273888 
L 266.7 192.398374 
L 276 207.952188 
L 285.3 210.306451 
L 294.6 201.880015 
L 303.9 213.348536 
L 313.2 197.348292 
L 322.5 193.832999 
L 331.8 205.607561 
L 341.1 196.901927 
L 350.4 199.658407 
L 359.7 179.518405 
L 369 186.640282 
L 378.3 184.832049 
L 387.6 187.741917 
L 396.9 186.888343 
L 406.2 173.368649 
L 415.5 190.243092 
L 424.8 169.160601 
L 434.1 191.011129 
L 443.4 175.724236 
L 452.7 193.831044 
L 462 164.073468 
L 471.3 192.691876 
L 480.6 197.671823 
L 489.9 206.295146 
L 499.2 173.253981 
L 508.5 190.488848 
L 517.8 193.622609 
L 527.1 185.215667 
L 536.4 196.506116 
L 545.7 177.407063 
L 555 183.709625 
L 564.3 194.21797 
L 573.6 185.047973 
L 582.9 184.400165 
L 592.2 180.701295 
L 601.5 177.566615 
L 610.8 178.594891 
L 620.1 179.513385 
L 629.4 178.964449 
L 638.7 175.788092 
" style="fill:none;opacity:0.5;stroke:#808080;stroke-dasharray:;stroke-dashoffset:0;stroke-width:1.5;"/>
   </g>
   <g id="line2d_17">
    <path clip-path="url(#pc8301e2623)" d="M 90 296.045543 
L 99.3 221.870038 
L 108.6 226.44595 
L 117.9 211.038054 
L 127.2 215.339184 
L 136.5 226.882199 
L 145.8 206.975888 
L 155.1 215.32249 
L 164.4 221.266609 
L 173.7 212.44593 
L 183 217.27215 
L 192.3 215.27822 
L 201.6 216.865998 
L 210.9 198.590651 
L 220.2 198.920393 
L 229.5 219.206736 
L 238.8 193.02224 
L 248.1 194.741683 
L 257.4 194.359751 
L 266.7 201.733446 
L 276 192.956954 
L 285.3 203.498923 
L 294.6 188.890932 
L 303.9 193.385621 
L 313.2 185.775191 
L 322.5 189.633514 
L 331.8 188.028881 
L 341.1 196.909391 
L 350.4 195.155521 
L 359.7 182.100971 
L 369 201.621574 
L 378.3 180.46112 
L 387.6 187.639159 
L 396.9 194.242049 
L 406.2 194.252407 
L 415.5 193.102825 
L 424.8 203.040184 
L 434.1 197.6706 
L 443.4 189.867827 
L 452.7 189.609236 
L 462 208.206772 
L 471.3 177.529004 
L 480.6 180.879678 
L 489.9 187.491497 
L 499.2 195.363408 
L 508.5 180.506845 
L 517.8 190.612914 
L 527.1 181.514284 
L 536.4 179.104939 
L 545.7 189.674837 
L 555 171.594454 
L 564.3 176.320242 
L 573.6 192.79409 
L 582.9 189.160155 
L 592.2 172.813781 
L 601.5 190.681421 
L 610.8 174.554439 
L 620.1 187.352162 
L 629.4 189.441284 
L 638.7 189.727353 
" style="fill:none;opacity:0.5;stroke:#808080;stroke-dasharray:;stroke-dashoffset:0;stroke-width:1.5;"/>
   </g>
   <g id="line2d_18">
    <path clip-path="url(#pc8301e2623)" d="M 90 295.089816 
L 99.3 225.782891 
L 108.6 247.10394 
L 117.9 210.119021 
L 127.2 230.174041 
L 136.5 229.83929 
L 145.8 212.547471 
L 155.1 219.760341 
L 164.4 219.455926 
L 173.7 209.832132 
L 183 221.276278 
L 192.3 230.669106 
L 201.6 216.007379 
L 210.9 224.305111 
L 220.2 213.60979 
L 229.5 212.405217 
L 238.8 197.841084 
L 248.1 207.122538 
L 257.4 198.944889 
L 266.7 213.044225 
L 276 187.174894 
L 285.3 197.636435 
L 294.6 215.24048 
L 303.9 206.288596 
L 313.2 202.538604 
L 322.5 209.340168 
L 331.8 202.298464 
L 341.1 193.035591 
L 350.4 178.160257 
L 359.7 200.877635 
L 369 197.61857 
L 378.3 194.458613 
L 387.6 204.769699 
L 396.9 196.028127 
L 406.2 198.125879 
L 415.5 201.104804 
L 424.8 209.672004 
L 434.1 196.243632 
L 443.4 211.100842 
L 452.7 204.034206 
L 462 197.692222 
L 471.3 179.295981 
L 480.6 191.179253 
L 489.9 196.249252 
L 499.2 207.398665 
L 508.5 183.404385 
L 517.8 193.062327 
L 527.1 202.993138 
L 536.4 191.073507 
L 545.7 198.147572 
L 555 198.512998 
L 564.3 191.961621 
L 573.6 191.172192 
L 582.9 187.980156 
L 592.2 193.66773 
L 601.5 188.607996 
L 610.8 176.853163 
L 620.1 208.267343 
L 629.4 193.230139 
L 638.7 201.286474 
" style="fill:none;opacity:0.5;stroke:#808080;stroke-dasharray:;stroke-dashoffset:0;stroke-width:1.5;"/>
   </g>
   <g id="line2d_19">
    <path clip-path="url(#pc8301e2623)" d="M 90 293.785018 
L 99.3 232.453322 
L 108.6 242.753047 
L 117.9 213.991458 
L 127.2 225.374707 
L 136.5 247.749699 
L 145.8 228.510276 
L 155.1 223.707819 
L 164.4 213.34315 
L 173.7 231.406169 
L 183 230.62703 
L 192.3 227.429505 
L 201.6 201.06516 
L 210.9 223.298366 
L 220.2 208.540569 
L 229.5 203.515316 
L 238.8 203.124401 
L 248.1 204.196558 
L 257.4 211.072282 
L 266.7 187.535094 
L 276 198.627526 
L 285.3 181.642163 
L 294.6 205.246304 
L 303.9 203.301881 
L 313.2 195.434909 
L 322.5 188.179601 
L 331.8 182.590935 
L 341.1 193.521254 
L 350.4 184.02724 
L 359.7 185.970365 
L 369 210.510928 
L 378.3 180.220409 
L 387.6 184.443535 
L 396.9 170.099874 
L 406.2 194.447795 
L 415.5 193.35436 
L 424.8 192.018972 
L 434.1 178.366794 
L 443.4 200.019469 
L 452.7 182.525797 
L 462 194.30325 
L 471.3 193.222685 
L 480.6 196.811485 
L 489.9 196.00098 
L 499.2 173.016052 
L 508.5 185.110482 
L 517.8 175.744483 
L 527.1 198.86802 
L 536.4 202.769698 
L 545.7 202.278257 
L 555 189.629681 
L 564.3 182.822405 
L 573.6 183.457479 
L 582.9 182.814634 
L 592.2 176.742862 
L 601.5 206.948295 
L 610.8 173.059466 
L 620.1 170.61967 
L 629.4 174.117782 
L 638.7 186.543819 
" style="fill:none;opacity:0.5;stroke:#808080;stroke-dasharray:;stroke-dashoffset:0;stroke-width:1.5;"/>
   </g>
   <g id="line2d_20">
    <path clip-path="url(#pc8301e2623)" d="M 90 291.777396 
L 99.3 218.526526 
L 108.6 219.355772 
L 117.9 241.585215 
L 127.2 216.107758 
L 136.5 228.106357 
L 145.8 205.974193 
L 155.1 214.289202 
L 164.4 223.783542 
L 173.7 206.405582 
L 183 206.597115 
L 192.3 214.698634 
L 201.6 204.133154 
L 210.9 199.436301 
L 220.2 200.509453 
L 229.5 191.05205 
L 238.8 197.768872 
L 248.1 220.179173 
L 257.4 215.991873 
L 266.7 201.682394 
L 276 203.05787 
L 285.3 208.417322 
L 294.6 179.715034 
L 303.9 201.547045 
L 313.2 187.698482 
L 322.5 206.760262 
L 331.8 198.713139 
L 341.1 195.923274 
L 350.4 215.66906 
L 359.7 206.279885 
L 369 213.385936 
L 378.3 194.10317 
L 387.6 193.457095 
L 396.9 209.37994 
L 406.2 191.58761 
L 415.5 182.489561 
L 424.8 197.451498 
L 434.1 179.294622 
L 443.4 179.473582 
L 452.7 186.879231 
L 462 163.276109 
L 471.3 180.273008 
L 480.6 196.831347 
L 489.9 193.149643 
L 499.2 190.043443 
L 508.5 184.511249 
L 517.8 199.083579 
L 527.1 172.7995 
L 536.4 181.862808 
L 545.7 178.457709 
L 555 186.66378 
L 564.3 191.628435 
L 573.6 188.665391 
L 582.9 203.510122 
L 592.2 200.018927 
L 601.5 212.75401 
L 610.8 183.20413 
L 620.1 185.073261 
L 629.4 201.126272 
L 638.7 188.464335 
" style="fill:none;opacity:0.5;stroke:#808080;stroke-dasharray:;stroke-dashoffset:0;stroke-width:1.5;"/>
   </g>
   <g id="line2d_21">
    <path clip-path="url(#pc8301e2623)" d="M 90 286.601181 
L 99.3 237.428537 
L 108.6 226.547839 
L 117.9 226.028863 
L 127.2 231.73823 
L 136.5 214.298356 
L 145.8 231.453268 
L 155.1 217.697309 
L 164.4 216.507497 
L 173.7 211.907718 
L 183 218.748353 
L 192.3 214.555127 
L 201.6 205.338801 
L 210.9 216.724035 
L 220.2 211.254026 
L 229.5 214.644936 
L 238.8 208.661044 
L 248.1 218.197534 
L 257.4 211.050322 
L 266.7 203.199084 
L 276 212.807474 
L 285.3 199.541965 
L 294.6 206.576916 
L 303.9 185.630331 
L 313.2 201.589365 
L 322.5 211.291576 
L 331.8 194.773003 
L 341.1 189.780141 
L 350.4 204.181934 
L 359.7 209.866916 
L 369 193.659153 
L 378.3 209.968358 
L 387.6 190.291527 
L 396.9 198.972523 
L 406.2 199.369711 
L 415.5 189.921424 
L 424.8 189.995588 
L 434.1 190.164098 
L 443.4 190.138408 
L 452.7 198.967362 
L 462 195.342616 
L 471.3 189.279129 
L 480.6 212.446329 
L 489.9 196.296089 
L 499.2 182.075267 
L 508.5 195.002345 
L 517.8 188.90217 
L 527.1 191.904769 
L 536.4 170.809433 
L 545.7 194.034879 
L 555 200.521761 
L 564.3 185.546432 
L 573.6 172.034405 
L 582.9 183.530031 
L 592.2 199.800652 
L 601.5 184.32725 
L 610.8 190.317076 
L 620.1 176.415106 
L 629.4 186.149214 
L 638.7 182.557329 
" style="fill:none;opacity:0.5;stroke:#808080;stroke-dasharray:;stroke-dashoffset:0;stroke-width:1.5;"/>
   </g>
   <g id="line2d_22">
    <path clip-path="url(#pc8301e2623)" d="M 90 300.095481 
L 99.3 215.802933 
L 108.6 242.506485 
L 117.9 223.18877 
L 127.2 236.739299 
L 136.5 232.584903 
L 145.8 224.642415 
L 155.1 229.277719 
L 164.4 215.484383 
L 173.7 207.04548 
L 183 226.977212 
L 192.3 223.584606 
L 201.6 202.010009 
L 210.9 200.670758 
L 220.2 203.978375 
L 229.5 206.362403 
L 238.8 194.155566 
L 248.1 190.493615 
L 257.4 212.076841 
L 266.7 187.946917 
L 276 228.291103 
L 285.3 209.368474 
L 294.6 208.737862 
L 303.9 197.690531 
L 313.2 218.438039 
L 322.5 186.63856 
L 331.8 187.048492 
L 341.1 198.038622 
L 350.4 175.478044 
L 359.7 198.359947 
L 369 197.271481 
L 378.3 176.851445 
L 387.6 202.055636 
L 396.9 189.846777 
L 406.2 183.427082 
L 415.5 208.822084 
L 424.8 205.158308 
L 434.1 166.992542 
L 443.4 176.551425 
L 452.7 202.097566 
L 462 184.038875 
L 471.3 166.388913 
L 480.6 182.933581 
L 489.9 203.11627 
L 499.2 191.259622 
L 508.5 217.66037 
L 517.8 203.940353 
L 527.1 195.636633 
L 536.4 192.429778 
L 545.7 205.903633 
L 555 187.203259 
L 564.3 182.894542 
L 573.6 190.441586 
L 582.9 166.97109 
L 592.2 187.733719 
L 601.5 192.143554 
L 610.8 168.365686 
L 620.1 199.848298 
L 629.4 179.666101 
L 638.7 172.724477 
" style="fill:none;opacity:0.5;stroke:#808080;stroke-dasharray:;stroke-dashoffset:0;stroke-width:1.5;"/>
   </g>
   <g id="line2d_23">
    <path clip-path="url(#pc8301e2623)" d="M 90 293.273962 
L 99.3 225.953633 
L 108.6 231.248439 
L 117.9 223.939279 
L 127.2 225.211394 
L 136.5 225.159141 
L 145.8 219.210685 
L 155.1 219.293802 
L 164.4 214.828273 
L 173.7 211.985537 
L 183 213.593228 
L 192.3 213.99825 
L 201.6 207.700368 
L 210.9 206.251891 
L 220.2 205.232554 
L 229.5 202.471793 
L 238.8 203.158351 
L 248.1 201.126819 
L 257.4 203.709291 
L 266.7 199.27028 
L 276 204.212953 
L 285.3 198.202292 
L 294.6 199.633419 
L 303.9 194.635617 
L 313.2 199.794244 
L 322.5 197.291087 
L 331.8 192.752117 
L 341.1 191.911733 
L 350.4 192.261475 
L 359.7 193.1142 
L 369 195.689922 
L 378.3 192.674581 
L 387.6 193.79699 
L 396.9 191.074704 
L 406.2 191.0482 
L 415.5 191.656652 
L 424.8 191.459925 
L 434.1 188.715324 
L 443.4 191.094751 
L 452.7 190.973492 
L 462 186.811382 
L 471.3 188.679594 
L 480.6 191.198967 
L 489.9 193.229549 
L 499.2 188.922515 
L 508.5 191.415723 
L 517.8 189.204657 
L 527.1 189.256217 
L 536.4 186.431778 
L 545.7 194.317751 
L 555 188.437341 
L 564.3 185.810566 
L 573.6 184.272422 
L 582.9 186.798253 
L 592.2 187.258576 
L 601.5 190.397521 
L 610.8 184.289292 
L 620.1 188.984002 
L 629.4 187.850663 
L 638.7 186.79379 
" style="fill:none;stroke:#1f77b4;stroke-dasharray:;stroke-dashoffset:0;stroke-width:1.5;"/>
   </g>
   <g id="line2d_24">
    <path clip-path="url(#pc8301e2623)" d="M 90 287.665655 
L 99.3 256.085199 
L 108.6 252.858681 
L 117.9 254.246283 
L 127.2 250.099117 
L 136.5 253.465074 
L 145.8 240.482858 
L 155.1 244.130431 
L 164.4 247.066692 
L 173.7 242.752297 
L 183 237.735693 
L 192.3 234.885983 
L 201.6 243.659072 
L 210.9 241.693499 
L 220.2 240.09991 
L 229.5 239.169107 
L 238.8 236.22038 
L 248.1 235.103115 
L 257.4 235.885236 
L 266.7 235.818937 
L 276 232.819112 
L 285.3 230.078432 
L 294.6 231.289808 
L 303.9 230.813511 
L 313.2 233.592831 
L 322.5 227.356166 
L 331.8 226.227903 
L 341.1 234.703428 
L 350.4 232.744389 
L 359.7 230.398914 
L 369 236.524255 
L 378.3 228.836429 
L 387.6 222.625655 
L 396.9 225.376974 
L 406.2 228.170401 
L 415.5 226.77156 
L 424.8 224.101522 
L 434.1 229.788598 
L 443.4 227.257121 
L 452.7 226.88704 
L 462 228.782898 
L 471.3 224.209894 
L 480.6 226.04977 
L 489.9 219.060678 
L 499.2 223.62704 
L 508.5 230.29451 
L 517.8 218.832079 
L 527.1 220.079856 
L 536.4 228.134859 
L 545.7 223.21784 
L 555 219.831492 
L 564.3 224.549194 
L 573.6 228.622369 
L 582.9 232.910036 
L 592.2 223.023676 
L 601.5 235.222099 
L 610.8 230.742904 
L 620.1 217.052042 
L 629.4 217.626365 
L 638.7 220.78487 
" style="fill:none;opacity:0.5;stroke:#808080;stroke-dasharray:1.5,1.5;stroke-dashoffset:0;stroke-width:1.5;"/>
   </g>
   <g id="line2d_25">
    <path clip-path="url(#pc8301e2623)" d="M 90 293.465672 
L 99.3 261.963763 
L 108.6 257.898791 
L 117.9 259.02222 
L 127.2 244.089183 
L 136.5 256.265223 
L 145.8 239.345883 
L 155.1 239.083779 
L 164.4 238.392213 
L 173.7 235.626597 
L 183 236.172826 
L 192.3 231.714873 
L 201.6 237.981671 
L 210.9 233.259525 
L 220.2 232.269879 
L 229.5 233.894182 
L 238.8 230.332364 
L 248.1 231.266704 
L 257.4 226.371978 
L 266.7 223.441012 
L 276 216.894081 
L 285.3 214.166479 
L 294.6 212.399494 
L 303.9 223.307352 
L 313.2 214.590371 
L 322.5 212.958903 
L 331.8 212.964035 
L 341.1 217.886778 
L 350.4 222.700253 
L 359.7 220.264482 
L 369 218.971933 
L 378.3 207.546582 
L 387.6 207.390913 
L 396.9 211.161874 
L 406.2 211.701755 
L 415.5 210.74593 
L 424.8 204.888444 
L 434.1 214.889488 
L 443.4 217.104479 
L 452.7 214.409681 
L 462 214.962998 
L 471.3 212.756217 
L 480.6 211.555782 
L 489.9 210.163252 
L 499.2 208.141551 
L 508.5 199.491551 
L 517.8 201.385221 
L 527.1 206.373553 
L 536.4 210.094575 
L 545.7 200.338356 
L 555 197.886685 
L 564.3 208.889551 
L 573.6 207.704202 
L 582.9 212.690742 
L 592.2 205.873758 
L 601.5 204.933768 
L 610.8 197.568384 
L 620.1 197.640055 
L 629.4 198.495533 
L 638.7 204.550216 
" style="fill:none;opacity:0.5;stroke:#808080;stroke-dasharray:1.5,1.5;stroke-dashoffset:0;stroke-width:1.5;"/>
   </g>
   <g id="line2d_26">
    <path clip-path="url(#pc8301e2623)" d="M 90 288.486499 
L 99.3 249.100704 
L 108.6 257.315721 
L 117.9 255.385747 
L 127.2 256.181469 
L 136.5 245.490213 
L 145.8 255.751424 
L 155.1 244.704324 
L 164.4 249.205656 
L 173.7 247.569768 
L 183 246.921233 
L 192.3 241.885442 
L 201.6 239.116005 
L 210.9 243.846754 
L 220.2 237.904639 
L 229.5 230.798898 
L 238.8 232.496631 
L 248.1 229.46649 
L 257.4 228.757406 
L 266.7 228.507588 
L 276 231.178981 
L 285.3 234.681969 
L 294.6 217.495068 
L 303.9 218.806209 
L 313.2 224.24146 
L 322.5 225.123335 
L 331.8 223.962293 
L 341.1 224.060869 
L 350.4 217.668145 
L 359.7 225.635641 
L 369 203.986362 
L 378.3 217.557808 
L 387.6 213.036462 
L 396.9 218.135656 
L 406.2 225.732514 
L 415.5 215.805587 
L 424.8 216.983296 
L 434.1 220.90563 
L 443.4 225.553521 
L 452.7 215.056187 
L 462 216.198572 
L 471.3 219.692413 
L 480.6 212.912538 
L 489.9 219.643907 
L 499.2 210.305103 
L 508.5 222.471774 
L 517.8 223.03458 
L 527.1 205.509343 
L 536.4 210.784813 
L 545.7 208.066769 
L 555 214.39027 
L 564.3 215.850825 
L 573.6 216.564027 
L 582.9 208.508289 
L 592.2 215.558733 
L 601.5 202.11576 
L 610.8 207.709299 
L 620.1 202.531742 
L 629.4 208.357733 
L 638.7 216.593933 
" style="fill:none;opacity:0.5;stroke:#808080;stroke-dasharray:1.5,1.5;stroke-dashoffset:0;stroke-width:1.5;"/>
   </g>
   <g id="line2d_27">
    <path clip-path="url(#pc8301e2623)" d="M 90 290.184025 
L 99.3 251.330787 
L 108.6 253.187118 
L 117.9 253.25069 
L 127.2 244.155788 
L 136.5 247.055125 
L 145.8 248.136117 
L 155.1 252.610532 
L 164.4 244.289683 
L 173.7 245.169907 
L 183 241.77375 
L 192.3 249.777467 
L 201.6 235.564183 
L 210.9 242.296942 
L 220.2 242.958754 
L 229.5 243.644301 
L 238.8 237.187686 
L 248.1 240.780653 
L 257.4 240.799313 
L 266.7 221.725912 
L 276 233.498475 
L 285.3 238.743292 
L 294.6 224.934675 
L 303.9 231.764235 
L 313.2 226.933877 
L 322.5 232.338375 
L 331.8 231.918229 
L 341.1 220.682483 
L 350.4 219.363724 
L 359.7 212.641242 
L 369 216.782689 
L 378.3 222.315492 
L 387.6 218.626893 
L 396.9 215.974335 
L 406.2 214.620645 
L 415.5 221.893412 
L 424.8 228.159193 
L 434.1 204.750024 
L 443.4 226.784672 
L 452.7 219.577357 
L 462 220.325488 
L 471.3 224.227852 
L 480.6 222.073977 
L 489.9 218.466284 
L 499.2 207.406008 
L 508.5 218.412672 
L 517.8 225.979155 
L 527.1 210.20908 
L 536.4 203.517174 
L 545.7 210.852674 
L 555 213.155797 
L 564.3 212.953043 
L 573.6 206.589131 
L 582.9 202.190267 
L 592.2 199.461481 
L 601.5 200.394069 
L 610.8 212.417045 
L 620.1 205.611912 
L 629.4 206.736095 
L 638.7 199.629031 
" style="fill:none;opacity:0.5;stroke:#808080;stroke-dasharray:1.5,1.5;stroke-dashoffset:0;stroke-width:1.5;"/>
   </g>
   <g id="line2d_28">
    <path clip-path="url(#pc8301e2623)" d="M 90 296.358614 
L 99.3 261.520588 
L 108.6 258.527399 
L 117.9 256.786924 
L 127.2 247.106212 
L 136.5 240.945406 
L 145.8 239.178608 
L 155.1 241.967502 
L 164.4 235.376604 
L 173.7 228.276102 
L 183 233.089065 
L 192.3 233.705092 
L 201.6 246.180611 
L 210.9 234.230618 
L 220.2 234.696913 
L 229.5 230.235692 
L 238.8 237.943596 
L 248.1 218.008092 
L 257.4 236.151429 
L 266.7 229.508471 
L 276 225.267877 
L 285.3 220.837273 
L 294.6 228.712054 
L 303.9 217.307939 
L 313.2 197.580234 
L 322.5 219.639464 
L 331.8 222.959158 
L 341.1 213.307934 
L 350.4 217.729927 
L 359.7 218.551414 
L 369 213.069387 
L 378.3 212.941737 
L 387.6 213.188526 
L 396.9 219.230764 
L 406.2 206.00315 
L 415.5 212.706083 
L 424.8 221.370184 
L 434.1 234.815638 
L 443.4 224.827014 
L 452.7 219.368398 
L 462 218.697789 
L 471.3 227.662742 
L 480.6 209.684313 
L 489.9 226.706785 
L 499.2 220.845484 
L 508.5 219.388654 
L 517.8 208.276353 
L 527.1 216.129094 
L 536.4 210.292668 
L 545.7 190.318298 
L 555 213.922101 
L 564.3 203.13156 
L 573.6 202.173337 
L 582.9 205.650024 
L 592.2 213.792689 
L 601.5 210.183512 
L 610.8 212.606691 
L 620.1 209.192858 
L 629.4 209.478952 
L 638.7 199.261195 
" style="fill:none;opacity:0.5;stroke:#808080;stroke-dasharray:1.5,1.5;stroke-dashoffset:0;stroke-width:1.5;"/>
   </g>
   <g id="line2d_29">
    <path clip-path="url(#pc8301e2623)" d="M 90 290.729101 
L 99.3 256.779261 
L 108.6 264.694998 
L 117.9 252.447729 
L 127.2 245.743668 
L 136.5 240.142005 
L 145.8 241.990715 
L 155.1 246.776482 
L 164.4 248.792206 
L 173.7 229.782698 
L 183 234.549236 
L 192.3 236.102061 
L 201.6 235.910543 
L 210.9 231.91942 
L 220.2 232.876875 
L 229.5 236.50619 
L 238.8 240.267559 
L 248.1 247.601803 
L 257.4 228.205442 
L 266.7 238.291494 
L 276 232.108873 
L 285.3 237.917164 
L 294.6 223.204206 
L 303.9 219.71968 
L 313.2 222.950336 
L 322.5 228.572303 
L 331.8 222.452431 
L 341.1 222.642507 
L 350.4 231.866726 
L 359.7 215.223431 
L 369 205.179795 
L 378.3 215.699149 
L 387.6 218.680927 
L 396.9 227.492866 
L 406.2 205.088968 
L 415.5 213.9597 
L 424.8 215.374361 
L 434.1 202.511324 
L 443.4 208.486659 
L 452.7 212.725402 
L 462 218.519942 
L 471.3 220.781898 
L 480.6 229.040274 
L 489.9 222.319018 
L 499.2 220.645602 
L 508.5 220.302186 
L 517.8 225.301414 
L 527.1 211.999473 
L 536.4 213.104208 
L 545.7 205.597215 
L 555 217.339272 
L 564.3 216.595225 
L 573.6 215.824315 
L 582.9 222.336681 
L 592.2 204.907687 
L 601.5 209.709592 
L 610.8 208.862472 
L 620.1 212.022431 
L 629.4 220.332909 
L 638.7 205.526242 
" style="fill:none;opacity:0.5;stroke:#808080;stroke-dasharray:1.5,1.5;stroke-dashoffset:0;stroke-width:1.5;"/>
   </g>
   <g id="line2d_30">
    <path clip-path="url(#pc8301e2623)" d="M 90 287.949995 
L 99.3 257.462646 
L 108.6 253.78811 
L 117.9 255.534542 
L 127.2 247.061273 
L 136.5 249.528844 
L 145.8 242.72052 
L 155.1 253.723239 
L 164.4 247.874734 
L 173.7 244.647363 
L 183 239.589751 
L 192.3 250.239179 
L 201.6 236.579272 
L 210.9 235.816669 
L 220.2 234.360346 
L 229.5 223.309312 
L 238.8 233.906902 
L 248.1 233.064044 
L 257.4 234.038204 
L 266.7 230.598539 
L 276 236.032622 
L 285.3 226.009987 
L 294.6 226.301245 
L 303.9 223.475973 
L 313.2 218.570596 
L 322.5 217.196963 
L 331.8 214.61134 
L 341.1 215.984837 
L 350.4 223.356303 
L 359.7 224.66508 
L 369 224.163481 
L 378.3 214.969848 
L 387.6 222.096576 
L 396.9 219.486914 
L 406.2 221.616881 
L 415.5 211.082338 
L 424.8 232.638673 
L 434.1 213.041692 
L 443.4 223.161644 
L 452.7 219.070928 
L 462 210.634141 
L 471.3 222.307045 
L 480.6 225.908068 
L 489.9 219.535794 
L 499.2 215.405095 
L 508.5 217.068449 
L 517.8 213.069356 
L 527.1 210.520284 
L 536.4 220.0948 
L 545.7 212.71783 
L 555 213.671922 
L 564.3 207.318907 
L 573.6 199.494411 
L 582.9 209.586315 
L 592.2 215.770706 
L 601.5 223.469934 
L 610.8 206.716578 
L 620.1 220.675586 
L 629.4 216.608538 
L 638.7 215.602829 
" style="fill:none;opacity:0.5;stroke:#808080;stroke-dasharray:1.5,1.5;stroke-dashoffset:0;stroke-width:1.5;"/>
   </g>
   <g id="line2d_31">
    <path clip-path="url(#pc8301e2623)" d="M 90 288.819623 
L 99.3 257.562222 
L 108.6 250.151043 
L 117.9 231.058422 
L 127.2 234.794566 
L 136.5 249.402455 
L 145.8 243.331224 
L 155.1 244.745053 
L 164.4 242.291389 
L 173.7 236.919581 
L 183 235.927526 
L 192.3 242.502381 
L 201.6 233.765952 
L 210.9 243.069456 
L 220.2 231.10895 
L 229.5 223.701571 
L 238.8 233.898336 
L 248.1 225.77573 
L 257.4 231.081081 
L 266.7 228.338182 
L 276 230.293441 
L 285.3 238.331067 
L 294.6 232.839308 
L 303.9 235.658418 
L 313.2 227.524222 
L 322.5 220.617343 
L 331.8 232.3279 
L 341.1 225.219481 
L 350.4 213.907986 
L 359.7 220.373736 
L 369 233.963976 
L 378.3 222.126109 
L 387.6 225.972979 
L 396.9 223.799555 
L 406.2 226.330322 
L 415.5 220.019069 
L 424.8 229.402347 
L 434.1 218.356204 
L 443.4 235.446648 
L 452.7 205.624996 
L 462 217.827215 
L 471.3 219.395901 
L 480.6 210.645699 
L 489.9 220.065037 
L 499.2 218.041089 
L 508.5 218.435978 
L 517.8 223.215683 
L 527.1 221.428029 
L 536.4 231.092494 
L 545.7 216.535391 
L 555 207.696655 
L 564.3 221.359194 
L 573.6 211.578985 
L 582.9 205.828411 
L 592.2 215.864597 
L 601.5 217.467859 
L 610.8 213.328158 
L 620.1 218.015037 
L 629.4 213.886562 
L 638.7 216.028723 
" style="fill:none;opacity:0.5;stroke:#808080;stroke-dasharray:1.5,1.5;stroke-dashoffset:0;stroke-width:1.5;"/>
   </g>
   <g id="line2d_32">
    <path clip-path="url(#pc8301e2623)" d="M 90 291.776406 
L 99.3 262.058663 
L 108.6 262.966212 
L 117.9 256.208094 
L 127.2 245.179411 
L 136.5 252.865647 
L 145.8 247.215702 
L 155.1 251.189813 
L 164.4 241.058568 
L 173.7 240.309001 
L 183 255.60321 
L 192.3 240.168461 
L 201.6 235.869087 
L 210.9 237.068433 
L 220.2 227.568212 
L 229.5 241.445825 
L 238.8 235.028293 
L 248.1 234.21918 
L 257.4 234.712557 
L 266.7 234.296181 
L 276 230.888458 
L 285.3 229.602291 
L 294.6 228.795956 
L 303.9 233.572133 
L 313.2 228.847355 
L 322.5 223.062996 
L 331.8 221.866698 
L 341.1 227.931264 
L 350.4 220.272463 
L 359.7 209.171319 
L 369 215.702104 
L 378.3 212.897718 
L 387.6 221.175452 
L 396.9 219.804053 
L 406.2 210.309374 
L 415.5 229.132063 
L 424.8 217.659757 
L 434.1 212.692694 
L 443.4 220.191726 
L 452.7 214.71713 
L 462 230.08545 
L 471.3 217.78671 
L 480.6 220.225948 
L 489.9 216.223787 
L 499.2 218.997967 
L 508.5 213.050417 
L 517.8 221.298675 
L 527.1 219.165615 
L 536.4 220.313479 
L 545.7 213.683181 
L 555 215.209274 
L 564.3 205.588694 
L 573.6 220.952208 
L 582.9 204.061043 
L 592.2 198.595951 
L 601.5 205.195146 
L 610.8 199.782263 
L 620.1 211.471805 
L 629.4 210.255288 
L 638.7 212.028825 
" style="fill:none;opacity:0.5;stroke:#808080;stroke-dasharray:1.5,1.5;stroke-dashoffset:0;stroke-width:1.5;"/>
   </g>
   <g id="line2d_33">
    <path clip-path="url(#pc8301e2623)" d="M 90 298.016345 
L 99.3 255.686418 
L 108.6 258.550949 
L 117.9 255.640558 
L 127.2 255.801252 
L 136.5 248.057822 
L 145.8 244.035421 
L 155.1 250.03544 
L 164.4 236.860257 
L 173.7 254.812552 
L 183 240.848181 
L 192.3 242.934774 
L 201.6 244.929477 
L 210.9 243.255809 
L 220.2 238.494858 
L 229.5 235.969661 
L 238.8 234.906518 
L 248.1 226.449615 
L 257.4 230.888739 
L 266.7 239.410379 
L 276 230.670183 
L 285.3 233.226682 
L 294.6 232.45277 
L 303.9 227.160695 
L 313.2 225.408206 
L 322.5 229.340325 
L 331.8 229.67223 
L 341.1 230.427885 
L 350.4 228.302738 
L 359.7 231.96861 
L 369 224.393413 
L 378.3 221.498113 
L 387.6 222.683908 
L 396.9 220.749 
L 406.2 230.401914 
L 415.5 216.883954 
L 424.8 227.465645 
L 434.1 227.601156 
L 443.4 225.226916 
L 452.7 219.061309 
L 462 219.028291 
L 471.3 215.423517 
L 480.6 206.012642 
L 489.9 210.036622 
L 499.2 222.307072 
L 508.5 215.970329 
L 517.8 223.112873 
L 527.1 225.600785 
L 536.4 215.589698 
L 545.7 211.674185 
L 555 217.562172 
L 564.3 215.376322 
L 573.6 225.305203 
L 582.9 221.420003 
L 592.2 226.039936 
L 601.5 218.511042 
L 610.8 213.657097 
L 620.1 218.693383 
L 629.4 212.509281 
L 638.7 217.030583 
" style="fill:none;opacity:0.5;stroke:#808080;stroke-dasharray:1.5,1.5;stroke-dashoffset:0;stroke-width:1.5;"/>
   </g>
   <g id="line2d_34">
    <path clip-path="url(#pc8301e2623)" d="M 90 291.345193 
L 99.3 256.955025 
L 108.6 256.993902 
L 117.9 252.958121 
L 127.2 247.021194 
L 136.5 248.321781 
L 145.8 244.218847 
L 155.1 246.896659 
L 164.4 243.1208 
L 173.7 240.586587 
L 183 240.221047 
L 192.3 240.391571 
L 201.6 238.955587 
L 210.9 238.645712 
L 220.2 235.233934 
L 229.5 233.867474 
L 238.8 235.218827 
L 248.1 232.173543 
L 257.4 232.689138 
L 266.7 230.99367 
L 276 229.96521 
L 285.3 230.359464 
L 294.6 225.842458 
L 303.9 226.158615 
L 313.2 222.023949 
L 322.5 223.620617 
L 331.8 223.896222 
L 341.1 223.284747 
L 350.4 222.791265 
L 359.7 220.889387 
L 369 219.27374 
L 378.3 217.638899 
L 387.6 218.547829 
L 396.9 220.121199 
L 406.2 217.997592 
L 415.5 217.89997 
L 424.8 221.804342 
L 434.1 217.935245 
L 443.4 223.40404 
L 452.7 216.649843 
L 462 219.506278 
L 471.3 220.424419 
L 480.6 217.410901 
L 489.9 218.222116 
L 499.2 216.572201 
L 508.5 217.488652 
L 517.8 218.350539 
L 527.1 214.701511 
L 536.4 216.301877 
L 545.7 209.300174 
L 555 213.066564 
L 564.3 213.161251 
L 573.6 213.480819 
L 582.9 212.518181 
L 592.2 211.888921 
L 601.5 212.720278 
L 610.8 210.339089 
L 620.1 211.290685 
L 629.4 211.428726 
L 638.7 210.703645 
" style="fill:none;stroke:#ff7f0e;stroke-dasharray:1.5,1.5;stroke-dashoffset:0;stroke-width:1.5;"/>
   </g>
   <g id="line2d_35">
    <path clip-path="url(#pc8301e2623)" d="M 90 296.127365 
L 99.3 261.977775 
L 108.6 245.770968 
L 117.9 226.067806 
L 127.2 235.231982 
L 136.5 242.652428 
L 145.8 230.930975 
L 155.1 218.25673 
L 164.4 211.668162 
L 173.7 210.070917 
L 183 192.804557 
L 192.3 207.337875 
L 201.6 195.828033 
L 210.9 177.539497 
L 220.2 181.405754 
L 229.5 183.565893 
L 238.8 182.852793 
L 248.1 185.67609 
L 257.4 144.007371 
L 266.7 154.927833 
L 276 158.662165 
L 285.3 154.113828 
L 294.6 161.75878 
L 303.9 159.051457 
L 313.2 151.688058 
L 322.5 149.973919 
L 331.8 152.23208 
L 341.1 155.506302 
L 350.4 124.356203 
L 359.7 141.778448 
L 369 164.67272 
L 378.3 141.010004 
L 387.6 151.635252 
L 396.9 151.619906 
L 406.2 138.347827 
L 415.5 134.175948 
L 424.8 139.015001 
L 434.1 126.395208 
L 443.4 120.141805 
L 452.7 135.380363 
L 462 128.455468 
L 471.3 132.287406 
L 480.6 135.559431 
L 489.9 94.454026 
L 499.2 103.056307 
L 508.5 118.610588 
L 517.8 122.361689 
L 527.1 120.855523 
L 536.4 124.489981 
L 545.7 113.509343 
L 555 115.405685 
L 564.3 126.542201 
L 573.6 118.850196 
L 582.9 98.437226 
L 592.2 106.146765 
L 601.5 138.566112 
L 610.8 117.08076 
L 620.1 120.480947 
L 629.4 121.427094 
L 638.7 121.838548 
" style="fill:none;opacity:0.5;stroke:#808080;stroke-dasharray:7.5,1.5;stroke-dashoffset:0;stroke-width:1.5;"/>
   </g>
   <g id="line2d_36">
    <path clip-path="url(#pc8301e2623)" d="M 90 293.883353 
L 99.3 237.622224 
L 108.6 240.637467 
L 117.9 222.216963 
L 127.2 230.001642 
L 136.5 214.531153 
L 145.8 210.948633 
L 155.1 196.27236 
L 164.4 211.498505 
L 173.7 189.696833 
L 183 199.591195 
L 192.3 187.374466 
L 201.6 180.115702 
L 210.9 190.689201 
L 220.2 150.155732 
L 229.5 175.773208 
L 238.8 140.087822 
L 248.1 140.079748 
L 257.4 159.228384 
L 266.7 158.585925 
L 276 187.13223 
L 285.3 158.050448 
L 294.6 153.908135 
L 303.9 151.70067 
L 313.2 152.144859 
L 322.5 141.021393 
L 331.8 152.145942 
L 341.1 129.054641 
L 350.4 126.445806 
L 359.7 138.223361 
L 369 125.929991 
L 378.3 126.071011 
L 387.6 117.76487 
L 396.9 124.937877 
L 406.2 103.390647 
L 415.5 126.533646 
L 424.8 105.795697 
L 434.1 107.839789 
L 443.4 141.255215 
L 452.7 99.201628 
L 462 124.37743 
L 471.3 97.534242 
L 480.6 92.607051 
L 489.9 104.049381 
L 499.2 98.171144 
L 508.5 134.549295 
L 517.8 112.611858 
L 527.1 104.906961 
L 536.4 98.586293 
L 545.7 134.572106 
L 555 93.873687 
L 564.3 104.064495 
L 573.6 97.636371 
L 582.9 100.5447 
L 592.2 118.342679 
L 601.5 99.905186 
L 610.8 100.003998 
L 620.1 91.264086 
L 629.4 102.128351 
L 638.7 80.466648 
" style="fill:none;opacity:0.5;stroke:#808080;stroke-dasharray:7.5,1.5;stroke-dashoffset:0;stroke-width:1.5;"/>
   </g>
   <g id="line2d_37">
    <path clip-path="url(#pc8301e2623)" d="M 90 290.793146 
L 99.3 257.069362 
L 108.6 253.086702 
L 117.9 238.488747 
L 127.2 249.729783 
L 136.5 249.138962 
L 145.8 235.783024 
L 155.1 230.37996 
L 164.4 223.359988 
L 173.7 218.976344 
L 183 203.512377 
L 192.3 201.684724 
L 201.6 216.107541 
L 210.9 213.026505 
L 220.2 192.882288 
L 229.5 195.229012 
L 238.8 183.968648 
L 248.1 164.791705 
L 257.4 181.213851 
L 266.7 159.56993 
L 276 177.941272 
L 285.3 164.018414 
L 294.6 157.046797 
L 303.9 138.183001 
L 313.2 152.633356 
L 322.5 148.932731 
L 331.8 140.306673 
L 341.1 131.239648 
L 350.4 131.794467 
L 359.7 140.518154 
L 369 141.026927 
L 378.3 136.431754 
L 387.6 145.05175 
L 396.9 108.751091 
L 406.2 111.567014 
L 415.5 135.354508 
L 424.8 115.145606 
L 434.1 128.559178 
L 443.4 131.524394 
L 452.7 100.506941 
L 462 111.532202 
L 471.3 110.974118 
L 480.6 82.910179 
L 489.9 125.764646 
L 499.2 103.523426 
L 508.5 119.514889 
L 517.8 120.090399 
L 527.1 101.332742 
L 536.4 74.585418 
L 545.7 110.089881 
L 555 107.179915 
L 564.3 96.875877 
L 573.6 78.99115 
L 582.9 90.644803 
L 592.2 124.237923 
L 601.5 120.924091 
L 610.8 101.857907 
L 620.1 121.149813 
L 629.4 94.74791 
L 638.7 94.514572 
" style="fill:none;opacity:0.5;stroke:#808080;stroke-dasharray:7.5,1.5;stroke-dashoffset:0;stroke-width:1.5;"/>
   </g>
   <g id="line2d_38">
    <path clip-path="url(#pc8301e2623)" d="M 90 289.436262 
L 99.3 252.994504 
L 108.6 244.552452 
L 117.9 230.265319 
L 127.2 229.922564 
L 136.5 215.701892 
L 145.8 207.100156 
L 155.1 202.717062 
L 164.4 200.383916 
L 173.7 198.927947 
L 183 181.778658 
L 192.3 200.420344 
L 201.6 178.83769 
L 210.9 169.7129 
L 220.2 184.206035 
L 229.5 177.519996 
L 238.8 159.233507 
L 248.1 162.36125 
L 257.4 151.688367 
L 266.7 139.074281 
L 276 160.37722 
L 285.3 148.500692 
L 294.6 124.143839 
L 303.9 119.275897 
L 313.2 117.411114 
L 322.5 121.743172 
L 331.8 133.66249 
L 341.1 116.388429 
L 350.4 106.464059 
L 359.7 124.984041 
L 369 108.480847 
L 378.3 120.100257 
L 387.6 105.991439 
L 396.9 132.976984 
L 406.2 121.058506 
L 415.5 111.580874 
L 424.8 114.350732 
L 434.1 102.745272 
L 443.4 91.273354 
L 452.7 116.93507 
L 462 93.764849 
L 471.3 80.623351 
L 480.6 100.561684 
L 489.9 84.840524 
L 499.2 103.348018 
L 508.5 114.173839 
L 517.8 91.417578 
L 527.1 79.332531 
L 536.4 94.556689 
L 545.7 96.804499 
L 555 87.679738 
L 564.3 109.497052 
L 573.6 96.122318 
L 582.9 99.286093 
L 592.2 110.633807 
L 601.5 80.878189 
L 610.8 111.749711 
L 620.1 96.564586 
L 629.4 114.764597 
L 638.7 105.705906 
" style="fill:none;opacity:0.5;stroke:#808080;stroke-dasharray:7.5,1.5;stroke-dashoffset:0;stroke-width:1.5;"/>
   </g>
   <g id="line2d_39">
    <path clip-path="url(#pc8301e2623)" d="M 90 302.645455 
L 99.3 256.55626 
L 108.6 248.586446 
L 117.9 236.477285 
L 127.2 235.957401 
L 136.5 242.06147 
L 145.8 217.95416 
L 155.1 217.919396 
L 164.4 195.785327 
L 173.7 181.601774 
L 183 199.238612 
L 192.3 177.168591 
L 201.6 170.269014 
L 210.9 174.922596 
L 220.2 158.064493 
L 229.5 159.778788 
L 238.8 158.298021 
L 248.1 156.033177 
L 257.4 159.396773 
L 266.7 162.324689 
L 276 165.230168 
L 285.3 129.290326 
L 294.6 154.704536 
L 303.9 143.750285 
L 313.2 131.391246 
L 322.5 147.751123 
L 331.8 124.898477 
L 341.1 107.676425 
L 350.4 82.390863 
L 359.7 118.002111 
L 369 129.544163 
L 378.3 127.608139 
L 387.6 118.24578 
L 396.9 108.920372 
L 406.2 95.891748 
L 415.5 100.17772 
L 424.8 88.313388 
L 434.1 95.413347 
L 443.4 107.194533 
L 452.7 74.325191 
L 462 98.793135 
L 471.3 104.369658 
L 480.6 92.549169 
L 489.9 90.725179 
L 499.2 101.156747 
L 508.5 118.689857 
L 517.8 94.962905 
L 527.1 115.203613 
L 536.4 116.716028 
L 545.7 86.416733 
L 555 124.484466 
L 564.3 99.989211 
L 573.6 79.013242 
L 582.9 57.340159 
L 592.2 99.826194 
L 601.5 128.557534 
L 610.8 112.887589 
L 620.1 90.171878 
L 629.4 101.74039 
L 638.7 74.945303 
" style="fill:none;opacity:0.5;stroke:#808080;stroke-dasharray:7.5,1.5;stroke-dashoffset:0;stroke-width:1.5;"/>
   </g>
   <g id="line2d_40">
    <path clip-path="url(#pc8301e2623)" d="M 90 289.600926 
L 99.3 257.678961 
L 108.6 260.311917 
L 117.9 239.781449 
L 127.2 237.896721 
L 136.5 228.286991 
L 145.8 220.109824 
L 155.1 217.359512 
L 164.4 217.632011 
L 173.7 198.760701 
L 183 218.71645 
L 192.3 187.931503 
L 201.6 188.796372 
L 210.9 185.822162 
L 220.2 170.768762 
L 229.5 186.99783 
L 238.8 193.864598 
L 248.1 179.417128 
L 257.4 176.276443 
L 266.7 154.421378 
L 276 169.448723 
L 285.3 193.770785 
L 294.6 159.458067 
L 303.9 156.83298 
L 313.2 172.167613 
L 322.5 179.08 
L 331.8 144.390792 
L 341.1 145.622333 
L 350.4 164.262105 
L 359.7 152.859088 
L 369 138.461024 
L 378.3 131.707059 
L 387.6 135.008791 
L 396.9 153.075394 
L 406.2 134.050934 
L 415.5 145.57671 
L 424.8 117.527048 
L 434.1 132.830466 
L 443.4 130.817526 
L 452.7 115.912021 
L 462 119.882862 
L 471.3 120.942948 
L 480.6 114.248535 
L 489.9 115.516792 
L 499.2 79.383373 
L 508.5 111.816542 
L 517.8 137.548602 
L 527.1 92.984539 
L 536.4 102.986781 
L 545.7 110.188203 
L 555 147.478111 
L 564.3 104.69896 
L 573.6 81.927498 
L 582.9 101.573939 
L 592.2 98.336886 
L 601.5 80.56387 
L 610.8 80.864477 
L 620.1 82.279817 
L 629.4 106.020672 
L 638.7 105.831489 
" style="fill:none;opacity:0.5;stroke:#808080;stroke-dasharray:7.5,1.5;stroke-dashoffset:0;stroke-width:1.5;"/>
   </g>
   <g id="line2d_41">
    <path clip-path="url(#pc8301e2623)" d="M 90 296.195233 
L 99.3 259.206823 
L 108.6 255.1732 
L 117.9 243.015771 
L 127.2 241.938301 
L 136.5 240.283595 
L 145.8 226.185976 
L 155.1 226.351572 
L 164.4 204.765467 
L 173.7 209.01895 
L 183 196.531041 
L 192.3 204.118754 
L 201.6 207.181595 
L 210.9 189.49248 
L 220.2 185.241684 
L 229.5 178.706946 
L 238.8 194.739631 
L 248.1 184.185868 
L 257.4 166.972438 
L 266.7 171.758257 
L 276 144.566199 
L 285.3 160.8343 
L 294.6 141.854569 
L 303.9 137.127824 
L 313.2 165.351285 
L 322.5 147.489668 
L 331.8 124.110041 
L 341.1 134.346634 
L 350.4 129.410945 
L 359.7 106.777195 
L 369 113.085066 
L 378.3 104.636349 
L 387.6 136.337555 
L 396.9 90.303574 
L 406.2 109.846008 
L 415.5 102.333506 
L 424.8 108.921484 
L 434.1 109.208315 
L 443.4 112.219836 
L 452.7 104.346817 
L 462 112.600236 
L 471.3 124.029968 
L 480.6 113.064422 
L 489.9 93.541237 
L 499.2 119.053372 
L 508.5 86.783287 
L 517.8 107.337291 
L 527.1 84.505045 
L 536.4 94.744874 
L 545.7 121.869887 
L 555 123.512885 
L 564.3 100.345995 
L 573.6 113.360982 
L 582.9 96.686947 
L 592.2 84.828096 
L 601.5 83.350615 
L 610.8 90.467843 
L 620.1 108.287302 
L 629.4 77.801434 
L 638.7 93.156284 
" style="fill:none;opacity:0.5;stroke:#808080;stroke-dasharray:7.5,1.5;stroke-dashoffset:0;stroke-width:1.5;"/>
   </g>
   <g id="line2d_42">
    <path clip-path="url(#pc8301e2623)" d="M 90 289.941699 
L 99.3 246.857959 
L 108.6 235.254672 
L 117.9 220.686112 
L 127.2 229.384823 
L 136.5 217.748334 
L 145.8 220.993806 
L 155.1 219.008853 
L 164.4 198.320219 
L 173.7 187.57863 
L 183 187.370701 
L 192.3 196.607025 
L 201.6 195.753078 
L 210.9 185.090938 
L 220.2 190.913091 
L 229.5 171.490887 
L 238.8 191.52194 
L 248.1 189.143971 
L 257.4 170.641792 
L 266.7 152.041669 
L 276 147.380503 
L 285.3 167.256636 
L 294.6 156.898182 
L 303.9 132.419911 
L 313.2 142.372074 
L 322.5 158.786183 
L 331.8 146.838101 
L 341.1 146.5293 
L 350.4 129.285138 
L 359.7 164.144569 
L 369 140.493762 
L 378.3 137.235815 
L 387.6 136.730126 
L 396.9 136.181614 
L 406.2 125.503789 
L 415.5 149.556664 
L 424.8 144.576672 
L 434.1 139.614544 
L 443.4 123.577395 
L 452.7 132.027876 
L 462 120.094048 
L 471.3 127.291574 
L 480.6 121.528635 
L 489.9 118.392632 
L 499.2 107.853879 
L 508.5 113.199042 
L 517.8 106.927692 
L 527.1 85.712109 
L 536.4 67.739764 
L 545.7 97.278419 
L 555 91.258334 
L 564.3 100.088641 
L 573.6 91.087193 
L 582.9 102.648708 
L 592.2 120.988573 
L 601.5 109.334944 
L 610.8 80.065413 
L 620.1 90.799577 
L 629.4 98.325149 
L 638.7 89.219337 
" style="fill:none;opacity:0.5;stroke:#808080;stroke-dasharray:7.5,1.5;stroke-dashoffset:0;stroke-width:1.5;"/>
   </g>
   <g id="line2d_43">
    <path clip-path="url(#pc8301e2623)" d="M 90 296.543313 
L 99.3 255.357109 
L 108.6 243.170882 
L 117.9 228.537277 
L 127.2 225.690759 
L 136.5 228.778147 
L 145.8 218.606265 
L 155.1 211.1169 
L 164.4 206.054508 
L 173.7 198.655121 
L 183 210.918417 
L 192.3 192.727371 
L 201.6 184.897587 
L 210.9 175.424525 
L 220.2 169.16168 
L 229.5 170.651798 
L 238.8 158.043291 
L 248.1 175.743398 
L 257.4 174.728098 
L 266.7 154.685306 
L 276 157.364279 
L 285.3 189.179944 
L 294.6 133.800717 
L 303.9 140.373755 
L 313.2 145.835407 
L 322.5 128.976715 
L 331.8 156.770979 
L 341.1 139.622051 
L 350.4 136.155003 
L 359.7 132.358771 
L 369 137.48885 
L 378.3 119.659347 
L 387.6 125.021078 
L 396.9 117.890232 
L 406.2 112.293645 
L 415.5 148.453266 
L 424.8 126.099238 
L 434.1 128.046444 
L 443.4 97.148984 
L 452.7 101.330188 
L 462 118.067731 
L 471.3 104.77808 
L 480.6 117.171509 
L 489.9 142.531605 
L 499.2 101.750594 
L 508.5 102.10987 
L 517.8 140.406276 
L 527.1 89.630837 
L 536.4 94.160125 
L 545.7 90.979612 
L 555 87.683693 
L 564.3 116.787688 
L 573.6 102.876903 
L 582.9 103.532156 
L 592.2 98.682298 
L 601.5 118.49689 
L 610.8 94.654486 
L 620.1 106.53685 
L 629.4 110.344018 
L 638.7 97.397507 
" style="fill:none;opacity:0.5;stroke:#808080;stroke-dasharray:7.5,1.5;stroke-dashoffset:0;stroke-width:1.5;"/>
   </g>
   <g id="line2d_44">
    <path clip-path="url(#pc8301e2623)" d="M 90 291.491533 
L 99.3 252.178793 
L 108.6 251.181134 
L 117.9 243.488671 
L 127.2 239.216593 
L 136.5 236.800525 
L 145.8 236.378513 
L 155.1 226.767349 
L 164.4 201.567119 
L 173.7 224.561785 
L 183 220.041832 
L 192.3 208.772952 
L 201.6 211.411246 
L 210.9 213.685697 
L 220.2 170.72461 
L 229.5 186.509096 
L 238.8 178.715159 
L 248.1 170.986737 
L 257.4 195.412852 
L 266.7 166.8365 
L 276 172.42339 
L 285.3 164.43739 
L 294.6 140.44466 
L 303.9 162.807946 
L 313.2 151.019171 
L 322.5 113.511769 
L 331.8 141.115456 
L 341.1 128.539619 
L 350.4 120.408507 
L 359.7 128.409143 
L 369 128.53913 
L 378.3 119.648626 
L 387.6 117.434253 
L 396.9 96.827287 
L 406.2 134.907629 
L 415.5 113.313767 
L 424.8 124.890685 
L 434.1 119.849424 
L 443.4 116.651787 
L 452.7 91.76977 
L 462 103.239045 
L 471.3 109.785759 
L 480.6 112.184342 
L 489.9 127.907302 
L 499.2 113.862234 
L 508.5 116.558154 
L 517.8 109.366768 
L 527.1 103.028663 
L 536.4 107.155535 
L 545.7 95.835621 
L 555 62.947083 
L 564.3 83.051206 
L 573.6 79.861849 
L 582.9 81.726123 
L 592.2 101.361355 
L 601.5 97.387902 
L 610.8 84.486054 
L 620.1 93.63374 
L 629.4 74.200442 
L 638.7 103.651856 
" style="fill:none;opacity:0.5;stroke:#808080;stroke-dasharray:7.5,1.5;stroke-dashoffset:0;stroke-width:1.5;"/>
   </g>
   <g id="line2d_45">
    <path clip-path="url(#pc8301e2623)" d="M 90 293.665829 
L 99.3 253.749977 
L 108.6 247.772584 
L 117.9 232.90254 
L 127.2 235.497057 
L 136.5 231.59835 
L 145.8 222.499133 
L 155.1 216.614969 
L 164.4 207.103522 
L 173.7 201.7849 
L 183 201.050384 
L 192.3 196.414361 
L 201.6 192.919786 
L 210.9 187.54065 
L 220.2 175.352413 
L 229.5 178.622346 
L 238.8 174.132541 
L 248.1 170.841907 
L 257.4 167.956637 
L 266.7 157.422577 
L 276 164.052615 
L 285.3 162.945276 
L 294.6 148.401828 
L 303.9 144.152373 
L 313.2 148.201418 
L 322.5 143.726668 
L 331.8 141.647103 
L 341.1 133.452538 
L 350.4 125.09731 
L 359.7 134.805488 
L 369 132.772248 
L 378.3 126.410836 
L 387.6 128.922089 
L 396.9 122.148433 
L 406.2 118.685775 
L 415.5 126.705661 
L 424.8 118.463555 
L 434.1 119.050199 
L 443.4 117.180483 
L 452.7 107.173587 
L 462 113.080701 
L 471.3 111.26171 
L 480.6 108.238496 
L 489.9 109.772332 
L 499.2 103.115909 
L 508.5 113.600536 
L 517.8 114.303106 
L 527.1 97.749256 
L 536.4 97.572149 
L 545.7 105.75443 
L 555 104.15036 
L 564.3 104.194132 
L 573.6 93.97277 
L 582.9 93.242085 
L 592.2 106.338458 
L 601.5 105.796533 
L 610.8 97.411824 
L 620.1 100.11686 
L 629.4 100.150006 
L 638.7 96.672745 
" style="fill:none;stroke:#2ca02c;stroke-dasharray:7.5,1.5;stroke-dashoffset:0;stroke-width:1.5;"/>
   </g>
   <g id="patch_3">
    <path d="M 90 315 
L 90 43.2 
" style="fill:none;stroke:#000000;stroke-linecap:square;stroke-linejoin:miter;stroke-width:0.8;"/>
   </g>
   <g id="patch_4">
    <path d="M 648 315 
L 648 43.2 
" style="fill:none;stroke:#000000;stroke-linecap:square;stroke-linejoin:miter;stroke-width:0.8;"/>
   </g>
   <g id="patch_5">
    <path d="M 90 315 
L 648 315 
" style="fill:none;stroke:#000000;stroke-linecap:square;stroke-linejoin:miter;stroke-width:0.8;"/>
   </g>
   <g id="patch_6">
    <path d="M 90 43.2 
L 648 43.2 
" style="fill:none;stroke:#000000;stroke-linecap:square;stroke-linejoin:miter;stroke-width:0.8;"/>
   </g>
   <g id="text_15">
    <!-- Results -->
    <defs>
     <path d="M 44.390625 34.1875 
Q 47.5625 33.109375 50.5625 29.59375 
Q 53.5625 26.078125 56.59375 19.921875 
L 66.609375 0 
L 56 0 
L 46.6875 18.703125 
Q 43.0625 26.03125 39.671875 28.421875 
Q 36.28125 30.8125 30.421875 30.8125 
L 19.671875 30.8125 
L 19.671875 0 
L 9.8125 0 
L 9.8125 72.90625 
L 32.078125 72.90625 
Q 44.578125 72.90625 50.734375 67.671875 
Q 56.890625 62.453125 56.890625 51.90625 
Q 56.890625 45.015625 53.6875 40.46875 
Q 50.484375 35.9375 44.390625 34.1875 
z
M 19.671875 64.796875 
L 19.671875 38.921875 
L 32.078125 38.921875 
Q 39.203125 38.921875 42.84375 42.21875 
Q 46.484375 45.515625 46.484375 51.90625 
Q 46.484375 58.296875 42.84375 61.546875 
Q 39.203125 64.796875 32.078125 64.796875 
z
" id="DejaVuSans-52"/>
     <path d="M 8.5 21.578125 
L 8.5 54.6875 
L 17.484375 54.6875 
L 17.484375 21.921875 
Q 17.484375 14.15625 20.5 10.265625 
Q 23.53125 6.390625 29.59375 6.390625 
Q 36.859375 6.390625 41.078125 11.03125 
Q 45.3125 15.671875 45.3125 23.6875 
L 45.3125 54.6875 
L 54.296875 54.6875 
L 54.296875 0 
L 45.3125 0 
L 45.3125 8.40625 
Q 42.046875 3.421875 37.71875 1 
Q 33.40625 -1.421875 27.6875 -1.421875 
Q 18.265625 -1.421875 13.375 4.4375 
Q 8.5 10.296875 8.5 21.578125 
z
M 31.109375 56 
z
" id="DejaVuSans-75"/>
    </defs>
    <g transform="translate(347.07 37.2)scale(0.12 -0.12)">
     <use xlink:href="#DejaVuSans-52"/>
     <use x="69.419922" xlink:href="#DejaVuSans-65"/>
     <use x="130.943359" xlink:href="#DejaVuSans-73"/>
     <use x="183.042969" xlink:href="#DejaVuSans-75"/>
     <use x="246.421875" xlink:href="#DejaVuSans-6c"/>
     <use x="274.205078" xlink:href="#DejaVuSans-74"/>
     <use x="313.414062" xlink:href="#DejaVuSans-73"/>
    </g>
   </g>
   <g id="legend_1">
    <g id="patch_7">
     <path d="M 97 96.06875 
L 279.179688 96.06875 
Q 281.179688 96.06875 281.179688 94.06875 
L 281.179688 50.2 
Q 281.179688 48.2 279.179688 48.2 
L 97 48.2 
Q 95 48.2 95 50.2 
L 95 94.06875 
Q 95 96.06875 97 96.06875 
z
" style="fill:#ffffff;opacity:0.8;stroke:#cccccc;stroke-linejoin:miter;"/>
    </g>
    <g id="line2d_46">
     <path d="M 99 56.298438 
L 119 56.298438 
" style="fill:none;stroke:#1f77b4;stroke-dasharray:;stroke-dashoffset:0;stroke-width:1.5;"/>
    </g>
    <g id="line2d_47"/>
    <g id="text_16">
     <!-- l_shape_sampling.w_factor0.0 -->
     <defs>
      <path d="M 54.890625 33.015625 
L 54.890625 0 
L 45.90625 0 
L 45.90625 32.71875 
Q 45.90625 40.484375 42.875 44.328125 
Q 39.84375 48.1875 33.796875 48.1875 
Q 26.515625 48.1875 22.3125 43.546875 
Q 18.109375 38.921875 18.109375 30.90625 
L 18.109375 0 
L 9.078125 0 
L 9.078125 75.984375 
L 18.109375 75.984375 
L 18.109375 46.1875 
Q 21.34375 51.125 25.703125 53.5625 
Q 30.078125 56 35.796875 56 
Q 45.21875 56 50.046875 50.171875 
Q 54.890625 44.34375 54.890625 33.015625 
z
" id="DejaVuSans-68"/>
      <path d="M 45.40625 27.984375 
Q 45.40625 37.75 41.375 43.109375 
Q 37.359375 48.484375 30.078125 48.484375 
Q 22.859375 48.484375 18.828125 43.109375 
Q 14.796875 37.75 14.796875 27.984375 
Q 14.796875 18.265625 18.828125 12.890625 
Q 22.859375 7.515625 30.078125 7.515625 
Q 37.359375 7.515625 41.375 12.890625 
Q 45.40625 18.265625 45.40625 27.984375 
z
M 54.390625 6.78125 
Q 54.390625 -7.171875 48.1875 -13.984375 
Q 42 -20.796875 29.203125 -20.796875 
Q 24.46875 -20.796875 20.265625 -20.09375 
Q 16.0625 -19.390625 12.109375 -17.921875 
L 12.109375 -9.1875 
Q 16.0625 -11.328125 19.921875 -12.34375 
Q 23.78125 -13.375 27.78125 -13.375 
Q 36.625 -13.375 41.015625 -8.765625 
Q 45.40625 -4.15625 45.40625 5.171875 
L 45.40625 9.625 
Q 42.625 4.78125 38.28125 2.390625 
Q 33.9375 0 27.875 0 
Q 17.828125 0 11.671875 7.65625 
Q 5.515625 15.328125 5.515625 27.984375 
Q 5.515625 40.671875 11.671875 48.328125 
Q 17.828125 56 27.875 56 
Q 33.9375 56 38.28125 53.609375 
Q 42.625 51.21875 45.40625 46.390625 
L 45.40625 54.6875 
L 54.390625 54.6875 
z
" id="DejaVuSans-67"/>
      <path d="M 10.6875 12.40625 
L 21 12.40625 
L 21 0 
L 10.6875 0 
z
" id="DejaVuSans-2e"/>
      <path d="M 37.109375 75.984375 
L 37.109375 68.5 
L 28.515625 68.5 
Q 23.6875 68.5 21.796875 66.546875 
Q 19.921875 64.59375 19.921875 59.515625 
L 19.921875 54.6875 
L 34.71875 54.6875 
L 34.71875 47.703125 
L 19.921875 47.703125 
L 19.921875 0 
L 10.890625 0 
L 10.890625 47.703125 
L 2.296875 47.703125 
L 2.296875 54.6875 
L 10.890625 54.6875 
L 10.890625 58.5 
Q 10.890625 67.625 15.140625 71.796875 
Q 19.390625 75.984375 28.609375 75.984375 
z
" id="DejaVuSans-66"/>
      <path d="M 48.78125 52.59375 
L 48.78125 44.1875 
Q 44.96875 46.296875 41.140625 47.34375 
Q 37.3125 48.390625 33.40625 48.390625 
Q 24.65625 48.390625 19.8125 42.84375 
Q 14.984375 37.3125 14.984375 27.296875 
Q 14.984375 17.28125 19.8125 11.734375 
Q 24.65625 6.203125 33.40625 6.203125 
Q 37.3125 6.203125 41.140625 7.25 
Q 44.96875 8.296875 48.78125 10.40625 
L 48.78125 2.09375 
Q 45.015625 0.34375 40.984375 -0.53125 
Q 36.96875 -1.421875 32.421875 -1.421875 
Q 20.0625 -1.421875 12.78125 6.34375 
Q 5.515625 14.109375 5.515625 27.296875 
Q 5.515625 40.671875 12.859375 48.328125 
Q 20.21875 56 33.015625 56 
Q 37.15625 56 41.109375 55.140625 
Q 45.0625 54.296875 48.78125 52.59375 
z
" id="DejaVuSans-63"/>
     </defs>
     <g transform="translate(127 59.798438)scale(0.1 -0.1)">
      <use xlink:href="#DejaVuSans-6c"/>
      <use x="27.783203" xlink:href="#DejaVuSans-5f"/>
      <use x="77.783203" xlink:href="#DejaVuSans-73"/>
      <use x="129.882812" xlink:href="#DejaVuSans-68"/>
      <use x="193.261719" xlink:href="#DejaVuSans-61"/>
      <use x="254.541016" xlink:href="#DejaVuSans-70"/>
      <use x="318.017578" xlink:href="#DejaVuSans-65"/>
      <use x="379.541016" xlink:href="#DejaVuSans-5f"/>
      <use x="429.541016" xlink:href="#DejaVuSans-73"/>
      <use x="481.640625" xlink:href="#DejaVuSans-61"/>
      <use x="542.919922" xlink:href="#DejaVuSans-6d"/>
      <use x="640.332031" xlink:href="#DejaVuSans-70"/>
      <use x="703.808594" xlink:href="#DejaVuSans-6c"/>
      <use x="731.591797" xlink:href="#DejaVuSans-69"/>
      <use x="759.375" xlink:href="#DejaVuSans-6e"/>
      <use x="822.753906" xlink:href="#DejaVuSans-67"/>
      <use x="886.230469" xlink:href="#DejaVuSans-2e"/>
      <use x="918.017578" xlink:href="#DejaVuSans-77"/>
      <use x="999.804688" xlink:href="#DejaVuSans-5f"/>
      <use x="1049.804688" xlink:href="#DejaVuSans-66"/>
      <use x="1085.009766" xlink:href="#DejaVuSans-61"/>
      <use x="1146.289062" xlink:href="#DejaVuSans-63"/>
      <use x="1201.269531" xlink:href="#DejaVuSans-74"/>
      <use x="1240.478516" xlink:href="#DejaVuSans-6f"/>
      <use x="1301.660156" xlink:href="#DejaVuSans-72"/>
      <use x="1342.773438" xlink:href="#DejaVuSans-30"/>
      <use x="1406.396484" xlink:href="#DejaVuSans-2e"/>
      <use x="1438.183594" xlink:href="#DejaVuSans-30"/>
     </g>
    </g>
    <g id="line2d_48">
     <path d="M 99 71.254688 
L 119 71.254688 
" style="fill:none;stroke:#ff7f0e;stroke-dasharray:1.5,1.5;stroke-dashoffset:0;stroke-width:1.5;"/>
    </g>
    <g id="line2d_49"/>
    <g id="text_17">
     <!-- l_shape_sampling.w_factor0.5 -->
     <g transform="translate(127 74.754688)scale(0.1 -0.1)">
      <use xlink:href="#DejaVuSans-6c"/>
      <use x="27.783203" xlink:href="#DejaVuSans-5f"/>
      <use x="77.783203" xlink:href="#DejaVuSans-73"/>
      <use x="129.882812" xlink:href="#DejaVuSans-68"/>
      <use x="193.261719" xlink:href="#DejaVuSans-61"/>
      <use x="254.541016" xlink:href="#DejaVuSans-70"/>
      <use x="318.017578" xlink:href="#DejaVuSans-65"/>
      <use x="379.541016" xlink:href="#DejaVuSans-5f"/>
      <use x="429.541016" xlink:href="#DejaVuSans-73"/>
      <use x="481.640625" xlink:href="#DejaVuSans-61"/>
      <use x="542.919922" xlink:href="#DejaVuSans-6d"/>
      <use x="640.332031" xlink:href="#DejaVuSans-70"/>
      <use x="703.808594" xlink:href="#DejaVuSans-6c"/>
      <use x="731.591797" xlink:href="#DejaVuSans-69"/>
      <use x="759.375" xlink:href="#DejaVuSans-6e"/>
      <use x="822.753906" xlink:href="#DejaVuSans-67"/>
      <use x="886.230469" xlink:href="#DejaVuSans-2e"/>
      <use x="918.017578" xlink:href="#DejaVuSans-77"/>
      <use x="999.804688" xlink:href="#DejaVuSans-5f"/>
      <use x="1049.804688" xlink:href="#DejaVuSans-66"/>
      <use x="1085.009766" xlink:href="#DejaVuSans-61"/>
      <use x="1146.289062" xlink:href="#DejaVuSans-63"/>
      <use x="1201.269531" xlink:href="#DejaVuSans-74"/>
      <use x="1240.478516" xlink:href="#DejaVuSans-6f"/>
      <use x="1301.660156" xlink:href="#DejaVuSans-72"/>
      <use x="1342.773438" xlink:href="#DejaVuSans-30"/>
      <use x="1406.396484" xlink:href="#DejaVuSans-2e"/>
      <use x="1438.183594" xlink:href="#DejaVuSans-35"/>
     </g>
    </g>
    <g id="line2d_50">
     <path d="M 99 86.210938 
L 119 86.210938 
" style="fill:none;stroke:#2ca02c;stroke-dasharray:7.5,1.5;stroke-dashoffset:0;stroke-width:1.5;"/>
    </g>
    <g id="line2d_51"/>
    <g id="text_18">
     <!-- l_shape_sampling.w_factor1.0 -->
     <g transform="translate(127 89.710938)scale(0.1 -0.1)">
      <use xlink:href="#DejaVuSans-6c"/>
      <use x="27.783203" xlink:href="#DejaVuSans-5f"/>
      <use x="77.783203" xlink:href="#DejaVuSans-73"/>
      <use x="129.882812" xlink:href="#DejaVuSans-68"/>
      <use x="193.261719" xlink:href="#DejaVuSans-61"/>
      <use x="254.541016" xlink:href="#DejaVuSans-70"/>
      <use x="318.017578" xlink:href="#DejaVuSans-65"/>
      <use x="379.541016" xlink:href="#DejaVuSans-5f"/>
      <use x="429.541016" xlink:href="#DejaVuSans-73"/>
      <use x="481.640625" xlink:href="#DejaVuSans-61"/>
      <use x="542.919922" xlink:href="#DejaVuSans-6d"/>
      <use x="640.332031" xlink:href="#DejaVuSans-70"/>
      <use x="703.808594" xlink:href="#DejaVuSans-6c"/>
      <use x="731.591797" xlink:href="#DejaVuSans-69"/>
      <use x="759.375" xlink:href="#DejaVuSans-6e"/>
      <use x="822.753906" xlink:href="#DejaVuSans-67"/>
      <use x="886.230469" xlink:href="#DejaVuSans-2e"/>
      <use x="918.017578" xlink:href="#DejaVuSans-77"/>
      <use x="999.804688" xlink:href="#DejaVuSans-5f"/>
      <use x="1049.804688" xlink:href="#DejaVuSans-66"/>
      <use x="1085.009766" xlink:href="#DejaVuSans-61"/>
      <use x="1146.289062" xlink:href="#DejaVuSans-63"/>
      <use x="1201.269531" xlink:href="#DejaVuSans-74"/>
      <use x="1240.478516" xlink:href="#DejaVuSans-6f"/>
      <use x="1301.660156" xlink:href="#DejaVuSans-72"/>
      <use x="1342.773438" xlink:href="#DejaVuSans-31"/>
      <use x="1406.396484" xlink:href="#DejaVuSans-2e"/>
      <use x="1438.183594" xlink:href="#DejaVuSans-30"/>
     </g>
    </g>
   </g>
  </g>
 </g>
 <defs>
  <clipPath id="pc8301e2623">
   <rect height="271.8" width="558" x="90" y="43.2"/>
  </clipPath>
 </defs>
</svg>
