<?xml version="1.0" encoding="utf-8" standalone="no"?>
<!DOCTYPE svg PUBLIC "-//W3C//DTD SVG 1.1//EN"
  "http://www.w3.org/Graphics/SVG/1.1/DTD/svg11.dtd">
<!-- Created with matplotlib (http://matplotlib.org/) -->
<svg height="360pt" version="1.1" viewBox="0 0 720 360" width="720pt" xmlns="http://www.w3.org/2000/svg" xmlns:xlink="http://www.w3.org/1999/xlink">
 <defs>
  <style type="text/css">
*{stroke-linecap:butt;stroke-linejoin:round;}
  </style>
 </defs>
 <g id="figure_1">
  <g id="patch_1">
   <path d="M 0 360 
L 720 360 
L 720 0 
L 0 0 
z
" style="fill:#ffffff;"/>
  </g>
  <g id="axes_1">
   <g id="patch_2">
    <path d="M 90 315 
L 648 315 
L 648 43.2 
L 90 43.2 
z
" style="fill:#ffffff;"/>
   </g>
   <g id="PolyCollection_1">
    <path clip-path="url(#p3b9578b932)" d="M 90 286.356729 
L 90 302.645455 
L 99.3 251.017099 
L 108.6 253.24132 
L 117.9 242.600133 
L 127.2 247.495282 
L 136.5 246.819525 
L 145.8 244.725752 
L 155.1 238.38263 
L 164.4 233.103511 
L 173.7 237.293188 
L 183 234.448257 
L 192.3 233.897114 
L 201.6 232.017669 
L 210.9 226.093148 
L 220.2 224.185239 
L 229.5 232.505198 
L 238.8 226.866848 
L 248.1 229.300428 
L 257.4 224.176699 
L 266.7 224.089419 
L 276 219.887335 
L 285.3 224.08932 
L 294.6 219.665587 
L 303.9 231.920447 
L 313.2 224.112889 
L 322.5 218.354769 
L 331.8 214.466374 
L 341.1 214.650752 
L 350.4 211.149953 
L 359.7 226.053704 
L 369 227.38676 
L 378.3 218.68442 
L 387.6 211.533244 
L 396.9 219.839687 
L 406.2 227.801996 
L 415.5 218.69753 
L 424.8 219.99389 
L 434.1 212.984935 
L 443.4 208.000218 
L 452.7 210.619629 
L 462 216.981854 
L 471.3 210.598916 
L 480.6 218.362495 
L 489.9 211.671404 
L 499.2 215.096139 
L 508.5 218.354809 
L 517.8 217.994335 
L 527.1 214.104314 
L 536.4 226.208959 
L 545.7 209.145568 
L 555 211.635365 
L 564.3 203.602048 
L 573.6 209.131601 
L 582.9 207.482173 
L 592.2 215.498649 
L 601.5 217.290918 
L 610.8 210.356371 
L 620.1 206.550039 
L 629.4 206.471151 
L 638.7 218.783401 
L 638.7 165.004474 
L 638.7 165.004474 
L 629.4 176.383105 
L 620.1 180.069432 
L 610.8 173.509959 
L 601.5 163.807973 
L 592.2 170.359201 
L 582.9 170.093509 
L 573.6 180.384447 
L 564.3 174.096606 
L 555 179.77338 
L 545.7 177.400032 
L 536.4 167.021434 
L 527.1 169.887447 
L 517.8 171.020699 
L 508.5 176.384019 
L 499.2 179.487523 
L 489.9 187.214777 
L 480.6 184.881466 
L 471.3 176.343815 
L 462 179.667641 
L 452.7 182.98903 
L 443.4 179.90797 
L 434.1 179.973421 
L 424.8 179.478483 
L 415.5 175.643397 
L 406.2 166.700377 
L 396.9 176.137169 
L 387.6 189.320438 
L 378.3 178.224636 
L 369 172.7929 
L 359.7 176.900027 
L 350.4 187.104087 
L 341.1 190.187725 
L 331.8 179.527963 
L 322.5 190.680267 
L 313.2 183.315241 
L 303.9 181.760526 
L 294.6 187.397045 
L 285.3 185.534826 
L 276 197.739377 
L 266.7 195.58218 
L 257.4 197.329913 
L 248.1 202.210317 
L 238.8 189.347252 
L 229.5 203.212132 
L 220.2 198.64286 
L 210.9 193.123687 
L 201.6 193.964442 
L 192.3 199.13898 
L 183 200.006493 
L 173.7 197.065943 
L 164.4 212.694016 
L 155.1 203.753474 
L 145.8 207.026857 
L 136.5 208.120798 
L 127.2 213.983068 
L 117.9 217.835394 
L 108.6 222.154098 
L 99.3 226.044105 
L 90 286.356729 
z
" style="fill:#1f77b4;fill-opacity:0.5;"/>
   </g>
   <g id="PolyCollection_2">
    <path clip-path="url(#p3b9578b932)" d="M 90 285.658966 
L 90 296.375008 
L 99.3 269.982565 
L 108.6 271.612247 
L 117.9 263.343767 
L 127.2 264.925577 
L 136.5 257.916964 
L 145.8 260.250655 
L 155.1 254.150444 
L 164.4 251.392747 
L 173.7 254.948104 
L 183 249.267425 
L 192.3 251.030025 
L 201.6 242.843014 
L 210.9 245.428117 
L 220.2 247.035121 
L 229.5 244.638094 
L 238.8 242.398478 
L 248.1 245.202071 
L 257.4 246.087437 
L 266.7 248.043742 
L 276 244.71896 
L 285.3 243.419692 
L 294.6 241.386042 
L 303.9 241.238166 
L 313.2 239.516118 
L 322.5 236.863761 
L 331.8 235.393737 
L 341.1 230.304474 
L 350.4 234.596549 
L 359.7 237.385718 
L 369 232.665008 
L 378.3 231.815575 
L 387.6 233.195419 
L 396.9 225.111093 
L 406.2 227.986373 
L 415.5 227.304464 
L 424.8 233.55504 
L 434.1 224.764886 
L 443.4 228.541888 
L 452.7 225.626371 
L 462 226.776771 
L 471.3 224.145255 
L 480.6 228.059544 
L 489.9 224.731862 
L 499.2 227.921784 
L 508.5 224.871015 
L 517.8 223.411579 
L 527.1 221.326526 
L 536.4 219.82385 
L 545.7 224.006843 
L 555 217.109962 
L 564.3 222.901856 
L 573.6 217.441509 
L 582.9 218.927918 
L 592.2 221.882726 
L 601.5 221.440219 
L 610.8 218.993572 
L 620.1 215.299723 
L 629.4 221.173747 
L 638.7 217.038727 
L 638.7 194.694928 
L 638.7 194.694928 
L 629.4 185.029302 
L 620.1 195.453478 
L 610.8 184.260666 
L 601.5 196.530308 
L 592.2 189.502739 
L 582.9 190.377513 
L 573.6 196.136321 
L 564.3 182.621672 
L 555 194.322361 
L 545.7 196.285474 
L 536.4 190.114898 
L 527.1 192.718485 
L 517.8 197.711875 
L 508.5 196.214509 
L 499.2 188.251287 
L 489.9 192.000397 
L 480.6 195.037171 
L 471.3 189.527284 
L 462 193.604825 
L 452.7 194.423935 
L 443.4 191.205607 
L 434.1 194.103941 
L 424.8 192.50355 
L 415.5 196.213051 
L 406.2 201.420305 
L 396.9 200.437233 
L 387.6 202.965278 
L 378.3 199.394696 
L 369 207.957731 
L 359.7 201.722644 
L 350.4 198.844617 
L 341.1 211.384393 
L 331.8 200.63936 
L 322.5 205.265374 
L 313.2 211.776948 
L 303.9 199.440062 
L 294.6 210.045438 
L 285.3 212.210444 
L 276 215.008741 
L 266.7 206.804096 
L 257.4 215.344955 
L 248.1 218.840272 
L 238.8 217.557852 
L 229.5 220.021718 
L 220.2 219.030903 
L 210.9 221.520513 
L 201.6 225.154007 
L 192.3 223.784309 
L 183 232.951812 
L 173.7 234.414317 
L 164.4 234.325715 
L 155.1 239.736546 
L 145.8 234.725976 
L 136.5 245.678701 
L 127.2 243.944866 
L 117.9 245.420727 
L 108.6 251.022018 
L 99.3 251.522624 
L 90 285.658966 
z
" style="fill:#ff7f0e;fill-opacity:0.5;"/>
   </g>
   <g id="PolyCollection_3">
    <path clip-path="url(#p3b9578b932)" d="M 90 287.435814 
L 90 301.524597 
L 99.3 271.080175 
L 108.6 264.216212 
L 117.9 266.472456 
L 127.2 250.458006 
L 136.5 250.710386 
L 145.8 242.06837 
L 155.1 234.763413 
L 164.4 217.360249 
L 173.7 213.592543 
L 183 205.868184 
L 192.3 208.515656 
L 201.6 192.485923 
L 210.9 191.550016 
L 220.2 184.924506 
L 229.5 168.410353 
L 238.8 173.243828 
L 248.1 165.956339 
L 257.4 163.329081 
L 266.7 165.197567 
L 276 160.904016 
L 285.3 172.558521 
L 294.6 159.15468 
L 303.9 162.771448 
L 313.2 151.724579 
L 322.5 146.587893 
L 331.8 153.717411 
L 341.1 136.786899 
L 350.4 155.024066 
L 359.7 147.068557 
L 369 139.04308 
L 378.3 120.154352 
L 387.6 138.43422 
L 396.9 125.626609 
L 406.2 136.08727 
L 415.5 130.817446 
L 424.8 137.848774 
L 434.1 121.576202 
L 443.4 116.686213 
L 452.7 122.112342 
L 462 113.765603 
L 471.3 113.857169 
L 480.6 115.07172 
L 489.9 113.572585 
L 499.2 116.367896 
L 508.5 121.455564 
L 517.8 123.964531 
L 527.1 126.111588 
L 536.4 120.342943 
L 545.7 117.046375 
L 555 106.803931 
L 564.3 132.299601 
L 573.6 109.174493 
L 582.9 120.599257 
L 592.2 122.415525 
L 601.5 106.463714 
L 610.8 99.239694 
L 620.1 114.651956 
L 629.4 100.445761 
L 638.7 106.486675 
L 638.7 56.171048 
L 638.7 56.171048 
L 629.4 55.554545 
L 620.1 78.087724 
L 610.8 66.271453 
L 601.5 64.483688 
L 592.2 55.742409 
L 582.9 60.444756 
L 573.6 67.983578 
L 564.3 61.10902 
L 555 74.382026 
L 545.7 62.406943 
L 536.4 61.62221 
L 527.1 71.557677 
L 517.8 77.483689 
L 508.5 61.789528 
L 499.2 59.360643 
L 489.9 66.680142 
L 480.6 81.976948 
L 471.3 81.131278 
L 462 76.284705 
L 452.7 77.673532 
L 443.4 70.616965 
L 434.1 73.074906 
L 424.8 67.227885 
L 415.5 74.472433 
L 406.2 61.331128 
L 396.9 68.67798 
L 387.6 89.042452 
L 378.3 84.157182 
L 369 76.884248 
L 359.7 75.357201 
L 350.4 78.362759 
L 341.1 89.79603 
L 331.8 91.77702 
L 322.5 98.234523 
L 313.2 97.453848 
L 303.9 88.004427 
L 294.6 104.382602 
L 285.3 102.458027 
L 276 96.193954 
L 266.7 100.539614 
L 257.4 110.03352 
L 248.1 131.397837 
L 238.8 122.833006 
L 229.5 136.890966 
L 220.2 138.396781 
L 210.9 132.209808 
L 201.6 143.897495 
L 192.3 143.998504 
L 183 161.230086 
L 173.7 165.193152 
L 164.4 171.866748 
L 155.1 187.381023 
L 145.8 190.42352 
L 136.5 198.82516 
L 127.2 213.57589 
L 117.9 221.093576 
L 108.6 237.718236 
L 99.3 251.308349 
L 90 287.435814 
z
" style="fill:#2ca02c;fill-opacity:0.5;"/>
   </g>
   <g id="matplotlib.axis_1">
    <g id="xtick_1">
     <g id="line2d_1">
      <defs>
       <path d="M 0 0 
L 0 3.5 
" id="mc4a4f9918f" style="stroke:#000000;stroke-width:0.8;"/>
      </defs>
      <g>
       <use style="stroke:#000000;stroke-width:0.8;" x="90" xlink:href="#mc4a4f9918f" y="315"/>
      </g>
     </g>
     <g id="text_1">
      <!-- 0 -->
      <defs>
       <path d="M 31.78125 66.40625 
Q 24.171875 66.40625 20.328125 58.90625 
Q 16.5 51.421875 16.5 36.375 
Q 16.5 21.390625 20.328125 13.890625 
Q 24.171875 6.390625 31.78125 6.390625 
Q 39.453125 6.390625 43.28125 13.890625 
Q 47.125 21.390625 47.125 36.375 
Q 47.125 51.421875 43.28125 58.90625 
Q 39.453125 66.40625 31.78125 66.40625 
z
M 31.78125 74.21875 
Q 44.046875 74.21875 50.515625 64.515625 
Q 56.984375 54.828125 56.984375 36.375 
Q 56.984375 17.96875 50.515625 8.265625 
Q 44.046875 -1.421875 31.78125 -1.421875 
Q 19.53125 -1.421875 13.0625 8.265625 
Q 6.59375 17.96875 6.59375 36.375 
Q 6.59375 54.828125 13.0625 64.515625 
Q 19.53125 74.21875 31.78125 74.21875 
z
" id="DejaVuSans-30"/>
      </defs>
      <g transform="translate(86.81875 329.598437)scale(0.1 -0.1)">
       <use xlink:href="#DejaVuSans-30"/>
      </g>
     </g>
    </g>
    <g id="xtick_2">
     <g id="line2d_2">
      <g>
       <use style="stroke:#000000;stroke-width:0.8;" x="183" xlink:href="#mc4a4f9918f" y="315"/>
      </g>
     </g>
     <g id="text_2">
      <!-- 10 -->
      <defs>
       <path d="M 12.40625 8.296875 
L 28.515625 8.296875 
L 28.515625 63.921875 
L 10.984375 60.40625 
L 10.984375 69.390625 
L 28.421875 72.90625 
L 38.28125 72.90625 
L 38.28125 8.296875 
L 54.390625 8.296875 
L 54.390625 0 
L 12.40625 0 
z
" id="DejaVuSans-31"/>
      </defs>
      <g transform="translate(176.6375 329.598437)scale(0.1 -0.1)">
       <use xlink:href="#DejaVuSans-31"/>
       <use x="63.623047" xlink:href="#DejaVuSans-30"/>
      </g>
     </g>
    </g>
    <g id="xtick_3">
     <g id="line2d_3">
      <g>
       <use style="stroke:#000000;stroke-width:0.8;" x="276" xlink:href="#mc4a4f9918f" y="315"/>
      </g>
     </g>
     <g id="text_3">
      <!-- 20 -->
      <defs>
       <path d="M 19.1875 8.296875 
L 53.609375 8.296875 
L 53.609375 0 
L 7.328125 0 
L 7.328125 8.296875 
Q 12.9375 14.109375 22.625 23.890625 
Q 32.328125 33.6875 34.8125 36.53125 
Q 39.546875 41.84375 41.421875 45.53125 
Q 43.3125 49.21875 43.3125 52.78125 
Q 43.3125 58.59375 39.234375 62.25 
Q 35.15625 65.921875 28.609375 65.921875 
Q 23.96875 65.921875 18.8125 64.3125 
Q 13.671875 62.703125 7.8125 59.421875 
L 7.8125 69.390625 
Q 13.765625 71.78125 18.9375 73 
Q 24.125 74.21875 28.421875 74.21875 
Q 39.75 74.21875 46.484375 68.546875 
Q 53.21875 62.890625 53.21875 53.421875 
Q 53.21875 48.921875 51.53125 44.890625 
Q 49.859375 40.875 45.40625 35.40625 
Q 44.1875 33.984375 37.640625 27.21875 
Q 31.109375 20.453125 19.1875 8.296875 
z
" id="DejaVuSans-32"/>
      </defs>
      <g transform="translate(269.6375 329.598437)scale(0.1 -0.1)">
       <use xlink:href="#DejaVuSans-32"/>
       <use x="63.623047" xlink:href="#DejaVuSans-30"/>
      </g>
     </g>
    </g>
    <g id="xtick_4">
     <g id="line2d_4">
      <g>
       <use style="stroke:#000000;stroke-width:0.8;" x="369" xlink:href="#mc4a4f9918f" y="315"/>
      </g>
     </g>
     <g id="text_4">
      <!-- 30 -->
      <defs>
       <path d="M 40.578125 39.3125 
Q 47.65625 37.796875 51.625 33 
Q 55.609375 28.21875 55.609375 21.1875 
Q 55.609375 10.40625 48.1875 4.484375 
Q 40.765625 -1.421875 27.09375 -1.421875 
Q 22.515625 -1.421875 17.65625 -0.515625 
Q 12.796875 0.390625 7.625 2.203125 
L 7.625 11.71875 
Q 11.71875 9.328125 16.59375 8.109375 
Q 21.484375 6.890625 26.8125 6.890625 
Q 36.078125 6.890625 40.9375 10.546875 
Q 45.796875 14.203125 45.796875 21.1875 
Q 45.796875 27.640625 41.28125 31.265625 
Q 36.765625 34.90625 28.71875 34.90625 
L 20.21875 34.90625 
L 20.21875 43.015625 
L 29.109375 43.015625 
Q 36.375 43.015625 40.234375 45.921875 
Q 44.09375 48.828125 44.09375 54.296875 
Q 44.09375 59.90625 40.109375 62.90625 
Q 36.140625 65.921875 28.71875 65.921875 
Q 24.65625 65.921875 20.015625 65.03125 
Q 15.375 64.15625 9.8125 62.3125 
L 9.8125 71.09375 
Q 15.4375 72.65625 20.34375 73.4375 
Q 25.25 74.21875 29.59375 74.21875 
Q 40.828125 74.21875 47.359375 69.109375 
Q 53.90625 64.015625 53.90625 55.328125 
Q 53.90625 49.265625 50.4375 45.09375 
Q 46.96875 40.921875 40.578125 39.3125 
z
" id="DejaVuSans-33"/>
      </defs>
      <g transform="translate(362.6375 329.598437)scale(0.1 -0.1)">
       <use xlink:href="#DejaVuSans-33"/>
       <use x="63.623047" xlink:href="#DejaVuSans-30"/>
      </g>
     </g>
    </g>
    <g id="xtick_5">
     <g id="line2d_5">
      <g>
       <use style="stroke:#000000;stroke-width:0.8;" x="462" xlink:href="#mc4a4f9918f" y="315"/>
      </g>
     </g>
     <g id="text_5">
      <!-- 40 -->
      <defs>
       <path d="M 37.796875 64.3125 
L 12.890625 25.390625 
L 37.796875 25.390625 
z
M 35.203125 72.90625 
L 47.609375 72.90625 
L 47.609375 25.390625 
L 58.015625 25.390625 
L 58.015625 17.1875 
L 47.609375 17.1875 
L 47.609375 0 
L 37.796875 0 
L 37.796875 17.1875 
L 4.890625 17.1875 
L 4.890625 26.703125 
z
" id="DejaVuSans-34"/>
      </defs>
      <g transform="translate(455.6375 329.598437)scale(0.1 -0.1)">
       <use xlink:href="#DejaVuSans-34"/>
       <use x="63.623047" xlink:href="#DejaVuSans-30"/>
      </g>
     </g>
    </g>
    <g id="xtick_6">
     <g id="line2d_6">
      <g>
       <use style="stroke:#000000;stroke-width:0.8;" x="555" xlink:href="#mc4a4f9918f" y="315"/>
      </g>
     </g>
     <g id="text_6">
      <!-- 50 -->
      <defs>
       <path d="M 10.796875 72.90625 
L 49.515625 72.90625 
L 49.515625 64.59375 
L 19.828125 64.59375 
L 19.828125 46.734375 
Q 21.96875 47.46875 24.109375 47.828125 
Q 26.265625 48.1875 28.421875 48.1875 
Q 40.625 48.1875 47.75 41.5 
Q 54.890625 34.8125 54.890625 23.390625 
Q 54.890625 11.625 47.5625 5.09375 
Q 40.234375 -1.421875 26.90625 -1.421875 
Q 22.3125 -1.421875 17.546875 -0.640625 
Q 12.796875 0.140625 7.71875 1.703125 
L 7.71875 11.625 
Q 12.109375 9.234375 16.796875 8.0625 
Q 21.484375 6.890625 26.703125 6.890625 
Q 35.15625 6.890625 40.078125 11.328125 
Q 45.015625 15.765625 45.015625 23.390625 
Q 45.015625 31 40.078125 35.4375 
Q 35.15625 39.890625 26.703125 39.890625 
Q 22.75 39.890625 18.8125 39.015625 
Q 14.890625 38.140625 10.796875 36.28125 
z
" id="DejaVuSans-35"/>
      </defs>
      <g transform="translate(548.6375 329.598437)scale(0.1 -0.1)">
       <use xlink:href="#DejaVuSans-35"/>
       <use x="63.623047" xlink:href="#DejaVuSans-30"/>
      </g>
     </g>
    </g>
    <g id="xtick_7">
     <g id="line2d_7">
      <g>
       <use style="stroke:#000000;stroke-width:0.8;" x="648" xlink:href="#mc4a4f9918f" y="315"/>
      </g>
     </g>
     <g id="text_7">
      <!-- 60 -->
      <defs>
       <path d="M 33.015625 40.375 
Q 26.375 40.375 22.484375 35.828125 
Q 18.609375 31.296875 18.609375 23.390625 
Q 18.609375 15.53125 22.484375 10.953125 
Q 26.375 6.390625 33.015625 6.390625 
Q 39.65625 6.390625 43.53125 10.953125 
Q 47.40625 15.53125 47.40625 23.390625 
Q 47.40625 31.296875 43.53125 35.828125 
Q 39.65625 40.375 33.015625 40.375 
z
M 52.59375 71.296875 
L 52.59375 62.3125 
Q 48.875 64.0625 45.09375 64.984375 
Q 41.3125 65.921875 37.59375 65.921875 
Q 27.828125 65.921875 22.671875 59.328125 
Q 17.53125 52.734375 16.796875 39.40625 
Q 19.671875 43.65625 24.015625 45.921875 
Q 28.375 48.1875 33.59375 48.1875 
Q 44.578125 48.1875 50.953125 41.515625 
Q 57.328125 34.859375 57.328125 23.390625 
Q 57.328125 12.15625 50.6875 5.359375 
Q 44.046875 -1.421875 33.015625 -1.421875 
Q 20.359375 -1.421875 13.671875 8.265625 
Q 6.984375 17.96875 6.984375 36.375 
Q 6.984375 53.65625 15.1875 63.9375 
Q 23.390625 74.21875 37.203125 74.21875 
Q 40.921875 74.21875 44.703125 73.484375 
Q 48.484375 72.75 52.59375 71.296875 
z
" id="DejaVuSans-36"/>
      </defs>
      <g transform="translate(641.6375 329.598437)scale(0.1 -0.1)">
       <use xlink:href="#DejaVuSans-36"/>
       <use x="63.623047" xlink:href="#DejaVuSans-30"/>
      </g>
     </g>
    </g>
    <g id="text_8">
     <!-- iterations -->
     <defs>
      <path d="M 9.421875 54.6875 
L 18.40625 54.6875 
L 18.40625 0 
L 9.421875 0 
z
M 9.421875 75.984375 
L 18.40625 75.984375 
L 18.40625 64.59375 
L 9.421875 64.59375 
z
" id="DejaVuSans-69"/>
      <path d="M 18.3125 70.21875 
L 18.3125 54.6875 
L 36.8125 54.6875 
L 36.8125 47.703125 
L 18.3125 47.703125 
L 18.3125 18.015625 
Q 18.3125 11.328125 20.140625 9.421875 
Q 21.96875 7.515625 27.59375 7.515625 
L 36.8125 7.515625 
L 36.8125 0 
L 27.59375 0 
Q 17.1875 0 13.234375 3.875 
Q 9.28125 7.765625 9.28125 18.015625 
L 9.28125 47.703125 
L 2.6875 47.703125 
L 2.6875 54.6875 
L 9.28125 54.6875 
L 9.28125 70.21875 
z
" id="DejaVuSans-74"/>
      <path d="M 56.203125 29.59375 
L 56.203125 25.203125 
L 14.890625 25.203125 
Q 15.484375 15.921875 20.484375 11.0625 
Q 25.484375 6.203125 34.421875 6.203125 
Q 39.59375 6.203125 44.453125 7.46875 
Q 49.3125 8.734375 54.109375 11.28125 
L 54.109375 2.78125 
Q 49.265625 0.734375 44.1875 -0.34375 
Q 39.109375 -1.421875 33.890625 -1.421875 
Q 20.796875 -1.421875 13.15625 6.1875 
Q 5.515625 13.8125 5.515625 26.8125 
Q 5.515625 40.234375 12.765625 48.109375 
Q 20.015625 56 32.328125 56 
Q 43.359375 56 49.78125 48.890625 
Q 56.203125 41.796875 56.203125 29.59375 
z
M 47.21875 32.234375 
Q 47.125 39.59375 43.09375 43.984375 
Q 39.0625 48.390625 32.421875 48.390625 
Q 24.90625 48.390625 20.390625 44.140625 
Q 15.875 39.890625 15.1875 32.171875 
z
" id="DejaVuSans-65"/>
      <path d="M 41.109375 46.296875 
Q 39.59375 47.171875 37.8125 47.578125 
Q 36.03125 48 33.890625 48 
Q 26.265625 48 22.1875 43.046875 
Q 18.109375 38.09375 18.109375 28.8125 
L 18.109375 0 
L 9.078125 0 
L 9.078125 54.6875 
L 18.109375 54.6875 
L 18.109375 46.1875 
Q 20.953125 51.171875 25.484375 53.578125 
Q 30.03125 56 36.53125 56 
Q 37.453125 56 38.578125 55.875 
Q 39.703125 55.765625 41.0625 55.515625 
z
" id="DejaVuSans-72"/>
      <path d="M 34.28125 27.484375 
Q 23.390625 27.484375 19.1875 25 
Q 14.984375 22.515625 14.984375 16.5 
Q 14.984375 11.71875 18.140625 8.90625 
Q 21.296875 6.109375 26.703125 6.109375 
Q 34.1875 6.109375 38.703125 11.40625 
Q 43.21875 16.703125 43.21875 25.484375 
L 43.21875 27.484375 
z
M 52.203125 31.203125 
L 52.203125 0 
L 43.21875 0 
L 43.21875 8.296875 
Q 40.140625 3.328125 35.546875 0.953125 
Q 30.953125 -1.421875 24.3125 -1.421875 
Q 15.921875 -1.421875 10.953125 3.296875 
Q 6 8.015625 6 15.921875 
Q 6 25.140625 12.171875 29.828125 
Q 18.359375 34.515625 30.609375 34.515625 
L 43.21875 34.515625 
L 43.21875 35.40625 
Q 43.21875 41.609375 39.140625 45 
Q 35.0625 48.390625 27.6875 48.390625 
Q 23 48.390625 18.546875 47.265625 
Q 14.109375 46.140625 10.015625 43.890625 
L 10.015625 52.203125 
Q 14.9375 54.109375 19.578125 55.046875 
Q 24.21875 56 28.609375 56 
Q 40.484375 56 46.34375 49.84375 
Q 52.203125 43.703125 52.203125 31.203125 
z
" id="DejaVuSans-61"/>
      <path d="M 30.609375 48.390625 
Q 23.390625 48.390625 19.1875 42.75 
Q 14.984375 37.109375 14.984375 27.296875 
Q 14.984375 17.484375 19.15625 11.84375 
Q 23.34375 6.203125 30.609375 6.203125 
Q 37.796875 6.203125 41.984375 11.859375 
Q 46.1875 17.53125 46.1875 27.296875 
Q 46.1875 37.015625 41.984375 42.703125 
Q 37.796875 48.390625 30.609375 48.390625 
z
M 30.609375 56 
Q 42.328125 56 49.015625 48.375 
Q 55.71875 40.765625 55.71875 27.296875 
Q 55.71875 13.875 49.015625 6.21875 
Q 42.328125 -1.421875 30.609375 -1.421875 
Q 18.84375 -1.421875 12.171875 6.21875 
Q 5.515625 13.875 5.515625 27.296875 
Q 5.515625 40.765625 12.171875 48.375 
Q 18.84375 56 30.609375 56 
z
" id="DejaVuSans-6f"/>
      <path d="M 54.890625 33.015625 
L 54.890625 0 
L 45.90625 0 
L 45.90625 32.71875 
Q 45.90625 40.484375 42.875 44.328125 
Q 39.84375 48.1875 33.796875 48.1875 
Q 26.515625 48.1875 22.3125 43.546875 
Q 18.109375 38.921875 18.109375 30.90625 
L 18.109375 0 
L 9.078125 0 
L 9.078125 54.6875 
L 18.109375 54.6875 
L 18.109375 46.1875 
Q 21.34375 51.125 25.703125 53.5625 
Q 30.078125 56 35.796875 56 
Q 45.21875 56 50.046875 50.171875 
Q 54.890625 44.34375 54.890625 33.015625 
z
" id="DejaVuSans-6e"/>
      <path d="M 44.28125 53.078125 
L 44.28125 44.578125 
Q 40.484375 46.53125 36.375 47.5 
Q 32.28125 48.484375 27.875 48.484375 
Q 21.1875 48.484375 17.84375 46.4375 
Q 14.5 44.390625 14.5 40.28125 
Q 14.5 37.15625 16.890625 35.375 
Q 19.28125 33.59375 26.515625 31.984375 
L 29.59375 31.296875 
Q 39.15625 29.25 43.1875 25.515625 
Q 47.21875 21.78125 47.21875 15.09375 
Q 47.21875 7.46875 41.1875 3.015625 
Q 35.15625 -1.421875 24.609375 -1.421875 
Q 20.21875 -1.421875 15.453125 -0.5625 
Q 10.6875 0.296875 5.421875 2 
L 5.421875 11.28125 
Q 10.40625 8.6875 15.234375 7.390625 
Q 20.0625 6.109375 24.8125 6.109375 
Q 31.15625 6.109375 34.5625 8.28125 
Q 37.984375 10.453125 37.984375 14.40625 
Q 37.984375 18.0625 35.515625 20.015625 
Q 33.0625 21.96875 24.703125 23.78125 
L 21.578125 24.515625 
Q 13.234375 26.265625 9.515625 29.90625 
Q 5.8125 33.546875 5.8125 39.890625 
Q 5.8125 47.609375 11.28125 51.796875 
Q 16.75 56 26.8125 56 
Q 31.78125 56 36.171875 55.265625 
Q 40.578125 54.546875 44.28125 53.078125 
z
" id="DejaVuSans-73"/>
     </defs>
     <g transform="translate(345.272656 343.276563)scale(0.1 -0.1)">
      <use xlink:href="#DejaVuSans-69"/>
      <use x="27.783203" xlink:href="#DejaVuSans-74"/>
      <use x="66.992188" xlink:href="#DejaVuSans-65"/>
      <use x="128.515625" xlink:href="#DejaVuSans-72"/>
      <use x="169.628906" xlink:href="#DejaVuSans-61"/>
      <use x="230.908203" xlink:href="#DejaVuSans-74"/>
      <use x="270.117188" xlink:href="#DejaVuSans-69"/>
      <use x="297.900391" xlink:href="#DejaVuSans-6f"/>
      <use x="359.082031" xlink:href="#DejaVuSans-6e"/>
      <use x="422.460938" xlink:href="#DejaVuSans-73"/>
     </g>
    </g>
   </g>
   <g id="matplotlib.axis_2">
    <g id="ytick_1">
     <g id="line2d_8">
      <defs>
       <path d="M 0 0 
L -3.5 0 
" id="m656eec138b" style="stroke:#000000;stroke-width:0.8;"/>
      </defs>
      <g>
       <use style="stroke:#000000;stroke-width:0.8;" x="90" xlink:href="#m656eec138b" y="276.518658"/>
      </g>
     </g>
     <g id="text_9">
      <!-- 0 -->
      <g transform="translate(76.6375 280.317877)scale(0.1 -0.1)">
       <use xlink:href="#DejaVuSans-30"/>
      </g>
     </g>
    </g>
    <g id="ytick_2">
     <g id="line2d_9">
      <g>
       <use style="stroke:#000000;stroke-width:0.8;" x="90" xlink:href="#m656eec138b" y="231.274906"/>
      </g>
     </g>
     <g id="text_10">
      <!-- 10 -->
      <g transform="translate(70.275 235.074124)scale(0.1 -0.1)">
       <use xlink:href="#DejaVuSans-31"/>
       <use x="63.623047" xlink:href="#DejaVuSans-30"/>
      </g>
     </g>
    </g>
    <g id="ytick_3">
     <g id="line2d_10">
      <g>
       <use style="stroke:#000000;stroke-width:0.8;" x="90" xlink:href="#m656eec138b" y="186.031154"/>
      </g>
     </g>
     <g id="text_11">
      <!-- 20 -->
      <g transform="translate(70.275 189.830372)scale(0.1 -0.1)">
       <use xlink:href="#DejaVuSans-32"/>
       <use x="63.623047" xlink:href="#DejaVuSans-30"/>
      </g>
     </g>
    </g>
    <g id="ytick_4">
     <g id="line2d_11">
      <g>
       <use style="stroke:#000000;stroke-width:0.8;" x="90" xlink:href="#m656eec138b" y="140.787401"/>
      </g>
     </g>
     <g id="text_12">
      <!-- 30 -->
      <g transform="translate(70.275 144.58662)scale(0.1 -0.1)">
       <use xlink:href="#DejaVuSans-33"/>
       <use x="63.623047" xlink:href="#DejaVuSans-30"/>
      </g>
     </g>
    </g>
    <g id="ytick_5">
     <g id="line2d_12">
      <g>
       <use style="stroke:#000000;stroke-width:0.8;" x="90" xlink:href="#m656eec138b" y="95.543649"/>
      </g>
     </g>
     <g id="text_13">
      <!-- 40 -->
      <g transform="translate(70.275 99.342868)scale(0.1 -0.1)">
       <use xlink:href="#DejaVuSans-34"/>
       <use x="63.623047" xlink:href="#DejaVuSans-30"/>
      </g>
     </g>
    </g>
    <g id="ytick_6">
     <g id="line2d_13">
      <g>
       <use style="stroke:#000000;stroke-width:0.8;" x="90" xlink:href="#m656eec138b" y="50.299897"/>
      </g>
     </g>
     <g id="text_14">
      <!-- 50 -->
      <g transform="translate(70.275 54.099116)scale(0.1 -0.1)">
       <use xlink:href="#DejaVuSans-35"/>
       <use x="63.623047" xlink:href="#DejaVuSans-30"/>
      </g>
     </g>
    </g>
    <g id="text_15">
     <!-- samples_episode_reward_mean -->
     <defs>
      <path d="M 52 44.1875 
Q 55.375 50.25 60.0625 53.125 
Q 64.75 56 71.09375 56 
Q 79.640625 56 84.28125 50.015625 
Q 88.921875 44.046875 88.921875 33.015625 
L 88.921875 0 
L 79.890625 0 
L 79.890625 32.71875 
Q 79.890625 40.578125 77.09375 44.375 
Q 74.3125 48.1875 68.609375 48.1875 
Q 61.625 48.1875 57.5625 43.546875 
Q 53.515625 38.921875 53.515625 30.90625 
L 53.515625 0 
L 44.484375 0 
L 44.484375 32.71875 
Q 44.484375 40.625 41.703125 44.40625 
Q 38.921875 48.1875 33.109375 48.1875 
Q 26.21875 48.1875 22.15625 43.53125 
Q 18.109375 38.875 18.109375 30.90625 
L 18.109375 0 
L 9.078125 0 
L 9.078125 54.6875 
L 18.109375 54.6875 
L 18.109375 46.1875 
Q 21.1875 51.21875 25.484375 53.609375 
Q 29.78125 56 35.6875 56 
Q 41.65625 56 45.828125 52.96875 
Q 50 49.953125 52 44.1875 
z
" id="DejaVuSans-6d"/>
      <path d="M 18.109375 8.203125 
L 18.109375 -20.796875 
L 9.078125 -20.796875 
L 9.078125 54.6875 
L 18.109375 54.6875 
L 18.109375 46.390625 
Q 20.953125 51.265625 25.265625 53.625 
Q 29.59375 56 35.59375 56 
Q 45.5625 56 51.78125 48.09375 
Q 58.015625 40.1875 58.015625 27.296875 
Q 58.015625 14.40625 51.78125 6.484375 
Q 45.5625 -1.421875 35.59375 -1.421875 
Q 29.59375 -1.421875 25.265625 0.953125 
Q 20.953125 3.328125 18.109375 8.203125 
z
M 48.6875 27.296875 
Q 48.6875 37.203125 44.609375 42.84375 
Q 40.53125 48.484375 33.40625 48.484375 
Q 26.265625 48.484375 22.1875 42.84375 
Q 18.109375 37.203125 18.109375 27.296875 
Q 18.109375 17.390625 22.1875 11.75 
Q 26.265625 6.109375 33.40625 6.109375 
Q 40.53125 6.109375 44.609375 11.75 
Q 48.6875 17.390625 48.6875 27.296875 
z
" id="DejaVuSans-70"/>
      <path d="M 9.421875 75.984375 
L 18.40625 75.984375 
L 18.40625 0 
L 9.421875 0 
z
" id="DejaVuSans-6c"/>
      <path d="M 50.984375 -16.609375 
L 50.984375 -23.578125 
L -0.984375 -23.578125 
L -0.984375 -16.609375 
z
" id="DejaVuSans-5f"/>
      <path d="M 45.40625 46.390625 
L 45.40625 75.984375 
L 54.390625 75.984375 
L 54.390625 0 
L 45.40625 0 
L 45.40625 8.203125 
Q 42.578125 3.328125 38.25 0.953125 
Q 33.9375 -1.421875 27.875 -1.421875 
Q 17.96875 -1.421875 11.734375 6.484375 
Q 5.515625 14.40625 5.515625 27.296875 
Q 5.515625 40.1875 11.734375 48.09375 
Q 17.96875 56 27.875 56 
Q 33.9375 56 38.25 53.625 
Q 42.578125 51.265625 45.40625 46.390625 
z
M 14.796875 27.296875 
Q 14.796875 17.390625 18.875 11.75 
Q 22.953125 6.109375 30.078125 6.109375 
Q 37.203125 6.109375 41.296875 11.75 
Q 45.40625 17.390625 45.40625 27.296875 
Q 45.40625 37.203125 41.296875 42.84375 
Q 37.203125 48.484375 30.078125 48.484375 
Q 22.953125 48.484375 18.875 42.84375 
Q 14.796875 37.203125 14.796875 27.296875 
z
" id="DejaVuSans-64"/>
      <path d="M 4.203125 54.6875 
L 13.1875 54.6875 
L 24.421875 12.015625 
L 35.59375 54.6875 
L 46.1875 54.6875 
L 57.421875 12.015625 
L 68.609375 54.6875 
L 77.59375 54.6875 
L 63.28125 0 
L 52.6875 0 
L 40.921875 44.828125 
L 29.109375 0 
L 18.5 0 
z
" id="DejaVuSans-77"/>
     </defs>
     <g transform="translate(63.917187 258.630469)rotate(-90)scale(0.1 -0.1)">
      <use xlink:href="#DejaVuSans-73"/>
      <use x="52.099609" xlink:href="#DejaVuSans-61"/>
      <use x="113.378906" xlink:href="#DejaVuSans-6d"/>
      <use x="210.791016" xlink:href="#DejaVuSans-70"/>
      <use x="274.267578" xlink:href="#DejaVuSans-6c"/>
      <use x="302.050781" xlink:href="#DejaVuSans-65"/>
      <use x="363.574219" xlink:href="#DejaVuSans-73"/>
      <use x="415.673828" xlink:href="#DejaVuSans-5f"/>
      <use x="465.673828" xlink:href="#DejaVuSans-65"/>
      <use x="527.197266" xlink:href="#DejaVuSans-70"/>
      <use x="590.673828" xlink:href="#DejaVuSans-69"/>
      <use x="618.457031" xlink:href="#DejaVuSans-73"/>
      <use x="670.556641" xlink:href="#DejaVuSans-6f"/>
      <use x="731.738281" xlink:href="#DejaVuSans-64"/>
      <use x="795.214844" xlink:href="#DejaVuSans-65"/>
      <use x="856.738281" xlink:href="#DejaVuSans-5f"/>
      <use x="906.738281" xlink:href="#DejaVuSans-72"/>
      <use x="947.820312" xlink:href="#DejaVuSans-65"/>
      <use x="1009.34375" xlink:href="#DejaVuSans-77"/>
      <use x="1091.130859" xlink:href="#DejaVuSans-61"/>
      <use x="1152.410156" xlink:href="#DejaVuSans-72"/>
      <use x="1193.507812" xlink:href="#DejaVuSans-64"/>
      <use x="1256.984375" xlink:href="#DejaVuSans-5f"/>
      <use x="1306.984375" xlink:href="#DejaVuSans-6d"/>
      <use x="1404.396484" xlink:href="#DejaVuSans-65"/>
      <use x="1465.919922" xlink:href="#DejaVuSans-61"/>
      <use x="1527.199219" xlink:href="#DejaVuSans-6e"/>
     </g>
    </g>
   </g>
   <g id="line2d_14">
    <path clip-path="url(#p3b9578b932)" d="M 90 294.00133 
L 99.3 245.595365 
L 108.6 250.690166 
L 117.9 226.87895 
L 127.2 228.981585 
L 136.5 229.958645 
L 145.8 232.019131 
L 155.1 232.632811 
L 164.4 218.58256 
L 173.7 200.810694 
L 183 231.149672 
L 192.3 224.39483 
L 201.6 225.388484 
L 210.9 212.763574 
L 220.2 213.415293 
L 229.5 211.294042 
L 238.8 188.735638 
L 248.1 219.541131 
L 257.4 212.699022 
L 266.7 196.692605 
L 276 217.339433 
L 285.3 199.398675 
L 294.6 213.838883 
L 303.9 207.141994 
L 313.2 190.071711 
L 322.5 199.40438 
L 331.8 201.801584 
L 341.1 208.113848 
L 350.4 198.033969 
L 359.7 192.208298 
L 369 197.348323 
L 378.3 181.241946 
L 387.6 192.366962 
L 396.9 183.948207 
L 406.2 165.829745 
L 415.5 190.925743 
L 424.8 198.921448 
L 434.1 200.555922 
L 443.4 195.081629 
L 452.7 188.433066 
L 462 181.033651 
L 471.3 176.880656 
L 480.6 208.212472 
L 489.9 197.380165 
L 499.2 179.473281 
L 508.5 206.212165 
L 517.8 192.141288 
L 527.1 209.165335 
L 536.4 195.193143 
L 545.7 186.432288 
L 555 197.47109 
L 564.3 186.448158 
L 573.6 198.336074 
L 582.9 183.990214 
L 592.2 180.790562 
L 601.5 185.783312 
L 610.8 177.415253 
L 620.1 189.363223 
L 629.4 181.797572 
L 638.7 169.914747 
" style="fill:none;opacity:0.5;stroke:#808080;stroke-dasharray:;stroke-dashoffset:0;stroke-width:1.5;"/>
   </g>
   <g id="line2d_15">
    <path clip-path="url(#p3b9578b932)" d="M 90 291.143489 
L 99.3 243.732622 
L 108.6 237.878495 
L 117.9 234.831053 
L 127.2 233.470897 
L 136.5 228.938436 
L 145.8 228.733775 
L 155.1 216.527418 
L 164.4 219.423709 
L 173.7 219.580528 
L 183 211.993513 
L 192.3 221.068064 
L 201.6 196.873986 
L 210.9 212.104991 
L 220.2 206.496026 
L 229.5 223.402311 
L 238.8 210.72549 
L 248.1 208.104301 
L 257.4 218.654521 
L 266.7 208.601807 
L 276 211.001951 
L 285.3 182.315296 
L 294.6 194.309346 
L 303.9 212.535208 
L 313.2 205.779327 
L 322.5 193.499198 
L 331.8 198.292882 
L 341.1 205.114689 
L 350.4 203.923128 
L 359.7 205.004307 
L 369 206.968852 
L 378.3 208.897414 
L 387.6 203.695109 
L 396.9 199.066549 
L 406.2 200.647934 
L 415.5 205.1844 
L 424.8 205.730535 
L 434.1 184.261641 
L 443.4 198.382599 
L 452.7 197.894851 
L 462 205.579962 
L 471.3 190.885596 
L 480.6 200.347931 
L 489.9 206.505057 
L 499.2 195.937304 
L 508.5 207.743461 
L 517.8 171.292833 
L 527.1 184.287396 
L 536.4 209.706386 
L 545.7 196.532404 
L 555 193.010387 
L 564.3 189.585232 
L 573.6 195.826272 
L 582.9 196.224587 
L 592.2 191.555292 
L 601.5 198.63815 
L 610.8 189.363825 
L 620.1 202.836884 
L 629.4 190.8168 
L 638.7 182.447642 
" style="fill:none;opacity:0.5;stroke:#808080;stroke-dasharray:;stroke-dashoffset:0;stroke-width:1.5;"/>
   </g>
   <g id="line2d_16">
    <path clip-path="url(#p3b9578b932)" d="M 90 292.32514 
L 99.3 233.685776 
L 108.6 233.66186 
L 117.9 219.799808 
L 127.2 219.574225 
L 136.5 218.564453 
L 145.8 238.611471 
L 155.1 214.15745 
L 164.4 223.515317 
L 173.7 214.896657 
L 183 201.139683 
L 192.3 207.370094 
L 201.6 217.111727 
L 210.9 203.71327 
L 220.2 218.799262 
L 229.5 223.544797 
L 238.8 197.438424 
L 248.1 221.967423 
L 257.4 219.03754 
L 266.7 217.805406 
L 276 205.44042 
L 285.3 216.397094 
L 294.6 207.00792 
L 303.9 216.049133 
L 313.2 198.563157 
L 322.5 209.345597 
L 331.8 197.471037 
L 341.1 208.297708 
L 350.4 202.484002 
L 359.7 191.491285 
L 369 208.719556 
L 378.3 208.14615 
L 387.6 206.193657 
L 396.9 198.803855 
L 406.2 202.42845 
L 415.5 179.457851 
L 424.8 194.393243 
L 434.1 202.60288 
L 443.4 188.734327 
L 452.7 200.855055 
L 462 207.39306 
L 471.3 192.895895 
L 480.6 216.526408 
L 489.9 211.636063 
L 499.2 204.800316 
L 508.5 207.044086 
L 517.8 215.891894 
L 527.1 203.91893 
L 536.4 203.3916 
L 545.7 190.045442 
L 555 200.670845 
L 564.3 190.7339 
L 573.6 193.676753 
L 582.9 190.884333 
L 592.2 194.5616 
L 601.5 203.271575 
L 610.8 202.031984 
L 620.1 201.352363 
L 629.4 197.322965 
L 638.7 204.00226 
" style="fill:none;opacity:0.5;stroke:#808080;stroke-dasharray:;stroke-dashoffset:0;stroke-width:1.5;"/>
   </g>
   <g id="line2d_17">
    <path clip-path="url(#p3b9578b932)" d="M 90 297.363202 
L 99.3 234.803761 
L 108.6 227.798238 
L 117.9 232.348261 
L 127.2 242.46057 
L 136.5 235.762944 
L 145.8 232.501181 
L 155.1 216.858502 
L 164.4 230.251088 
L 173.7 222.882566 
L 183 216.436531 
L 192.3 231.150427 
L 201.6 219.694136 
L 210.9 221.370795 
L 220.2 216.17019 
L 229.5 222.900393 
L 238.8 210.271692 
L 248.1 221.387658 
L 257.4 209.362759 
L 266.7 212.147884 
L 276 213.245725 
L 285.3 209.71379 
L 294.6 207.284015 
L 303.9 221.867758 
L 313.2 206.613386 
L 322.5 208.864376 
L 331.8 191.96076 
L 341.1 209.234625 
L 350.4 207.339582 
L 359.7 222.025194 
L 369 211.421862 
L 378.3 209.983736 
L 387.6 205.056547 
L 396.9 221.037381 
L 406.2 210.840311 
L 415.5 202.832554 
L 424.8 209.904002 
L 434.1 207.036027 
L 443.4 203.561317 
L 452.7 201.977754 
L 462 198.450335 
L 471.3 202.125815 
L 480.6 207.314689 
L 489.9 196.767608 
L 499.2 196.191239 
L 508.5 200.180031 
L 517.8 191.813174 
L 527.1 195.898197 
L 536.4 210.698661 
L 545.7 203.504104 
L 555 212.755974 
L 564.3 183.052637 
L 573.6 204.471344 
L 582.9 200.234713 
L 592.2 210.232579 
L 601.5 196.237385 
L 610.8 204.200437 
L 620.1 197.258172 
L 629.4 206.550122 
L 638.7 200.507233 
" style="fill:none;opacity:0.5;stroke:#808080;stroke-dasharray:;stroke-dashoffset:0;stroke-width:1.5;"/>
   </g>
   <g id="line2d_18">
    <path clip-path="url(#p3b9578b932)" d="M 90 301.235625 
L 99.3 229.745685 
L 108.6 227.172251 
L 117.9 232.372809 
L 127.2 243.888446 
L 136.5 216.054157 
L 145.8 229.137154 
L 155.1 208.029748 
L 164.4 217.013613 
L 173.7 218.827594 
L 183 215.794191 
L 192.3 216.953757 
L 201.6 204.093211 
L 210.9 200.29071 
L 220.2 204.754944 
L 229.5 211.807653 
L 238.8 211.479275 
L 248.1 219.500576 
L 257.4 218.179613 
L 266.7 210.238549 
L 276 207.200928 
L 285.3 211.969971 
L 294.6 210.062594 
L 303.9 217.93486 
L 313.2 225.387067 
L 322.5 212.221358 
L 331.8 193.018929 
L 341.1 190.188162 
L 350.4 199.116788 
L 359.7 203.703897 
L 369 178.556925 
L 378.3 197.859296 
L 387.6 191.470931 
L 396.9 181.939087 
L 406.2 186.667884 
L 415.5 189.126071 
L 424.8 201.596889 
L 434.1 186.743324 
L 443.4 181.376258 
L 452.7 188.95741 
L 462 196.276882 
L 471.3 188.362773 
L 480.6 202.637995 
L 489.9 196.266335 
L 499.2 201.330736 
L 508.5 189.454314 
L 517.8 201.000562 
L 527.1 190.840636 
L 536.4 209.053201 
L 545.7 203.496017 
L 555 197.903546 
L 564.3 185.643609 
L 573.6 181.892083 
L 582.9 186.043554 
L 592.2 200.275368 
L 601.5 173.32469 
L 610.8 192.130194 
L 620.1 188.614105 
L 629.4 179.417907 
L 638.7 187.861928 
" style="fill:none;opacity:0.5;stroke:#808080;stroke-dasharray:;stroke-dashoffset:0;stroke-width:1.5;"/>
   </g>
   <g id="line2d_19">
    <path clip-path="url(#p3b9578b932)" d="M 90 287.902997 
L 99.3 243.700558 
L 108.6 233.050445 
L 117.9 219.302984 
L 127.2 221.281051 
L 136.5 232.815029 
L 145.8 214.498094 
L 155.1 231.165945 
L 164.4 228.622846 
L 173.7 206.351159 
L 183 210.217735 
L 192.3 209.534409 
L 201.6 215.376246 
L 210.9 215.091936 
L 220.2 215.830185 
L 229.5 224.564687 
L 238.8 219.05039 
L 248.1 218.957471 
L 257.4 212.614803 
L 266.7 211.483738 
L 276 214.283071 
L 285.3 213.072862 
L 294.6 202.559348 
L 303.9 210.431634 
L 313.2 207.301457 
L 322.5 201.601681 
L 331.8 194.221837 
L 341.1 201.95015 
L 350.4 185.929138 
L 359.7 199.275871 
L 369 208.487572 
L 378.3 183.319315 
L 387.6 206.8375 
L 396.9 196.928197 
L 406.2 191.386664 
L 415.5 183.147635 
L 424.8 193.287788 
L 434.1 201.263918 
L 443.4 197.716602 
L 452.7 204.704272 
L 462 202.967658 
L 471.3 202.444069 
L 480.6 194.766689 
L 489.9 202.419544 
L 499.2 193.744587 
L 508.5 192.965784 
L 517.8 202.454925 
L 527.1 191.881343 
L 536.4 200.861634 
L 545.7 192.688621 
L 555 185.072751 
L 564.3 185.623678 
L 573.6 188.399995 
L 582.9 173.174658 
L 592.2 186.159946 
L 601.5 196.879322 
L 610.8 177.962742 
L 620.1 194.872672 
L 629.4 189.757139 
L 638.7 183.20262 
" style="fill:none;opacity:0.5;stroke:#808080;stroke-dasharray:;stroke-dashoffset:0;stroke-width:1.5;"/>
   </g>
   <g id="line2d_20">
    <path clip-path="url(#p3b9578b932)" d="M 90 290.310373 
L 99.3 245.148926 
L 108.6 242.194355 
L 117.9 237.237258 
L 127.2 222.794477 
L 136.5 220.037442 
L 145.8 218.053416 
L 155.1 216.051023 
L 164.4 220.17007 
L 173.7 209.285199 
L 183 219.508064 
L 192.3 206.794436 
L 201.6 208.312195 
L 210.9 212.1969 
L 220.2 201.671682 
L 229.5 223.564192 
L 238.8 202.417948 
L 248.1 220.161321 
L 257.4 200.206235 
L 266.7 200.877163 
L 276 209.163459 
L 285.3 200.496335 
L 294.6 211.930318 
L 303.9 188.01356 
L 313.2 201.761307 
L 322.5 193.823871 
L 331.8 197.931503 
L 341.1 197.639044 
L 350.4 203.689285 
L 359.7 183.964832 
L 369 187.383224 
L 378.3 194.476664 
L 387.6 195.812992 
L 396.9 205.336982 
L 406.2 201.362659 
L 415.5 201.008636 
L 424.8 185.890582 
L 434.1 200.043618 
L 443.4 193.451283 
L 452.7 193.318009 
L 462 204.25371 
L 471.3 183.995 
L 480.6 195.904358 
L 489.9 190.203711 
L 499.2 188.777585 
L 508.5 195.693675 
L 517.8 184.011397 
L 527.1 202.396149 
L 536.4 173.375378 
L 545.7 190.813031 
L 555 184.990325 
L 564.3 190.516033 
L 573.6 191.279156 
L 582.9 199.095523 
L 592.2 180.33016 
L 601.5 181.876319 
L 610.8 189.921746 
L 620.1 182.598451 
L 629.4 192.237052 
L 638.7 192.527215 
" style="fill:none;opacity:0.5;stroke:#808080;stroke-dasharray:;stroke-dashoffset:0;stroke-width:1.5;"/>
   </g>
   <g id="line2d_21">
    <path clip-path="url(#p3b9578b932)" d="M 90 297.680557 
L 99.3 231.102718 
L 108.6 248.056213 
L 117.9 233.853589 
L 127.2 235.514574 
L 136.5 239.417814 
L 145.8 219.134772 
L 155.1 228.878278 
L 164.4 216.881143 
L 173.7 220.246135 
L 183 225.638478 
L 192.3 224.072751 
L 201.6 202.612618 
L 210.9 195.636063 
L 220.2 208.8593 
L 229.5 222.342464 
L 238.8 212.31078 
L 248.1 204.963826 
L 257.4 208.825268 
L 266.7 208.938309 
L 276 208.293199 
L 285.3 205.245464 
L 294.6 202.161513 
L 303.9 204.256526 
L 313.2 205.006755 
L 322.5 210.28988 
L 331.8 189.434454 
L 341.1 206.203356 
L 350.4 194.081408 
L 359.7 220.146144 
L 369 211.638834 
L 378.3 204.311569 
L 387.6 202.499011 
L 396.9 193.488645 
L 406.2 199.376829 
L 415.5 212.217382 
L 424.8 219.628973 
L 434.1 184.071492 
L 443.4 184.608487 
L 452.7 196.829343 
L 462 209.133245 
L 471.3 198.63145 
L 480.6 197.257531 
L 489.9 200.559687 
L 499.2 198.43111 
L 508.5 208.512367 
L 517.8 198.330863 
L 527.1 186.105495 
L 536.4 205.452741 
L 545.7 199.397578 
L 555 192.738457 
L 564.3 182.743903 
L 573.6 205.65739 
L 582.9 178.868122 
L 592.2 210.470011 
L 601.5 204.281029 
L 610.8 201.018379 
L 620.1 186.430299 
L 629.4 191.957846 
L 638.7 192.293317 
" style="fill:none;opacity:0.5;stroke:#808080;stroke-dasharray:;stroke-dashoffset:0;stroke-width:1.5;"/>
   </g>
   <g id="line2d_22">
    <path clip-path="url(#p3b9578b932)" d="M 90 296.680922 
L 99.3 242.977272 
L 108.6 238.258325 
L 117.9 232.540901 
L 127.2 231.803303 
L 136.5 239.372493 
L 145.8 234.965776 
L 155.1 229.806416 
L 164.4 227.305684 
L 173.7 222.190476 
L 183 224.770059 
L 192.3 217.220961 
L 201.6 223.39138 
L 210.9 218.403392 
L 220.2 207.660316 
L 229.5 205.898508 
L 238.8 218.373297 
L 248.1 205.443516 
L 257.4 202.706743 
L 266.7 221.228666 
L 276 203.819516 
L 285.3 203.309557 
L 294.6 188.971709 
L 303.9 182.865697 
L 313.2 207.407014 
L 322.5 207.617895 
L 331.8 218.484492 
L 341.1 197.818643 
L 350.4 198.893227 
L 359.7 203.751994 
L 369 211.643979 
L 378.3 200.263495 
L 387.6 200.474705 
L 396.9 198.006282 
L 406.2 190.670275 
L 415.5 204.422697 
L 424.8 199.325678 
L 434.1 199.025112 
L 443.4 199.97403 
L 452.7 188.108368 
L 462 188.509143 
L 471.3 196.682684 
L 480.6 187.106019 
L 489.9 195.411217 
L 499.2 211.621261 
L 508.5 189.203703 
L 517.8 193.173164 
L 527.1 173.427166 
L 536.4 170.377063 
L 545.7 192.190955 
L 555 194.937816 
L 564.3 208.258782 
L 573.6 196.97395 
L 582.9 197.265169 
L 592.2 193.319006 
L 601.5 199.918337 
L 610.8 190.29498 
L 620.1 197.740897 
L 629.4 190.884983 
L 638.7 187.428906 
" style="fill:none;opacity:0.5;stroke:#808080;stroke-dasharray:;stroke-dashoffset:0;stroke-width:1.5;"/>
   </g>
   <g id="line2d_23">
    <path clip-path="url(#p3b9578b932)" d="M 90 296.367283 
L 99.3 234.813339 
L 108.6 238.21674 
L 117.9 233.012021 
L 127.2 227.622621 
L 136.5 213.780203 
L 145.8 211.108275 
L 155.1 216.572927 
L 164.4 227.221605 
L 173.7 236.724645 
L 183 215.625822 
L 192.3 206.620742 
L 201.6 217.056574 
L 210.9 204.512545 
L 220.2 220.483299 
L 229.5 209.267602 
L 238.8 210.267567 
L 248.1 217.526499 
L 257.4 205.246556 
L 266.7 210.343868 
L 276 198.345861 
L 285.3 206.201689 
L 294.6 197.187515 
L 303.9 207.308497 
L 313.2 189.249471 
L 322.5 208.506943 
L 331.8 187.354205 
L 341.1 199.632159 
L 350.4 197.779676 
L 359.7 193.196835 
L 369 178.729173 
L 378.3 196.045697 
L 387.6 199.860997 
L 396.9 201.329098 
L 406.2 223.301117 
L 415.5 203.381664 
L 424.8 188.682729 
L 434.1 199.187846 
L 443.4 196.654408 
L 452.7 206.965167 
L 462 189.649827 
L 471.3 201.809716 
L 480.6 206.14571 
L 489.9 197.281518 
L 499.2 202.610888 
L 508.5 176.684558 
L 517.8 194.96507 
L 527.1 182.038161 
L 536.4 188.042162 
L 545.7 177.627562 
L 555 197.492539 
L 564.3 185.887342 
L 573.6 191.067221 
L 582.9 182.097535 
L 592.2 181.594722 
L 601.5 165.284337 
L 610.8 194.992111 
L 620.1 192.030287 
L 629.4 193.52889 
L 638.7 218.753507 
" style="fill:none;opacity:0.5;stroke:#808080;stroke-dasharray:;stroke-dashoffset:0;stroke-width:1.5;"/>
   </g>
   <g id="line2d_24">
    <path clip-path="url(#p3b9578b932)" d="M 90 294.501092 
L 99.3 238.530602 
L 108.6 237.697709 
L 117.9 230.217763 
L 127.2 230.739175 
L 136.5 227.470162 
L 145.8 225.876304 
L 155.1 221.068052 
L 164.4 222.898764 
L 173.7 217.179565 
L 183 217.227375 
L 192.3 216.518047 
L 201.6 212.991056 
L 210.9 209.608418 
L 220.2 211.41405 
L 229.5 217.858665 
L 238.8 208.10705 
L 248.1 215.755372 
L 257.4 210.753306 
L 266.7 209.835799 
L 276 208.813356 
L 285.3 204.812073 
L 294.6 203.531316 
L 303.9 206.840487 
L 313.2 203.714065 
L 322.5 204.517518 
L 331.8 196.997168 
L 341.1 202.419238 
L 350.4 199.12702 
L 359.7 201.476866 
L 369 200.08983 
L 378.3 198.454528 
L 387.6 200.426841 
L 396.9 197.988428 
L 406.2 197.251187 
L 415.5 197.170463 
L 424.8 199.736187 
L 434.1 196.479178 
L 443.4 193.954094 
L 452.7 196.80433 
L 462 198.324747 
L 471.3 193.471365 
L 480.6 201.62198 
L 489.9 199.443091 
L 499.2 197.291831 
L 508.5 197.369414 
L 517.8 194.507517 
L 527.1 191.995881 
L 536.4 196.615197 
L 545.7 193.2728 
L 555 195.704373 
L 564.3 188.849327 
L 573.6 194.758024 
L 582.9 188.787841 
L 592.2 192.928925 
L 601.5 190.549446 
L 610.8 191.933165 
L 620.1 193.309735 
L 629.4 191.427128 
L 638.7 191.893938 
" style="fill:none;stroke:#1f77b4;stroke-dasharray:;stroke-dashoffset:0;stroke-width:1.5;"/>
   </g>
   <g id="line2d_25">
    <path clip-path="url(#p3b9578b932)" d="M 90 292.004117 
L 99.3 261.049766 
L 108.6 263.612205 
L 117.9 257.054353 
L 127.2 257.639549 
L 136.5 251.693873 
L 145.8 240.283608 
L 155.1 251.824627 
L 164.4 245.206191 
L 173.7 242.43173 
L 183 237.399439 
L 192.3 235.642746 
L 201.6 226.56721 
L 210.9 227.033864 
L 220.2 226.882506 
L 229.5 229.295542 
L 238.8 231.405831 
L 248.1 219.247719 
L 257.4 230.710319 
L 266.7 218.729269 
L 276 230.720121 
L 285.3 233.776849 
L 294.6 224.30089 
L 303.9 219.267098 
L 313.2 220.33748 
L 322.5 213.05599 
L 331.8 217.180511 
L 341.1 219.25989 
L 350.4 209.346705 
L 359.7 221.485245 
L 369 216.205681 
L 378.3 204.510486 
L 387.6 221.997463 
L 396.9 212.733675 
L 406.2 212.656404 
L 415.5 201.067848 
L 424.8 206.541212 
L 434.1 194.09612 
L 443.4 202.108421 
L 452.7 210.488058 
L 462 207.120107 
L 471.3 210.225901 
L 480.6 190.743947 
L 489.9 207.796692 
L 499.2 196.020536 
L 508.5 208.248455 
L 517.8 213.075783 
L 527.1 205.091781 
L 536.4 205.3784 
L 545.7 203.136183 
L 555 199.988197 
L 564.3 200.913831 
L 573.6 206.279355 
L 582.9 198.125745 
L 592.2 201.124077 
L 601.5 200.350301 
L 610.8 188.225364 
L 620.1 205.866487 
L 629.4 200.809425 
L 638.7 205.723633 
" style="fill:none;opacity:0.5;stroke:#808080;stroke-dasharray:1.5,1.5;stroke-dashoffset:0;stroke-width:1.5;"/>
   </g>
   <g id="line2d_26">
    <path clip-path="url(#p3b9578b932)" d="M 90 293.106196 
L 99.3 257.486644 
L 108.6 257.145284 
L 117.9 258.348407 
L 127.2 252.840454 
L 136.5 248.4354 
L 145.8 244.750789 
L 155.1 243.27707 
L 164.4 244.418267 
L 173.7 235.105289 
L 183 239.277012 
L 192.3 236.208555 
L 201.6 237.476732 
L 210.9 223.459098 
L 220.2 223.74436 
L 229.5 221.815298 
L 238.8 225.805997 
L 248.1 228.438985 
L 257.4 215.059453 
L 266.7 218.954229 
L 276 215.192063 
L 285.3 216.897402 
L 294.6 210.132572 
L 303.9 212.186228 
L 313.2 214.216141 
L 322.5 222.397868 
L 331.8 198.26745 
L 341.1 214.505545 
L 350.4 204.392726 
L 359.7 208.725641 
L 369 207.321672 
L 378.3 205.452906 
L 387.6 214.419546 
L 396.9 209.787222 
L 406.2 199.585719 
L 415.5 205.341826 
L 424.8 202.851803 
L 434.1 202.954426 
L 443.4 194.959067 
L 452.7 194.289011 
L 462 197.821223 
L 471.3 198.131745 
L 480.6 211.837002 
L 489.9 193.829733 
L 499.2 204.518873 
L 508.5 199.517072 
L 517.8 200.10237 
L 527.1 191.405291 
L 536.4 202.43953 
L 545.7 195.890819 
L 555 206.402423 
L 564.3 181.340173 
L 573.6 204.091494 
L 582.9 195.241949 
L 592.2 197.312644 
L 601.5 203.416463 
L 610.8 195.530028 
L 620.1 206.933132 
L 629.4 196.741744 
L 638.7 195.777036 
" style="fill:none;opacity:0.5;stroke:#808080;stroke-dasharray:1.5,1.5;stroke-dashoffset:0;stroke-width:1.5;"/>
   </g>
   <g id="line2d_27">
    <path clip-path="url(#p3b9578b932)" d="M 90 293.688888 
L 99.3 260.486661 
L 108.6 263.100733 
L 117.9 250.384824 
L 127.2 260.37681 
L 136.5 255.652292 
L 145.8 246.344622 
L 155.1 240.886933 
L 164.4 243.964677 
L 173.7 249.977309 
L 183 241.900765 
L 192.3 247.170264 
L 201.6 239.677869 
L 210.9 233.921697 
L 220.2 237.877055 
L 229.5 224.87645 
L 238.8 233.887702 
L 248.1 238.125509 
L 257.4 232.799078 
L 266.7 224.708643 
L 276 227.184172 
L 285.3 223.640403 
L 294.6 223.292766 
L 303.9 208.491224 
L 313.2 223.375727 
L 322.5 224.344484 
L 331.8 223.805212 
L 341.1 226.466653 
L 350.4 219.174485 
L 359.7 221.001509 
L 369 220.303281 
L 378.3 216.907551 
L 387.6 205.792438 
L 396.9 214.279102 
L 406.2 214.581152 
L 415.5 202.106296 
L 424.8 220.3684 
L 434.1 205.204564 
L 443.4 208.645319 
L 452.7 215.184339 
L 462 198.363582 
L 471.3 204.486472 
L 480.6 213.271907 
L 489.9 204.563056 
L 499.2 200.520319 
L 508.5 203.703774 
L 517.8 207.025898 
L 527.1 206.018473 
L 536.4 196.870941 
L 545.7 208.697831 
L 555 206.098073 
L 564.3 211.775239 
L 573.6 207.295859 
L 582.9 205.048 
L 592.2 205.520379 
L 601.5 204.461037 
L 610.8 203.787281 
L 620.1 196.404567 
L 629.4 208.246691 
L 638.7 205.088226 
" style="fill:none;opacity:0.5;stroke:#808080;stroke-dasharray:1.5,1.5;stroke-dashoffset:0;stroke-width:1.5;"/>
   </g>
   <g id="line2d_28">
    <path clip-path="url(#p3b9578b932)" d="M 90 293.544821 
L 99.3 265.266489 
L 108.6 271.016766 
L 117.9 259.468141 
L 127.2 260.452336 
L 136.5 258.000223 
L 145.8 254.826448 
L 155.1 250.881298 
L 164.4 248.778091 
L 173.7 242.753776 
L 183 244.888331 
L 192.3 238.750784 
L 201.6 235.836861 
L 210.9 234.661227 
L 220.2 230.360228 
L 229.5 231.232268 
L 238.8 229.093511 
L 248.1 233.27923 
L 257.4 224.558692 
L 266.7 227.823942 
L 276 227.753088 
L 285.3 219.533498 
L 294.6 223.797678 
L 303.9 220.09256 
L 313.2 229.970412 
L 322.5 212.160445 
L 331.8 221.169689 
L 341.1 222.831482 
L 350.4 214.230372 
L 359.7 220.193769 
L 369 226.857718 
L 378.3 214.680128 
L 387.6 216.993539 
L 396.9 220.857824 
L 406.2 209.679677 
L 415.5 206.240757 
L 424.8 203.981989 
L 434.1 213.214769 
L 443.4 206.481412 
L 452.7 214.140824 
L 462 213.05819 
L 471.3 206.307901 
L 480.6 217.508288 
L 489.9 204.295176 
L 499.2 211.786384 
L 508.5 208.29677 
L 517.8 201.940522 
L 527.1 205.410705 
L 536.4 202.813884 
L 545.7 214.348463 
L 555 202.421299 
L 564.3 207.443393 
L 573.6 207.565387 
L 582.9 209.562273 
L 592.2 214.227325 
L 601.5 221.435866 
L 610.8 205.149285 
L 620.1 212.831346 
L 629.4 217.021126 
L 638.7 206.439504 
" style="fill:none;opacity:0.5;stroke:#808080;stroke-dasharray:1.5,1.5;stroke-dashoffset:0;stroke-width:1.5;"/>
   </g>
   <g id="line2d_29">
    <path clip-path="url(#p3b9578b932)" d="M 90 285.364784 
L 99.3 263.731459 
L 108.6 265.455393 
L 117.9 252.107387 
L 127.2 245.2375 
L 136.5 250.024055 
L 145.8 237.910878 
L 155.1 242.788974 
L 164.4 237.510361 
L 173.7 251.870384 
L 183 243.843085 
L 192.3 224.840303 
L 201.6 228.138364 
L 210.9 236.172605 
L 220.2 224.196646 
L 229.5 230.208344 
L 238.8 217.376642 
L 248.1 226.637231 
L 257.4 224.744343 
L 266.7 208.221976 
L 276 225.5505 
L 285.3 221.247308 
L 294.6 216.532349 
L 303.9 205.800822 
L 313.2 220.20468 
L 322.5 207.278941 
L 331.8 210.073898 
L 341.1 215.729617 
L 350.4 204.73928 
L 359.7 203.704968 
L 369 215.230267 
L 378.3 207.15897 
L 387.6 206.107745 
L 396.9 205.744379 
L 406.2 221.074823 
L 415.5 214.193802 
L 424.8 204.283152 
L 434.1 203.478813 
L 443.4 215.620333 
L 452.7 201.184296 
L 462 207.803959 
L 471.3 197.623022 
L 480.6 209.158579 
L 489.9 205.386529 
L 499.2 193.328755 
L 508.5 215.31821 
L 517.8 214.389044 
L 527.1 204.230614 
L 536.4 192.697483 
L 545.7 210.003529 
L 555 195.09743 
L 564.3 199.588811 
L 573.6 205.123096 
L 582.9 196.782413 
L 592.2 197.985104 
L 601.5 207.861343 
L 610.8 193.657741 
L 620.1 197.56038 
L 629.4 198.777856 
L 638.7 213.604887 
" style="fill:none;opacity:0.5;stroke:#808080;stroke-dasharray:1.5,1.5;stroke-dashoffset:0;stroke-width:1.5;"/>
   </g>
   <g id="line2d_30">
    <path clip-path="url(#p3b9578b932)" d="M 90 291.915919 
L 99.3 259.728647 
L 108.6 255.263647 
L 117.9 245.040579 
L 127.2 250.771228 
L 136.5 252.264677 
L 145.8 246.232043 
L 155.1 248.532102 
L 164.4 237.038814 
L 173.7 244.244526 
L 183 235.842124 
L 192.3 238.551056 
L 201.6 229.110245 
L 210.9 236.217307 
L 220.2 228.544301 
L 229.5 235.269124 
L 238.8 227.904885 
L 248.1 230.270235 
L 257.4 231.447501 
L 266.7 241.604624 
L 276 236.544496 
L 285.3 242.393859 
L 294.6 228.878501 
L 303.9 237.954941 
L 313.2 228.626867 
L 322.5 222.44565 
L 331.8 213.24061 
L 341.1 213.92683 
L 350.4 213.795758 
L 359.7 219.099873 
L 369 225.339636 
L 378.3 220.086907 
L 387.6 226.143449 
L 396.9 207.472402 
L 406.2 217.783335 
L 415.5 222.4978 
L 424.8 222.323941 
L 434.1 212.109528 
L 443.4 226.687588 
L 452.7 211.143655 
L 462 216.919154 
L 471.3 206.981528 
L 480.6 208.555983 
L 489.9 207.917664 
L 499.2 222.703416 
L 508.5 208.15561 
L 517.8 216.322948 
L 527.1 206.991356 
L 536.4 216.210317 
L 545.7 210.307347 
L 555 206.255144 
L 564.3 197.192211 
L 573.6 194.289182 
L 582.9 198.470903 
L 592.2 204.0724 
L 601.5 212.23803 
L 610.8 200.300244 
L 620.1 207.407785 
L 629.4 190.413769 
L 638.7 202.378365 
" style="fill:none;opacity:0.5;stroke:#808080;stroke-dasharray:1.5,1.5;stroke-dashoffset:0;stroke-width:1.5;"/>
   </g>
   <g id="line2d_31">
    <path clip-path="url(#p3b9578b932)" d="M 90 292.399123 
L 99.3 256.331085 
L 108.6 261.011871 
L 117.9 254.25672 
L 127.2 249.784316 
L 136.5 250.490561 
L 145.8 251.396486 
L 155.1 247.90081 
L 164.4 236.952036 
L 173.7 251.560668 
L 183 237.806788 
L 192.3 244.124192 
L 201.6 236.530454 
L 210.9 233.015268 
L 220.2 237.603637 
L 229.5 238.077184 
L 238.8 228.756538 
L 248.1 234.012416 
L 257.4 236.015272 
L 266.7 226.973161 
L 276 225.088365 
L 285.3 226.36865 
L 294.6 231.137322 
L 303.9 223.245691 
L 313.2 239.67443 
L 322.5 229.458362 
L 331.8 223.253243 
L 341.1 225.791159 
L 350.4 219.793105 
L 359.7 217.145949 
L 369 219.075137 
L 378.3 226.386639 
L 387.6 221.752613 
L 396.9 202.930372 
L 406.2 220.219352 
L 415.5 211.103062 
L 424.8 225.214489 
L 434.1 217.835564 
L 443.4 208.781101 
L 452.7 211.004724 
L 462 214.22817 
L 471.3 204.432508 
L 480.6 216.2488 
L 489.9 208.697028 
L 499.2 204.437532 
L 508.5 206.54317 
L 517.8 208.359878 
L 527.1 206.556244 
L 536.4 209.826042 
L 545.7 221.336405 
L 555 206.347662 
L 564.3 198.609551 
L 573.6 210.087552 
L 582.9 205.861252 
L 592.2 201.037156 
L 601.5 206.350697 
L 610.8 213.104233 
L 620.1 207.908066 
L 629.4 191.831313 
L 638.7 206.258676 
" style="fill:none;opacity:0.5;stroke:#808080;stroke-dasharray:1.5,1.5;stroke-dashoffset:0;stroke-width:1.5;"/>
   </g>
   <g id="line2d_32">
    <path clip-path="url(#p3b9578b932)" d="M 90 289.284616 
L 99.3 261.912506 
L 108.6 253.587525 
L 117.9 258.760105 
L 127.2 260.778429 
L 136.5 250.295015 
L 145.8 257.038617 
L 155.1 246.960282 
L 164.4 246.029829 
L 173.7 242.845739 
L 183 249.060352 
L 192.3 244.223743 
L 201.6 234.6606 
L 210.9 242.870778 
L 220.2 240.979824 
L 229.5 242.371168 
L 238.8 241.083748 
L 248.1 241.812951 
L 257.4 232.89753 
L 266.7 239.757475 
L 276 237.317949 
L 285.3 230.452432 
L 294.6 234.634867 
L 303.9 235.870875 
L 313.2 225.005446 
L 322.5 231.225241 
L 331.8 226.845521 
L 341.1 221.297469 
L 350.4 229.09636 
L 359.7 235.934182 
L 369 224.347193 
L 378.3 227.590086 
L 387.6 217.910312 
L 396.9 218.932482 
L 406.2 218.872106 
L 415.5 220.86506 
L 424.8 227.952402 
L 434.1 212.85549 
L 443.4 219.462127 
L 452.7 217.906232 
L 462 225.684303 
L 471.3 228.225929 
L 480.6 219.79482 
L 489.9 217.013729 
L 499.2 217.889 
L 508.5 215.382905 
L 517.8 208.522244 
L 527.1 218.239496 
L 536.4 215.419063 
L 545.7 215.153647 
L 555 214.646692 
L 564.3 218.992556 
L 573.6 211.815939 
L 582.9 215.143334 
L 592.2 223.396349 
L 601.5 213.87585 
L 610.8 216.956749 
L 620.1 207.383688 
L 629.4 215.101417 
L 638.7 210.220801 
" style="fill:none;opacity:0.5;stroke:#808080;stroke-dasharray:1.5,1.5;stroke-dashoffset:0;stroke-width:1.5;"/>
   </g>
   <g id="line2d_33">
    <path clip-path="url(#p3b9578b932)" d="M 90 288.200624 
L 99.3 252.714496 
L 108.6 263.049616 
L 117.9 255.665515 
L 127.2 253.745935 
L 136.5 248.41465 
L 145.8 242.975502 
L 155.1 249.531907 
L 164.4 242.373334 
L 173.7 242.511025 
L 183 238.574895 
L 192.3 229.780739 
L 201.6 236.044833 
L 210.9 227.583769 
L 220.2 241.665116 
L 229.5 234.017774 
L 238.8 234.830198 
L 248.1 230.026527 
L 257.4 236.139487 
L 266.7 233.889432 
L 276 240.847698 
L 285.3 234.006586 
L 294.6 234.47141 
L 303.9 218.956546 
L 313.2 225.607726 
L 322.5 227.389107 
L 331.8 222.467237 
L 341.1 224.697801 
L 350.4 227.175181 
L 359.7 220.61611 
L 369 227.00188 
L 378.3 214.505836 
L 387.6 221.697983 
L 396.9 215.397618 
L 406.2 212.04315 
L 415.5 218.370756 
L 424.8 201.702149 
L 434.1 216.655131 
L 443.4 201.977416 
L 452.7 219.595087 
L 462 209.75964 
L 471.3 209.933323 
L 480.6 210.764666 
L 489.9 209.203519 
L 499.2 211.353511 
L 508.5 224.098658 
L 517.8 216.661295 
L 527.1 213.607138 
L 536.4 202.002975 
L 545.7 209.399109 
L 555 213.011584 
L 564.3 207.608227 
L 573.6 213.95876 
L 582.9 209.261773 
L 592.2 202.364793 
L 601.5 213.357876 
L 610.8 201.500066 
L 620.1 207.59369 
L 629.4 205.320708 
L 638.7 200.036187 
" style="fill:none;opacity:0.5;stroke:#808080;stroke-dasharray:1.5,1.5;stroke-dashoffset:0;stroke-width:1.5;"/>
   </g>
   <g id="line2d_34">
    <path clip-path="url(#p3b9578b932)" d="M 90 290.660782 
L 99.3 268.818189 
L 108.6 259.928283 
L 117.9 252.736443 
L 127.2 252.725655 
L 136.5 252.70758 
L 145.8 253.124165 
L 155.1 246.850949 
L 164.4 246.320715 
L 173.7 243.511659 
L 183 242.503393 
L 192.3 234.779286 
L 201.6 235.941934 
L 210.9 239.807535 
L 220.2 238.476448 
L 229.5 236.135909 
L 238.8 229.636597 
L 248.1 238.360908 
L 257.4 242.790285 
L 266.7 233.576442 
L 276 232.440052 
L 285.3 229.83369 
L 294.6 229.979044 
L 303.9 221.525155 
L 313.2 229.446419 
L 322.5 220.889588 
L 331.8 223.86211 
L 341.1 223.937889 
L 350.4 225.461856 
L 359.7 227.634563 
L 369 221.431229 
L 378.3 218.771845 
L 387.6 227.988393 
L 396.9 219.606556 
L 406.2 220.537673 
L 415.5 215.800372 
L 424.8 215.073415 
L 434.1 215.939729 
L 443.4 214.014694 
L 452.7 205.315303 
L 462 211.14965 
L 471.3 202.014367 
L 480.6 217.599584 
L 489.9 224.958168 
L 499.2 218.307025 
L 508.5 216.162995 
L 517.8 219.217292 
L 527.1 212.673959 
L 536.4 206.035105 
L 545.7 213.188255 
L 555 206.89311 
L 564.3 204.153649 
L 573.6 207.38253 
L 582.9 213.029515 
L 592.2 209.887096 
L 601.5 206.50517 
L 610.8 198.0602 
L 620.1 203.876864 
L 629.4 206.751195 
L 638.7 213.140961 
" style="fill:none;opacity:0.5;stroke:#808080;stroke-dasharray:1.5,1.5;stroke-dashoffset:0;stroke-width:1.5;"/>
   </g>
   <g id="line2d_35">
    <path clip-path="url(#p3b9578b932)" d="M 90 291.016987 
L 99.3 260.752594 
L 108.6 261.317132 
L 117.9 254.382247 
L 127.2 254.435221 
L 136.5 251.797832 
L 145.8 247.488316 
L 155.1 246.943495 
L 164.4 242.859231 
L 173.7 244.681211 
L 183 241.109618 
L 192.3 237.407167 
L 201.6 233.99851 
L 210.9 233.474315 
L 220.2 233.033012 
L 229.5 232.329906 
L 238.8 229.978165 
L 248.1 232.021171 
L 257.4 230.716196 
L 266.7 227.423919 
L 276 229.86385 
L 285.3 227.815068 
L 294.6 225.71574 
L 303.9 220.339114 
L 313.2 225.646533 
L 322.5 221.064568 
L 331.8 218.016548 
L 341.1 220.844433 
L 350.4 216.720583 
L 359.7 219.554181 
L 369 220.311369 
L 378.3 215.605135 
L 387.6 218.080348 
L 396.9 212.774163 
L 406.2 214.703339 
L 415.5 211.758758 
L 424.8 213.029295 
L 434.1 209.434414 
L 443.4 209.873748 
L 452.7 210.025153 
L 462 210.190798 
L 471.3 206.836269 
L 480.6 211.548358 
L 489.9 208.366129 
L 499.2 208.086535 
L 508.5 210.542762 
L 517.8 210.561727 
L 527.1 207.022506 
L 536.4 204.969374 
L 545.7 210.146159 
L 555 205.716161 
L 564.3 202.761764 
L 573.6 206.788915 
L 582.9 204.652716 
L 592.2 205.692732 
L 601.5 208.985263 
L 610.8 201.627119 
L 620.1 205.376601 
L 629.4 203.101524 
L 638.7 205.866828 
" style="fill:none;stroke:#ff7f0e;stroke-dasharray:1.5,1.5;stroke-dashoffset:0;stroke-width:1.5;"/>
   </g>
   <g id="line2d_36">
    <path clip-path="url(#p3b9578b932)" d="M 90 290.136872 
L 99.3 252.761315 
L 108.6 251.688414 
L 117.9 231.0048 
L 127.2 226.32522 
L 136.5 211.827797 
L 145.8 194.693924 
L 155.1 197.301602 
L 164.4 187.238877 
L 173.7 178.753452 
L 183 165.304372 
L 192.3 170.668555 
L 201.6 155.730228 
L 210.9 161.472987 
L 220.2 153.81028 
L 229.5 149.661202 
L 238.8 134.276388 
L 248.1 139.746597 
L 257.4 135.577334 
L 266.7 114.596727 
L 276 128.966703 
L 285.3 155.20786 
L 294.6 139.968376 
L 303.9 104.986237 
L 313.2 132.860624 
L 322.5 132.347675 
L 331.8 122.947905 
L 341.1 124.239896 
L 350.4 108.378594 
L 359.7 113.495326 
L 369 99.737521 
L 378.3 101.285582 
L 387.6 103.694248 
L 396.9 88.810134 
L 406.2 92.458816 
L 415.5 91.010941 
L 424.8 107.167761 
L 434.1 88.485195 
L 443.4 102.088941 
L 452.7 92.6927 
L 462 94.018832 
L 471.3 78.854929 
L 480.6 104.471618 
L 489.9 107.537441 
L 499.2 67.505023 
L 508.5 89.710173 
L 517.8 110.919885 
L 527.1 99.412017 
L 536.4 62.676109 
L 545.7 97.64191 
L 555 107.054867 
L 564.3 87.059259 
L 573.6 96.769034 
L 582.9 68.957423 
L 592.2 94.401153 
L 601.5 80.823159 
L 610.8 82.852912 
L 620.1 89.487455 
L 629.4 70.988543 
L 638.7 77.801816 
" style="fill:none;opacity:0.5;stroke:#808080;stroke-dasharray:7.5,1.5;stroke-dashoffset:0;stroke-width:1.5;"/>
   </g>
   <g id="line2d_37">
    <path clip-path="url(#p3b9578b932)" d="M 90 293.08303 
L 99.3 259.936246 
L 108.6 239.524808 
L 117.9 233.752839 
L 127.2 239.258868 
L 136.5 222.157571 
L 145.8 200.261738 
L 155.1 215.721688 
L 164.4 177.21042 
L 173.7 179.296841 
L 183 167.613928 
L 192.3 151.325089 
L 201.6 175.003391 
L 210.9 155.871263 
L 220.2 147.857078 
L 229.5 140.102305 
L 238.8 144.734063 
L 248.1 144.943635 
L 257.4 128.213535 
L 266.7 134.413485 
L 276 132.461626 
L 285.3 159.108232 
L 294.6 146.423923 
L 303.9 127.346707 
L 313.2 126.288542 
L 322.5 113.412063 
L 331.8 136.035546 
L 341.1 104.316285 
L 350.4 117.174159 
L 359.7 142.5324 
L 369 115.155445 
L 378.3 97.930777 
L 387.6 138.477797 
L 396.9 96.424632 
L 406.2 109.793931 
L 415.5 99.46353 
L 424.8 79.623339 
L 434.1 102.709027 
L 443.4 95.621712 
L 452.7 88.025361 
L 462 91.055282 
L 471.3 103.654401 
L 480.6 99.261497 
L 489.9 85.500058 
L 499.2 87.772558 
L 508.5 96.299751 
L 517.8 109.334036 
L 527.1 110.922996 
L 536.4 96.736403 
L 545.7 86.961625 
L 555 82.364623 
L 564.3 106.119085 
L 573.6 89.317118 
L 582.9 91.205721 
L 592.2 121.165329 
L 601.5 86.554205 
L 610.8 70.387353 
L 620.1 111.398669 
L 629.4 79.831624 
L 638.7 78.494539 
" style="fill:none;opacity:0.5;stroke:#808080;stroke-dasharray:7.5,1.5;stroke-dashoffset:0;stroke-width:1.5;"/>
   </g>
   <g id="line2d_38">
    <path clip-path="url(#p3b9578b932)" d="M 90 293.724865 
L 99.3 267.117651 
L 108.6 260.295099 
L 117.9 256.029861 
L 127.2 241.929555 
L 136.5 236.565114 
L 145.8 238.420908 
L 155.1 225.956894 
L 164.4 210.576768 
L 173.7 204.117947 
L 183 194.714286 
L 192.3 189.879734 
L 201.6 192.713409 
L 210.9 166.758504 
L 220.2 166.543502 
L 229.5 153.867447 
L 238.8 128.921919 
L 248.1 155.116762 
L 257.4 135.609191 
L 266.7 136.191357 
L 276 123.161311 
L 285.3 130.583006 
L 294.6 111.835602 
L 303.9 133.535696 
L 313.2 124.070524 
L 322.5 111.459459 
L 331.8 120.57655 
L 341.1 123.955253 
L 350.4 137.49053 
L 359.7 112.386413 
L 369 97.127177 
L 378.3 109.510398 
L 387.6 103.495813 
L 396.9 107.32434 
L 406.2 98.089847 
L 415.5 111.344135 
L 424.8 112.003017 
L 434.1 108.96978 
L 443.4 93.227145 
L 452.7 96.896722 
L 462 103.496148 
L 471.3 90.30696 
L 480.6 101.633611 
L 489.9 86.567857 
L 499.2 88.49806 
L 508.5 83.05227 
L 517.8 98.996412 
L 527.1 86.842878 
L 536.4 96.827733 
L 545.7 94.618531 
L 555 88.340681 
L 564.3 89.868395 
L 573.6 91.704713 
L 582.9 103.901501 
L 592.2 84.684952 
L 601.5 84.407639 
L 610.8 76.820928 
L 620.1 92.743152 
L 629.4 88.324217 
L 638.7 75.998893 
" style="fill:none;opacity:0.5;stroke:#808080;stroke-dasharray:7.5,1.5;stroke-dashoffset:0;stroke-width:1.5;"/>
   </g>
   <g id="line2d_39">
    <path clip-path="url(#p3b9578b932)" d="M 90 291.814606 
L 99.3 254.055171 
L 108.6 241.934519 
L 117.9 223.517709 
L 127.2 220.208924 
L 136.5 202.814368 
L 145.8 212.724577 
L 155.1 188.252148 
L 164.4 175.226342 
L 173.7 169.964428 
L 183 170.971584 
L 192.3 159.939975 
L 201.6 151.41478 
L 210.9 128.351056 
L 220.2 139.405469 
L 229.5 143.941401 
L 238.8 149.012807 
L 248.1 130.995812 
L 257.4 111.349892 
L 266.7 96.732619 
L 276 86.300613 
L 285.3 94.493142 
L 294.6 107.615003 
L 303.9 85.408847 
L 313.2 113.569634 
L 322.5 104.009569 
L 331.8 94.675411 
L 341.1 89.150611 
L 350.4 70.880007 
L 359.7 93.401169 
L 369 79.027887 
L 378.3 94.645699 
L 387.6 107.171704 
L 396.9 67.307529 
L 406.2 58.815905 
L 415.5 73.051423 
L 424.8 81.121631 
L 434.1 78.791869 
L 443.4 67.417783 
L 452.7 83.866995 
L 462 71.616447 
L 471.3 93.732602 
L 480.6 77.422954 
L 489.9 67.202194 
L 499.2 60.718312 
L 508.5 60.106237 
L 517.8 73.614163 
L 527.1 80.370447 
L 536.4 76.269752 
L 545.7 90.607841 
L 555 81.242406 
L 564.3 79.59408 
L 573.6 65.721867 
L 582.9 62.629405 
L 592.2 70.105246 
L 601.5 70.892395 
L 610.8 86.236703 
L 620.1 98.204866 
L 629.4 58.09682 
L 638.7 63.185454 
" style="fill:none;opacity:0.5;stroke:#808080;stroke-dasharray:7.5,1.5;stroke-dashoffset:0;stroke-width:1.5;"/>
   </g>
   <g id="line2d_40">
    <path clip-path="url(#p3b9578b932)" d="M 90 296.429964 
L 99.3 265.244204 
L 108.6 251.094322 
L 117.9 251.769731 
L 127.2 229.575022 
L 136.5 235.905913 
L 145.8 229.47582 
L 155.1 220.849511 
L 164.4 201.273298 
L 173.7 183.199198 
L 183 190.727426 
L 192.3 185.921906 
L 201.6 161.404168 
L 210.9 181.659282 
L 220.2 176.503848 
L 229.5 167.783459 
L 238.8 170.389348 
L 248.1 161.868524 
L 257.4 162.21343 
L 266.7 137.646695 
L 276 130.206099 
L 285.3 135.014748 
L 294.6 124.150115 
L 303.9 120.085633 
L 313.2 121.26952 
L 322.5 115.173302 
L 331.8 128.868141 
L 341.1 110.714627 
L 350.4 119.915137 
L 359.7 88.190986 
L 369 104.566255 
L 378.3 97.890939 
L 387.6 109.486805 
L 396.9 90.905029 
L 406.2 82.102727 
L 415.5 92.580857 
L 424.8 94.037092 
L 434.1 84.241656 
L 443.4 102.362293 
L 452.7 101.650744 
L 462 95.254916 
L 471.3 101.566739 
L 480.6 93.104594 
L 489.9 94.817748 
L 499.2 87.664759 
L 508.5 86.976425 
L 517.8 89.854937 
L 527.1 76.819644 
L 536.4 92.851788 
L 545.7 62.294972 
L 555 82.000804 
L 564.3 105.103162 
L 573.6 92.338453 
L 582.9 99.948962 
L 592.2 70.864652 
L 601.5 88.041762 
L 610.8 92.789581 
L 620.1 103.068385 
L 629.4 80.258585 
L 638.7 79.94439 
" style="fill:none;opacity:0.5;stroke:#808080;stroke-dasharray:7.5,1.5;stroke-dashoffset:0;stroke-width:1.5;"/>
   </g>
   <g id="line2d_41">
    <path clip-path="url(#p3b9578b932)" d="M 90 295.595808 
L 99.3 260.107752 
L 108.6 247.087499 
L 117.9 242.206462 
L 127.2 219.963582 
L 136.5 223.777222 
L 145.8 216.621404 
L 155.1 210.640773 
L 164.4 197.585089 
L 173.7 182.061847 
L 183 186.611181 
L 192.3 167.06773 
L 201.6 162.17916 
L 210.9 170.72738 
L 220.2 160.198408 
L 229.5 153.912458 
L 238.8 148.746656 
L 248.1 148.46854 
L 257.4 134.890555 
L 266.7 129.683336 
L 276 139.30669 
L 285.3 142.524046 
L 294.6 138.176835 
L 303.9 134.267189 
L 313.2 124.71707 
L 322.5 138.301357 
L 331.8 125.163733 
L 341.1 104.932304 
L 350.4 125.912374 
L 359.7 113.765966 
L 369 105.460144 
L 378.3 120.785878 
L 387.6 130.616613 
L 396.9 118.136688 
L 406.2 102.390507 
L 415.5 120.928907 
L 424.8 102.081694 
L 434.1 91.259193 
L 443.4 97.558761 
L 452.7 94.417347 
L 462 101.788834 
L 471.3 97.778894 
L 480.6 106.000943 
L 489.9 85.665421 
L 499.2 88.212904 
L 508.5 106.031048 
L 517.8 108.096182 
L 527.1 112.157417 
L 536.4 84.905932 
L 545.7 98.268873 
L 555 92.709341 
L 564.3 100.433287 
L 573.6 85.2645 
L 582.9 94.835131 
L 592.2 84.908904 
L 601.5 79.388703 
L 610.8 90.550488 
L 620.1 106.032845 
L 629.4 92.507502 
L 638.7 87.496867 
" style="fill:none;opacity:0.5;stroke:#808080;stroke-dasharray:7.5,1.5;stroke-dashoffset:0;stroke-width:1.5;"/>
   </g>
   <g id="line2d_42">
    <path clip-path="url(#p3b9578b932)" d="M 90 294.532755 
L 99.3 267.602239 
L 108.6 251.63307 
L 117.9 249.082459 
L 127.2 248.825827 
L 136.5 242.32339 
L 145.8 222.722926 
L 155.1 203.716234 
L 164.4 196.771506 
L 173.7 201.815309 
L 183 191.563498 
L 192.3 206.200131 
L 201.6 173.268555 
L 210.9 154.58964 
L 220.2 167.816814 
L 229.5 153.846264 
L 238.8 146.574677 
L 248.1 149.804328 
L 257.4 141.035804 
L 266.7 143.382886 
L 276 131.42518 
L 285.3 137.92617 
L 294.6 129.665369 
L 303.9 135.279791 
L 313.2 128.54441 
L 322.5 122.245315 
L 331.8 141.207202 
L 341.1 122.204265 
L 350.4 119.81319 
L 359.7 114.040035 
L 369 131.93227 
L 378.3 106.161826 
L 387.6 102.189053 
L 396.9 90.128565 
L 406.2 125.772137 
L 415.5 110.544183 
L 424.8 140.053001 
L 434.1 101.551979 
L 443.4 85.504049 
L 452.7 102.088642 
L 462 94.64952 
L 471.3 104.625372 
L 480.6 101.430631 
L 489.9 90.844654 
L 499.2 96.83037 
L 508.5 99.378735 
L 517.8 111.462499 
L 527.1 97.03816 
L 536.4 112.829977 
L 545.7 90.537752 
L 555 92.207283 
L 564.3 135.651379 
L 573.6 104.303007 
L 582.9 94.035858 
L 592.2 91.968253 
L 601.5 105.185867 
L 610.8 93.183438 
L 620.1 101.273851 
L 629.4 74.868233 
L 638.7 105.45368 
" style="fill:none;opacity:0.5;stroke:#808080;stroke-dasharray:7.5,1.5;stroke-dashoffset:0;stroke-width:1.5;"/>
   </g>
   <g id="line2d_43">
    <path clip-path="url(#p3b9578b932)" d="M 90 289.915968 
L 99.3 260.63695 
L 108.6 252.228024 
L 117.9 246.728684 
L 127.2 232.365537 
L 136.5 212.369932 
L 145.8 215.331086 
L 155.1 209.11829 
L 164.4 197.323999 
L 173.7 194.01241 
L 183 185.225748 
L 192.3 171.681267 
L 201.6 174.423121 
L 210.9 177.920929 
L 220.2 172.267707 
L 229.5 157.905287 
L 238.8 166.604049 
L 248.1 152.653408 
L 257.4 132.129898 
L 266.7 145.158237 
L 276 128.650479 
L 285.3 143.674491 
L 294.6 146.869416 
L 303.9 153.665219 
L 313.2 136.791136 
L 322.5 141.609207 
L 331.8 139.835843 
L 341.1 118.155788 
L 350.4 133.565021 
L 359.7 136.57205 
L 369 121.81157 
L 378.3 102.736436 
L 387.6 120.99227 
L 396.9 104.454532 
L 406.2 97.073222 
L 415.5 115.491515 
L 424.8 90.87318 
L 434.1 101.732055 
L 443.4 109.409909 
L 452.7 113.010619 
L 462 104.73939 
L 471.3 102.094959 
L 480.6 97.679772 
L 489.9 81.199826 
L 499.2 108.549138 
L 508.5 82.118596 
L 517.8 101.149457 
L 527.1 112.580993 
L 536.4 104.146724 
L 545.7 103.266083 
L 555 99.460164 
L 564.3 105.746905 
L 573.6 80.788297 
L 582.9 105.878236 
L 592.2 109.201273 
L 601.5 91.021811 
L 610.8 85.298329 
L 620.1 92.601307 
L 629.4 85.99095 
L 638.7 65.503341 
" style="fill:none;opacity:0.5;stroke:#808080;stroke-dasharray:7.5,1.5;stroke-dashoffset:0;stroke-width:1.5;"/>
   </g>
   <g id="line2d_44">
    <path clip-path="url(#p3b9578b932)" d="M 90 300.497019 
L 99.3 262.2285 
L 108.6 255.920698 
L 117.9 258.938979 
L 127.2 232.596623 
L 136.5 223.728291 
L 145.8 210.709932 
L 155.1 221.900557 
L 164.4 204.395876 
L 173.7 200.672242 
L 183 191.917217 
L 192.3 187.498752 
L 201.6 174.836181 
L 210.9 163.35264 
L 220.2 161.972362 
L 229.5 147.478099 
L 238.8 146.90314 
L 248.1 148.764527 
L 257.4 150.311116 
L 266.7 138.81222 
L 276 144.701376 
L 285.3 135.50738 
L 294.6 141.419808 
L 303.9 132.724626 
L 313.2 94.159665 
L 322.5 121.525944 
L 331.8 100.741156 
L 341.1 109.622051 
L 350.4 104.348835 
L 359.7 105.790345 
L 369 100.669316 
L 378.3 87.422611 
L 387.6 111.85506 
L 396.9 110.485895 
L 406.2 117.252385 
L 415.5 104.768638 
L 424.8 110.886916 
L 434.1 119.463728 
L 443.4 94.544666 
L 452.7 106.38008 
L 462 94.94665 
L 471.3 96.942646 
L 480.6 103.694006 
L 489.9 103.890554 
L 499.2 99.648494 
L 508.5 113.387033 
L 517.8 103.964331 
L 527.1 99.661185 
L 536.4 100.328409 
L 545.7 69.883653 
L 555 89.86059 
L 564.3 79.317782 
L 573.6 92.837076 
L 582.9 80.657155 
L 592.2 91.57686 
L 601.5 72.1983 
L 610.8 73.103952 
L 620.1 83.629172 
L 629.4 86.089783 
L 638.7 93.783209 
" style="fill:none;opacity:0.5;stroke:#808080;stroke-dasharray:7.5,1.5;stroke-dashoffset:0;stroke-width:1.5;"/>
   </g>
   <g id="line2d_45">
    <path clip-path="url(#p3b9578b932)" d="M 90 299.07117 
L 99.3 262.252589 
L 108.6 258.265786 
L 117.9 244.798638 
L 127.2 229.120321 
L 136.5 236.208129 
L 145.8 221.497132 
L 155.1 217.264484 
L 164.4 198.532811 
L 173.7 200.034802 
L 183 190.84211 
L 192.3 172.387661 
L 201.6 160.944098 
L 210.9 158.095443 
L 220.2 170.230967 
L 229.5 158.008675 
L 238.8 144.221124 
L 248.1 154.40875 
L 257.4 135.482247 
L 266.7 152.068345 
L 276 140.309772 
L 285.3 141.043663 
L 294.6 131.561963 
L 303.9 126.57943 
L 313.2 143.621011 
L 322.5 124.028188 
L 331.8 117.420671 
L 341.1 125.623564 
L 350.4 129.456275 
L 359.7 91.9541 
L 369 124.149054 
L 378.3 103.187522 
L 387.6 109.403993 
L 396.9 97.545598 
L 406.2 103.342511 
L 415.5 107.265265 
L 424.8 107.535665 
L 434.1 96.051058 
L 443.4 88.780629 
L 452.7 119.900156 
L 462 98.685523 
L 471.3 105.38473 
L 480.6 100.543717 
L 489.9 98.037878 
L 499.2 93.243076 
L 508.5 99.165197 
L 517.8 99.849198 
L 527.1 112.540589 
L 536.4 82.252941 
L 545.7 103.185348 
L 555 90.689027 
L 564.3 78.149772 
L 573.6 86.746292 
L 582.9 103.17067 
L 592.2 71.913052 
L 601.5 96.223168 
L 610.8 76.332051 
L 620.1 85.2587 
L 629.4 63.045274 
L 638.7 85.626425 
" style="fill:none;opacity:0.5;stroke:#808080;stroke-dasharray:7.5,1.5;stroke-dashoffset:0;stroke-width:1.5;"/>
   </g>
   <g id="line2d_46">
    <path clip-path="url(#p3b9578b932)" d="M 90 294.480206 
L 99.3 261.194262 
L 108.6 250.967224 
L 117.9 243.783016 
L 127.2 232.016948 
L 136.5 224.767773 
L 145.8 216.245945 
L 155.1 211.072218 
L 164.4 194.613499 
L 173.7 189.392848 
L 183 183.549135 
L 192.3 176.25708 
L 201.6 168.191709 
L 210.9 161.879912 
L 220.2 161.660643 
L 229.5 152.65066 
L 238.8 148.038417 
L 248.1 148.677088 
L 257.4 136.6813 
L 266.7 132.86859 
L 276 128.548985 
L 285.3 137.508274 
L 294.6 131.768641 
L 303.9 125.387938 
L 313.2 124.589214 
L 322.5 122.411208 
L 331.8 122.747216 
L 341.1 113.291464 
L 350.4 116.693412 
L 359.7 111.212879 
L 369 107.963664 
L 378.3 102.155767 
L 387.6 113.738336 
L 396.9 97.152294 
L 406.2 98.709199 
L 415.5 102.644939 
L 424.8 102.53833 
L 434.1 97.325554 
L 443.4 93.651589 
L 452.7 99.892937 
L 462 95.025154 
L 471.3 97.494223 
L 480.6 98.524334 
L 489.9 90.126363 
L 499.2 87.864269 
L 508.5 91.622546 
L 517.8 100.72411 
L 527.1 98.834632 
L 536.4 90.982577 
L 545.7 89.726659 
L 555 90.592979 
L 564.3 96.704311 
L 573.6 88.579036 
L 582.9 90.522006 
L 592.2 89.078967 
L 601.5 85.473701 
L 610.8 82.755573 
L 620.1 96.36984 
L 629.4 78.000153 
L 638.7 81.328861 
" style="fill:none;stroke:#2ca02c;stroke-dasharray:7.5,1.5;stroke-dashoffset:0;stroke-width:1.5;"/>
   </g>
   <g id="patch_3">
    <path d="M 90 315 
L 90 43.2 
" style="fill:none;stroke:#000000;stroke-linecap:square;stroke-linejoin:miter;stroke-width:0.8;"/>
   </g>
   <g id="patch_4">
    <path d="M 648 315 
L 648 43.2 
" style="fill:none;stroke:#000000;stroke-linecap:square;stroke-linejoin:miter;stroke-width:0.8;"/>
   </g>
   <g id="patch_5">
    <path d="M 90 315 
L 648 315 
" style="fill:none;stroke:#000000;stroke-linecap:square;stroke-linejoin:miter;stroke-width:0.8;"/>
   </g>
   <g id="patch_6">
    <path d="M 90 43.2 
L 648 43.2 
" style="fill:none;stroke:#000000;stroke-linecap:square;stroke-linejoin:miter;stroke-width:0.8;"/>
   </g>
   <g id="text_16">
    <!-- Results -->
    <defs>
     <path d="M 44.390625 34.1875 
Q 47.5625 33.109375 50.5625 29.59375 
Q 53.5625 26.078125 56.59375 19.921875 
L 66.609375 0 
L 56 0 
L 46.6875 18.703125 
Q 43.0625 26.03125 39.671875 28.421875 
Q 36.28125 30.8125 30.421875 30.8125 
L 19.671875 30.8125 
L 19.671875 0 
L 9.8125 0 
L 9.8125 72.90625 
L 32.078125 72.90625 
Q 44.578125 72.90625 50.734375 67.671875 
Q 56.890625 62.453125 56.890625 51.90625 
Q 56.890625 45.015625 53.6875 40.46875 
Q 50.484375 35.9375 44.390625 34.1875 
z
M 19.671875 64.796875 
L 19.671875 38.921875 
L 32.078125 38.921875 
Q 39.203125 38.921875 42.84375 42.21875 
Q 46.484375 45.515625 46.484375 51.90625 
Q 46.484375 58.296875 42.84375 61.546875 
Q 39.203125 64.796875 32.078125 64.796875 
z
" id="DejaVuSans-52"/>
     <path d="M 8.5 21.578125 
L 8.5 54.6875 
L 17.484375 54.6875 
L 17.484375 21.921875 
Q 17.484375 14.15625 20.5 10.265625 
Q 23.53125 6.390625 29.59375 6.390625 
Q 36.859375 6.390625 41.078125 11.03125 
Q 45.3125 15.671875 45.3125 23.6875 
L 45.3125 54.6875 
L 54.296875 54.6875 
L 54.296875 0 
L 45.3125 0 
L 45.3125 8.40625 
Q 42.046875 3.421875 37.71875 1 
Q 33.40625 -1.421875 27.6875 -1.421875 
Q 18.265625 -1.421875 13.375 4.4375 
Q 8.5 10.296875 8.5 21.578125 
z
M 31.109375 56 
z
" id="DejaVuSans-75"/>
    </defs>
    <g transform="translate(347.07 37.2)scale(0.12 -0.12)">
     <use xlink:href="#DejaVuSans-52"/>
     <use x="69.419922" xlink:href="#DejaVuSans-65"/>
     <use x="130.943359" xlink:href="#DejaVuSans-73"/>
     <use x="183.042969" xlink:href="#DejaVuSans-75"/>
     <use x="246.421875" xlink:href="#DejaVuSans-6c"/>
     <use x="274.205078" xlink:href="#DejaVuSans-74"/>
     <use x="313.414062" xlink:href="#DejaVuSans-73"/>
    </g>
   </g>
   <g id="legend_1">
    <g id="patch_7">
     <path d="M 457.678125 310 
L 641 310 
Q 643 310 643 308 
L 643 264.13125 
Q 643 262.13125 641 262.13125 
L 457.678125 262.13125 
Q 455.678125 262.13125 455.678125 264.13125 
L 455.678125 308 
Q 455.678125 310 457.678125 310 
z
" style="fill:#ffffff;opacity:0.8;stroke:#cccccc;stroke-linejoin:miter;"/>
    </g>
    <g id="line2d_47">
     <path d="M 459.678125 270.229688 
L 479.678125 270.229688 
" style="fill:none;stroke:#1f77b4;stroke-dasharray:;stroke-dashoffset:0;stroke-width:1.5;"/>
    </g>
    <g id="line2d_48"/>
    <g id="text_17">
     <!-- t_shape_sampling.w_factor0.0 -->
     <defs>
      <path d="M 54.890625 33.015625 
L 54.890625 0 
L 45.90625 0 
L 45.90625 32.71875 
Q 45.90625 40.484375 42.875 44.328125 
Q 39.84375 48.1875 33.796875 48.1875 
Q 26.515625 48.1875 22.3125 43.546875 
Q 18.109375 38.921875 18.109375 30.90625 
L 18.109375 0 
L 9.078125 0 
L 9.078125 75.984375 
L 18.109375 75.984375 
L 18.109375 46.1875 
Q 21.34375 51.125 25.703125 53.5625 
Q 30.078125 56 35.796875 56 
Q 45.21875 56 50.046875 50.171875 
Q 54.890625 44.34375 54.890625 33.015625 
z
" id="DejaVuSans-68"/>
      <path d="M 45.40625 27.984375 
Q 45.40625 37.75 41.375 43.109375 
Q 37.359375 48.484375 30.078125 48.484375 
Q 22.859375 48.484375 18.828125 43.109375 
Q 14.796875 37.75 14.796875 27.984375 
Q 14.796875 18.265625 18.828125 12.890625 
Q 22.859375 7.515625 30.078125 7.515625 
Q 37.359375 7.515625 41.375 12.890625 
Q 45.40625 18.265625 45.40625 27.984375 
z
M 54.390625 6.78125 
Q 54.390625 -7.171875 48.1875 -13.984375 
Q 42 -20.796875 29.203125 -20.796875 
Q 24.46875 -20.796875 20.265625 -20.09375 
Q 16.0625 -19.390625 12.109375 -17.921875 
L 12.109375 -9.1875 
Q 16.0625 -11.328125 19.921875 -12.34375 
Q 23.78125 -13.375 27.78125 -13.375 
Q 36.625 -13.375 41.015625 -8.765625 
Q 45.40625 -4.15625 45.40625 5.171875 
L 45.40625 9.625 
Q 42.625 4.78125 38.28125 2.390625 
Q 33.9375 0 27.875 0 
Q 17.828125 0 11.671875 7.65625 
Q 5.515625 15.328125 5.515625 27.984375 
Q 5.515625 40.671875 11.671875 48.328125 
Q 17.828125 56 27.875 56 
Q 33.9375 56 38.28125 53.609375 
Q 42.625 51.21875 45.40625 46.390625 
L 45.40625 54.6875 
L 54.390625 54.6875 
z
" id="DejaVuSans-67"/>
      <path d="M 10.6875 12.40625 
L 21 12.40625 
L 21 0 
L 10.6875 0 
z
" id="DejaVuSans-2e"/>
      <path d="M 37.109375 75.984375 
L 37.109375 68.5 
L 28.515625 68.5 
Q 23.6875 68.5 21.796875 66.546875 
Q 19.921875 64.59375 19.921875 59.515625 
L 19.921875 54.6875 
L 34.71875 54.6875 
L 34.71875 47.703125 
L 19.921875 47.703125 
L 19.921875 0 
L 10.890625 0 
L 10.890625 47.703125 
L 2.296875 47.703125 
L 2.296875 54.6875 
L 10.890625 54.6875 
L 10.890625 58.5 
Q 10.890625 67.625 15.140625 71.796875 
Q 19.390625 75.984375 28.609375 75.984375 
z
" id="DejaVuSans-66"/>
      <path d="M 48.78125 52.59375 
L 48.78125 44.1875 
Q 44.96875 46.296875 41.140625 47.34375 
Q 37.3125 48.390625 33.40625 48.390625 
Q 24.65625 48.390625 19.8125 42.84375 
Q 14.984375 37.3125 14.984375 27.296875 
Q 14.984375 17.28125 19.8125 11.734375 
Q 24.65625 6.203125 33.40625 6.203125 
Q 37.3125 6.203125 41.140625 7.25 
Q 44.96875 8.296875 48.78125 10.40625 
L 48.78125 2.09375 
Q 45.015625 0.34375 40.984375 -0.53125 
Q 36.96875 -1.421875 32.421875 -1.421875 
Q 20.0625 -1.421875 12.78125 6.34375 
Q 5.515625 14.109375 5.515625 27.296875 
Q 5.515625 40.671875 12.859375 48.328125 
Q 20.21875 56 33.015625 56 
Q 37.15625 56 41.109375 55.140625 
Q 45.0625 54.296875 48.78125 52.59375 
z
" id="DejaVuSans-63"/>
     </defs>
     <g transform="translate(487.678125 273.729688)scale(0.1 -0.1)">
      <use xlink:href="#DejaVuSans-74"/>
      <use x="39.208984" xlink:href="#DejaVuSans-5f"/>
      <use x="89.208984" xlink:href="#DejaVuSans-73"/>
      <use x="141.308594" xlink:href="#DejaVuSans-68"/>
      <use x="204.6875" xlink:href="#DejaVuSans-61"/>
      <use x="265.966797" xlink:href="#DejaVuSans-70"/>
      <use x="329.443359" xlink:href="#DejaVuSans-65"/>
      <use x="390.966797" xlink:href="#DejaVuSans-5f"/>
      <use x="440.966797" xlink:href="#DejaVuSans-73"/>
      <use x="493.066406" xlink:href="#DejaVuSans-61"/>
      <use x="554.345703" xlink:href="#DejaVuSans-6d"/>
      <use x="651.757812" xlink:href="#DejaVuSans-70"/>
      <use x="715.234375" xlink:href="#DejaVuSans-6c"/>
      <use x="743.017578" xlink:href="#DejaVuSans-69"/>
      <use x="770.800781" xlink:href="#DejaVuSans-6e"/>
      <use x="834.179688" xlink:href="#DejaVuSans-67"/>
      <use x="897.65625" xlink:href="#DejaVuSans-2e"/>
      <use x="929.443359" xlink:href="#DejaVuSans-77"/>
      <use x="1011.230469" xlink:href="#DejaVuSans-5f"/>
      <use x="1061.230469" xlink:href="#DejaVuSans-66"/>
      <use x="1096.435547" xlink:href="#DejaVuSans-61"/>
      <use x="1157.714844" xlink:href="#DejaVuSans-63"/>
      <use x="1212.695312" xlink:href="#DejaVuSans-74"/>
      <use x="1251.904297" xlink:href="#DejaVuSans-6f"/>
      <use x="1313.085938" xlink:href="#DejaVuSans-72"/>
      <use x="1354.199219" xlink:href="#DejaVuSans-30"/>
      <use x="1417.822266" xlink:href="#DejaVuSans-2e"/>
      <use x="1449.609375" xlink:href="#DejaVuSans-30"/>
     </g>
    </g>
    <g id="line2d_49">
     <path d="M 459.678125 285.185938 
L 479.678125 285.185938 
" style="fill:none;stroke:#ff7f0e;stroke-dasharray:1.5,1.5;stroke-dashoffset:0;stroke-width:1.5;"/>
    </g>
    <g id="line2d_50"/>
    <g id="text_18">
     <!-- t_shape_sampling.w_factor0.5 -->
     <g transform="translate(487.678125 288.685938)scale(0.1 -0.1)">
      <use xlink:href="#DejaVuSans-74"/>
      <use x="39.208984" xlink:href="#DejaVuSans-5f"/>
      <use x="89.208984" xlink:href="#DejaVuSans-73"/>
      <use x="141.308594" xlink:href="#DejaVuSans-68"/>
      <use x="204.6875" xlink:href="#DejaVuSans-61"/>
      <use x="265.966797" xlink:href="#DejaVuSans-70"/>
      <use x="329.443359" xlink:href="#DejaVuSans-65"/>
      <use x="390.966797" xlink:href="#DejaVuSans-5f"/>
      <use x="440.966797" xlink:href="#DejaVuSans-73"/>
      <use x="493.066406" xlink:href="#DejaVuSans-61"/>
      <use x="554.345703" xlink:href="#DejaVuSans-6d"/>
      <use x="651.757812" xlink:href="#DejaVuSans-70"/>
      <use x="715.234375" xlink:href="#DejaVuSans-6c"/>
      <use x="743.017578" xlink:href="#DejaVuSans-69"/>
      <use x="770.800781" xlink:href="#DejaVuSans-6e"/>
      <use x="834.179688" xlink:href="#DejaVuSans-67"/>
      <use x="897.65625" xlink:href="#DejaVuSans-2e"/>
      <use x="929.443359" xlink:href="#DejaVuSans-77"/>
      <use x="1011.230469" xlink:href="#DejaVuSans-5f"/>
      <use x="1061.230469" xlink:href="#DejaVuSans-66"/>
      <use x="1096.435547" xlink:href="#DejaVuSans-61"/>
      <use x="1157.714844" xlink:href="#DejaVuSans-63"/>
      <use x="1212.695312" xlink:href="#DejaVuSans-74"/>
      <use x="1251.904297" xlink:href="#DejaVuSans-6f"/>
      <use x="1313.085938" xlink:href="#DejaVuSans-72"/>
      <use x="1354.199219" xlink:href="#DejaVuSans-30"/>
      <use x="1417.822266" xlink:href="#DejaVuSans-2e"/>
      <use x="1449.609375" xlink:href="#DejaVuSans-35"/>
     </g>
    </g>
    <g id="line2d_51">
     <path d="M 459.678125 300.142187 
L 479.678125 300.142187 
" style="fill:none;stroke:#2ca02c;stroke-dasharray:7.5,1.5;stroke-dashoffset:0;stroke-width:1.5;"/>
    </g>
    <g id="line2d_52"/>
    <g id="text_19">
     <!-- t_shape_sampling.w_factor1.0 -->
     <g transform="translate(487.678125 303.642187)scale(0.1 -0.1)">
      <use xlink:href="#DejaVuSans-74"/>
      <use x="39.208984" xlink:href="#DejaVuSans-5f"/>
      <use x="89.208984" xlink:href="#DejaVuSans-73"/>
      <use x="141.308594" xlink:href="#DejaVuSans-68"/>
      <use x="204.6875" xlink:href="#DejaVuSans-61"/>
      <use x="265.966797" xlink:href="#DejaVuSans-70"/>
      <use x="329.443359" xlink:href="#DejaVuSans-65"/>
      <use x="390.966797" xlink:href="#DejaVuSans-5f"/>
      <use x="440.966797" xlink:href="#DejaVuSans-73"/>
      <use x="493.066406" xlink:href="#DejaVuSans-61"/>
      <use x="554.345703" xlink:href="#DejaVuSans-6d"/>
      <use x="651.757812" xlink:href="#DejaVuSans-70"/>
      <use x="715.234375" xlink:href="#DejaVuSans-6c"/>
      <use x="743.017578" xlink:href="#DejaVuSans-69"/>
      <use x="770.800781" xlink:href="#DejaVuSans-6e"/>
      <use x="834.179688" xlink:href="#DejaVuSans-67"/>
      <use x="897.65625" xlink:href="#DejaVuSans-2e"/>
      <use x="929.443359" xlink:href="#DejaVuSans-77"/>
      <use x="1011.230469" xlink:href="#DejaVuSans-5f"/>
      <use x="1061.230469" xlink:href="#DejaVuSans-66"/>
      <use x="1096.435547" xlink:href="#DejaVuSans-61"/>
      <use x="1157.714844" xlink:href="#DejaVuSans-63"/>
      <use x="1212.695312" xlink:href="#DejaVuSans-74"/>
      <use x="1251.904297" xlink:href="#DejaVuSans-6f"/>
      <use x="1313.085938" xlink:href="#DejaVuSans-72"/>
      <use x="1354.199219" xlink:href="#DejaVuSans-31"/>
      <use x="1417.822266" xlink:href="#DejaVuSans-2e"/>
      <use x="1449.609375" xlink:href="#DejaVuSans-30"/>
     </g>
    </g>
   </g>
  </g>
 </g>
 <defs>
  <clipPath id="p3b9578b932">
   <rect height="271.8" width="558" x="90" y="43.2"/>
  </clipPath>
 </defs>
</svg>
